<?xml version="1.0" encoding="us-ascii" standalone="no"?><svg xmlns="http://www.w3.org/2000/svg" xmlns:xlink="http://www.w3.org/1999/xlink" contentStyleType="text/css" height="397px" preserveAspectRatio="none" style="width:337px;height:397px;background:#FFFFFF;" version="1.1" viewBox="0 0 337 397" width="337px" zoomAndPan="magnify"><defs/><g><!--cluster medipro.gui.frame--><g id="cluster_medipro.gui.frame"><path d="M55.5,235.66 L184.5,235.66 A3.75,3.75 0 0 1 187,238.16 L194,259.2694 L280.5,259.2694 A2.5,2.5 0 0 1 283,261.7694 L283,368.38 A2.5,2.5 0 0 1 280.5,370.88 L55.5,370.88 A2.5,2.5 0 0 1 53,368.38 L53,238.16 A2.5,2.5 0 0 1 55.5,235.66 " fill="none" style="stroke:#000000;stroke-width:1.5;"/><line style="stroke:#000000;stroke-width:1.5;" x1="53" x2="194" y1="259.2694" y2="259.2694"/><text fill="#000000" font-family="sans-serif" font-size="14" font-weight="bold" lengthAdjust="spacing" textLength="128" x="57" y="252.1932">medipro.gui.frame</text></g><!--cluster javax.swing--><g id="cluster_javax.swing"><path d="M8.5,6 L91.5,6 A3.75,3.75 0 0 1 94,8.5 L101,29.6094 L327.5,29.6094 A2.5,2.5 0 0 1 330,32.1094 L330,209.16 A2.5,2.5 0 0 1 327.5,211.66 L8.5,211.66 A2.5,2.5 0 0 1 6,209.16 L6,8.5 A2.5,2.5 0 0 1 8.5,6 " fill="none" style="stroke:#000000;stroke-width:1.5;"/><line style="stroke:#000000;stroke-width:1.5;" x1="6" x2="101" y1="29.6094" y2="29.6094"/><text fill="#000000" font-family="sans-serif" font-size="14" font-weight="bold" lengthAdjust="spacing" textLength="82" x="10" y="22.5332">javax.swing</text></g><!--class GameFrame--><a href="GameFrame.html" target="_top" title="GameFrame.html" xlink:actuate="onRequest" xlink:href="GameFrame.html" xlink:show="new" xlink:title="GameFrame.html" xlink:type="simple"><g id="elem_GameFrame"><rect codeLine="5" fill="#F1F1F1" height="83.2188" id="GameFrame" rx="2.5" ry="2.5" style="stroke:#181818;stroke-width:0.5;" width="198" x="69" y="271.66"/><ellipse cx="124.25" cy="287.66" fill="#ADD1B2" rx="11" ry="11" style="stroke:#181818;stroke-width:1.0;"/><path d="M127.0156,283.535 Q127.1719,283.3162 127.3594,283.2069 Q127.5469,283.0975 127.7656,283.0975 Q128.1406,283.0975 128.375,283.3631 Q128.6094,283.6131 128.6094,284.2225 L128.6094,285.6756 Q128.6094,286.285 128.375,286.5506 Q128.1406,286.8162 127.7656,286.8162 Q127.4219,286.8162 127.2188,286.6131 Q127.0156,286.4256 126.9063,285.91 Q126.8594,285.5506 126.6719,285.3631 Q126.3438,284.9881 125.7344,284.7694 Q125.125,284.5506 124.5,284.5506 Q123.7344,284.5506 123.0938,284.8787 Q122.4688,285.2069 121.9688,285.9569 Q121.4844,286.7069 121.4844,287.7381 L121.4844,288.8319 Q121.4844,290.0662 122.375,290.8944 Q123.2656,291.7069 124.8594,291.7069 Q125.7969,291.7069 126.4531,291.4569 Q126.8438,291.3006 127.2656,290.8631 Q127.5313,290.5975 127.6719,290.5194 Q127.8281,290.4412 128.0313,290.4412 Q128.3594,290.4412 128.6094,290.7069 Q128.875,290.9569 128.875,291.3006 Q128.875,291.6444 128.5313,292.0506 Q128.0313,292.6287 127.2344,292.9569 Q126.1563,293.41 124.8594,293.41 Q123.3438,293.41 122.1406,292.785 Q121.1563,292.285 120.4688,291.2225 Q119.7813,290.1444 119.7813,288.8631 L119.7813,287.7069 Q119.7813,286.3787 120.3906,285.2381 Q121.0156,284.0819 122.1094,283.4725 Q123.2031,282.8475 124.4375,282.8475 Q125.1719,282.8475 125.8125,283.0194 Q126.4688,283.1756 127.0156,283.535 Z " fill="#000000"/><text fill="#000000" font-family="sans-serif" font-size="14" lengthAdjust="spacing" textLength="79" x="144.75" y="293.3885">GameFrame</text><line style="stroke:#181818;stroke-width:0.5;" x1="70" x2="266" y1="303.66" y2="303.66"/><polygon fill="none" points="80,312.9647,84,316.9647,80,320.9647,76,316.9647" style="stroke:#B38D22;stroke-width:1.0;"/><text fill="#000000" font-family="sans-serif" font-size="14" lengthAdjust="spacing" textLength="93" x="89" y="322.1932">logger: Logger</text><line style="stroke:#181818;stroke-width:0.5;" x1="70" x2="266" y1="329.2694" y2="329.2694"/><ellipse cx="80" cy="343.5741" fill="#84BE84" rx="3" ry="3" style="stroke:#038048;stroke-width:1.0;"/><text fill="#000000" font-family="sans-serif" font-size="14" lengthAdjust="spacing" textLength="172" x="89" y="347.8026">GameFrame(String, int, int)</text></g></a><!--class JFrame--><g id="elem_JFrame"><rect codeLine="13" fill="#F1F1F1" height="153.6563" id="JFrame" rx="2.5" ry="2.5" style="stroke:#181818;stroke-width:0.5;" width="292" x="22" y="42"/><ellipse cx="140.25" cy="58" fill="#ADD1B2" rx="11" ry="11" style="stroke:#181818;stroke-width:1.0;"/><path d="M143.0156,53.875 Q143.1719,53.6563 143.3594,53.5469 Q143.5469,53.4375 143.7656,53.4375 Q144.1406,53.4375 144.375,53.7031 Q144.6094,53.9531 144.6094,54.5625 L144.6094,56.0156 Q144.6094,56.625 144.375,56.8906 Q144.1406,57.1563 143.7656,57.1563 Q143.4219,57.1563 143.2188,56.9531 Q143.0156,56.7656 142.9063,56.25 Q142.8594,55.8906 142.6719,55.7031 Q142.3438,55.3281 141.7344,55.1094 Q141.125,54.8906 140.5,54.8906 Q139.7344,54.8906 139.0938,55.2188 Q138.4688,55.5469 137.9688,56.2969 Q137.4844,57.0469 137.4844,58.0781 L137.4844,59.1719 Q137.4844,60.4063 138.375,61.2344 Q139.2656,62.0469 140.8594,62.0469 Q141.7969,62.0469 142.4531,61.7969 Q142.8438,61.6406 143.2656,61.2031 Q143.5313,60.9375 143.6719,60.8594 Q143.8281,60.7813 144.0313,60.7813 Q144.3594,60.7813 144.6094,61.0469 Q144.875,61.2969 144.875,61.6406 Q144.875,61.9844 144.5313,62.3906 Q144.0313,62.9688 143.2344,63.2969 Q142.1563,63.75 140.8594,63.75 Q139.3438,63.75 138.1406,63.125 Q137.1563,62.625 136.4688,61.5625 Q135.7813,60.4844 135.7813,59.2031 L135.7813,58.0469 Q135.7813,56.7188 136.3906,55.5781 Q137.0156,54.4219 138.1094,53.8125 Q139.2031,53.1875 140.4375,53.1875 Q141.1719,53.1875 141.8125,53.3594 Q142.4688,53.5156 143.0156,53.875 Z " fill="#000000"/><text fill="#000000" font-family="sans-serif" font-size="14" lengthAdjust="spacing" textLength="47" x="160.75" y="63.7285">JFrame</text><line style="stroke:#181818;stroke-width:0.5;" x1="23" x2="313" y1="74" y2="74"/><rect fill="none" height="6" style="stroke:#C82930;stroke-width:1.0;" width="6" x="30" y="85.3047"/><text fill="#000000" font-family="sans-serif" font-size="14" lengthAdjust="spacing" text-decoration="underline" textLength="266" x="42" y="92.5332">defaultLookAndFeelDecoratedKey: Object</text><rect fill="none" height="6" style="stroke:#C82930;stroke-width:1.0;" width="6" x="30" y="102.9141"/><text fill="#000000" font-family="sans-serif" font-size="14" lengthAdjust="spacing" textLength="165" x="42" y="110.1426">defaultCloseOperation: int</text><rect fill="none" height="6" style="stroke:#C82930;stroke-width:1.0;" width="6" x="30" y="120.5234"/><text fill="#000000" font-family="sans-serif" font-size="14" lengthAdjust="spacing" textLength="209" x="42" y="127.752">transferHandler: TransferHandler</text><polygon fill="none" points="33,136.1328,37,140.1328,33,144.1328,29,140.1328" style="stroke:#B38D22;stroke-width:1.0;"/><text fill="#000000" font-family="sans-serif" font-size="14" lengthAdjust="spacing" textLength="135" x="42" y="145.3613">rootPane: JRootPane</text><polygon fill="none" points="33,153.7422,37,157.7422,33,161.7422,29,157.7422" style="stroke:#B38D22;stroke-width:1.0;"/><text fill="#000000" font-family="sans-serif" font-size="14" lengthAdjust="spacing" textLength="228" x="42" y="162.9707">rootPaneCheckingEnabled: boolean</text><polygon fill="none" points="33,171.3516,37,175.3516,33,179.3516,29,175.3516" style="stroke:#B38D22;stroke-width:1.0;"/><text fill="#000000" font-family="sans-serif" font-size="14" lengthAdjust="spacing" textLength="237" x="42" y="180.5801">accessibleContext: AccessibleContext</text><line style="stroke:#181818;stroke-width:0.5;" x1="23" x2="313" y1="187.6563" y2="187.6563"/></g><!--reverse link JFrame to GameFrame--><g id="link_JFrame_GameFrame"><path codeLine="23" d="M168,213.89 C168,239.63 168,249.38 168,271.33 " fill="none" id="JFrame-backto-GameFrame" style="stroke:#181818;stroke-width:1.0;"/><polygon fill="none" points="168,195.89,162,213.89,174,213.89,168,195.89" style="stroke:#181818;stroke-width:1.0;"/></g><text fill="#888888" font-family="sans-serif" font-size="10" lengthAdjust="spacing" textLength="184" x="69.5" y="387.2609">UMLDoclet 2.1.1, PlantUML 1.2023.12</text><!--SRC=[RL9DQm8n5BpxAnwKWb9TiCVGYsXjiHQb7oVnyCo-NQCnMP9eBTR_tkTgbqtRG3wOpEHD9W40y1Iu5-WmM0T2D1eCGe5oZJd1Xb9LE9laMvLa3ZS4XpFXrAH6x-61qM6vDPjLwsGPDde-PpRKsfMsUKvEmBYSexsRIjjy3KwPl0tAX79eLSJZkVWnDhd27UuJ_y6YMi6pkz7muhfUw-031YMFq4afmwqEOslNFPCEYVI0fEKiA7sYJm6JnOfaYCG_chwsdYO5CLbP8qv6OrvmQ7n6xX5Dga-tVek1E1fdRPYY8G6ZbyloVq9_INBDLxqtkD2K2bXOgmbDp4OfoNl5ZBurWVP1GEytL8krbcejJI4kyTrzTJf__u8GrPkLIabyh8ECZVBq_ZmUMAdvUzqctQJRXgb64nY5wnqvpvarMzy0]--></g></svg>