<?xml version="1.0" encoding="us-ascii" standalone="no"?><svg xmlns="http://www.w3.org/2000/svg" xmlns:xlink="http://www.w3.org/1999/xlink" contentStyleType="text/css" height="397px" preserveAspectRatio="none" style="width:448px;height:397px;background:#FFFFFF;" version="1.1" viewBox="0 0 448 397" width="448px" zoomAndPan="magnify"><defs/><g><!--cluster medipro.world--><g id="cluster_medipro.world"><path d="M8.5,235.66 L110.5,235.66 A3.75,3.75 0 0 1 113,238.16 L120,259.2694 L438.5,259.2694 A2.5,2.5 0 0 1 441,261.7694 L441,368.38 A2.5,2.5 0 0 1 438.5,370.88 L8.5,370.88 A2.5,2.5 0 0 1 6,368.38 L6,238.16 A2.5,2.5 0 0 1 8.5,235.66 " fill="none" style="stroke:#000000;stroke-width:1.5;"/><line style="stroke:#000000;stroke-width:1.5;" x1="6" x2="120" y1="259.2694" y2="259.2694"/><text fill="#000000" font-family="sans-serif" font-size="14" font-weight="bold" lengthAdjust="spacing" textLength="101" x="10" y="252.1932">medipro.world</text></g><!--cluster medipro.object.base--><g id="cluster_medipro.object.base"><path d="M32.5,6 L177.5,6 A3.75,3.75 0 0 1 180,8.5 L187,29.6094 L379.5,29.6094 A2.5,2.5 0 0 1 382,32.1094 L382,209.16 A2.5,2.5 0 0 1 379.5,211.66 L32.5,211.66 A2.5,2.5 0 0 1 30,209.16 L30,8.5 A2.5,2.5 0 0 1 32.5,6 " fill="none" style="stroke:#000000;stroke-width:1.5;"/><line style="stroke:#000000;stroke-width:1.5;" x1="30" x2="187" y1="29.6094" y2="29.6094"/><text fill="#000000" font-family="sans-serif" font-size="14" font-weight="bold" lengthAdjust="spacing" textLength="144" x="34" y="22.5332">medipro.object.base</text></g><!--class GLWorld--><a href="GLWorld.html" target="_top" title="GLWorld.html" xlink:actuate="onRequest" xlink:href="GLWorld.html" xlink:show="new" xlink:title="GLWorld.html" xlink:type="simple"><g id="elem_GLWorld"><rect codeLine="5" fill="#F1F1F1" height="83.2188" id="GLWorld" rx="2.5" ry="2.5" style="stroke:#181818;stroke-width:0.5;" width="184" x="241" y="271.66"/><ellipse cx="300.75" cy="287.66" fill="#ADD1B2" rx="11" ry="11" style="stroke:#181818;stroke-width:1.0;"/><path d="M303.5156,283.535 Q303.6719,283.3162 303.8594,283.2069 Q304.0469,283.0975 304.2656,283.0975 Q304.6406,283.0975 304.875,283.3631 Q305.1094,283.6131 305.1094,284.2225 L305.1094,285.6756 Q305.1094,286.285 304.875,286.5506 Q304.6406,286.8162 304.2656,286.8162 Q303.9219,286.8162 303.7188,286.6131 Q303.5156,286.4256 303.4063,285.91 Q303.3594,285.5506 303.1719,285.3631 Q302.8438,284.9881 302.2344,284.7694 Q301.625,284.5506 301,284.5506 Q300.2344,284.5506 299.5938,284.8787 Q298.9688,285.2069 298.4688,285.9569 Q297.9844,286.7069 297.9844,287.7381 L297.9844,288.8319 Q297.9844,290.0662 298.875,290.8944 Q299.7656,291.7069 301.3594,291.7069 Q302.2969,291.7069 302.9531,291.4569 Q303.3438,291.3006 303.7656,290.8631 Q304.0313,290.5975 304.1719,290.5194 Q304.3281,290.4412 304.5313,290.4412 Q304.8594,290.4412 305.1094,290.7069 Q305.375,290.9569 305.375,291.3006 Q305.375,291.6444 305.0313,292.0506 Q304.5313,292.6287 303.7344,292.9569 Q302.6563,293.41 301.3594,293.41 Q299.8438,293.41 298.6406,292.785 Q297.6563,292.285 296.9688,291.2225 Q296.2813,290.1444 296.2813,288.8631 L296.2813,287.7069 Q296.2813,286.3787 296.8906,285.2381 Q297.5156,284.0819 298.6094,283.4725 Q299.7031,282.8475 300.9375,282.8475 Q301.6719,282.8475 302.3125,283.0194 Q302.9688,283.1756 303.5156,283.535 Z " fill="#000000"/><text fill="#000000" font-family="sans-serif" font-size="14" lengthAdjust="spacing" textLength="56" x="321.25" y="293.3885">GLWorld</text><line style="stroke:#181818;stroke-width:0.5;" x1="242" x2="424" y1="303.66" y2="303.66"/><line style="stroke:#181818;stroke-width:0.5;" x1="242" x2="424" y1="311.66" y2="311.66"/><ellipse cx="252" cy="325.9647" fill="#84BE84" rx="3" ry="3" style="stroke:#038048;stroke-width:1.0;"/><text fill="#000000" font-family="sans-serif" font-size="14" lengthAdjust="spacing" textLength="108" x="261" y="330.1932">GLWorld(JPanel)</text><ellipse cx="252" cy="343.5741" fill="#84BE84" rx="3" ry="3" style="stroke:#038048;stroke-width:1.0;"/><text fill="#000000" font-family="sans-serif" font-size="14" lengthAdjust="spacing" textLength="158" x="261" y="347.8026">setupWorld(JPanel): void</text></g></a><!--class TestWorld--><a href="TestWorld.html" target="_top" title="TestWorld.html" xlink:actuate="onRequest" xlink:href="TestWorld.html" xlink:show="new" xlink:title="TestWorld.html" xlink:type="simple"><g id="elem_TestWorld"><rect codeLine="10" fill="#F1F1F1" height="83.2188" id="TestWorld" rx="2.5" ry="2.5" style="stroke:#181818;stroke-width:0.5;" width="184" x="22" y="271.66"/><ellipse cx="77.25" cy="287.66" fill="#ADD1B2" rx="11" ry="11" style="stroke:#181818;stroke-width:1.0;"/><path d="M80.0156,283.535 Q80.1719,283.3162 80.3594,283.2069 Q80.5469,283.0975 80.7656,283.0975 Q81.1406,283.0975 81.375,283.3631 Q81.6094,283.6131 81.6094,284.2225 L81.6094,285.6756 Q81.6094,286.285 81.375,286.5506 Q81.1406,286.8162 80.7656,286.8162 Q80.4219,286.8162 80.2188,286.6131 Q80.0156,286.4256 79.9063,285.91 Q79.8594,285.5506 79.6719,285.3631 Q79.3438,284.9881 78.7344,284.7694 Q78.125,284.5506 77.5,284.5506 Q76.7344,284.5506 76.0938,284.8787 Q75.4688,285.2069 74.9688,285.9569 Q74.4844,286.7069 74.4844,287.7381 L74.4844,288.8319 Q74.4844,290.0662 75.375,290.8944 Q76.2656,291.7069 77.8594,291.7069 Q78.7969,291.7069 79.4531,291.4569 Q79.8438,291.3006 80.2656,290.8631 Q80.5313,290.5975 80.6719,290.5194 Q80.8281,290.4412 81.0313,290.4412 Q81.3594,290.4412 81.6094,290.7069 Q81.875,290.9569 81.875,291.3006 Q81.875,291.6444 81.5313,292.0506 Q81.0313,292.6287 80.2344,292.9569 Q79.1563,293.41 77.8594,293.41 Q76.3438,293.41 75.1406,292.785 Q74.1563,292.285 73.4688,291.2225 Q72.7813,290.1444 72.7813,288.8631 L72.7813,287.7069 Q72.7813,286.3787 73.3906,285.2381 Q74.0156,284.0819 75.1094,283.4725 Q76.2031,282.8475 77.4375,282.8475 Q78.1719,282.8475 78.8125,283.0194 Q79.4688,283.1756 80.0156,283.535 Z " fill="#000000"/><text fill="#000000" font-family="sans-serif" font-size="14" lengthAdjust="spacing" textLength="65" x="97.75" y="293.3885">TestWorld</text><line style="stroke:#181818;stroke-width:0.5;" x1="23" x2="205" y1="303.66" y2="303.66"/><line style="stroke:#181818;stroke-width:0.5;" x1="23" x2="205" y1="311.66" y2="311.66"/><ellipse cx="33" cy="325.9647" fill="#84BE84" rx="3" ry="3" style="stroke:#038048;stroke-width:1.0;"/><text fill="#000000" font-family="sans-serif" font-size="14" lengthAdjust="spacing" textLength="117" x="42" y="330.1932">TestWorld(JPanel)</text><ellipse cx="33" cy="343.5741" fill="#84BE84" rx="3" ry="3" style="stroke:#038048;stroke-width:1.0;"/><text fill="#000000" font-family="sans-serif" font-size="14" lengthAdjust="spacing" textLength="158" x="42" y="347.8026">setupWorld(JPanel): void</text></g></a><!--class World--><a href="..\object\base\World.html" target="_top" title="..\object\base\World.html" xlink:actuate="onRequest" xlink:href="..\object\base\World.html" xlink:show="new" xlink:title="..\object\base\World.html" xlink:type="simple"><g id="elem_World"><rect codeLine="18" fill="#F1F1F1" height="153.6563" id="World" rx="2.5" ry="2.5" style="stroke:#181818;stroke-width:0.5;" width="320" x="46" y="42"/><ellipse cx="182.75" cy="58" fill="#A9DCDF" rx="11" ry="11" style="stroke:#181818;stroke-width:1.0;"/><path d="M184.9375,59.7656 L180.7969,59.7656 L180.375,60.7969 L180.7969,60.7969 Q181.4063,60.7969 181.6719,61.0313 Q181.9375,61.2656 181.9375,61.6563 Q181.9375,62.0313 181.6719,62.2656 Q181.4063,62.5 180.7969,62.5 L178.5,62.5 Q177.8906,62.5 177.6406,62.2656 Q177.375,62.0313 177.375,61.6406 Q177.375,61.2656 177.6563,61.0313 Q177.9219,60.7813 178.5469,60.7969 L181.2188,54.1406 L180.1094,54.1406 Q179.5,54.1406 179.2344,53.9063 Q178.9688,53.6719 178.9688,53.2813 Q178.9688,52.9063 179.2344,52.6719 Q179.5,52.4375 180.1094,52.4375 L183.7813,52.4375 L187.1719,60.7969 Q187.7656,60.7969 187.9531,60.9375 Q188.3438,61.2031 188.3438,61.6563 Q188.3438,62.0313 188.0781,62.2656 Q187.8281,62.5 187.2188,62.5 L184.9219,62.5 Q184.3125,62.5 184.0469,62.2656 Q183.7813,62.0313 183.7813,61.6406 Q183.7813,61.2656 184.0469,61.0313 Q184.3125,60.7969 184.9219,60.7969 L185.3438,60.7969 L184.9375,59.7656 Z M184.2188,58.0625 L182.8594,54.6875 L181.4844,58.0625 L184.2188,58.0625 Z " fill="#000000"/><text fill="#000000" font-family="sans-serif" font-size="14" font-style="italic" lengthAdjust="spacing" textLength="38" x="203.25" y="63.7285">World</text><line style="stroke:#181818;stroke-width:0.5;" x1="47" x2="365" y1="74" y2="74"/><polygon fill="none" points="57,83.3047,61,87.3047,57,91.3047,53,87.3047" style="stroke:#B38D22;stroke-width:1.0;"/><text fill="#000000" font-family="sans-serif" font-size="14" lengthAdjust="spacing" textLength="93" x="66" y="92.5332">logger: Logger</text><ellipse cx="57" cy="105.9141" fill="none" rx="3" ry="3" style="stroke:#038048;stroke-width:1.0;"/><text fill="#000000" font-family="sans-serif" font-size="14" lengthAdjust="spacing" textLength="287" x="66" y="110.1426">controllers: ArrayList&lt;GameObjectController&gt;</text><ellipse cx="57" cy="123.5234" fill="none" rx="3" ry="3" style="stroke:#038048;stroke-width:1.0;"/><text fill="#000000" font-family="sans-serif" font-size="14" lengthAdjust="spacing" textLength="294" x="66" y="127.752">views: ArrayList&lt;ArrayList&lt;GameObjectView&gt;&gt;</text><ellipse cx="57" cy="141.1328" fill="none" rx="3" ry="3" style="stroke:#038048;stroke-width:1.0;"/><text fill="#000000" font-family="sans-serif" font-size="14" lengthAdjust="spacing" textLength="85" x="66" y="145.3613">panel: JPanel</text><ellipse cx="57" cy="158.7422" fill="none" rx="3" ry="3" style="stroke:#038048;stroke-width:1.0;"/><text fill="#000000" font-family="sans-serif" font-size="14" lengthAdjust="spacing" textLength="212" x="66" y="162.9707">camera: Optional&lt;CameraModel&gt;</text><line style="stroke:#181818;stroke-width:0.5;" x1="47" x2="365" y1="170.0469" y2="170.0469"/><ellipse cx="57" cy="184.3516" fill="#84BE84" rx="3" ry="3" style="stroke:#038048;stroke-width:1.0;"/><text fill="#000000" font-family="sans-serif" font-size="14" font-style="italic" lengthAdjust="spacing" textLength="159" x="66" y="188.5801">setupWorld(JPanel): void</text></g></a><!--reverse link World to GLWorld--><g id="link_World_GLWorld"><path codeLine="28" d="M266.1058,210.9125 C283.0958,236.6525 291.5,249.38 305.98,271.33 " fill="none" id="World-backto-GLWorld" style="stroke:#181818;stroke-width:1.0;"/><polygon fill="none" points="256.19,195.89,261.0983,214.2178,271.1133,207.6073,256.19,195.89" style="stroke:#181818;stroke-width:1.0;"/></g><!--reverse link World to TestWorld--><g id="link_World_TestWorld"><path codeLine="29" d="M161.874,212.1285 C149.564,237.8685 144.07,249.38 133.57,271.33 " fill="none" id="World-backto-TestWorld" style="stroke:#181818;stroke-width:1.0;"/><polygon fill="none" points="169.64,195.89,156.4612,209.5399,167.2869,214.7172,169.64,195.89" style="stroke:#181818;stroke-width:1.0;"/></g><text fill="#888888" font-family="sans-serif" font-size="10" lengthAdjust="spacing" textLength="184" x="125" y="387.2609">UMLDoclet 2.1.1, PlantUML 1.2023.12</text><!--SRC=[fLDDQm8n4BtxAmPAGMaDs6CGGIm8PKKF_JYeXp4xjTl6dIL9bMBzxyr-OiIMqWQMX7dlPTw-dGK0iEJyaw51nmQaRBLy4J9KRxWcs52SP8R5ZesEOL-2-L8QhOLnz5G0ytbr4YzkevTBpuIZTLMXxRiPfgGx8UWTl6S1Bc7BITom3gTjxycwkd5p_gPrW_-l-U5yBhnw9UN42YqTDSQLTGQLg-pMLeLObFn5pb_yuFf2ytfDHa9KxA5bnQaph3KPAs5e37v4YNNzCMveMbm_QWY3KBbDQ1TepgaVFMbm8ipoP2IK2PsuyKA34gQPIpX5tHyLXGd7fCDRzdKiXr_5VfJwcRIbB5FjVtQxuPHAMKtRNwJDj1HYHQaZ0y_C-VOmYMvPQV-_t8YUw5t3J6FgV1Kkj_vR-BTlTxu0]--></g></svg>