<?xml version="1.0" encoding="us-ascii" standalone="no"?><svg xmlns="http://www.w3.org/2000/svg" xmlns:xlink="http://www.w3.org/1999/xlink" contentStyleType="text/css" height="242px" preserveAspectRatio="none" style="width:200px;height:242px;background:#FFFFFF;" version="1.1" viewBox="0 0 200 242" width="200px" zoomAndPan="magnify"><defs/><g><!--class medipro.object.ornament.marker.MarkerModel--><a href="MarkerModel.html" target="_top" title="MarkerModel.html" xlink:actuate="onRequest" xlink:href="MarkerModel.html" xlink:show="new" xlink:title="MarkerModel.html" xlink:type="simple"><g id="elem_medipro.object.ornament.marker.MarkerModel"><rect codeLine="5" fill="#F1F1F1" height="109.0156" id="medipro.object.ornament.marker.MarkerModel" rx="2.5" ry="2.5" style="stroke:#181818;stroke-width:0.5;" width="186" x="7" y="107.18"/><ellipse cx="22" cy="127.2737" fill="#ADD1B2" rx="11" ry="11" style="stroke:#181818;stroke-width:1.0;"/><path d="M24.7656,123.1488 Q24.9219,122.93 25.1094,122.8206 Q25.2969,122.7113 25.5156,122.7113 Q25.8906,122.7113 26.125,122.9769 Q26.3594,123.2269 26.3594,123.8363 L26.3594,125.2894 Q26.3594,125.8988 26.125,126.1644 Q25.8906,126.43 25.5156,126.43 Q25.1719,126.43 24.9688,126.2269 Q24.7656,126.0394 24.6563,125.5238 Q24.6094,125.1644 24.4219,124.9769 Q24.0938,124.6019 23.4844,124.3831 Q22.875,124.1644 22.25,124.1644 Q21.4844,124.1644 20.8438,124.4925 Q20.2188,124.8206 19.7188,125.5706 Q19.2344,126.3206 19.2344,127.3519 L19.2344,128.4456 Q19.2344,129.68 20.125,130.5081 Q21.0156,131.3206 22.6094,131.3206 Q23.5469,131.3206 24.2031,131.0706 Q24.5938,130.9144 25.0156,130.4769 Q25.2813,130.2113 25.4219,130.1331 Q25.5781,130.055 25.7813,130.055 Q26.1094,130.055 26.3594,130.3206 Q26.625,130.5706 26.625,130.9144 Q26.625,131.2581 26.2813,131.6644 Q25.7813,132.2425 24.9844,132.5706 Q23.9063,133.0238 22.6094,133.0238 Q21.0938,133.0238 19.8906,132.3988 Q18.9063,131.8988 18.2188,130.8363 Q17.5313,129.7581 17.5313,128.4769 L17.5313,127.3206 Q17.5313,125.9925 18.1406,124.8519 Q18.7656,123.6956 19.8594,123.0863 Q20.9531,122.4613 22.1875,122.4613 Q22.9219,122.4613 23.5625,122.6331 Q24.2188,122.7894 24.7656,123.1488 Z " fill="#000000"/><text fill="#000000" font-family="sans-serif" font-size="14" lengthAdjust="spacing" textLength="82" x="72" y="126.7132">MarkerModel</text><text fill="#000000" font-family="sans-serif" font-size="10" lengthAdjust="spacing" textLength="154" x="36" y="140.1702">medipro.object.ornament.marker</text><line style="stroke:#181818;stroke-width:0.5;" x1="8" x2="192" y1="147.3675" y2="147.3675"/><ellipse cx="18" cy="161.6722" fill="none" rx="3" ry="3" style="stroke:#038048;stroke-width:1.0;"/><text fill="#000000" font-family="sans-serif" font-size="14" lengthAdjust="spacing" textLength="62" x="27" y="165.9007">radius: int</text><ellipse cx="18" cy="179.2816" fill="none" rx="3" ry="3" style="stroke:#038048;stroke-width:1.0;"/><text fill="#000000" font-family="sans-serif" font-size="14" lengthAdjust="spacing" textLength="73" x="27" y="183.5101">color: Color</text><line style="stroke:#181818;stroke-width:0.5;" x1="8" x2="192" y1="190.5863" y2="190.5863"/><ellipse cx="18" cy="204.8909" fill="#84BE84" rx="3" ry="3" style="stroke:#038048;stroke-width:1.0;"/><text fill="#000000" font-family="sans-serif" font-size="14" lengthAdjust="spacing" textLength="129" x="27" y="209.1195">MarkerModel(World)</text></g></a><!--class medipro.object.base.gameobject.GameObjectModel--><a href="..\..\base\gameobject\GameObjectModel.html" target="_top" title="..\..\base\gameobject\GameObjectModel.html" xlink:actuate="onRequest" xlink:href="..\..\base\gameobject\GameObjectModel.html" xlink:show="new" xlink:title="..\..\base\gameobject\GameObjectModel.html" xlink:type="simple"><g id="elem_medipro.object.base.gameobject.GameObjectModel"><rect codeLine="11" fill="#F1F1F1" height="40.1875" id="medipro.object.base.gameobject.GameObjectModel" rx="2.5" ry="2.5" style="stroke:#181818;stroke-width:0.5;" width="182" x="9" y="7"/><ellipse cx="24" cy="27.0938" fill="#A9DCDF" rx="11" ry="11" style="stroke:#181818;stroke-width:1.0;"/><path d="M26.1875,28.8594 L22.0469,28.8594 L21.625,29.8906 L22.0469,29.8906 Q22.6563,29.8906 22.9219,30.125 Q23.1875,30.3594 23.1875,30.75 Q23.1875,31.125 22.9219,31.3594 Q22.6563,31.5938 22.0469,31.5938 L19.75,31.5938 Q19.1406,31.5938 18.8906,31.3594 Q18.625,31.125 18.625,30.7344 Q18.625,30.3594 18.9063,30.125 Q19.1719,29.875 19.7969,29.8906 L22.4688,23.2344 L21.3594,23.2344 Q20.75,23.2344 20.4844,23 Q20.2188,22.7656 20.2188,22.375 Q20.2188,22 20.4844,21.7656 Q20.75,21.5313 21.3594,21.5313 L25.0313,21.5313 L28.4219,29.8906 Q29.0156,29.8906 29.2031,30.0313 Q29.5938,30.2969 29.5938,30.75 Q29.5938,31.125 29.3281,31.3594 Q29.0781,31.5938 28.4688,31.5938 L26.1719,31.5938 Q25.5625,31.5938 25.2969,31.3594 Q25.0313,31.125 25.0313,30.7344 Q25.0313,30.3594 25.2969,30.125 Q25.5625,29.8906 26.1719,29.8906 L26.5938,29.8906 L26.1875,28.8594 Z M25.4688,27.1563 L24.1094,23.7813 L22.7344,27.1563 L25.4688,27.1563 Z " fill="#000000"/><text fill="#000000" font-family="sans-serif" font-size="14" font-style="italic" lengthAdjust="spacing" textLength="118" x="54" y="26.5332">GameObjectModel</text><text fill="#000000" font-family="sans-serif" font-size="10" font-style="italic" lengthAdjust="spacing" textLength="150" x="38" y="39.9902">medipro.object.base.gameobject</text></g></a><!--reverse link medipro.object.base.gameobject.GameObjectModel to medipro.object.ornament.marker.MarkerModel--><g id="link_medipro.object.base.gameobject.GameObjectModel_medipro.object.ornament.marker.MarkerModel"><path codeLine="13" d="M100,65.66 C100,81.29 100,85.98 100,106.93 " fill="none" id="medipro.object.base.gameobject.GameObjectModel-backto-medipro.object.ornament.marker.MarkerModel" style="stroke:#181818;stroke-width:1.0;"/><polygon fill="none" points="100,47.66,94,65.66,106,65.66,100,47.66" style="stroke:#181818;stroke-width:1.0;"/></g><text fill="#888888" font-family="sans-serif" font-size="10" lengthAdjust="spacing" textLength="184" x="1" y="232.5765">UMLDoclet 2.1.1, PlantUML 1.2023.12</text><!--SRC=[bL9DImCn4BtxAuQ2qA8DhdXQIYyANbmKH3nqUvXDfcuqoIn95FpwxsPt2rsseZG4Xddpc7al4m20G14SMWeDIhgd1Zr6zk3OqL4gGwqL0TacliD6ar5XZ5gADIUumwN1462o2Fg3yknYMQ1_8L-m8bEwBNgsjAHqurbmzKmo2lQj01U5xTWJm01_KyIWBwnMWqpKqPhr6ZuxEUqvyQZqQyX1kxW39HlsELosOOSE6aqVsHirwshVlJciGlGeuvxBwwJjjXFwZzCA0ucdnExptvoEA6BKExaLeaotvPKxNZdYRT-X5txWYCNNV7x00lh5fnfvs32tuQ6ukM9fqjSw5vd8Jk7Ee8i9XUCtya6pcyv-0000]--></g></svg>