<?xml version="1.0" encoding="us-ascii" standalone="no"?><svg xmlns="http://www.w3.org/2000/svg" xmlns:xlink="http://www.w3.org/1999/xlink" contentStyleType="text/css" height="242px" preserveAspectRatio="none" style="width:296px;height:242px;background:#FFFFFF;" version="1.1" viewBox="0 0 296 242" width="296px" zoomAndPan="magnify"><defs/><g><!--class medipro.object.ornament.marker.MarkerController--><a href="MarkerController.html" target="_top" title="MarkerController.html" xlink:actuate="onRequest" xlink:href="MarkerController.html" xlink:show="new" xlink:title="MarkerController.html" xlink:type="simple"><g id="elem_medipro.object.ornament.marker.MarkerController"><rect codeLine="5" fill="#F1F1F1" height="83.4063" id="medipro.object.ornament.marker.MarkerController" rx="2.5" ry="2.5" style="stroke:#181818;stroke-width:0.5;" width="282" x="7" y="132.79"/><ellipse cx="66.75" cy="152.8838" fill="#ADD1B2" rx="11" ry="11" style="stroke:#181818;stroke-width:1.0;"/><path d="M69.5156,148.7588 Q69.6719,148.54 69.8594,148.4306 Q70.0469,148.3213 70.2656,148.3213 Q70.6406,148.3213 70.875,148.5869 Q71.1094,148.8369 71.1094,149.4463 L71.1094,150.8994 Q71.1094,151.5088 70.875,151.7744 Q70.6406,152.04 70.2656,152.04 Q69.9219,152.04 69.7188,151.8369 Q69.5156,151.6494 69.4063,151.1338 Q69.3594,150.7744 69.1719,150.5869 Q68.8438,150.2119 68.2344,149.9931 Q67.625,149.7744 67,149.7744 Q66.2344,149.7744 65.5938,150.1025 Q64.9688,150.4306 64.4688,151.1806 Q63.9844,151.9306 63.9844,152.9619 L63.9844,154.0556 Q63.9844,155.29 64.875,156.1181 Q65.7656,156.9306 67.3594,156.9306 Q68.2969,156.9306 68.9531,156.6806 Q69.3438,156.5244 69.7656,156.0869 Q70.0313,155.8213 70.1719,155.7431 Q70.3281,155.665 70.5313,155.665 Q70.8594,155.665 71.1094,155.9306 Q71.375,156.1806 71.375,156.5244 Q71.375,156.8681 71.0313,157.2744 Q70.5313,157.8525 69.7344,158.1806 Q68.6563,158.6338 67.3594,158.6338 Q65.8438,158.6338 64.6406,158.0088 Q63.6563,157.5088 62.9688,156.4463 Q62.2813,155.3681 62.2813,154.0869 L62.2813,152.9306 Q62.2813,151.6025 62.8906,150.4619 Q63.5156,149.3056 64.6094,148.6963 Q65.7031,148.0713 66.9375,148.0713 Q67.6719,148.0713 68.3125,148.2431 Q68.9688,148.3994 69.5156,148.7588 Z " fill="#000000"/><text fill="#000000" font-family="sans-serif" font-size="14" lengthAdjust="spacing" textLength="106" x="111.25" y="152.3232">MarkerController</text><text fill="#000000" font-family="sans-serif" font-size="10" lengthAdjust="spacing" textLength="154" x="87.25" y="165.7802">medipro.object.ornament.marker</text><line style="stroke:#181818;stroke-width:0.5;" x1="8" x2="288" y1="172.9775" y2="172.9775"/><ellipse cx="18" cy="187.2822" fill="#84BE84" rx="3" ry="3" style="stroke:#038048;stroke-width:1.0;"/><text fill="#000000" font-family="sans-serif" font-size="14" lengthAdjust="spacing" textLength="245" x="27" y="191.5107">MarkerController(GameObjectModel...)</text><ellipse cx="18" cy="204.8916" fill="#84BE84" rx="3" ry="3" style="stroke:#038048;stroke-width:1.0;"/><text fill="#000000" font-family="sans-serif" font-size="14" lengthAdjust="spacing" textLength="256" x="27" y="209.1201">update(GameObjectModel, double): void</text></g></a><!--class medipro.object.base.gameobject.GameObjectController--><a href="..\..\base\gameobject\GameObjectController.html" target="_top" title="..\..\base\gameobject\GameObjectController.html" xlink:actuate="onRequest" xlink:href="..\..\base\gameobject\GameObjectController.html" xlink:show="new" xlink:title="..\..\base\gameobject\GameObjectController.html" xlink:type="simple"><g id="elem_medipro.object.base.gameobject.GameObjectController"><rect codeLine="10" fill="#F1F1F1" height="65.7969" id="medipro.object.base.gameobject.GameObjectController" rx="2.5" ry="2.5" style="stroke:#181818;stroke-width:0.5;" width="282" x="7" y="7"/><ellipse cx="68.75" cy="27.0938" fill="#A9DCDF" rx="11" ry="11" style="stroke:#181818;stroke-width:1.0;"/><path d="M70.9375,28.8594 L66.7969,28.8594 L66.375,29.8906 L66.7969,29.8906 Q67.4063,29.8906 67.6719,30.125 Q67.9375,30.3594 67.9375,30.75 Q67.9375,31.125 67.6719,31.3594 Q67.4063,31.5938 66.7969,31.5938 L64.5,31.5938 Q63.8906,31.5938 63.6406,31.3594 Q63.375,31.125 63.375,30.7344 Q63.375,30.3594 63.6563,30.125 Q63.9219,29.875 64.5469,29.8906 L67.2188,23.2344 L66.1094,23.2344 Q65.5,23.2344 65.2344,23 Q64.9688,22.7656 64.9688,22.375 Q64.9688,22 65.2344,21.7656 Q65.5,21.5313 66.1094,21.5313 L69.7813,21.5313 L73.1719,29.8906 Q73.7656,29.8906 73.9531,30.0313 Q74.3438,30.2969 74.3438,30.75 Q74.3438,31.125 74.0781,31.3594 Q73.8281,31.5938 73.2188,31.5938 L70.9219,31.5938 Q70.3125,31.5938 70.0469,31.3594 Q69.7813,31.125 69.7813,30.7344 Q69.7813,30.3594 70.0469,30.125 Q70.3125,29.8906 70.9219,29.8906 L71.3438,29.8906 L70.9375,28.8594 Z M70.2188,27.1563 L68.8594,23.7813 L67.4844,27.1563 L70.2188,27.1563 Z " fill="#000000"/><text fill="#000000" font-family="sans-serif" font-size="14" font-style="italic" lengthAdjust="spacing" textLength="141" x="93.75" y="26.5332">GameObjectController</text><text fill="#000000" font-family="sans-serif" font-size="10" font-style="italic" lengthAdjust="spacing" textLength="150" x="89.25" y="39.9902">medipro.object.base.gameobject</text><line style="stroke:#181818;stroke-width:0.5;" x1="8" x2="288" y1="47.1875" y2="47.1875"/><ellipse cx="18" cy="61.4922" fill="#84BE84" rx="3" ry="3" style="stroke:#038048;stroke-width:1.0;"/><text fill="#000000" font-family="sans-serif" font-size="14" font-style="italic" lengthAdjust="spacing" textLength="256" x="27" y="65.7207">update(GameObjectModel, double): void</text></g></a><!--reverse link medipro.object.base.gameobject.GameObjectController to medipro.object.ornament.marker.MarkerController--><g id="link_medipro.object.base.gameobject.GameObjectController_medipro.object.ornament.marker.MarkerController"><path codeLine="14" d="M148,90.99 C148,108.93 148,113.46 148,132.65 " fill="none" id="medipro.object.base.gameobject.GameObjectController-backto-medipro.object.ornament.marker.MarkerController" style="stroke:#181818;stroke-width:1.0;"/><polygon fill="none" points="148,72.99,142,90.99,154,90.99,148,72.99" style="stroke:#181818;stroke-width:1.0;"/></g><text fill="#888888" font-family="sans-serif" font-size="10" lengthAdjust="spacing" textLength="184" x="49" y="232.5771">UMLDoclet 2.1.1, PlantUML 1.2023.12</text><!--SRC=[dP9TIyCm58Rl_HM7WR3XTh3YrHYxKV36eY1UhRj8cpCRJNDAaWrqxh-RjaeXAw8BWP0tp_d8cm00EF9WH4Mk5WKzKIsiy6p1iA6pS0obaWHKrVuTDegqTB5QaIyvoArUQE4SZ1PEVT0ykLwcmhwHlM7ZBMjDDZFVHvVBYgIgBIFdhrHuPDjqOJnMRSW8X8FV4OoJmseLIrZwIg_Ni6-xQyP5Z8plGjA7jaBAaZGYJdfwMqlXAMQc87cRQvhCOSTAjlYXSq3apbjH-2Ch-XH_iICNZl0bX7Jx8JiY18SA14iGip0REElXR0W-Dcl_Svl32KwSqkxYSpRxxxDt7oy08Nx3t2pFwVqj5pfyxIjCC9d2enR61nNETsITOZEUV040]--></g></svg>