<?xml version="1.0" encoding="us-ascii" standalone="no"?><svg xmlns="http://www.w3.org/2000/svg" xmlns:xlink="http://www.w3.org/1999/xlink" contentStyleType="text/css" height="242px" preserveAspectRatio="none" style="width:205px;height:242px;background:#FFFFFF;" version="1.1" viewBox="0 0 205 242" width="205px" zoomAndPan="magnify"><defs/><g><!--class medipro.object.ornament.marker.MarkerView--><a href="MarkerView.html" target="_top" title="MarkerView.html" xlink:actuate="onRequest" xlink:href="MarkerView.html" xlink:show="new" xlink:title="MarkerView.html" xlink:type="simple"><g id="elem_medipro.object.ornament.marker.MarkerView"><rect codeLine="5" fill="#F1F1F1" height="83.4063" id="medipro.object.ornament.marker.MarkerView" rx="2.5" ry="2.5" style="stroke:#181818;stroke-width:0.5;" width="191" x="7" y="132.79"/><ellipse cx="24.25" cy="152.8838" fill="#ADD1B2" rx="11" ry="11" style="stroke:#181818;stroke-width:1.0;"/><path d="M27.0156,148.7588 Q27.1719,148.54 27.3594,148.4306 Q27.5469,148.3213 27.7656,148.3213 Q28.1406,148.3213 28.375,148.5869 Q28.6094,148.8369 28.6094,149.4463 L28.6094,150.8994 Q28.6094,151.5088 28.375,151.7744 Q28.1406,152.04 27.7656,152.04 Q27.4219,152.04 27.2188,151.8369 Q27.0156,151.6494 26.9063,151.1338 Q26.8594,150.7744 26.6719,150.5869 Q26.3438,150.2119 25.7344,149.9931 Q25.125,149.7744 24.5,149.7744 Q23.7344,149.7744 23.0938,150.1025 Q22.4688,150.4306 21.9688,151.1806 Q21.4844,151.9306 21.4844,152.9619 L21.4844,154.0556 Q21.4844,155.29 22.375,156.1181 Q23.2656,156.9306 24.8594,156.9306 Q25.7969,156.9306 26.4531,156.6806 Q26.8438,156.5244 27.2656,156.0869 Q27.5313,155.8213 27.6719,155.7431 Q27.8281,155.665 28.0313,155.665 Q28.3594,155.665 28.6094,155.9306 Q28.875,156.1806 28.875,156.5244 Q28.875,156.8681 28.5313,157.2744 Q28.0313,157.8525 27.2344,158.1806 Q26.1563,158.6338 24.8594,158.6338 Q23.3438,158.6338 22.1406,158.0088 Q21.1563,157.5088 20.4688,156.4463 Q19.7813,155.3681 19.7813,154.0869 L19.7813,152.9306 Q19.7813,151.6025 20.3906,150.4619 Q21.0156,149.3056 22.1094,148.6963 Q23.2031,148.0713 24.4375,148.0713 Q25.1719,148.0713 25.8125,148.2431 Q26.4688,148.3994 27.0156,148.7588 Z " fill="#000000"/><text fill="#000000" font-family="sans-serif" font-size="14" lengthAdjust="spacing" textLength="73" x="79.25" y="152.3232">MarkerView</text><text fill="#000000" font-family="sans-serif" font-size="10" lengthAdjust="spacing" textLength="154" x="38.75" y="165.7802">medipro.object.ornament.marker</text><line style="stroke:#181818;stroke-width:0.5;" x1="8" x2="197" y1="172.9775" y2="172.9775"/><ellipse cx="18" cy="187.2822" fill="#84BE84" rx="3" ry="3" style="stroke:#038048;stroke-width:1.0;"/><text fill="#000000" font-family="sans-serif" font-size="14" lengthAdjust="spacing" textLength="165" x="27" y="191.5107">MarkerView(MarkerModel)</text><ellipse cx="18" cy="204.8916" fill="#84BE84" rx="3" ry="3" style="stroke:#038048;stroke-width:1.0;"/><text fill="#000000" font-family="sans-serif" font-size="14" lengthAdjust="spacing" textLength="149" x="27" y="209.1201">draw(Graphics2D): void</text></g></a><!--class medipro.object.base.gameobject.GameObjectView--><a href="..\..\base\gameobject\GameObjectView.html" target="_top" title="..\..\base\gameobject\GameObjectView.html" xlink:actuate="onRequest" xlink:href="..\..\base\gameobject\GameObjectView.html" xlink:show="new" xlink:title="..\..\base\gameobject\GameObjectView.html" xlink:type="simple"><g id="elem_medipro.object.base.gameobject.GameObjectView"><rect codeLine="10" fill="#F1F1F1" height="65.7969" id="medipro.object.base.gameobject.GameObjectView" rx="2.5" ry="2.5" style="stroke:#181818;stroke-width:0.5;" width="182" x="11.5" y="7"/><ellipse cx="26.5" cy="27.0938" fill="#A9DCDF" rx="11" ry="11" style="stroke:#181818;stroke-width:1.0;"/><path d="M28.6875,28.8594 L24.5469,28.8594 L24.125,29.8906 L24.5469,29.8906 Q25.1563,29.8906 25.4219,30.125 Q25.6875,30.3594 25.6875,30.75 Q25.6875,31.125 25.4219,31.3594 Q25.1563,31.5938 24.5469,31.5938 L22.25,31.5938 Q21.6406,31.5938 21.3906,31.3594 Q21.125,31.125 21.125,30.7344 Q21.125,30.3594 21.4063,30.125 Q21.6719,29.875 22.2969,29.8906 L24.9688,23.2344 L23.8594,23.2344 Q23.25,23.2344 22.9844,23 Q22.7188,22.7656 22.7188,22.375 Q22.7188,22 22.9844,21.7656 Q23.25,21.5313 23.8594,21.5313 L27.5313,21.5313 L30.9219,29.8906 Q31.5156,29.8906 31.7031,30.0313 Q32.0938,30.2969 32.0938,30.75 Q32.0938,31.125 31.8281,31.3594 Q31.5781,31.5938 30.9688,31.5938 L28.6719,31.5938 Q28.0625,31.5938 27.7969,31.3594 Q27.5313,31.125 27.5313,30.7344 Q27.5313,30.3594 27.7969,30.125 Q28.0625,29.8906 28.6719,29.8906 L29.0938,29.8906 L28.6875,28.8594 Z M27.9688,27.1563 L26.6094,23.7813 L25.2344,27.1563 L27.9688,27.1563 Z " fill="#000000"/><text fill="#000000" font-family="sans-serif" font-size="14" font-style="italic" lengthAdjust="spacing" textLength="108" x="61.5" y="26.5332">GameObjectView</text><text fill="#000000" font-family="sans-serif" font-size="10" font-style="italic" lengthAdjust="spacing" textLength="150" x="40.5" y="39.9902">medipro.object.base.gameobject</text><line style="stroke:#181818;stroke-width:0.5;" x1="12.5" x2="192.5" y1="47.1875" y2="47.1875"/><polygon fill="#FFFF44" points="22.5,56.4922,26.5,60.4922,22.5,64.4922,18.5,60.4922" style="stroke:#B38D22;stroke-width:1.0;"/><text fill="#000000" font-family="sans-serif" font-size="14" font-style="italic" lengthAdjust="spacing" textLength="148" x="31.5" y="65.7207">draw(Graphics2D): void</text></g></a><!--reverse link medipro.object.base.gameobject.GameObjectView to medipro.object.ornament.marker.MarkerView--><g id="link_medipro.object.base.gameobject.GameObjectView_medipro.object.ornament.marker.MarkerView"><path codeLine="14" d="M102.5,90.99 C102.5,108.93 102.5,113.46 102.5,132.65 " fill="none" id="medipro.object.base.gameobject.GameObjectView-backto-medipro.object.ornament.marker.MarkerView" style="stroke:#181818;stroke-width:1.0;"/><polygon fill="none" points="102.5,72.99,96.5,90.99,108.5,90.99,102.5,72.99" style="stroke:#181818;stroke-width:1.0;"/></g><text fill="#888888" font-family="sans-serif" font-size="10" lengthAdjust="spacing" textLength="184" x="3.5" y="232.5771">UMLDoclet 2.1.1, PlantUML 1.2023.12</text><!--SRC=[bL9DImCn4BtxAuQAi8iskCLJAJqLUd5H4BrqUvXDfcuq7qiIMhJslvlTLPQsKZK4addlCNcF3020fm06DVaQEJrGZGw3TM2ieRD8GoK50UawlC5AaXB-4DKKAXlX5kSAlOV1nCjt6cStqnpTAxadIPl2V87NKqr2riuoMxuG3yowvdqJc6x50q0FfoMiRmkBHL-mAcYrNCAszTAiovvCkcjk1Qcq5mY7csJkiAuazwDPEeQrbQBbTrqcB7rmoCDHk7dqTDSQF1smH4_iEOgx-gU01nAstpg6PAo8kv4LlQpObnt7ttvxty7vxq7_vsdoCHp-_P-wwOWKELXPsnoF-UtCSXNdRyGobbt1lK8J8WeNQt9UMfEadm00]--></g></svg>