<?xml version="1.0" encoding="us-ascii" standalone="no"?><svg xmlns="http://www.w3.org/2000/svg" xmlns:xlink="http://www.w3.org/1999/xlink" contentStyleType="text/css" height="485px" preserveAspectRatio="none" style="width:744px;height:485px;background:#FFFFFF;" version="1.1" viewBox="0 0 744 485" width="744px" zoomAndPan="magnify"><defs/><g><!--cluster medipro.object.ornament.marker--><g id="cluster_medipro.object.ornament.marker"><path d="M8.5,306.09 L239.5,306.09 A3.75,3.75 0 0 1 242,308.59 L249,329.6994 L734.5,329.6994 A2.5,2.5 0 0 1 737,332.1994 L737,456.42 A2.5,2.5 0 0 1 734.5,458.92 L8.5,458.92 A2.5,2.5 0 0 1 6,456.42 L6,308.59 A2.5,2.5 0 0 1 8.5,306.09 " fill="none" style="stroke:#000000;stroke-width:1.5;"/><line style="stroke:#000000;stroke-width:1.5;" x1="6" x2="249" y1="329.6994" y2="329.6994"/><text fill="#000000" font-family="sans-serif" font-size="14" font-weight="bold" lengthAdjust="spacing" textLength="230" x="10" y="322.6232">medipro.object.ornament.marker</text></g><!--cluster medipro.object.base.gameobject--><g id="cluster_medipro.object.base.gameobject"><path d="M13.5,6 L244.5,6 A3.75,3.75 0 0 1 247,8.5 L254,29.6094 L731.5,29.6094 A2.5,2.5 0 0 1 734,32.1094 L734,279.59 A2.5,2.5 0 0 1 731.5,282.09 L13.5,282.09 A2.5,2.5 0 0 1 11,279.59 L11,8.5 A2.5,2.5 0 0 1 13.5,6 " fill="none" style="stroke:#000000;stroke-width:1.5;"/><line style="stroke:#000000;stroke-width:1.5;" x1="11" x2="254" y1="29.6094" y2="29.6094"/><text fill="#000000" font-family="sans-serif" font-size="14" font-weight="bold" lengthAdjust="spacing" textLength="230" x="15" y="22.5332">medipro.object.base.gameobject</text></g><!--class MarkerController--><a href="MarkerController.html" target="_top" title="MarkerController.html" xlink:actuate="onRequest" xlink:href="MarkerController.html" xlink:show="new" xlink:title="MarkerController.html" xlink:type="simple"><g id="elem_MarkerController"><rect codeLine="5" fill="#F1F1F1" height="83.2188" id="MarkerController" rx="2.5" ry="2.5" style="stroke:#181818;stroke-width:0.5;" width="282" x="439" y="350.9"/><ellipse cx="522.75" cy="366.9" fill="#ADD1B2" rx="11" ry="11" style="stroke:#181818;stroke-width:1.0;"/><path d="M525.5156,362.775 Q525.6719,362.5563 525.8594,362.4469 Q526.0469,362.3375 526.2656,362.3375 Q526.6406,362.3375 526.875,362.6031 Q527.1094,362.8531 527.1094,363.4625 L527.1094,364.9156 Q527.1094,365.525 526.875,365.7906 Q526.6406,366.0563 526.2656,366.0563 Q525.9219,366.0563 525.7188,365.8531 Q525.5156,365.6656 525.4063,365.15 Q525.3594,364.7906 525.1719,364.6031 Q524.8438,364.2281 524.2344,364.0094 Q523.625,363.7906 523,363.7906 Q522.2344,363.7906 521.5938,364.1188 Q520.9688,364.4469 520.4688,365.1969 Q519.9844,365.9469 519.9844,366.9781 L519.9844,368.0719 Q519.9844,369.3063 520.875,370.1344 Q521.7656,370.9469 523.3594,370.9469 Q524.2969,370.9469 524.9531,370.6969 Q525.3438,370.5406 525.7656,370.1031 Q526.0313,369.8375 526.1719,369.7594 Q526.3281,369.6813 526.5313,369.6813 Q526.8594,369.6813 527.1094,369.9469 Q527.375,370.1969 527.375,370.5406 Q527.375,370.8844 527.0313,371.2906 Q526.5313,371.8688 525.7344,372.1969 Q524.6563,372.65 523.3594,372.65 Q521.8438,372.65 520.6406,372.025 Q519.6563,371.525 518.9688,370.4625 Q518.2813,369.3844 518.2813,368.1031 L518.2813,366.9469 Q518.2813,365.6188 518.8906,364.4781 Q519.5156,363.3219 520.6094,362.7125 Q521.7031,362.0875 522.9375,362.0875 Q523.6719,362.0875 524.3125,362.2594 Q524.9688,362.4156 525.5156,362.775 Z " fill="#000000"/><text fill="#000000" font-family="sans-serif" font-size="14" lengthAdjust="spacing" textLength="106" x="543.25" y="372.6285">MarkerController</text><line style="stroke:#181818;stroke-width:0.5;" x1="440" x2="720" y1="382.9" y2="382.9"/><line style="stroke:#181818;stroke-width:0.5;" x1="440" x2="720" y1="390.9" y2="390.9"/><ellipse cx="450" cy="405.2047" fill="#84BE84" rx="3" ry="3" style="stroke:#038048;stroke-width:1.0;"/><text fill="#000000" font-family="sans-serif" font-size="14" lengthAdjust="spacing" textLength="245" x="459" y="409.4332">MarkerController(GameObjectModel...)</text><ellipse cx="450" cy="422.8141" fill="#84BE84" rx="3" ry="3" style="stroke:#038048;stroke-width:1.0;"/><text fill="#000000" font-family="sans-serif" font-size="14" lengthAdjust="spacing" textLength="256" x="459" y="427.0426">update(GameObjectModel, double): void</text></g></a><!--class MarkerModel--><a href="MarkerModel.html" target="_top" title="MarkerModel.html" xlink:actuate="onRequest" xlink:href="MarkerModel.html" xlink:show="new" xlink:title="MarkerModel.html" xlink:type="simple"><g id="elem_MarkerModel"><rect codeLine="10" fill="#F1F1F1" height="100.8281" id="MarkerModel" rx="2.5" ry="2.5" style="stroke:#181818;stroke-width:0.5;" width="155" x="248.5" y="342.09"/><ellipse cx="281.95" cy="358.09" fill="#ADD1B2" rx="11" ry="11" style="stroke:#181818;stroke-width:1.0;"/><path d="M284.7156,353.965 Q284.8719,353.7463 285.0594,353.6369 Q285.2469,353.5275 285.4656,353.5275 Q285.8406,353.5275 286.075,353.7931 Q286.3094,354.0431 286.3094,354.6525 L286.3094,356.1056 Q286.3094,356.715 286.075,356.9806 Q285.8406,357.2463 285.4656,357.2463 Q285.1219,357.2463 284.9188,357.0431 Q284.7156,356.8556 284.6063,356.34 Q284.5594,355.9806 284.3719,355.7931 Q284.0438,355.4181 283.4344,355.1994 Q282.825,354.9806 282.2,354.9806 Q281.4344,354.9806 280.7938,355.3088 Q280.1688,355.6369 279.6688,356.3869 Q279.1844,357.1369 279.1844,358.1681 L279.1844,359.2619 Q279.1844,360.4963 280.075,361.3244 Q280.9656,362.1369 282.5594,362.1369 Q283.4969,362.1369 284.1531,361.8869 Q284.5438,361.7306 284.9656,361.2931 Q285.2313,361.0275 285.3719,360.9494 Q285.5281,360.8713 285.7313,360.8713 Q286.0594,360.8713 286.3094,361.1369 Q286.575,361.3869 286.575,361.7306 Q286.575,362.0744 286.2313,362.4806 Q285.7313,363.0588 284.9344,363.3869 Q283.8563,363.84 282.5594,363.84 Q281.0438,363.84 279.8406,363.215 Q278.8563,362.715 278.1688,361.6525 Q277.4813,360.5744 277.4813,359.2931 L277.4813,358.1369 Q277.4813,356.8088 278.0906,355.6681 Q278.7156,354.5119 279.8094,353.9025 Q280.9031,353.2775 282.1375,353.2775 Q282.8719,353.2775 283.5125,353.4494 Q284.1688,353.6056 284.7156,353.965 Z " fill="#000000"/><text fill="#000000" font-family="sans-serif" font-size="14" lengthAdjust="spacing" textLength="82" x="300.05" y="363.8185">MarkerModel</text><line style="stroke:#181818;stroke-width:0.5;" x1="249.5" x2="402.5" y1="374.09" y2="374.09"/><ellipse cx="259.5" cy="388.3947" fill="none" rx="3" ry="3" style="stroke:#038048;stroke-width:1.0;"/><text fill="#000000" font-family="sans-serif" font-size="14" lengthAdjust="spacing" textLength="62" x="268.5" y="392.6232">radius: int</text><ellipse cx="259.5" cy="406.0041" fill="none" rx="3" ry="3" style="stroke:#038048;stroke-width:1.0;"/><text fill="#000000" font-family="sans-serif" font-size="14" lengthAdjust="spacing" textLength="73" x="268.5" y="410.2326">color: Color</text><line style="stroke:#181818;stroke-width:0.5;" x1="249.5" x2="402.5" y1="417.3088" y2="417.3088"/><ellipse cx="259.5" cy="431.6134" fill="#84BE84" rx="3" ry="3" style="stroke:#038048;stroke-width:1.0;"/><text fill="#000000" font-family="sans-serif" font-size="14" lengthAdjust="spacing" textLength="129" x="268.5" y="435.842">MarkerModel(World)</text></g></a><!--class MarkerView--><a href="MarkerView.html" target="_top" title="MarkerView.html" xlink:actuate="onRequest" xlink:href="MarkerView.html" xlink:show="new" xlink:title="MarkerView.html" xlink:type="simple"><g id="elem_MarkerView"><rect codeLine="16" fill="#F1F1F1" height="83.2188" id="MarkerView" rx="2.5" ry="2.5" style="stroke:#181818;stroke-width:0.5;" width="191" x="22.5" y="350.9"/><ellipse cx="77.25" cy="366.9" fill="#ADD1B2" rx="11" ry="11" style="stroke:#181818;stroke-width:1.0;"/><path d="M80.0156,362.775 Q80.1719,362.5563 80.3594,362.4469 Q80.5469,362.3375 80.7656,362.3375 Q81.1406,362.3375 81.375,362.6031 Q81.6094,362.8531 81.6094,363.4625 L81.6094,364.9156 Q81.6094,365.525 81.375,365.7906 Q81.1406,366.0563 80.7656,366.0563 Q80.4219,366.0563 80.2188,365.8531 Q80.0156,365.6656 79.9063,365.15 Q79.8594,364.7906 79.6719,364.6031 Q79.3438,364.2281 78.7344,364.0094 Q78.125,363.7906 77.5,363.7906 Q76.7344,363.7906 76.0938,364.1188 Q75.4688,364.4469 74.9688,365.1969 Q74.4844,365.9469 74.4844,366.9781 L74.4844,368.0719 Q74.4844,369.3063 75.375,370.1344 Q76.2656,370.9469 77.8594,370.9469 Q78.7969,370.9469 79.4531,370.6969 Q79.8438,370.5406 80.2656,370.1031 Q80.5313,369.8375 80.6719,369.7594 Q80.8281,369.6813 81.0313,369.6813 Q81.3594,369.6813 81.6094,369.9469 Q81.875,370.1969 81.875,370.5406 Q81.875,370.8844 81.5313,371.2906 Q81.0313,371.8688 80.2344,372.1969 Q79.1563,372.65 77.8594,372.65 Q76.3438,372.65 75.1406,372.025 Q74.1563,371.525 73.4688,370.4625 Q72.7813,369.3844 72.7813,368.1031 L72.7813,366.9469 Q72.7813,365.6188 73.3906,364.4781 Q74.0156,363.3219 75.1094,362.7125 Q76.2031,362.0875 77.4375,362.0875 Q78.1719,362.0875 78.8125,362.2594 Q79.4688,362.4156 80.0156,362.775 Z " fill="#000000"/><text fill="#000000" font-family="sans-serif" font-size="14" lengthAdjust="spacing" textLength="73" x="97.75" y="372.6285">MarkerView</text><line style="stroke:#181818;stroke-width:0.5;" x1="23.5" x2="212.5" y1="382.9" y2="382.9"/><line style="stroke:#181818;stroke-width:0.5;" x1="23.5" x2="212.5" y1="390.9" y2="390.9"/><ellipse cx="33.5" cy="405.2047" fill="#84BE84" rx="3" ry="3" style="stroke:#038048;stroke-width:1.0;"/><text fill="#000000" font-family="sans-serif" font-size="14" lengthAdjust="spacing" textLength="165" x="42.5" y="409.4332">MarkerView(MarkerModel)</text><ellipse cx="33.5" cy="422.8141" fill="#84BE84" rx="3" ry="3" style="stroke:#038048;stroke-width:1.0;"/><text fill="#000000" font-family="sans-serif" font-size="14" lengthAdjust="spacing" textLength="149" x="42.5" y="427.0426">draw(Graphics2D): void</text></g></a><!--class GameObjectController--><a href="..\..\base\gameobject\GameObjectController.html" target="_top" title="..\..\base\gameobject\GameObjectController.html" xlink:actuate="onRequest" xlink:href="..\..\base\gameobject\GameObjectController.html" xlink:show="new" xlink:title="..\..\base\gameobject\GameObjectController.html" xlink:type="simple"><g id="elem_GameObjectController"><rect codeLine="24" fill="#F1F1F1" height="100.8281" id="GameObjectController" rx="2.5" ry="2.5" style="stroke:#181818;stroke-width:0.5;" width="282" x="436" y="103.63"/><ellipse cx="502.25" cy="119.63" fill="#A9DCDF" rx="11" ry="11" style="stroke:#181818;stroke-width:1.0;"/><path d="M504.4375,121.3956 L500.2969,121.3956 L499.875,122.4269 L500.2969,122.4269 Q500.9063,122.4269 501.1719,122.6613 Q501.4375,122.8956 501.4375,123.2863 Q501.4375,123.6613 501.1719,123.8956 Q500.9063,124.13 500.2969,124.13 L498,124.13 Q497.3906,124.13 497.1406,123.8956 Q496.875,123.6613 496.875,123.2706 Q496.875,122.8956 497.1563,122.6613 Q497.4219,122.4113 498.0469,122.4269 L500.7188,115.7706 L499.6094,115.7706 Q499,115.7706 498.7344,115.5363 Q498.4688,115.3019 498.4688,114.9113 Q498.4688,114.5363 498.7344,114.3019 Q499,114.0675 499.6094,114.0675 L503.2813,114.0675 L506.6719,122.4269 Q507.2656,122.4269 507.4531,122.5675 Q507.8438,122.8331 507.8438,123.2863 Q507.8438,123.6613 507.5781,123.8956 Q507.3281,124.13 506.7188,124.13 L504.4219,124.13 Q503.8125,124.13 503.5469,123.8956 Q503.2813,123.6613 503.2813,123.2706 Q503.2813,122.8956 503.5469,122.6613 Q503.8125,122.4269 504.4219,122.4269 L504.8438,122.4269 L504.4375,121.3956 Z M503.7188,119.6925 L502.3594,116.3175 L500.9844,119.6925 L503.7188,119.6925 Z " fill="#000000"/><text fill="#000000" font-family="sans-serif" font-size="14" font-style="italic" lengthAdjust="spacing" textLength="141" x="522.75" y="125.3585">GameObjectController</text><line style="stroke:#181818;stroke-width:0.5;" x1="437" x2="717" y1="135.63" y2="135.63"/><polygon fill="none" points="447,144.9347,451,148.9347,447,152.9347,443,148.9347" style="stroke:#B38D22;stroke-width:1.0;"/><text fill="#000000" font-family="sans-serif" font-size="14" lengthAdjust="spacing" textLength="93" x="456" y="154.1632">logger: Logger</text><ellipse cx="447" cy="167.5441" fill="none" rx="3" ry="3" style="stroke:#038048;stroke-width:1.0;"/><text fill="#000000" font-family="sans-serif" font-size="14" lengthAdjust="spacing" textLength="242" x="456" y="171.7726">models: ArrayList&lt;GameObjectModel&gt;</text><line style="stroke:#181818;stroke-width:0.5;" x1="437" x2="717" y1="178.8488" y2="178.8488"/><ellipse cx="447" cy="193.1534" fill="#84BE84" rx="3" ry="3" style="stroke:#038048;stroke-width:1.0;"/><text fill="#000000" font-family="sans-serif" font-size="14" font-style="italic" lengthAdjust="spacing" textLength="256" x="456" y="197.382">update(GameObjectModel, double): void</text></g></a><!--class GameObjectModel--><a href="..\..\base\gameobject\GameObjectModel.html" target="_top" title="..\..\base\gameobject\GameObjectModel.html" xlink:actuate="onRequest" xlink:href="..\..\base\gameobject\GameObjectModel.html" xlink:show="new" xlink:title="..\..\base\gameobject\GameObjectModel.html" xlink:type="simple"><g id="elem_GameObjectModel"><rect codeLine="29" fill="#F1F1F1" height="171.2656" id="GameObjectModel" rx="2.5" ry="2.5" style="stroke:#181818;stroke-width:0.5;" width="150" x="251" y="68.41"/><ellipse cx="266" cy="84.41" fill="#A9DCDF" rx="11" ry="11" style="stroke:#181818;stroke-width:1.0;"/><path d="M268.1875,86.1756 L264.0469,86.1756 L263.625,87.2069 L264.0469,87.2069 Q264.6563,87.2069 264.9219,87.4413 Q265.1875,87.6756 265.1875,88.0663 Q265.1875,88.4413 264.9219,88.6756 Q264.6563,88.91 264.0469,88.91 L261.75,88.91 Q261.1406,88.91 260.8906,88.6756 Q260.625,88.4413 260.625,88.0506 Q260.625,87.6756 260.9063,87.4413 Q261.1719,87.1913 261.7969,87.2069 L264.4688,80.5506 L263.3594,80.5506 Q262.75,80.5506 262.4844,80.3163 Q262.2188,80.0819 262.2188,79.6913 Q262.2188,79.3163 262.4844,79.0819 Q262.75,78.8475 263.3594,78.8475 L267.0313,78.8475 L270.4219,87.2069 Q271.0156,87.2069 271.2031,87.3475 Q271.5938,87.6131 271.5938,88.0663 Q271.5938,88.4413 271.3281,88.6756 Q271.0781,88.91 270.4688,88.91 L268.1719,88.91 Q267.5625,88.91 267.2969,88.6756 Q267.0313,88.4413 267.0313,88.0506 Q267.0313,87.6756 267.2969,87.4413 Q267.5625,87.2069 268.1719,87.2069 L268.5938,87.2069 L268.1875,86.1756 Z M267.4688,84.4725 L266.1094,81.0975 L264.7344,84.4725 L267.4688,84.4725 Z " fill="#000000"/><text fill="#000000" font-family="sans-serif" font-size="14" font-style="italic" lengthAdjust="spacing" textLength="118" x="280" y="90.1385">GameObjectModel</text><line style="stroke:#181818;stroke-width:0.5;" x1="252" x2="400" y1="100.41" y2="100.41"/><polygon fill="none" points="262,109.7147,266,113.7147,262,117.7147,258,113.7147" style="stroke:#B38D22;stroke-width:1.0;"/><text fill="#000000" font-family="sans-serif" font-size="14" lengthAdjust="spacing" textLength="93" x="271" y="118.9432">logger: Logger</text><ellipse cx="262" cy="132.3241" fill="none" rx="3" ry="3" style="stroke:#038048;stroke-width:1.0;"/><text fill="#000000" font-family="sans-serif" font-size="14" lengthAdjust="spacing" textLength="78" x="271" y="136.5526">world: World</text><ellipse cx="262" cy="149.9334" fill="none" rx="3" ry="3" style="stroke:#038048;stroke-width:1.0;"/><text fill="#000000" font-family="sans-serif" font-size="14" lengthAdjust="spacing" textLength="57" x="271" y="154.162">x: double</text><ellipse cx="262" cy="167.5428" fill="none" rx="3" ry="3" style="stroke:#038048;stroke-width:1.0;"/><text fill="#000000" font-family="sans-serif" font-size="14" lengthAdjust="spacing" textLength="58" x="271" y="171.7713">y: double</text><ellipse cx="262" cy="185.1522" fill="none" rx="3" ry="3" style="stroke:#038048;stroke-width:1.0;"/><text fill="#000000" font-family="sans-serif" font-size="14" lengthAdjust="spacing" textLength="99" x="271" y="189.3807">rotation: double</text><ellipse cx="262" cy="202.7616" fill="none" rx="3" ry="3" style="stroke:#038048;stroke-width:1.0;"/><text fill="#000000" font-family="sans-serif" font-size="14" lengthAdjust="spacing" textLength="92" x="271" y="206.9901">scaleX: double</text><ellipse cx="262" cy="220.3709" fill="none" rx="3" ry="3" style="stroke:#038048;stroke-width:1.0;"/><text fill="#000000" font-family="sans-serif" font-size="14" lengthAdjust="spacing" textLength="93" x="271" y="224.5995">scaleY: double</text><line style="stroke:#181818;stroke-width:0.5;" x1="252" x2="400" y1="231.6756" y2="231.6756"/></g></a><!--class GameObjectView--><a href="..\..\base\gameobject\GameObjectView.html" target="_top" title="..\..\base\gameobject\GameObjectView.html" xlink:actuate="onRequest" xlink:href="..\..\base\gameobject\GameObjectView.html" xlink:show="new" xlink:title="..\..\base\gameobject\GameObjectView.html" xlink:type="simple"><g id="elem_GameObjectView"><rect codeLine="38" fill="#F1F1F1" height="224.0938" id="GameObjectView" rx="2.5" ry="2.5" style="stroke:#181818;stroke-width:0.5;" width="189" x="27.5" y="42"/><ellipse cx="64.55" cy="58" fill="#A9DCDF" rx="11" ry="11" style="stroke:#181818;stroke-width:1.0;"/><path d="M66.7375,59.7656 L62.5969,59.7656 L62.175,60.7969 L62.5969,60.7969 Q63.2063,60.7969 63.4719,61.0313 Q63.7375,61.2656 63.7375,61.6563 Q63.7375,62.0313 63.4719,62.2656 Q63.2063,62.5 62.5969,62.5 L60.3,62.5 Q59.6906,62.5 59.4406,62.2656 Q59.175,62.0313 59.175,61.6406 Q59.175,61.2656 59.4563,61.0313 Q59.7219,60.7813 60.3469,60.7969 L63.0188,54.1406 L61.9094,54.1406 Q61.3,54.1406 61.0344,53.9063 Q60.7688,53.6719 60.7688,53.2813 Q60.7688,52.9063 61.0344,52.6719 Q61.3,52.4375 61.9094,52.4375 L65.5813,52.4375 L68.9719,60.7969 Q69.5656,60.7969 69.7531,60.9375 Q70.1438,61.2031 70.1438,61.6563 Q70.1438,62.0313 69.8781,62.2656 Q69.6281,62.5 69.0188,62.5 L66.7219,62.5 Q66.1125,62.5 65.8469,62.2656 Q65.5813,62.0313 65.5813,61.6406 Q65.5813,61.2656 65.8469,61.0313 Q66.1125,60.7969 66.7219,60.7969 L67.1438,60.7969 L66.7375,59.7656 Z M66.0188,58.0625 L64.6594,54.6875 L63.2844,58.0625 L66.0188,58.0625 Z " fill="#000000"/><text fill="#000000" font-family="sans-serif" font-size="14" font-style="italic" lengthAdjust="spacing" textLength="108" x="83.45" y="63.7285">GameObjectView</text><line style="stroke:#181818;stroke-width:0.5;" x1="28.5" x2="215.5" y1="74" y2="74"/><polygon fill="none" points="38.5,83.3047,42.5,87.3047,38.5,91.3047,34.5,87.3047" style="stroke:#B38D22;stroke-width:1.0;"/><text fill="#000000" font-family="sans-serif" font-size="14" lengthAdjust="spacing" textLength="93" x="47.5" y="92.5332">logger: Logger</text><ellipse cx="38.5" cy="105.9141" fill="none" rx="3" ry="3" style="stroke:#038048;stroke-width:1.0;"/><text fill="#000000" font-family="sans-serif" font-size="14" lengthAdjust="spacing" textLength="163" x="47.5" y="110.1426">model: GameObjectModel</text><ellipse cx="38.5" cy="123.5234" fill="none" rx="3" ry="3" style="stroke:#038048;stroke-width:1.0;"/><text fill="#000000" font-family="sans-serif" font-size="14" lengthAdjust="spacing" textLength="117" x="47.5" y="127.752">drawAsUI: boolean</text><polygon fill="none" points="38.5,136.1328,42.5,140.1328,38.5,144.1328,34.5,140.1328" style="stroke:#B38D22;stroke-width:1.0;"/><text fill="#000000" font-family="sans-serif" font-size="14" lengthAdjust="spacing" text-decoration="underline" textLength="128" x="47.5" y="145.3613">nextBindingPoint: int</text><polygon fill="none" points="38.5,154.7422,34.5,160.7422,42.5,160.7422" style="stroke:#1963A0;stroke-width:1.0;"/><text fill="#000000" font-family="sans-serif" font-size="14" lengthAdjust="spacing" textLength="121" x="47.5" y="162.9707">shaderProgram: int</text><polygon fill="none" points="38.5,172.3516,34.5,178.3516,42.5,178.3516" style="stroke:#1963A0;stroke-width:1.0;"/><text fill="#000000" font-family="sans-serif" font-size="14" lengthAdjust="spacing" textLength="140" x="47.5" y="180.5801">textureName: IntBuffer</text><polygon fill="none" points="38.5,189.9609,34.5,195.9609,42.5,195.9609" style="stroke:#1963A0;stroke-width:1.0;"/><text fill="#000000" font-family="sans-serif" font-size="14" lengthAdjust="spacing" textLength="147" x="47.5" y="198.1895">samplerName: IntBuffer</text><polygon fill="none" points="38.5,207.5703,34.5,213.5703,42.5,213.5703" style="stroke:#1963A0;stroke-width:1.0;"/><text fill="#000000" font-family="sans-serif" font-size="14" lengthAdjust="spacing" textLength="84" x="47.5" y="215.7988">vbo: IntBuffer</text><polygon fill="none" points="38.5,225.1797,34.5,231.1797,42.5,231.1797" style="stroke:#1963A0;stroke-width:1.0;"/><text fill="#000000" font-family="sans-serif" font-size="14" lengthAdjust="spacing" textLength="112" x="47.5" y="233.4082">shaderFile: String</text><line style="stroke:#181818;stroke-width:0.5;" x1="28.5" x2="215.5" y1="240.4844" y2="240.4844"/><polygon fill="#FFFF44" points="38.5,249.7891,42.5,253.7891,38.5,257.7891,34.5,253.7891" style="stroke:#B38D22;stroke-width:1.0;"/><text fill="#000000" font-family="sans-serif" font-size="14" font-style="italic" lengthAdjust="spacing" textLength="148" x="47.5" y="259.0176">draw(Graphics2D): void</text></g></a><!--reverse link GameObjectController to MarkerController--><g id="link_GameObjectController_MarkerController"><path codeLine="52" d="M577.8583,222.8986 C578.4083,266.2586 578.97,310.31 579.48,350.76 " fill="none" id="GameObjectController-backto-MarkerController" style="stroke:#181818;stroke-width:1.0;"/><polygon fill="none" points="577.63,204.9,571.8588,222.9747,583.8578,222.8225,577.63,204.9" style="stroke:#181818;stroke-width:1.0;"/></g><!--reverse link GameObjectModel to MarkerModel--><g id="link_GameObjectModel_MarkerModel"><path codeLine="53" d="M326,258.08 C326,292.24 326,312.42 326,341.9 " fill="none" id="GameObjectModel-backto-MarkerModel" style="stroke:#181818;stroke-width:1.0;"/><polygon fill="none" points="326,240.08,320,258.08,332,258.08,326,240.08" style="stroke:#181818;stroke-width:1.0;"/></g><!--reverse link GameObjectView to MarkerView--><g id="link_GameObjectView_MarkerView"><path codeLine="54" d="M119.8148,284.3474 C119.3048,314.4174 119.09,327.08 118.69,350.53 " fill="none" id="GameObjectView-backto-MarkerView" style="stroke:#181818;stroke-width:1.0;"/><polygon fill="none" points="120.12,266.35,113.8156,284.2457,125.8139,284.4492,120.12,266.35" style="stroke:#181818;stroke-width:1.0;"/></g><text fill="#888888" font-family="sans-serif" font-size="10" lengthAdjust="spacing" textLength="184" x="273" y="475.3009">UMLDoclet 2.1.1, PlantUML 1.2023.12</text><!--SRC=[bLLjQzim4FxUNo480uUrWlQZA8E-i598ji3eNcZwuMmhZbPPPqvoqjAbltsotIQnuzYDiH6-5zrpTyz9Z35cfVDV1WGEYGbnTEI5B8Fe4HB9KXchZ91Z-5T6ZYCPIALnF0LwbCHUAklYYJHOoyQb_0gD8zJQMzpVDqLyxbBzyE1zsTRpkMaMtFX8tykmOuobvfmFwnvv5eEJJRjZ5cCUQZaKR84gNhkisg6MFckKLQHsW0InogrWohYw8aAD9DXLiRJbL6uQ_4BIyR0FpaybbsiqnKzdjGg3O2j8eq0nmJAu8SZcAh9drtigikhiU0XMyiINkFhVmW6XTGHULE7VjA7MVSwd_YrscMvscROPjsSwq9WaqfTtLAxr1DCYQT-I2o9u7YdhpXja-5ApVtc7l3gSFBrPlnEfB-4EYdNckYpu8rX9exhcIRoXhekVsyM43fn2qwwr4MZvkqFtPqVtWTgyiRglDFlvtiy2qMp5xYXSsBjRmK94BS7KYM6BcaGhDZ3ooLqg4okJJD1F-kwulzevn98cX0b1sg9tVekSv3SFHx1RuoxpsQm1-TL2cddATzeiGjplNsBughHt_-78ezr7z47l8R1r1dJFlX2jCtx-x-IavvuGedcw7nYk6gu38cqeyF4W9KiFY57Obo4Yh_E5c24MozruT8sHzjVg6J_bfyTiei4uBsMV5fAi7xrW-1y0]--></g></svg>