<?xml version="1.0" encoding="us-ascii" standalone="no"?><svg xmlns="http://www.w3.org/2000/svg" xmlns:xlink="http://www.w3.org/1999/xlink" contentStyleType="text/css" height="242px" preserveAspectRatio="none" style="width:253px;height:242px;background:#FFFFFF;" version="1.1" viewBox="0 0 253 242" width="253px" zoomAndPan="magnify"><defs/><g><!--class medipro.object.example.grid.ExampleGridModel--><a href="ExampleGridModel.html" target="_top" title="ExampleGridModel.html" xlink:actuate="onRequest" xlink:href="ExampleGridModel.html" xlink:show="new" xlink:title="ExampleGridModel.html" xlink:type="simple"><g id="elem_medipro.object.example.grid.ExampleGridModel"><rect codeLine="5" fill="#F1F1F1" height="109.0156" id="medipro.object.example.grid.ExampleGridModel" rx="2.5" ry="2.5" style="stroke:#181818;stroke-width:0.5;" width="237" x="9" y="107.18"/><ellipse cx="54.75" cy="127.2737" fill="#ADD1B2" rx="11" ry="11" style="stroke:#181818;stroke-width:1.0;"/><path d="M57.5156,123.1488 Q57.6719,122.93 57.8594,122.8206 Q58.0469,122.7113 58.2656,122.7113 Q58.6406,122.7113 58.875,122.9769 Q59.1094,123.2269 59.1094,123.8363 L59.1094,125.2894 Q59.1094,125.8988 58.875,126.1644 Q58.6406,126.43 58.2656,126.43 Q57.9219,126.43 57.7188,126.2269 Q57.5156,126.0394 57.4063,125.5238 Q57.3594,125.1644 57.1719,124.9769 Q56.8438,124.6019 56.2344,124.3831 Q55.625,124.1644 55,124.1644 Q54.2344,124.1644 53.5938,124.4925 Q52.9688,124.8206 52.4688,125.5706 Q51.9844,126.3206 51.9844,127.3519 L51.9844,128.4456 Q51.9844,129.68 52.875,130.5081 Q53.7656,131.3206 55.3594,131.3206 Q56.2969,131.3206 56.9531,131.0706 Q57.3438,130.9144 57.7656,130.4769 Q58.0313,130.2113 58.1719,130.1331 Q58.3281,130.055 58.5313,130.055 Q58.8594,130.055 59.1094,130.3206 Q59.375,130.5706 59.375,130.9144 Q59.375,131.2581 59.0313,131.6644 Q58.5313,132.2425 57.7344,132.5706 Q56.6563,133.0238 55.3594,133.0238 Q53.8438,133.0238 52.6406,132.3988 Q51.6563,131.8988 50.9688,130.8363 Q50.2813,129.7581 50.2813,128.4769 L50.2813,127.3206 Q50.2813,125.9925 50.8906,124.8519 Q51.5156,123.6956 52.6094,123.0863 Q53.7031,122.4613 54.9375,122.4613 Q55.6719,122.4613 56.3125,122.6331 Q56.9688,122.7894 57.5156,123.1488 Z " fill="#000000"/><text fill="#000000" font-family="sans-serif" font-size="14" lengthAdjust="spacing" textLength="118" x="84.75" y="126.7132">ExampleGridModel</text><text fill="#000000" font-family="sans-serif" font-size="10" lengthAdjust="spacing" textLength="137" x="75.25" y="140.1702">medipro.object.example.grid</text><line style="stroke:#181818;stroke-width:0.5;" x1="10" x2="245" y1="147.3675" y2="147.3675"/><polygon fill="none" points="20,157.6722,16,163.6722,24,163.6722" style="stroke:#1963A0;stroke-width:1.0;"/><text fill="#000000" font-family="sans-serif" font-size="14" lengthAdjust="spacing" textLength="153" x="29" y="165.9007">image: Optional&lt;Image&gt;</text><line style="stroke:#181818;stroke-width:0.5;" x1="10" x2="245" y1="172.9769" y2="172.9769"/><ellipse cx="20" cy="187.2816" fill="#84BE84" rx="3" ry="3" style="stroke:#038048;stroke-width:1.0;"/><text fill="#000000" font-family="sans-serif" font-size="14" lengthAdjust="spacing" textLength="211" x="29" y="191.5101">ExampleGridModel(World, int, int)</text><ellipse cx="20" cy="204.8909" fill="#84BE84" rx="3" ry="3" style="stroke:#038048;stroke-width:1.0;"/><text fill="#000000" font-family="sans-serif" font-size="14" lengthAdjust="spacing" textLength="211" x="29" y="209.1195">ExampleGridModel(World, Image)</text></g></a><!--class medipro.object.base.gridobject.GridObjectModel--><a href="..\..\base\gridobject\GridObjectModel.html" target="_top" title="..\..\base\gridobject\GridObjectModel.html" xlink:actuate="onRequest" xlink:href="..\..\base\gridobject\GridObjectModel.html" xlink:show="new" xlink:title="..\..\base\gridobject\GridObjectModel.html" xlink:type="simple"><g id="elem_medipro.object.base.gridobject.GridObjectModel"><rect codeLine="11" fill="#F1F1F1" height="40.1875" id="medipro.object.base.gridobject.GridObjectModel" rx="2.5" ry="2.5" style="stroke:#181818;stroke-width:0.5;" width="175" x="40" y="7"/><ellipse cx="55" cy="27.0938" fill="#A9DCDF" rx="11" ry="11" style="stroke:#181818;stroke-width:1.0;"/><path d="M57.1875,28.8594 L53.0469,28.8594 L52.625,29.8906 L53.0469,29.8906 Q53.6563,29.8906 53.9219,30.125 Q54.1875,30.3594 54.1875,30.75 Q54.1875,31.125 53.9219,31.3594 Q53.6563,31.5938 53.0469,31.5938 L50.75,31.5938 Q50.1406,31.5938 49.8906,31.3594 Q49.625,31.125 49.625,30.7344 Q49.625,30.3594 49.9063,30.125 Q50.1719,29.875 50.7969,29.8906 L53.4688,23.2344 L52.3594,23.2344 Q51.75,23.2344 51.4844,23 Q51.2188,22.7656 51.2188,22.375 Q51.2188,22 51.4844,21.7656 Q51.75,21.5313 52.3594,21.5313 L56.0313,21.5313 L59.4219,29.8906 Q60.0156,29.8906 60.2031,30.0313 Q60.5938,30.2969 60.5938,30.75 Q60.5938,31.125 60.3281,31.3594 Q60.0781,31.5938 59.4688,31.5938 L57.1719,31.5938 Q56.5625,31.5938 56.2969,31.3594 Q56.0313,31.125 56.0313,30.7344 Q56.0313,30.3594 56.2969,30.125 Q56.5625,29.8906 57.1719,29.8906 L57.5938,29.8906 L57.1875,28.8594 Z M56.4688,27.1563 L55.1094,23.7813 L53.7344,27.1563 L56.4688,27.1563 Z " fill="#000000"/><text fill="#000000" font-family="sans-serif" font-size="14" font-style="italic" lengthAdjust="spacing" textLength="107" x="87" y="26.5332">GridObjectModel</text><text fill="#000000" font-family="sans-serif" font-size="10" font-style="italic" lengthAdjust="spacing" textLength="143" x="69" y="39.9902">medipro.object.base.gridobject</text></g></a><!--reverse link medipro.object.base.gridobject.GridObjectModel to medipro.object.example.grid.ExampleGridModel--><g id="link_medipro.object.base.gridobject.GridObjectModel_medipro.object.example.grid.ExampleGridModel"><path codeLine="13" d="M127.5,65.66 C127.5,81.29 127.5,85.98 127.5,106.93 " fill="none" id="medipro.object.base.gridobject.GridObjectModel-backto-medipro.object.example.grid.ExampleGridModel" style="stroke:#181818;stroke-width:1.0;"/><polygon fill="none" points="127.5,47.66,121.5,65.66,133.5,65.66,127.5,47.66" style="stroke:#181818;stroke-width:1.0;"/></g><text fill="#888888" font-family="sans-serif" font-size="10" lengthAdjust="spacing" textLength="184" x="27.5" y="232.5765">UMLDoclet 2.1.1, PlantUML 1.2023.12</text><!--SRC=[bL9DImCn4BtxAuQ2q68RNF5KbZqf8bWgY7ZezZ2xcNOZ-I89ulTlDxif2b4i3I5XthnCPjuC082d01eLUOijtP55Xy4uq4RJKNH39pW1AHjUO2D8Sf-ZYa9d8ZpWhKJlOLHwyKhpuhowV4Pb9LqvmHU6awprpdLQAUB2EiDCyqXjO9IOR1kf8q0F__XP7XPMgnnYNL1olOQt8Qz-VGg5Mvh3qWPXDChokhUhR_z97cByO9paKn0w3CTaFtK8cNWVIH5iV73OXb_Iz6-NGsrxb6dGfxAJ_PSu6OLbiQCyZDLnzxpwXrTdl9rcAV43loZVPxE3UfRcXNGW1njZ-kj-SNDXMXadyemLh9Z2hKGT8Wh7J-HyxDfuyWK0]--></g></svg>