<?xml version="1.0" encoding="us-ascii" standalone="no"?><svg xmlns="http://www.w3.org/2000/svg" xmlns:xlink="http://www.w3.org/1999/xlink" contentStyleType="text/css" height="242px" preserveAspectRatio="none" style="width:459px;height:242px;background:#FFFFFF;" version="1.1" viewBox="0 0 459 242" width="459px" zoomAndPan="magnify"><defs/><g><!--class medipro.object.example.grid.ExampleGridView--><a href="ExampleGridView.html" target="_top" title="ExampleGridView.html" xlink:actuate="onRequest" xlink:href="ExampleGridView.html" xlink:show="new" xlink:title="ExampleGridView.html" xlink:type="simple"><g id="elem_medipro.object.example.grid.ExampleGridView"><rect codeLine="5" fill="#F1F1F1" height="83.4063" id="medipro.object.example.grid.ExampleGridView" rx="2.5" ry="2.5" style="stroke:#181818;stroke-width:0.5;" width="445" x="7" y="132.79"/><ellipse cx="156.75" cy="152.8838" fill="#ADD1B2" rx="11" ry="11" style="stroke:#181818;stroke-width:1.0;"/><path d="M159.5156,148.7588 Q159.6719,148.54 159.8594,148.4306 Q160.0469,148.3213 160.2656,148.3213 Q160.6406,148.3213 160.875,148.5869 Q161.1094,148.8369 161.1094,149.4463 L161.1094,150.8994 Q161.1094,151.5088 160.875,151.7744 Q160.6406,152.04 160.2656,152.04 Q159.9219,152.04 159.7188,151.8369 Q159.5156,151.6494 159.4063,151.1338 Q159.3594,150.7744 159.1719,150.5869 Q158.8438,150.2119 158.2344,149.9931 Q157.625,149.7744 157,149.7744 Q156.2344,149.7744 155.5938,150.1025 Q154.9688,150.4306 154.4688,151.1806 Q153.9844,151.9306 153.9844,152.9619 L153.9844,154.0556 Q153.9844,155.29 154.875,156.1181 Q155.7656,156.9306 157.3594,156.9306 Q158.2969,156.9306 158.9531,156.6806 Q159.3438,156.5244 159.7656,156.0869 Q160.0313,155.8213 160.1719,155.7431 Q160.3281,155.665 160.5313,155.665 Q160.8594,155.665 161.1094,155.9306 Q161.375,156.1806 161.375,156.5244 Q161.375,156.8681 161.0313,157.2744 Q160.5313,157.8525 159.7344,158.1806 Q158.6563,158.6338 157.3594,158.6338 Q155.8438,158.6338 154.6406,158.0088 Q153.6563,157.5088 152.9688,156.4463 Q152.2813,155.3681 152.2813,154.0869 L152.2813,152.9306 Q152.2813,151.6025 152.8906,150.4619 Q153.5156,149.3056 154.6094,148.6963 Q155.7031,148.0713 156.9375,148.0713 Q157.6719,148.0713 158.3125,148.2431 Q158.9688,148.3994 159.5156,148.7588 Z " fill="#000000"/><text fill="#000000" font-family="sans-serif" font-size="14" lengthAdjust="spacing" textLength="109" x="191.25" y="152.3232">ExampleGridView</text><text fill="#000000" font-family="sans-serif" font-size="10" lengthAdjust="spacing" textLength="137" x="177.25" y="165.7802">medipro.object.example.grid</text><line style="stroke:#181818;stroke-width:0.5;" x1="8" x2="451" y1="172.9775" y2="172.9775"/><ellipse cx="18" cy="187.2822" fill="#84BE84" rx="3" ry="3" style="stroke:#038048;stroke-width:1.0;"/><text fill="#000000" font-family="sans-serif" font-size="14" lengthAdjust="spacing" textLength="237" x="27" y="191.5107">ExampleGridView(ExampleGridModel)</text><ellipse cx="18" cy="204.8916" fill="#84BE84" rx="3" ry="3" style="stroke:#038048;stroke-width:1.0;"/><text fill="#000000" font-family="sans-serif" font-size="14" lengthAdjust="spacing" textLength="419" x="27" y="209.1201">drawGrid(GameObjectModel, Graphics2D, Rectangle, int, int): void</text></g></a><!--class medipro.object.base.gridobject.GridObjectView--><a href="..\..\base\gridobject\GridObjectView.html" target="_top" title="..\..\base\gridobject\GridObjectView.html" xlink:actuate="onRequest" xlink:href="..\..\base\gridobject\GridObjectView.html" xlink:show="new" xlink:title="..\..\base\gridobject\GridObjectView.html" xlink:type="simple"><g id="elem_medipro.object.base.gridobject.GridObjectView"><rect codeLine="10" fill="#F1F1F1" height="65.7969" id="medipro.object.base.gridobject.GridObjectView" rx="2.5" ry="2.5" style="stroke:#181818;stroke-width:0.5;" width="445" x="7" y="7"/><ellipse cx="153.75" cy="27.0938" fill="#A9DCDF" rx="11" ry="11" style="stroke:#181818;stroke-width:1.0;"/><path d="M155.9375,28.8594 L151.7969,28.8594 L151.375,29.8906 L151.7969,29.8906 Q152.4063,29.8906 152.6719,30.125 Q152.9375,30.3594 152.9375,30.75 Q152.9375,31.125 152.6719,31.3594 Q152.4063,31.5938 151.7969,31.5938 L149.5,31.5938 Q148.8906,31.5938 148.6406,31.3594 Q148.375,31.125 148.375,30.7344 Q148.375,30.3594 148.6563,30.125 Q148.9219,29.875 149.5469,29.8906 L152.2188,23.2344 L151.1094,23.2344 Q150.5,23.2344 150.2344,23 Q149.9688,22.7656 149.9688,22.375 Q149.9688,22 150.2344,21.7656 Q150.5,21.5313 151.1094,21.5313 L154.7813,21.5313 L158.1719,29.8906 Q158.7656,29.8906 158.9531,30.0313 Q159.3438,30.2969 159.3438,30.75 Q159.3438,31.125 159.0781,31.3594 Q158.8281,31.5938 158.2188,31.5938 L155.9219,31.5938 Q155.3125,31.5938 155.0469,31.3594 Q154.7813,31.125 154.7813,30.7344 Q154.7813,30.3594 155.0469,30.125 Q155.3125,29.8906 155.9219,29.8906 L156.3438,29.8906 L155.9375,28.8594 Z M155.2188,27.1563 L153.8594,23.7813 L152.4844,27.1563 L155.2188,27.1563 Z " fill="#000000"/><text fill="#000000" font-family="sans-serif" font-size="14" font-style="italic" lengthAdjust="spacing" textLength="97" x="197.25" y="26.5332">GridObjectView</text><text fill="#000000" font-family="sans-serif" font-size="10" font-style="italic" lengthAdjust="spacing" textLength="143" x="174.25" y="39.9902">medipro.object.base.gridobject</text><line style="stroke:#181818;stroke-width:0.5;" x1="8" x2="451" y1="47.1875" y2="47.1875"/><ellipse cx="18" cy="61.4922" fill="#84BE84" rx="3" ry="3" style="stroke:#038048;stroke-width:1.0;"/><text fill="#000000" font-family="sans-serif" font-size="14" font-style="italic" lengthAdjust="spacing" textLength="419" x="27" y="65.7207">drawGrid(GameObjectModel, Graphics2D, Rectangle, int, int): void</text></g></a><!--reverse link medipro.object.base.gridobject.GridObjectView to medipro.object.example.grid.ExampleGridView--><g id="link_medipro.object.base.gridobject.GridObjectView_medipro.object.example.grid.ExampleGridView"><path codeLine="14" d="M229.5,90.99 C229.5,108.93 229.5,113.46 229.5,132.65 " fill="none" id="medipro.object.base.gridobject.GridObjectView-backto-medipro.object.example.grid.ExampleGridView" style="stroke:#181818;stroke-width:1.0;"/><polygon fill="none" points="229.5,72.99,223.5,90.99,235.5,90.99,229.5,72.99" style="stroke:#181818;stroke-width:1.0;"/></g><text fill="#888888" font-family="sans-serif" font-size="10" lengthAdjust="spacing" textLength="184" x="130.5" y="232.5771">UMLDoclet 2.1.1, PlantUML 1.2023.12</text><!--SRC=[hP9HIyCm4CVV_HJ7GEYm2tRuDCQU9drnA8g-h7ku9hSraYOb2PiwzzrDMsMkay7041Bolnztbpy70E38WyQIN8MSdgX2YzvOq4RJHGX38GK1bPL_XwKa9LnNBSaN9iYDpXKw1xsnanyqIcucjszOLefIAyMBf4scloFNavA4hAnX9dybxXcr85i5iWVeu4ISTRB2VDvHME5BjLZ0jccgNbST8lhrdXb1ghz7XSLDhKTfyEM-gTyWCQGMgq9oDvp6y1Xar2j5CKZjcwC_WhMHeicqQmt1t7cBt1yvKnTeSvys9aVN_hfz_-LD1s67gOCxZ6LXrrYsnx93xDYoxK_lk_-rvBpknv-3mJd3q8uXQKyMbiRKr_FiRcgu2eC-P0bBOdXGg7rGuN9DracZe_uN]--></g></svg>