<?xml version="1.0" encoding="us-ascii" standalone="no"?><svg xmlns="http://www.w3.org/2000/svg" xmlns:xlink="http://www.w3.org/1999/xlink" contentStyleType="text/css" height="344px" preserveAspectRatio="none" style="width:972px;height:344px;background:#FFFFFF;" version="1.1" viewBox="0 0 972 344" width="972px" zoomAndPan="magnify"><defs/><g><!--cluster medipro.object.example.grid--><g id="cluster_medipro.object.example.grid"><path d="M8.5,165.22 L210.5,165.22 A3.75,3.75 0 0 1 213,167.72 L220,188.8294 L962.5,188.8294 A2.5,2.5 0 0 1 965,191.3294 L965,315.55 A2.5,2.5 0 0 1 962.5,318.05 L8.5,318.05 A2.5,2.5 0 0 1 6,315.55 L6,167.72 A2.5,2.5 0 0 1 8.5,165.22 " fill="none" style="stroke:#000000;stroke-width:1.5;"/><line style="stroke:#000000;stroke-width:1.5;" x1="6" x2="220" y1="188.8294" y2="188.8294"/><text fill="#000000" font-family="sans-serif" font-size="14" font-weight="bold" lengthAdjust="spacing" textLength="201" x="10" y="181.7532">medipro.object.example.grid</text></g><!--cluster medipro.object.base.gridobject--><g id="cluster_medipro.object.base.gridobject"><path d="M57.5,6 L278.5,6 A3.75,3.75 0 0 1 281,8.5 L288,29.6094 L901.5,29.6094 A2.5,2.5 0 0 1 904,32.1094 L904,138.72 A2.5,2.5 0 0 1 901.5,141.22 L57.5,141.22 A2.5,2.5 0 0 1 55,138.72 L55,8.5 A2.5,2.5 0 0 1 57.5,6 " fill="none" style="stroke:#000000;stroke-width:1.5;"/><line style="stroke:#000000;stroke-width:1.5;" x1="55" x2="288" y1="29.6094" y2="29.6094"/><text fill="#000000" font-family="sans-serif" font-size="14" font-weight="bold" lengthAdjust="spacing" textLength="220" x="59" y="22.5332">medipro.object.base.gridobject</text></g><!--class ExampleGridController--><a href="ExampleGridController.html" target="_top" title="ExampleGridController.html" xlink:actuate="onRequest" xlink:href="ExampleGridController.html" xlink:show="new" xlink:title="ExampleGridController.html" xlink:type="simple"><g id="elem_ExampleGridController"><rect codeLine="5" fill="#F1F1F1" height="48" id="ExampleGridController" rx="2.5" ry="2.5" style="stroke:#181818;stroke-width:0.5;" width="174" x="775" y="227.64"/><ellipse cx="790" cy="243.64" fill="#ADD1B2" rx="11" ry="11" style="stroke:#181818;stroke-width:1.0;"/><path d="M792.7656,239.515 Q792.9219,239.2963 793.1094,239.1869 Q793.2969,239.0775 793.5156,239.0775 Q793.8906,239.0775 794.125,239.3431 Q794.3594,239.5931 794.3594,240.2025 L794.3594,241.6556 Q794.3594,242.265 794.125,242.5306 Q793.8906,242.7963 793.5156,242.7963 Q793.1719,242.7963 792.9688,242.5931 Q792.7656,242.4056 792.6563,241.89 Q792.6094,241.5306 792.4219,241.3431 Q792.0938,240.9681 791.4844,240.7494 Q790.875,240.5306 790.25,240.5306 Q789.4844,240.5306 788.8438,240.8588 Q788.2188,241.1869 787.7188,241.9369 Q787.2344,242.6869 787.2344,243.7181 L787.2344,244.8119 Q787.2344,246.0463 788.125,246.8744 Q789.0156,247.6869 790.6094,247.6869 Q791.5469,247.6869 792.2031,247.4369 Q792.5938,247.2806 793.0156,246.8431 Q793.2813,246.5775 793.4219,246.4994 Q793.5781,246.4213 793.7813,246.4213 Q794.1094,246.4213 794.3594,246.6869 Q794.625,246.9369 794.625,247.2806 Q794.625,247.6244 794.2813,248.0306 Q793.7813,248.6088 792.9844,248.9369 Q791.9063,249.39 790.6094,249.39 Q789.0938,249.39 787.8906,248.765 Q786.9063,248.265 786.2188,247.2025 Q785.5313,246.1244 785.5313,244.8431 L785.5313,243.6869 Q785.5313,242.3588 786.1406,241.2181 Q786.7656,240.0619 787.8594,239.4525 Q788.9531,238.8275 790.1875,238.8275 Q790.9219,238.8275 791.5625,238.9994 Q792.2188,239.1556 792.7656,239.515 Z " fill="#000000"/><text fill="#000000" font-family="sans-serif" font-size="14" lengthAdjust="spacing" textLength="142" x="804" y="249.3685">ExampleGridController</text><line style="stroke:#181818;stroke-width:0.5;" x1="776" x2="948" y1="259.64" y2="259.64"/><line style="stroke:#181818;stroke-width:0.5;" x1="776" x2="948" y1="267.64" y2="267.64"/></g></a><!--class ExampleGridModel--><a href="ExampleGridModel.html" target="_top" title="ExampleGridModel.html" xlink:actuate="onRequest" xlink:href="ExampleGridModel.html" xlink:show="new" xlink:title="ExampleGridModel.html" xlink:type="simple"><g id="elem_ExampleGridModel"><rect codeLine="7" fill="#F1F1F1" height="100.8281" id="ExampleGridModel" rx="2.5" ry="2.5" style="stroke:#181818;stroke-width:0.5;" width="237" x="502.5" y="201.22"/><ellipse cx="557.75" cy="217.22" fill="#ADD1B2" rx="11" ry="11" style="stroke:#181818;stroke-width:1.0;"/><path d="M560.5156,213.095 Q560.6719,212.8763 560.8594,212.7669 Q561.0469,212.6575 561.2656,212.6575 Q561.6406,212.6575 561.875,212.9231 Q562.1094,213.1731 562.1094,213.7825 L562.1094,215.2356 Q562.1094,215.845 561.875,216.1106 Q561.6406,216.3763 561.2656,216.3763 Q560.9219,216.3763 560.7188,216.1731 Q560.5156,215.9856 560.4063,215.47 Q560.3594,215.1106 560.1719,214.9231 Q559.8438,214.5481 559.2344,214.3294 Q558.625,214.1106 558,214.1106 Q557.2344,214.1106 556.5938,214.4388 Q555.9688,214.7669 555.4688,215.5169 Q554.9844,216.2669 554.9844,217.2981 L554.9844,218.3919 Q554.9844,219.6263 555.875,220.4544 Q556.7656,221.2669 558.3594,221.2669 Q559.2969,221.2669 559.9531,221.0169 Q560.3438,220.8606 560.7656,220.4231 Q561.0313,220.1575 561.1719,220.0794 Q561.3281,220.0013 561.5313,220.0013 Q561.8594,220.0013 562.1094,220.2669 Q562.375,220.5169 562.375,220.8606 Q562.375,221.2044 562.0313,221.6106 Q561.5313,222.1888 560.7344,222.5169 Q559.6563,222.97 558.3594,222.97 Q556.8438,222.97 555.6406,222.345 Q554.6563,221.845 553.9688,220.7825 Q553.2813,219.7044 553.2813,218.4231 L553.2813,217.2669 Q553.2813,215.9388 553.8906,214.7981 Q554.5156,213.6419 555.6094,213.0325 Q556.7031,212.4075 557.9375,212.4075 Q558.6719,212.4075 559.3125,212.5794 Q559.9688,212.7356 560.5156,213.095 Z " fill="#000000"/><text fill="#000000" font-family="sans-serif" font-size="14" lengthAdjust="spacing" textLength="118" x="578.25" y="222.9485">ExampleGridModel</text><line style="stroke:#181818;stroke-width:0.5;" x1="503.5" x2="738.5" y1="233.22" y2="233.22"/><polygon fill="none" points="513.5,243.5247,509.5,249.5247,517.5,249.5247" style="stroke:#1963A0;stroke-width:1.0;"/><text fill="#000000" font-family="sans-serif" font-size="14" lengthAdjust="spacing" textLength="153" x="522.5" y="251.7532">image: Optional&lt;Image&gt;</text><line style="stroke:#181818;stroke-width:0.5;" x1="503.5" x2="738.5" y1="258.8294" y2="258.8294"/><ellipse cx="513.5" cy="273.1341" fill="#84BE84" rx="3" ry="3" style="stroke:#038048;stroke-width:1.0;"/><text fill="#000000" font-family="sans-serif" font-size="14" lengthAdjust="spacing" textLength="211" x="522.5" y="277.3626">ExampleGridModel(World, int, int)</text><ellipse cx="513.5" cy="290.7434" fill="#84BE84" rx="3" ry="3" style="stroke:#038048;stroke-width:1.0;"/><text fill="#000000" font-family="sans-serif" font-size="14" lengthAdjust="spacing" textLength="211" x="522.5" y="294.972">ExampleGridModel(World, Image)</text></g></a><!--class ExampleGridView--><a href="ExampleGridView.html" target="_top" title="ExampleGridView.html" xlink:actuate="onRequest" xlink:href="ExampleGridView.html" xlink:show="new" xlink:title="ExampleGridView.html" xlink:type="simple"><g id="elem_ExampleGridView"><rect codeLine="13" fill="#F1F1F1" height="83.2188" id="ExampleGridView" rx="2.5" ry="2.5" style="stroke:#181818;stroke-width:0.5;" width="445" x="22.5" y="210.03"/><ellipse cx="186.25" cy="226.03" fill="#ADD1B2" rx="11" ry="11" style="stroke:#181818;stroke-width:1.0;"/><path d="M189.0156,221.905 Q189.1719,221.6863 189.3594,221.5769 Q189.5469,221.4675 189.7656,221.4675 Q190.1406,221.4675 190.375,221.7331 Q190.6094,221.9831 190.6094,222.5925 L190.6094,224.0456 Q190.6094,224.655 190.375,224.9206 Q190.1406,225.1863 189.7656,225.1863 Q189.4219,225.1863 189.2188,224.9831 Q189.0156,224.7956 188.9063,224.28 Q188.8594,223.9206 188.6719,223.7331 Q188.3438,223.3581 187.7344,223.1394 Q187.125,222.9206 186.5,222.9206 Q185.7344,222.9206 185.0938,223.2488 Q184.4688,223.5769 183.9688,224.3269 Q183.4844,225.0769 183.4844,226.1081 L183.4844,227.2019 Q183.4844,228.4363 184.375,229.2644 Q185.2656,230.0769 186.8594,230.0769 Q187.7969,230.0769 188.4531,229.8269 Q188.8438,229.6706 189.2656,229.2331 Q189.5313,228.9675 189.6719,228.8894 Q189.8281,228.8113 190.0313,228.8113 Q190.3594,228.8113 190.6094,229.0769 Q190.875,229.3269 190.875,229.6706 Q190.875,230.0144 190.5313,230.4206 Q190.0313,230.9988 189.2344,231.3269 Q188.1563,231.78 186.8594,231.78 Q185.3438,231.78 184.1406,231.155 Q183.1563,230.655 182.4688,229.5925 Q181.7813,228.5144 181.7813,227.2331 L181.7813,226.0769 Q181.7813,224.7488 182.3906,223.6081 Q183.0156,222.4519 184.1094,221.8425 Q185.2031,221.2175 186.4375,221.2175 Q187.1719,221.2175 187.8125,221.3894 Q188.4688,221.5456 189.0156,221.905 Z " fill="#000000"/><text fill="#000000" font-family="sans-serif" font-size="14" lengthAdjust="spacing" textLength="109" x="206.75" y="231.7585">ExampleGridView</text><line style="stroke:#181818;stroke-width:0.5;" x1="23.5" x2="466.5" y1="242.03" y2="242.03"/><line style="stroke:#181818;stroke-width:0.5;" x1="23.5" x2="466.5" y1="250.03" y2="250.03"/><ellipse cx="33.5" cy="264.3347" fill="#84BE84" rx="3" ry="3" style="stroke:#038048;stroke-width:1.0;"/><text fill="#000000" font-family="sans-serif" font-size="14" lengthAdjust="spacing" textLength="237" x="42.5" y="268.5632">ExampleGridView(ExampleGridModel)</text><ellipse cx="33.5" cy="281.9441" fill="#84BE84" rx="3" ry="3" style="stroke:#038048;stroke-width:1.0;"/><text fill="#000000" font-family="sans-serif" font-size="14" lengthAdjust="spacing" textLength="419" x="42.5" y="286.1726">drawGrid(GameObjectModel, Graphics2D, Rectangle, int, int): void</text></g></a><!--class GridObjectController--><a href="..\..\base\gridobject\GridObjectController.html" target="_top" title="..\..\base\gridobject\GridObjectController.html" xlink:actuate="onRequest" xlink:href="..\..\base\gridobject\GridObjectController.html" xlink:show="new" xlink:title="..\..\base\gridobject\GridObjectController.html" xlink:type="simple"><g id="elem_GridObjectController"><rect codeLine="21" fill="#F1F1F1" height="48" id="GridObjectController" rx="2.5" ry="2.5" style="stroke:#181818;stroke-width:0.5;" width="162" x="726" y="59.61"/><ellipse cx="741" cy="75.61" fill="#A9DCDF" rx="11" ry="11" style="stroke:#181818;stroke-width:1.0;"/><path d="M743.1875,77.3756 L739.0469,77.3756 L738.625,78.4069 L739.0469,78.4069 Q739.6563,78.4069 739.9219,78.6413 Q740.1875,78.8756 740.1875,79.2663 Q740.1875,79.6413 739.9219,79.8756 Q739.6563,80.11 739.0469,80.11 L736.75,80.11 Q736.1406,80.11 735.8906,79.8756 Q735.625,79.6413 735.625,79.2506 Q735.625,78.8756 735.9063,78.6413 Q736.1719,78.3913 736.7969,78.4069 L739.4688,71.7506 L738.3594,71.7506 Q737.75,71.7506 737.4844,71.5163 Q737.2188,71.2819 737.2188,70.8913 Q737.2188,70.5163 737.4844,70.2819 Q737.75,70.0475 738.3594,70.0475 L742.0313,70.0475 L745.4219,78.4069 Q746.0156,78.4069 746.2031,78.5475 Q746.5938,78.8131 746.5938,79.2663 Q746.5938,79.6413 746.3281,79.8756 Q746.0781,80.11 745.4688,80.11 L743.1719,80.11 Q742.5625,80.11 742.2969,79.8756 Q742.0313,79.6413 742.0313,79.2506 Q742.0313,78.8756 742.2969,78.6413 Q742.5625,78.4069 743.1719,78.4069 L743.5938,78.4069 L743.1875,77.3756 Z M742.4688,75.6725 L741.1094,72.2975 L739.7344,75.6725 L742.4688,75.6725 Z " fill="#000000"/><text fill="#000000" font-family="sans-serif" font-size="14" font-style="italic" lengthAdjust="spacing" textLength="130" x="755" y="81.3385">GridObjectController</text><line style="stroke:#181818;stroke-width:0.5;" x1="727" x2="887" y1="91.61" y2="91.61"/><line style="stroke:#181818;stroke-width:0.5;" x1="727" x2="887" y1="99.61" y2="99.61"/></g></a><!--class GridObjectModel--><a href="..\..\base\gridobject\GridObjectModel.html" target="_top" title="..\..\base\gridobject\GridObjectModel.html" xlink:actuate="onRequest" xlink:href="..\..\base\gridobject\GridObjectModel.html" xlink:show="new" xlink:title="..\..\base\gridobject\GridObjectModel.html" xlink:type="simple"><g id="elem_GridObjectModel"><rect codeLine="22" fill="#F1F1F1" height="83.2188" id="GridObjectModel" rx="2.5" ry="2.5" style="stroke:#181818;stroke-width:0.5;" width="139" x="551.5" y="42"/><ellipse cx="566.5" cy="58" fill="#A9DCDF" rx="11" ry="11" style="stroke:#181818;stroke-width:1.0;"/><path d="M568.6875,59.7656 L564.5469,59.7656 L564.125,60.7969 L564.5469,60.7969 Q565.1563,60.7969 565.4219,61.0313 Q565.6875,61.2656 565.6875,61.6563 Q565.6875,62.0313 565.4219,62.2656 Q565.1563,62.5 564.5469,62.5 L562.25,62.5 Q561.6406,62.5 561.3906,62.2656 Q561.125,62.0313 561.125,61.6406 Q561.125,61.2656 561.4063,61.0313 Q561.6719,60.7813 562.2969,60.7969 L564.9688,54.1406 L563.8594,54.1406 Q563.25,54.1406 562.9844,53.9063 Q562.7188,53.6719 562.7188,53.2813 Q562.7188,52.9063 562.9844,52.6719 Q563.25,52.4375 563.8594,52.4375 L567.5313,52.4375 L570.9219,60.7969 Q571.5156,60.7969 571.7031,60.9375 Q572.0938,61.2031 572.0938,61.6563 Q572.0938,62.0313 571.8281,62.2656 Q571.5781,62.5 570.9688,62.5 L568.6719,62.5 Q568.0625,62.5 567.7969,62.2656 Q567.5313,62.0313 567.5313,61.6406 Q567.5313,61.2656 567.7969,61.0313 Q568.0625,60.7969 568.6719,60.7969 L569.0938,60.7969 L568.6875,59.7656 Z M567.9688,58.0625 L566.6094,54.6875 L565.2344,58.0625 L567.9688,58.0625 Z " fill="#000000"/><text fill="#000000" font-family="sans-serif" font-size="14" font-style="italic" lengthAdjust="spacing" textLength="107" x="580.5" y="63.7285">GridObjectModel</text><line style="stroke:#181818;stroke-width:0.5;" x1="552.5" x2="689.5" y1="74" y2="74"/><ellipse cx="562.5" cy="88.3047" fill="none" rx="3" ry="3" style="stroke:#038048;stroke-width:1.0;"/><text fill="#000000" font-family="sans-serif" font-size="14" lengthAdjust="spacing" textLength="55" x="571.5" y="92.5332">width: int</text><ellipse cx="562.5" cy="105.9141" fill="none" rx="3" ry="3" style="stroke:#038048;stroke-width:1.0;"/><text fill="#000000" font-family="sans-serif" font-size="14" lengthAdjust="spacing" textLength="62" x="571.5" y="110.1426">height: int</text><line style="stroke:#181818;stroke-width:0.5;" x1="552.5" x2="689.5" y1="117.2188" y2="117.2188"/></g></a><!--class GridObjectView--><a href="..\..\base\gridobject\GridObjectView.html" target="_top" title="..\..\base\gridobject\GridObjectView.html" xlink:actuate="onRequest" xlink:href="..\..\base\gridobject\GridObjectView.html" xlink:show="new" xlink:title="..\..\base\gridobject\GridObjectView.html" xlink:type="simple"><g id="elem_GridObjectView"><rect codeLine="26" fill="#F1F1F1" height="65.6094" id="GridObjectView" rx="2.5" ry="2.5" style="stroke:#181818;stroke-width:0.5;" width="445" x="71.5" y="50.81"/><ellipse cx="241.25" cy="66.81" fill="#A9DCDF" rx="11" ry="11" style="stroke:#181818;stroke-width:1.0;"/><path d="M243.4375,68.5756 L239.2969,68.5756 L238.875,69.6069 L239.2969,69.6069 Q239.9063,69.6069 240.1719,69.8413 Q240.4375,70.0756 240.4375,70.4663 Q240.4375,70.8413 240.1719,71.0756 Q239.9063,71.31 239.2969,71.31 L237,71.31 Q236.3906,71.31 236.1406,71.0756 Q235.875,70.8413 235.875,70.4506 Q235.875,70.0756 236.1563,69.8413 Q236.4219,69.5913 237.0469,69.6069 L239.7188,62.9506 L238.6094,62.9506 Q238,62.9506 237.7344,62.7163 Q237.4688,62.4819 237.4688,62.0913 Q237.4688,61.7163 237.7344,61.4819 Q238,61.2475 238.6094,61.2475 L242.2813,61.2475 L245.6719,69.6069 Q246.2656,69.6069 246.4531,69.7475 Q246.8438,70.0131 246.8438,70.4663 Q246.8438,70.8413 246.5781,71.0756 Q246.3281,71.31 245.7188,71.31 L243.4219,71.31 Q242.8125,71.31 242.5469,71.0756 Q242.2813,70.8413 242.2813,70.4506 Q242.2813,70.0756 242.5469,69.8413 Q242.8125,69.6069 243.4219,69.6069 L243.8438,69.6069 L243.4375,68.5756 Z M242.7188,66.8725 L241.3594,63.4975 L239.9844,66.8725 L242.7188,66.8725 Z " fill="#000000"/><text fill="#000000" font-family="sans-serif" font-size="14" font-style="italic" lengthAdjust="spacing" textLength="97" x="261.75" y="72.5385">GridObjectView</text><line style="stroke:#181818;stroke-width:0.5;" x1="72.5" x2="515.5" y1="82.81" y2="82.81"/><line style="stroke:#181818;stroke-width:0.5;" x1="72.5" x2="515.5" y1="90.81" y2="90.81"/><ellipse cx="82.5" cy="105.1147" fill="#84BE84" rx="3" ry="3" style="stroke:#038048;stroke-width:1.0;"/><text fill="#000000" font-family="sans-serif" font-size="14" font-style="italic" lengthAdjust="spacing" textLength="419" x="91.5" y="109.3432">drawGrid(GameObjectModel, Graphics2D, Rectangle, int, int): void</text></g></a><!--reverse link GridObjectController to ExampleGridController--><g id="link_GridObjectController_ExampleGridController"><path codeLine="31" d="M820.4246,125.1355 C830.9146,156.7755 843.81,195.74 854.28,227.32 " fill="none" id="GridObjectController-backto-ExampleGridController" style="stroke:#181818;stroke-width:1.0;"/><polygon fill="none" points="814.76,108.05,814.7294,127.0236,826.1197,123.2473,814.76,108.05" style="stroke:#181818;stroke-width:1.0;"/></g><!--reverse link GridObjectModel to ExampleGridModel--><g id="link_GridObjectModel_ExampleGridModel"><path codeLine="32" d="M621,143.65 C621,166.41 621,176.88 621,200.9 " fill="none" id="GridObjectModel-backto-ExampleGridModel" style="stroke:#181818;stroke-width:1.0;"/><polygon fill="none" points="621,125.65,615,143.65,627,143.65,621,125.65" style="stroke:#181818;stroke-width:1.0;"/></g><!--reverse link GridObjectView to ExampleGridView--><g id="link_GridObjectView_ExampleGridView"><path codeLine="33" d="M279.4579,133.8847 C271.6479,160.3647 265.59,180.88 257.12,209.58 " fill="none" id="GridObjectView-backto-ExampleGridView" style="stroke:#181818;stroke-width:1.0;"/><polygon fill="none" points="284.55,116.62,273.703,132.1874,285.2129,135.5821,284.55,116.62" style="stroke:#181818;stroke-width:1.0;"/></g><text fill="#888888" font-family="sans-serif" font-size="10" lengthAdjust="spacing" textLength="184" x="387" y="334.4309">UMLDoclet 2.1.1, PlantUML 1.2023.12</text><!--SRC=[hLJVIyCm47xVNt4lGiUsmFOOXYzEXk2O2Eh3jeTR6zjesfGqRCAiVxj9wbXRQcl1qX_akxllxl9T0m2GCMsU51LggO3ImS20aAB_ZY63c0KyLPB8_HlpDM4V6AU2aL3n04w5gxryWLa6juLrQOmtCj5A2i4KR3QDE8bqB7Qx5ewL39YeXZle9zBaXzBrnMDJC8LrghbCKCplxFgwuZEgKtalKebW33pHxZNycxkZllZcBKqyStQizc2HvXP6DI-ldhzMNg3mQ6tU4cEsTWevjp4i5QOHzxFPOWoF1iOa5ApK9eM3v46zWRnL-prcXV35kbGxxZEjq415zxQaefhA512oDRTbsLvOjatEvz7ev3zFI1TrozYCZZpG4RMxKiKZniD8LmrvTqa_UdTLzFiGdCxK-RyANDAtNLTA6_MRVqucRQS1fOr_US-4XQ2zShcGdccSIBsos0YNn6U9DjlnAgNzFAtk5z8NvWYTaIcPZk51OA8D2bS7fZ9p47d3Rm00]--></g></svg>