<?xml version="1.0" encoding="us-ascii" standalone="no"?><svg xmlns="http://www.w3.org/2000/svg" xmlns:xlink="http://www.w3.org/1999/xlink" contentStyleType="text/css" height="655px" preserveAspectRatio="none" style="width:388px;height:655px;background:#FFFFFF;" version="1.1" viewBox="0 0 388 655" width="388px" zoomAndPan="magnify"><defs/><g><!--class medipro.object.base.gameobject.GameObjectView--><a href="GameObjectView.html" target="_top" title="GameObjectView.html" xlink:actuate="onRequest" xlink:href="GameObjectView.html" xlink:show="new" xlink:title="GameObjectView.html" xlink:type="simple"><g id="elem_medipro.object.base.gameobject.GameObjectView"><rect codeLine="5" fill="#F1F1F1" height="443.5938" id="medipro.object.base.gameobject.GameObjectView" rx="2.5" ry="2.5" style="stroke:#181818;stroke-width:0.5;" width="372" x="9" y="185.63"/><ellipse cx="115.75" cy="205.7238" fill="#A9DCDF" rx="11" ry="11" style="stroke:#181818;stroke-width:1.0;"/><path d="M117.9375,207.4894 L113.7969,207.4894 L113.375,208.5206 L113.7969,208.5206 Q114.4063,208.5206 114.6719,208.755 Q114.9375,208.9894 114.9375,209.38 Q114.9375,209.755 114.6719,209.9894 Q114.4063,210.2238 113.7969,210.2238 L111.5,210.2238 Q110.8906,210.2238 110.6406,209.9894 Q110.375,209.755 110.375,209.3644 Q110.375,208.9894 110.6563,208.755 Q110.9219,208.505 111.5469,208.5206 L114.2188,201.8644 L113.1094,201.8644 Q112.5,201.8644 112.2344,201.63 Q111.9688,201.3956 111.9688,201.005 Q111.9688,200.63 112.2344,200.3956 Q112.5,200.1613 113.1094,200.1613 L116.7813,200.1613 L120.1719,208.5206 Q120.7656,208.5206 120.9531,208.6613 Q121.3438,208.9269 121.3438,209.38 Q121.3438,209.755 121.0781,209.9894 Q120.8281,210.2238 120.2188,210.2238 L117.9219,210.2238 Q117.3125,210.2238 117.0469,209.9894 Q116.7813,209.755 116.7813,209.3644 Q116.7813,208.9894 117.0469,208.755 Q117.3125,208.5206 117.9219,208.5206 L118.3438,208.5206 L117.9375,207.4894 Z M117.2188,205.7863 L115.8594,202.4113 L114.4844,205.7863 L117.2188,205.7863 Z " fill="#000000"/><text fill="#000000" font-family="sans-serif" font-size="14" font-style="italic" lengthAdjust="spacing" textLength="108" x="157.25" y="205.1632">GameObjectView</text><text fill="#000000" font-family="sans-serif" font-size="10" font-style="italic" lengthAdjust="spacing" textLength="150" x="136.25" y="218.6202">medipro.object.base.gameobject</text><line style="stroke:#181818;stroke-width:0.5;" x1="10" x2="380" y1="225.8175" y2="225.8175"/><polygon fill="none" points="20,235.1222,24,239.1222,20,243.1222,16,239.1222" style="stroke:#B38D22;stroke-width:1.0;"/><text fill="#000000" font-family="sans-serif" font-size="14" lengthAdjust="spacing" textLength="93" x="29" y="244.3507">logger: Logger</text><ellipse cx="20" cy="257.7316" fill="none" rx="3" ry="3" style="stroke:#038048;stroke-width:1.0;"/><text fill="#000000" font-family="sans-serif" font-size="14" lengthAdjust="spacing" textLength="163" x="29" y="261.9601">model: GameObjectModel</text><ellipse cx="20" cy="275.3409" fill="none" rx="3" ry="3" style="stroke:#038048;stroke-width:1.0;"/><text fill="#000000" font-family="sans-serif" font-size="14" lengthAdjust="spacing" textLength="117" x="29" y="279.5695">drawAsUI: boolean</text><polygon fill="none" points="20,287.9503,24,291.9503,20,295.9503,16,291.9503" style="stroke:#B38D22;stroke-width:1.0;"/><text fill="#000000" font-family="sans-serif" font-size="14" lengthAdjust="spacing" text-decoration="underline" textLength="128" x="29" y="297.1788">nextBindingPoint: int</text><polygon fill="none" points="20,306.5597,16,312.5597,24,312.5597" style="stroke:#1963A0;stroke-width:1.0;"/><text fill="#000000" font-family="sans-serif" font-size="14" lengthAdjust="spacing" textLength="121" x="29" y="314.7882">shaderProgram: int</text><polygon fill="none" points="20,324.1691,16,330.1691,24,330.1691" style="stroke:#1963A0;stroke-width:1.0;"/><text fill="#000000" font-family="sans-serif" font-size="14" lengthAdjust="spacing" textLength="140" x="29" y="332.3976">textureName: IntBuffer</text><polygon fill="none" points="20,341.7784,16,347.7784,24,347.7784" style="stroke:#1963A0;stroke-width:1.0;"/><text fill="#000000" font-family="sans-serif" font-size="14" lengthAdjust="spacing" textLength="147" x="29" y="350.007">samplerName: IntBuffer</text><polygon fill="none" points="20,359.3878,16,365.3878,24,365.3878" style="stroke:#1963A0;stroke-width:1.0;"/><text fill="#000000" font-family="sans-serif" font-size="14" lengthAdjust="spacing" textLength="84" x="29" y="367.6163">vbo: IntBuffer</text><polygon fill="none" points="20,376.9972,16,382.9972,24,382.9972" style="stroke:#1963A0;stroke-width:1.0;"/><text fill="#000000" font-family="sans-serif" font-size="14" lengthAdjust="spacing" textLength="112" x="29" y="385.2257">shaderFile: String</text><line style="stroke:#181818;stroke-width:0.5;" x1="10" x2="380" y1="392.3019" y2="392.3019"/><ellipse cx="20" cy="406.6066" fill="#84BE84" rx="3" ry="3" style="stroke:#038048;stroke-width:1.0;"/><text fill="#000000" font-family="sans-serif" font-size="14" lengthAdjust="spacing" textLength="235" x="29" y="410.8351">GameObjectView(GameObjectModel)</text><ellipse cx="20" cy="424.2159" fill="#84BE84" rx="3" ry="3" style="stroke:#038048;stroke-width:1.0;"/><text fill="#000000" font-family="sans-serif" font-size="14" lengthAdjust="spacing" textLength="258" x="29" y="428.4445">draw(Graphics2D, AffineTransform): void</text><polygon fill="#FFFF44" points="20,436.8253,24,440.8253,20,444.8253,16,440.8253" style="stroke:#B38D22;stroke-width:1.0;"/><text fill="#000000" font-family="sans-serif" font-size="14" font-style="italic" lengthAdjust="spacing" textLength="148" x="29" y="446.0538">draw(Graphics2D): void</text><ellipse cx="20" cy="459.4347" fill="#84BE84" rx="3" ry="3" style="stroke:#038048;stroke-width:1.0;"/><text fill="#000000" font-family="sans-serif" font-size="14" lengthAdjust="spacing" textLength="195" x="29" y="463.6632">display(GLAutoDrawable): void</text><ellipse cx="20" cy="477.0441" fill="#84BE84" rx="3" ry="3" style="stroke:#038048;stroke-width:1.0;"/><text fill="#000000" font-family="sans-serif" font-size="14" lengthAdjust="spacing" textLength="200" x="29" y="481.2726">dispose(GLAutoDrawable): void</text><ellipse cx="20" cy="494.6534" fill="#84BE84" rx="3" ry="3" style="stroke:#038048;stroke-width:1.0;"/><text fill="#000000" font-family="sans-serif" font-size="14" lengthAdjust="spacing" textLength="169" x="29" y="498.882">init(GLAutoDrawable): void</text><polygon fill="#4177AF" points="20,508.2628,16,514.2628,24,514.2628" style="stroke:#1963A0;stroke-width:1.0;"/><text fill="#000000" font-family="sans-serif" font-size="14" lengthAdjust="spacing" textLength="224" x="29" y="516.4913">initTextures(GLAutoDrawable): void</text><polygon fill="#4177AF" points="20,525.8722,16,531.8722,24,531.8722" style="stroke:#1963A0;stroke-width:1.0;"/><text fill="#000000" font-family="sans-serif" font-size="14" lengthAdjust="spacing" textLength="228" x="29" y="534.1007">initSamplers(GLAutoDrawable): void</text><polygon fill="#FFFF44" points="20,542.4816,24,546.4816,20,550.4816,16,546.4816" style="stroke:#B38D22;stroke-width:1.0;"/><text fill="#000000" font-family="sans-serif" font-size="14" lengthAdjust="spacing" textLength="237" x="29" y="551.7101">initBuffers(GLAutoDrawable, int): void</text><polygon fill="#4177AF" points="20,561.0909,16,567.0909,24,567.0909" style="stroke:#1963A0;stroke-width:1.0;"/><text fill="#000000" font-family="sans-serif" font-size="14" lengthAdjust="spacing" textLength="246" x="29" y="569.3195">bindBuffers(GLAutoDrawable, int): void</text><rect fill="#F24D5C" height="6" style="stroke:#C82930;stroke-width:1.0;" width="6" x="17" y="579.7003"/><text fill="#000000" font-family="sans-serif" font-size="14" lengthAdjust="spacing" textLength="346" x="29" y="586.9288">handleShaderCompileError(GLAutoDrawable, int): void</text><polygon fill="#4177AF" points="20,596.3097,16,602.3097,24,602.3097" style="stroke:#1963A0;stroke-width:1.0;"/><text fill="#000000" font-family="sans-serif" font-size="14" lengthAdjust="spacing" textLength="211" x="29" y="604.5382">initShaders(GLAutoDrawable): int</text><ellipse cx="20" cy="617.9191" fill="#84BE84" rx="3" ry="3" style="stroke:#038048;stroke-width:1.0;"/><text fill="#000000" font-family="sans-serif" font-size="14" lengthAdjust="spacing" textLength="295" x="29" y="622.1476">reshape(GLAutoDrawable, int, int, int, int): void</text></g></a><!--class com.jogamp.opengl.GLEventListener--><g id="elem_com.jogamp.opengl.GLEventListener"><rect codeLine="30" fill="#F1F1F1" height="118.625" id="com.jogamp.opengl.GLEventListener" rx="2.5" ry="2.5" style="stroke:#181818;stroke-width:0.5;" width="320" x="35" y="7"/><ellipse cx="138.25" cy="27.0938" fill="#B4A7E5" rx="11" ry="11" style="stroke:#181818;stroke-width:1.0;"/><path d="M139.2031,23.7344 L139.2031,30.3906 L140.9219,30.3906 Q141.5313,30.3906 141.7969,30.625 Q142.0625,30.8594 142.0625,31.25 Q142.0625,31.625 141.7969,31.8594 Q141.5313,32.0938 140.9219,32.0938 L135.7813,32.0938 Q135.1719,32.0938 134.9063,31.8594 Q134.6406,31.625 134.6406,31.2344 Q134.6406,30.8594 134.9063,30.625 Q135.1719,30.3906 135.7813,30.3906 L137.5,30.3906 L137.5,23.7344 L135.7813,23.7344 Q135.1719,23.7344 134.9063,23.5 Q134.6406,23.2656 134.6406,22.875 Q134.6406,22.5 134.9063,22.2656 Q135.1719,22.0313 135.7813,22.0313 L140.9219,22.0313 Q141.5313,22.0313 141.7969,22.2656 Q142.0625,22.5 142.0625,22.875 Q142.0625,23.2656 141.7969,23.5 Q141.5313,23.7344 140.9219,23.7344 L139.2031,23.7344 Z " fill="#000000"/><text fill="#000000" font-family="sans-serif" font-size="14" font-style="italic" lengthAdjust="spacing" textLength="105" x="158.75" y="26.5332">GLEventListener</text><text fill="#000000" font-family="sans-serif" font-size="10" font-style="italic" lengthAdjust="spacing" textLength="90" x="166.25" y="39.9902">com.jogamp.opengl</text><line style="stroke:#181818;stroke-width:0.5;" x1="36" x2="354" y1="47.1875" y2="47.1875"/><ellipse cx="46" cy="61.4922" fill="#84BE84" rx="3" ry="3" style="stroke:#038048;stroke-width:1.0;"/><text fill="#000000" font-family="sans-serif" font-size="14" font-style="italic" lengthAdjust="spacing" textLength="168" x="55" y="65.7207">init(GLAutoDrawable): void</text><ellipse cx="46" cy="79.1016" fill="#84BE84" rx="3" ry="3" style="stroke:#038048;stroke-width:1.0;"/><text fill="#000000" font-family="sans-serif" font-size="14" font-style="italic" lengthAdjust="spacing" textLength="199" x="55" y="83.3301">dispose(GLAutoDrawable): void</text><ellipse cx="46" cy="96.7109" fill="#84BE84" rx="3" ry="3" style="stroke:#038048;stroke-width:1.0;"/><text fill="#000000" font-family="sans-serif" font-size="14" font-style="italic" lengthAdjust="spacing" textLength="194" x="55" y="100.9395">display(GLAutoDrawable): void</text><ellipse cx="46" cy="114.3203" fill="#84BE84" rx="3" ry="3" style="stroke:#038048;stroke-width:1.0;"/><text fill="#000000" font-family="sans-serif" font-size="14" font-style="italic" lengthAdjust="spacing" textLength="294" x="55" y="118.5488">reshape(GLAutoDrawable, int, int, int, int): void</text></g><!--reverse link com.jogamp.opengl.GLEventListener to medipro.object.base.gameobject.GameObjectView--><g id="link_com.jogamp.opengl.GLEventListener_medipro.object.base.gameobject.GameObjectView"><path codeLine="37" d="M195,143.99 C195,161.53 195,163.88 195,185.46 " fill="none" id="com.jogamp.opengl.GLEventListener-backto-medipro.object.base.gameobject.GameObjectView" style="stroke:#181818;stroke-width:1.0;stroke-dasharray:7.0,7.0;"/><polygon fill="none" points="195,125.99,189,143.99,201,143.99,195,125.99" style="stroke:#181818;stroke-width:1.0;"/></g><text fill="#888888" font-family="sans-serif" font-size="10" lengthAdjust="spacing" textLength="184" x="95" y="645.6046">UMLDoclet 2.1.1, PlantUML 1.2023.12</text><!--SRC=[fLLHRzem47xVhpWLJGB1h57jAQegqT6XIdH3ejrBsmSdkIIkR9zb6xgkAxzzJh92IDcW6W-9-EwxEzztTmu0W4CFcYjqXYSuHyCjzsH1ayPtmGo5I15G6Vy8cK2PkZQgq1SKu0hdiVEM9nuIoPs3enCdVc8q_7Gw2Ic-nVUO-Ey27sxr7yF7KuMfC9OOLKOMSuSi3-Jw_n5m1_-ciEtGS7Ep3R32Atbt1q_L0SjVHrAUeurWMhtNU5zHYZA2ZVzb2MpigUKF8tTz4K5C997hjUd9UUv5yWmTZJ_ycT2fqFcCXFOHXCUQjt85Jz7EBEMMgvRD1zU5nQyXVGGNsfyjignnl9NZoaYqVxKlOzhjL-Ny8cHmctiRJhOfQLkhRglqtdRjtOdbfX29EnuFO9HbGkELvTfbP5KlWYM9TAF8ooW4JLg-RMe_5Sv8_jYTJ4SBJ-F0vh74dJHok8ycjF1xEAkISrNBxGxXpclfzt4x9RUMlqqTbBr-5JiEa_86_eU2wrJYl6hePr8czFJSMh879QiAgLntrD6Sn7vGfU06TqLjFPf9dkix8A1eit2RDDT_Uhv4xQV2UTHe6_kVa6Bt5DRPC3AeSrcj_2kKjI8qrhanQOVqlaa_RABQ7lj7jUdnNrhkr-7a5sDlko7hm5Xs2JAYydLzEHrJ8iEdu9WDsN00Cycr3oYyNuPf4QIxlTy0]--></g></svg>