<?xml version="1.0" encoding="us-ascii" standalone="no"?><svg xmlns="http://www.w3.org/2000/svg" xmlns:xlink="http://www.w3.org/1999/xlink" contentStyleType="text/css" height="566px" preserveAspectRatio="none" style="width:288px;height:566px;background:#FFFFFF;" version="1.1" viewBox="0 0 288 566" width="288px" zoomAndPan="magnify"><defs/><g><!--class medipro.object.base.gameobject.GameObjectModel--><a href="GameObjectModel.html" target="_top" title="GameObjectModel.html" xlink:actuate="onRequest" xlink:href="GameObjectModel.html" xlink:show="new" xlink:title="GameObjectModel.html" xlink:type="simple"><g id="elem_medipro.object.base.gameobject.GameObjectModel"><rect codeLine="5" fill="#F1F1F1" height="531.6406" id="medipro.object.base.gameobject.GameObjectModel" rx="2.5" ry="2.5" style="stroke:#181818;stroke-width:0.5;" width="267" x="7" y="7"/><ellipse cx="61.25" cy="27.0938" fill="#A9DCDF" rx="11" ry="11" style="stroke:#181818;stroke-width:1.0;"/><path d="M63.4375,28.8594 L59.2969,28.8594 L58.875,29.8906 L59.2969,29.8906 Q59.9063,29.8906 60.1719,30.125 Q60.4375,30.3594 60.4375,30.75 Q60.4375,31.125 60.1719,31.3594 Q59.9063,31.5938 59.2969,31.5938 L57,31.5938 Q56.3906,31.5938 56.1406,31.3594 Q55.875,31.125 55.875,30.7344 Q55.875,30.3594 56.1563,30.125 Q56.4219,29.875 57.0469,29.8906 L59.7188,23.2344 L58.6094,23.2344 Q58,23.2344 57.7344,23 Q57.4688,22.7656 57.4688,22.375 Q57.4688,22 57.7344,21.7656 Q58,21.5313 58.6094,21.5313 L62.2813,21.5313 L65.6719,29.8906 Q66.2656,29.8906 66.4531,30.0313 Q66.8438,30.2969 66.8438,30.75 Q66.8438,31.125 66.5781,31.3594 Q66.3281,31.5938 65.7188,31.5938 L63.4219,31.5938 Q62.8125,31.5938 62.5469,31.3594 Q62.2813,31.125 62.2813,30.7344 Q62.2813,30.3594 62.5469,30.125 Q62.8125,29.8906 63.4219,29.8906 L63.8438,29.8906 L63.4375,28.8594 Z M62.7188,27.1563 L61.3594,23.7813 L59.9844,27.1563 L62.7188,27.1563 Z " fill="#000000"/><text fill="#000000" font-family="sans-serif" font-size="14" font-style="italic" lengthAdjust="spacing" textLength="118" x="97.75" y="26.5332">GameObjectModel</text><text fill="#000000" font-family="sans-serif" font-size="10" font-style="italic" lengthAdjust="spacing" textLength="150" x="81.75" y="39.9902">medipro.object.base.gameobject</text><line style="stroke:#181818;stroke-width:0.5;" x1="8" x2="273" y1="47.1875" y2="47.1875"/><polygon fill="none" points="18,56.4922,22,60.4922,18,64.4922,14,60.4922" style="stroke:#B38D22;stroke-width:1.0;"/><text fill="#000000" font-family="sans-serif" font-size="14" lengthAdjust="spacing" textLength="93" x="27" y="65.7207">logger: Logger</text><rect fill="none" height="6" style="stroke:#C82930;stroke-width:1.0;" width="6" x="15" y="76.1016"/><text fill="#000000" font-family="sans-serif" font-size="14" lengthAdjust="spacing" textLength="78" x="27" y="83.3301">world: World</text><rect fill="none" height="6" style="stroke:#C82930;stroke-width:1.0;" width="6" x="15" y="93.7109"/><text fill="#000000" font-family="sans-serif" font-size="14" lengthAdjust="spacing" textLength="57" x="27" y="100.9395">x: double</text><rect fill="none" height="6" style="stroke:#C82930;stroke-width:1.0;" width="6" x="15" y="111.3203"/><text fill="#000000" font-family="sans-serif" font-size="14" lengthAdjust="spacing" textLength="58" x="27" y="118.5488">y: double</text><rect fill="none" height="6" style="stroke:#C82930;stroke-width:1.0;" width="6" x="15" y="128.9297"/><text fill="#000000" font-family="sans-serif" font-size="14" lengthAdjust="spacing" textLength="99" x="27" y="136.1582">rotation: double</text><rect fill="none" height="6" style="stroke:#C82930;stroke-width:1.0;" width="6" x="15" y="146.5391"/><text fill="#000000" font-family="sans-serif" font-size="14" lengthAdjust="spacing" textLength="92" x="27" y="153.7676">scaleX: double</text><rect fill="none" height="6" style="stroke:#C82930;stroke-width:1.0;" width="6" x="15" y="164.1484"/><text fill="#000000" font-family="sans-serif" font-size="14" lengthAdjust="spacing" textLength="93" x="27" y="171.377">scaleY: double</text><line style="stroke:#181818;stroke-width:0.5;" x1="8" x2="273" y1="178.4531" y2="178.4531"/><ellipse cx="18" cy="192.7578" fill="#84BE84" rx="3" ry="3" style="stroke:#038048;stroke-width:1.0;"/><text fill="#000000" font-family="sans-serif" font-size="14" lengthAdjust="spacing" textLength="164" x="27" y="196.9863">GameObjectModel(World)</text><ellipse cx="18" cy="210.3672" fill="#84BE84" rx="3" ry="3" style="stroke:#038048;stroke-width:1.0;"/><text fill="#000000" font-family="sans-serif" font-size="14" lengthAdjust="spacing" textLength="112" x="27" y="214.5957">getWorld(): World</text><ellipse cx="18" cy="227.9766" fill="#84BE84" rx="3" ry="3" style="stroke:#038048;stroke-width:1.0;"/><text fill="#000000" font-family="sans-serif" font-size="14" lengthAdjust="spacing" textLength="137" x="27" y="232.2051">setWorld(World): void</text><ellipse cx="18" cy="245.5859" fill="#84BE84" rx="3" ry="3" style="stroke:#038048;stroke-width:1.0;"/><text fill="#000000" font-family="sans-serif" font-size="14" lengthAdjust="spacing" textLength="89" x="27" y="249.8145">getX(): double</text><ellipse cx="18" cy="263.1953" fill="#84BE84" rx="3" ry="3" style="stroke:#038048;stroke-width:1.0;"/><text fill="#000000" font-family="sans-serif" font-size="14" lengthAdjust="spacing" textLength="114" x="27" y="267.4238">setX(double): void</text><ellipse cx="18" cy="280.8047" fill="#84BE84" rx="3" ry="3" style="stroke:#038048;stroke-width:1.0;"/><text fill="#000000" font-family="sans-serif" font-size="14" lengthAdjust="spacing" textLength="119" x="27" y="285.0332">addX(double): void</text><ellipse cx="18" cy="298.4141" fill="#84BE84" rx="3" ry="3" style="stroke:#038048;stroke-width:1.0;"/><text fill="#000000" font-family="sans-serif" font-size="14" lengthAdjust="spacing" textLength="90" x="27" y="302.6426">getY(): double</text><ellipse cx="18" cy="316.0234" fill="#84BE84" rx="3" ry="3" style="stroke:#038048;stroke-width:1.0;"/><text fill="#000000" font-family="sans-serif" font-size="14" lengthAdjust="spacing" textLength="115" x="27" y="320.252">setY(double): void</text><ellipse cx="18" cy="333.6328" fill="#84BE84" rx="3" ry="3" style="stroke:#038048;stroke-width:1.0;"/><text fill="#000000" font-family="sans-serif" font-size="14" lengthAdjust="spacing" textLength="120" x="27" y="337.8613">addY(double): void</text><ellipse cx="18" cy="351.2422" fill="#84BE84" rx="3" ry="3" style="stroke:#038048;stroke-width:1.0;"/><text fill="#000000" font-family="sans-serif" font-size="14" lengthAdjust="spacing" textLength="134" x="27" y="355.4707">getRotation(): double</text><ellipse cx="18" cy="368.8516" fill="#84BE84" rx="3" ry="3" style="stroke:#038048;stroke-width:1.0;"/><text fill="#000000" font-family="sans-serif" font-size="14" lengthAdjust="spacing" textLength="159" x="27" y="373.0801">setRotation(double): void</text><ellipse cx="18" cy="386.4609" fill="#84BE84" rx="3" ry="3" style="stroke:#038048;stroke-width:1.0;"/><text fill="#000000" font-family="sans-serif" font-size="14" lengthAdjust="spacing" textLength="124" x="27" y="390.6895">getScaleX(): double</text><ellipse cx="18" cy="404.0703" fill="#84BE84" rx="3" ry="3" style="stroke:#038048;stroke-width:1.0;"/><text fill="#000000" font-family="sans-serif" font-size="14" lengthAdjust="spacing" textLength="149" x="27" y="408.2988">setScaleX(double): void</text><ellipse cx="18" cy="421.6797" fill="#84BE84" rx="3" ry="3" style="stroke:#038048;stroke-width:1.0;"/><text fill="#000000" font-family="sans-serif" font-size="14" lengthAdjust="spacing" textLength="154" x="27" y="425.9082">addScaleX(double): void</text><ellipse cx="18" cy="439.2891" fill="#84BE84" rx="3" ry="3" style="stroke:#038048;stroke-width:1.0;"/><text fill="#000000" font-family="sans-serif" font-size="14" lengthAdjust="spacing" textLength="177" x="27" y="443.5176">multiplyScaleX(double): void</text><ellipse cx="18" cy="456.8984" fill="#84BE84" rx="3" ry="3" style="stroke:#038048;stroke-width:1.0;"/><text fill="#000000" font-family="sans-serif" font-size="14" lengthAdjust="spacing" textLength="125" x="27" y="461.127">getScaleY(): double</text><ellipse cx="18" cy="474.5078" fill="#84BE84" rx="3" ry="3" style="stroke:#038048;stroke-width:1.0;"/><text fill="#000000" font-family="sans-serif" font-size="14" lengthAdjust="spacing" textLength="150" x="27" y="478.7363">setScaleY(double): void</text><ellipse cx="18" cy="492.1172" fill="#84BE84" rx="3" ry="3" style="stroke:#038048;stroke-width:1.0;"/><text fill="#000000" font-family="sans-serif" font-size="14" lengthAdjust="spacing" textLength="155" x="27" y="496.3457">addScaleY(double): void</text><ellipse cx="18" cy="509.7266" fill="#84BE84" rx="3" ry="3" style="stroke:#038048;stroke-width:1.0;"/><text fill="#000000" font-family="sans-serif" font-size="14" lengthAdjust="spacing" textLength="178" x="27" y="513.9551">multiplyScaleY(double): void</text><ellipse cx="18" cy="527.3359" fill="#84BE84" rx="3" ry="3" style="stroke:#038048;stroke-width:1.0;"/><text fill="#000000" font-family="sans-serif" font-size="14" lengthAdjust="spacing" textLength="241" x="27" y="531.5645">getTransformMatrix(): AffineTransform</text></g></a><text fill="#888888" font-family="sans-serif" font-size="10" lengthAdjust="spacing" textLength="184" x="48" y="556.0215">UMLDoclet 2.1.1, PlantUML 1.2023.12</text><!--SRC=[ZPHFIyD04CNlVegX8hHKWnLFGGg2uAL5iOeDjOTDTfAkxEw4tMrj5R-xoVOV9YIQGuRzlPctZma40C2Y0yqKsfmbEC6S6UR8W2QD9uKC2y4HKELk0wb0oMsLAdGBAh3dBBREiCH18fcrqBcnuXF3mVNmlhZY8Nx7n8s9etpJE-Log92Bt510NWrYPZ78YkxjkGFCGdjBKF66sQn2WeLJSZw7Bv-nV4ubPHcQ44Q-7lZ51nd9GtWjov6kG-2qZ2KUqQQE33dc1EcwOXCcSTh0enhlL_9tVPpUKS_GUTJjLQFsxLxQpeIm8i5_JKxBgUgDjkHRM9jXd3TgXL_Ku1Ur-4KjVa-xDJRO7kHcXubVTyFyJcpErjwWbjA9N6xQk_OXehOGqLyXed-5QDlbis7QfcJKc3aZrcMQspGL6W-2R__sxmIrGmCfKLbUngCxIcJnUxWA1i7W71ubqwwWSBP2O_q7-W40]--></g></svg>