<?xml version="1.0" encoding="us-ascii" standalone="no"?><svg xmlns="http://www.w3.org/2000/svg" xmlns:xlink="http://www.w3.org/1999/xlink" contentStyleType="text/css" height="990px" preserveAspectRatio="none" style="width:758px;height:990px;background:#FFFFFF;" version="1.1" viewBox="0 0 758 990" width="758px" zoomAndPan="magnify"><defs/><g><!--cluster medipro.object.base.gameobject--><g id="cluster_medipro.object.base.gameobject"><path d="M8.5,209.44 L239.5,209.44 A3.75,3.75 0 0 1 242,211.94 L249,233.0494 L748.5,233.0494 A2.5,2.5 0 0 1 751,235.5494 L751,961.22 A2.5,2.5 0 0 1 748.5,963.72 L8.5,963.72 A2.5,2.5 0 0 1 6,961.22 L6,211.94 A2.5,2.5 0 0 1 8.5,209.44 " fill="none" style="stroke:#000000;stroke-width:1.5;"/><line style="stroke:#000000;stroke-width:1.5;" x1="6" x2="249" y1="233.0494" y2="233.0494"/><text fill="#000000" font-family="sans-serif" font-size="14" font-weight="bold" lengthAdjust="spacing" textLength="230" x="10" y="225.9732">medipro.object.base.gameobject</text></g><!--cluster com.jogamp.opengl--><g id="cluster_com.jogamp.opengl"><path d="M34.5,6 L172.5,6 A3.75,3.75 0 0 1 175,8.5 L182,29.6094 L381.5,29.6094 A2.5,2.5 0 0 1 384,32.1094 L384,173.94 A2.5,2.5 0 0 1 381.5,176.44 L34.5,176.44 A2.5,2.5 0 0 1 32,173.94 L32,8.5 A2.5,2.5 0 0 1 34.5,6 " fill="none" style="stroke:#000000;stroke-width:1.5;"/><line style="stroke:#000000;stroke-width:1.5;" x1="32" x2="182" y1="29.6094" y2="29.6094"/><text fill="#000000" font-family="sans-serif" font-size="14" font-weight="bold" lengthAdjust="spacing" textLength="137" x="36" y="22.5332">com.jogamp.opengl</text></g><!--class GameObjectController--><a href="GameObjectController.html" target="_top" title="GameObjectController.html" xlink:actuate="onRequest" xlink:href="GameObjectController.html" xlink:show="new" xlink:title="GameObjectController.html" xlink:type="simple"><g id="elem_GameObjectController"><rect codeLine="5" fill="#F1F1F1" height="136.0469" id="GameObjectController" rx="2.5" ry="2.5" style="stroke:#181818;stroke-width:0.5;" width="306" x="429" y="386.31"/><ellipse cx="507.25" cy="402.31" fill="#A9DCDF" rx="11" ry="11" style="stroke:#181818;stroke-width:1.0;"/><path d="M509.4375,404.0756 L505.2969,404.0756 L504.875,405.1069 L505.2969,405.1069 Q505.9063,405.1069 506.1719,405.3413 Q506.4375,405.5756 506.4375,405.9663 Q506.4375,406.3413 506.1719,406.5756 Q505.9063,406.81 505.2969,406.81 L503,406.81 Q502.3906,406.81 502.1406,406.5756 Q501.875,406.3413 501.875,405.9506 Q501.875,405.5756 502.1563,405.3413 Q502.4219,405.0913 503.0469,405.1069 L505.7188,398.4506 L504.6094,398.4506 Q504,398.4506 503.7344,398.2163 Q503.4688,397.9819 503.4688,397.5913 Q503.4688,397.2163 503.7344,396.9819 Q504,396.7475 504.6094,396.7475 L508.2813,396.7475 L511.6719,405.1069 Q512.2656,405.1069 512.4531,405.2475 Q512.8438,405.5131 512.8438,405.9663 Q512.8438,406.3413 512.5781,406.5756 Q512.3281,406.81 511.7188,406.81 L509.4219,406.81 Q508.8125,406.81 508.5469,406.5756 Q508.2813,406.3413 508.2813,405.9506 Q508.2813,405.5756 508.5469,405.3413 Q508.8125,405.1069 509.4219,405.1069 L509.8438,405.1069 L509.4375,404.0756 Z M508.7188,402.3725 L507.3594,398.9975 L505.9844,402.3725 L508.7188,402.3725 Z " fill="#000000"/><text fill="#000000" font-family="sans-serif" font-size="14" font-style="italic" lengthAdjust="spacing" textLength="141" x="527.75" y="408.0385">GameObjectController</text><line style="stroke:#181818;stroke-width:0.5;" x1="430" x2="734" y1="418.31" y2="418.31"/><polygon fill="none" points="440,427.6147,444,431.6147,440,435.6147,436,431.6147" style="stroke:#B38D22;stroke-width:1.0;"/><text fill="#000000" font-family="sans-serif" font-size="14" lengthAdjust="spacing" textLength="93" x="449" y="436.8432">logger: Logger</text><line style="stroke:#181818;stroke-width:0.5;" x1="430" x2="734" y1="443.9194" y2="443.9194"/><ellipse cx="440" cy="458.2241" fill="#84BE84" rx="3" ry="3" style="stroke:#038048;stroke-width:1.0;"/><text fill="#000000" font-family="sans-serif" font-size="14" lengthAdjust="spacing" textLength="151" x="449" y="462.4526">GameObjectController()</text><ellipse cx="440" cy="475.8334" fill="#84BE84" rx="3" ry="3" style="stroke:#038048;stroke-width:1.0;"/><text fill="#000000" font-family="sans-serif" font-size="14" lengthAdjust="spacing" textLength="280" x="449" y="480.062">GameObjectController(GameObjectModel...)</text><ellipse cx="440" cy="493.4428" fill="#84BE84" rx="3" ry="3" style="stroke:#038048;stroke-width:1.0;"/><text fill="#000000" font-family="sans-serif" font-size="14" lengthAdjust="spacing" textLength="176" x="449" y="497.6713">updateModels(double): void</text><ellipse cx="440" cy="511.0522" fill="#84BE84" rx="3" ry="3" style="stroke:#038048;stroke-width:1.0;"/><text fill="#000000" font-family="sans-serif" font-size="14" font-style="italic" lengthAdjust="spacing" textLength="256" x="449" y="515.2807">update(GameObjectModel, double): void</text></g></a><!--class GameObjectModel--><a href="GameObjectModel.html" target="_top" title="GameObjectModel.html" xlink:actuate="onRequest" xlink:href="GameObjectModel.html" xlink:show="new" xlink:title="GameObjectModel.html" xlink:type="simple"><g id="elem_GameObjectModel"><rect codeLine="13" fill="#F1F1F1" height="206.4844" id="GameObjectModel" rx="2.5" ry="2.5" style="stroke:#181818;stroke-width:0.5;" width="267" x="261.5" y="741.24"/><ellipse cx="331.75" cy="757.24" fill="#A9DCDF" rx="11" ry="11" style="stroke:#181818;stroke-width:1.0;"/><path d="M333.9375,759.0056 L329.7969,759.0056 L329.375,760.0369 L329.7969,760.0369 Q330.4063,760.0369 330.6719,760.2713 Q330.9375,760.5056 330.9375,760.8963 Q330.9375,761.2713 330.6719,761.5056 Q330.4063,761.74 329.7969,761.74 L327.5,761.74 Q326.8906,761.74 326.6406,761.5056 Q326.375,761.2713 326.375,760.8806 Q326.375,760.5056 326.6563,760.2713 Q326.9219,760.0213 327.5469,760.0369 L330.2188,753.3806 L329.1094,753.3806 Q328.5,753.3806 328.2344,753.1463 Q327.9688,752.9119 327.9688,752.5213 Q327.9688,752.1463 328.2344,751.9119 Q328.5,751.6775 329.1094,751.6775 L332.7813,751.6775 L336.1719,760.0369 Q336.7656,760.0369 336.9531,760.1775 Q337.3438,760.4431 337.3438,760.8963 Q337.3438,761.2713 337.0781,761.5056 Q336.8281,761.74 336.2188,761.74 L333.9219,761.74 Q333.3125,761.74 333.0469,761.5056 Q332.7813,761.2713 332.7813,760.8806 Q332.7813,760.5056 333.0469,760.2713 Q333.3125,760.0369 333.9219,760.0369 L334.3438,760.0369 L333.9375,759.0056 Z M333.2188,757.3025 L331.8594,753.9275 L330.4844,757.3025 L333.2188,757.3025 Z " fill="#000000"/><text fill="#000000" font-family="sans-serif" font-size="14" font-style="italic" lengthAdjust="spacing" textLength="118" x="352.25" y="762.9685">GameObjectModel</text><line style="stroke:#181818;stroke-width:0.5;" x1="262.5" x2="527.5" y1="773.24" y2="773.24"/><polygon fill="none" points="272.5,782.5447,276.5,786.5447,272.5,790.5447,268.5,786.5447" style="stroke:#B38D22;stroke-width:1.0;"/><text fill="#000000" font-family="sans-serif" font-size="14" lengthAdjust="spacing" textLength="93" x="281.5" y="791.7732">logger: Logger</text><ellipse cx="272.5" cy="805.1541" fill="none" rx="3" ry="3" style="stroke:#038048;stroke-width:1.0;"/><text fill="#000000" font-family="sans-serif" font-size="14" lengthAdjust="spacing" textLength="78" x="281.5" y="809.3826">world: World</text><ellipse cx="272.5" cy="822.7634" fill="none" rx="3" ry="3" style="stroke:#038048;stroke-width:1.0;"/><text fill="#000000" font-family="sans-serif" font-size="14" lengthAdjust="spacing" textLength="57" x="281.5" y="826.992">x: double</text><ellipse cx="272.5" cy="840.3728" fill="none" rx="3" ry="3" style="stroke:#038048;stroke-width:1.0;"/><text fill="#000000" font-family="sans-serif" font-size="14" lengthAdjust="spacing" textLength="58" x="281.5" y="844.6013">y: double</text><ellipse cx="272.5" cy="857.9822" fill="none" rx="3" ry="3" style="stroke:#038048;stroke-width:1.0;"/><text fill="#000000" font-family="sans-serif" font-size="14" lengthAdjust="spacing" textLength="99" x="281.5" y="862.2107">rotation: double</text><ellipse cx="272.5" cy="875.5916" fill="none" rx="3" ry="3" style="stroke:#038048;stroke-width:1.0;"/><text fill="#000000" font-family="sans-serif" font-size="14" lengthAdjust="spacing" textLength="92" x="281.5" y="879.8201">scaleX: double</text><ellipse cx="272.5" cy="893.2009" fill="none" rx="3" ry="3" style="stroke:#038048;stroke-width:1.0;"/><text fill="#000000" font-family="sans-serif" font-size="14" lengthAdjust="spacing" textLength="93" x="281.5" y="897.4295">scaleY: double</text><line style="stroke:#181818;stroke-width:0.5;" x1="262.5" x2="527.5" y1="904.5056" y2="904.5056"/><ellipse cx="272.5" cy="918.8103" fill="#84BE84" rx="3" ry="3" style="stroke:#038048;stroke-width:1.0;"/><text fill="#000000" font-family="sans-serif" font-size="14" lengthAdjust="spacing" textLength="164" x="281.5" y="923.0388">GameObjectModel(World)</text><ellipse cx="272.5" cy="936.4197" fill="#84BE84" rx="3" ry="3" style="stroke:#038048;stroke-width:1.0;"/><text fill="#000000" font-family="sans-serif" font-size="14" lengthAdjust="spacing" textLength="241" x="281.5" y="940.6482">getTransformMatrix(): AffineTransform</text></g></a><!--class GameObjectView--><a href="GameObjectView.html" target="_top" title="GameObjectView.html" xlink:actuate="onRequest" xlink:href="GameObjectView.html" xlink:show="new" xlink:title="GameObjectView.html" xlink:type="simple"><g id="elem_GameObjectView"><rect codeLine="25" fill="#F1F1F1" height="417.7969" id="GameObjectView" rx="2.5" ry="2.5" style="stroke:#181818;stroke-width:0.5;" width="372" x="22" y="245.44"/><ellipse cx="149.75" cy="261.44" fill="#A9DCDF" rx="11" ry="11" style="stroke:#181818;stroke-width:1.0;"/><path d="M151.9375,263.2056 L147.7969,263.2056 L147.375,264.2369 L147.7969,264.2369 Q148.4063,264.2369 148.6719,264.4713 Q148.9375,264.7056 148.9375,265.0963 Q148.9375,265.4713 148.6719,265.7056 Q148.4063,265.94 147.7969,265.94 L145.5,265.94 Q144.8906,265.94 144.6406,265.7056 Q144.375,265.4713 144.375,265.0806 Q144.375,264.7056 144.6563,264.4713 Q144.9219,264.2213 145.5469,264.2369 L148.2188,257.5806 L147.1094,257.5806 Q146.5,257.5806 146.2344,257.3463 Q145.9688,257.1119 145.9688,256.7213 Q145.9688,256.3463 146.2344,256.1119 Q146.5,255.8775 147.1094,255.8775 L150.7813,255.8775 L154.1719,264.2369 Q154.7656,264.2369 154.9531,264.3775 Q155.3438,264.6431 155.3438,265.0963 Q155.3438,265.4713 155.0781,265.7056 Q154.8281,265.94 154.2188,265.94 L151.9219,265.94 Q151.3125,265.94 151.0469,265.7056 Q150.7813,265.4713 150.7813,265.0806 Q150.7813,264.7056 151.0469,264.4713 Q151.3125,264.2369 151.9219,264.2369 L152.3438,264.2369 L151.9375,263.2056 Z M151.2188,261.5025 L149.8594,258.1275 L148.4844,261.5025 L151.2188,261.5025 Z " fill="#000000"/><text fill="#000000" font-family="sans-serif" font-size="14" font-style="italic" lengthAdjust="spacing" textLength="108" x="170.25" y="267.1685">GameObjectView</text><line style="stroke:#181818;stroke-width:0.5;" x1="23" x2="393" y1="277.44" y2="277.44"/><polygon fill="none" points="33,286.7447,37,290.7447,33,294.7447,29,290.7447" style="stroke:#B38D22;stroke-width:1.0;"/><text fill="#000000" font-family="sans-serif" font-size="14" lengthAdjust="spacing" textLength="93" x="42" y="295.9732">logger: Logger</text><ellipse cx="33" cy="309.3541" fill="none" rx="3" ry="3" style="stroke:#038048;stroke-width:1.0;"/><text fill="#000000" font-family="sans-serif" font-size="14" lengthAdjust="spacing" textLength="117" x="42" y="313.5826">drawAsUI: boolean</text><polygon fill="none" points="33,321.9634,37,325.9634,33,329.9634,29,325.9634" style="stroke:#B38D22;stroke-width:1.0;"/><text fill="#000000" font-family="sans-serif" font-size="14" lengthAdjust="spacing" text-decoration="underline" textLength="128" x="42" y="331.192">nextBindingPoint: int</text><polygon fill="none" points="33,340.5728,29,346.5728,37,346.5728" style="stroke:#1963A0;stroke-width:1.0;"/><text fill="#000000" font-family="sans-serif" font-size="14" lengthAdjust="spacing" textLength="121" x="42" y="348.8013">shaderProgram: int</text><polygon fill="none" points="33,358.1822,29,364.1822,37,364.1822" style="stroke:#1963A0;stroke-width:1.0;"/><text fill="#000000" font-family="sans-serif" font-size="14" lengthAdjust="spacing" textLength="140" x="42" y="366.4107">textureName: IntBuffer</text><polygon fill="none" points="33,375.7916,29,381.7916,37,381.7916" style="stroke:#1963A0;stroke-width:1.0;"/><text fill="#000000" font-family="sans-serif" font-size="14" lengthAdjust="spacing" textLength="147" x="42" y="384.0201">samplerName: IntBuffer</text><polygon fill="none" points="33,393.4009,29,399.4009,37,399.4009" style="stroke:#1963A0;stroke-width:1.0;"/><text fill="#000000" font-family="sans-serif" font-size="14" lengthAdjust="spacing" textLength="84" x="42" y="401.6295">vbo: IntBuffer</text><polygon fill="none" points="33,411.0103,29,417.0103,37,417.0103" style="stroke:#1963A0;stroke-width:1.0;"/><text fill="#000000" font-family="sans-serif" font-size="14" lengthAdjust="spacing" textLength="112" x="42" y="419.2388">shaderFile: String</text><line style="stroke:#181818;stroke-width:0.5;" x1="23" x2="393" y1="426.315" y2="426.315"/><ellipse cx="33" cy="440.6197" fill="#84BE84" rx="3" ry="3" style="stroke:#038048;stroke-width:1.0;"/><text fill="#000000" font-family="sans-serif" font-size="14" lengthAdjust="spacing" textLength="235" x="42" y="444.8482">GameObjectView(GameObjectModel)</text><ellipse cx="33" cy="458.2291" fill="#84BE84" rx="3" ry="3" style="stroke:#038048;stroke-width:1.0;"/><text fill="#000000" font-family="sans-serif" font-size="14" lengthAdjust="spacing" textLength="258" x="42" y="462.4576">draw(Graphics2D, AffineTransform): void</text><polygon fill="#FFFF44" points="33,470.8384,37,474.8384,33,478.8384,29,474.8384" style="stroke:#B38D22;stroke-width:1.0;"/><text fill="#000000" font-family="sans-serif" font-size="14" font-style="italic" lengthAdjust="spacing" textLength="148" x="42" y="480.067">draw(Graphics2D): void</text><ellipse cx="33" cy="493.4478" fill="#84BE84" rx="3" ry="3" style="stroke:#038048;stroke-width:1.0;"/><text fill="#000000" font-family="sans-serif" font-size="14" lengthAdjust="spacing" textLength="195" x="42" y="497.6763">display(GLAutoDrawable): void</text><ellipse cx="33" cy="511.0572" fill="#84BE84" rx="3" ry="3" style="stroke:#038048;stroke-width:1.0;"/><text fill="#000000" font-family="sans-serif" font-size="14" lengthAdjust="spacing" textLength="200" x="42" y="515.2857">dispose(GLAutoDrawable): void</text><ellipse cx="33" cy="528.6666" fill="#84BE84" rx="3" ry="3" style="stroke:#038048;stroke-width:1.0;"/><text fill="#000000" font-family="sans-serif" font-size="14" lengthAdjust="spacing" textLength="169" x="42" y="532.8951">init(GLAutoDrawable): void</text><polygon fill="#4177AF" points="33,542.2759,29,548.2759,37,548.2759" style="stroke:#1963A0;stroke-width:1.0;"/><text fill="#000000" font-family="sans-serif" font-size="14" lengthAdjust="spacing" textLength="224" x="42" y="550.5045">initTextures(GLAutoDrawable): void</text><polygon fill="#4177AF" points="33,559.8853,29,565.8853,37,565.8853" style="stroke:#1963A0;stroke-width:1.0;"/><text fill="#000000" font-family="sans-serif" font-size="14" lengthAdjust="spacing" textLength="228" x="42" y="568.1138">initSamplers(GLAutoDrawable): void</text><polygon fill="#FFFF44" points="33,576.4947,37,580.4947,33,584.4947,29,580.4947" style="stroke:#B38D22;stroke-width:1.0;"/><text fill="#000000" font-family="sans-serif" font-size="14" lengthAdjust="spacing" textLength="237" x="42" y="585.7232">initBuffers(GLAutoDrawable, int): void</text><polygon fill="#4177AF" points="33,595.1041,29,601.1041,37,601.1041" style="stroke:#1963A0;stroke-width:1.0;"/><text fill="#000000" font-family="sans-serif" font-size="14" lengthAdjust="spacing" textLength="246" x="42" y="603.3326">bindBuffers(GLAutoDrawable, int): void</text><rect fill="#F24D5C" height="6" style="stroke:#C82930;stroke-width:1.0;" width="6" x="30" y="613.7134"/><text fill="#000000" font-family="sans-serif" font-size="14" lengthAdjust="spacing" textLength="346" x="42" y="620.942">handleShaderCompileError(GLAutoDrawable, int): void</text><polygon fill="#4177AF" points="33,630.3228,29,636.3228,37,636.3228" style="stroke:#1963A0;stroke-width:1.0;"/><text fill="#000000" font-family="sans-serif" font-size="14" lengthAdjust="spacing" textLength="211" x="42" y="638.5513">initShaders(GLAutoDrawable): int</text><ellipse cx="33" cy="651.9322" fill="#84BE84" rx="3" ry="3" style="stroke:#038048;stroke-width:1.0;"/><text fill="#000000" font-family="sans-serif" font-size="14" lengthAdjust="spacing" textLength="295" x="42" y="656.1607">reshape(GLAutoDrawable, int, int, int, int): void</text></g></a><!--class GLEventListener--><g id="elem_GLEventListener"><rect codeLine="52" fill="#F1F1F1" height="118.4375" id="GLEventListener" rx="2.5" ry="2.5" style="stroke:#181818;stroke-width:0.5;" width="320" x="48" y="42"/><ellipse cx="151.25" cy="58" fill="#B4A7E5" rx="11" ry="11" style="stroke:#181818;stroke-width:1.0;"/><path d="M152.2031,54.6406 L152.2031,61.2969 L153.9219,61.2969 Q154.5313,61.2969 154.7969,61.5313 Q155.0625,61.7656 155.0625,62.1563 Q155.0625,62.5313 154.7969,62.7656 Q154.5313,63 153.9219,63 L148.7813,63 Q148.1719,63 147.9063,62.7656 Q147.6406,62.5313 147.6406,62.1406 Q147.6406,61.7656 147.9063,61.5313 Q148.1719,61.2969 148.7813,61.2969 L150.5,61.2969 L150.5,54.6406 L148.7813,54.6406 Q148.1719,54.6406 147.9063,54.4063 Q147.6406,54.1719 147.6406,53.7813 Q147.6406,53.4063 147.9063,53.1719 Q148.1719,52.9375 148.7813,52.9375 L153.9219,52.9375 Q154.5313,52.9375 154.7969,53.1719 Q155.0625,53.4063 155.0625,53.7813 Q155.0625,54.1719 154.7969,54.4063 Q154.5313,54.6406 153.9219,54.6406 L152.2031,54.6406 Z " fill="#000000"/><text fill="#000000" font-family="sans-serif" font-size="14" font-style="italic" lengthAdjust="spacing" textLength="105" x="171.75" y="63.7285">GLEventListener</text><line style="stroke:#181818;stroke-width:0.5;" x1="49" x2="367" y1="74" y2="74"/><line style="stroke:#181818;stroke-width:0.5;" x1="49" x2="367" y1="82" y2="82"/><ellipse cx="59" cy="96.3047" fill="#84BE84" rx="3" ry="3" style="stroke:#038048;stroke-width:1.0;"/><text fill="#000000" font-family="sans-serif" font-size="14" font-style="italic" lengthAdjust="spacing" textLength="168" x="68" y="100.5332">init(GLAutoDrawable): void</text><ellipse cx="59" cy="113.9141" fill="#84BE84" rx="3" ry="3" style="stroke:#038048;stroke-width:1.0;"/><text fill="#000000" font-family="sans-serif" font-size="14" font-style="italic" lengthAdjust="spacing" textLength="199" x="68" y="118.1426">dispose(GLAutoDrawable): void</text><ellipse cx="59" cy="131.5234" fill="#84BE84" rx="3" ry="3" style="stroke:#038048;stroke-width:1.0;"/><text fill="#000000" font-family="sans-serif" font-size="14" font-style="italic" lengthAdjust="spacing" textLength="194" x="68" y="135.752">display(GLAutoDrawable): void</text><ellipse cx="59" cy="149.1328" fill="#84BE84" rx="3" ry="3" style="stroke:#038048;stroke-width:1.0;"/><text fill="#000000" font-family="sans-serif" font-size="14" font-style="italic" lengthAdjust="spacing" textLength="294" x="68" y="153.3613">reshape(GLAutoDrawable, int, int, int, int): void</text></g><!--link GameObjectController to GameObjectModel--><g id="link_GameObjectController_GameObjectModel"><path codeLine="60" d="M549.64,522.5 C520.63,582.71 480.2438,666.5344 446.9538,735.6444 " fill="none" id="GameObjectController-to-GameObjectModel" style="stroke:#181818;stroke-width:1.0;"/><polygon fill="#181818" points="444.35,741.05,451.8595,734.6776,446.5199,736.5454,444.652,731.2058,444.35,741.05" style="stroke:#181818;stroke-width:1.0;"/><text fill="#000000" font-family="sans-serif" font-size="13" lengthAdjust="spacing" textLength="42" x="467" y="707.7351">models</text><text fill="#000000" font-family="sans-serif" font-size="13" lengthAdjust="spacing" textLength="5" x="442.7905" y="730.3747">*</text></g><!--reverse link GLEventListener to GameObjectView--><g id="link_GLEventListener_GameObjectView"><path codeLine="61" d="M208,178.59 C208,202.68 208,214.17 208,245.07 " fill="none" id="GLEventListener-backto-GameObjectView" style="stroke:#181818;stroke-width:1.0;stroke-dasharray:7.0,7.0;"/><polygon fill="none" points="208,160.59,202,178.59,214,178.59,208,160.59" style="stroke:#181818;stroke-width:1.0;"/></g><!--link GameObjectView to GameObjectModel--><g id="link_GameObjectView_GameObjectModel"><path codeLine="62" d="M308.34,663.61 C321.25,690.41 331.3853,711.4348 342.9553,735.4448 " fill="none" id="GameObjectView-to-GameObjectModel" style="stroke:#181818;stroke-width:1.0;"/><polygon fill="#181818" points="345.56,740.85,345.2565,731.0058,343.3895,736.3457,338.0496,734.4787,345.56,740.85" style="stroke:#181818;stroke-width:1.0;"/><text fill="#000000" font-family="sans-serif" font-size="13" lengthAdjust="spacing" textLength="35" x="330" y="707.7351">model</text></g><text fill="#888888" font-family="sans-serif" font-size="10" lengthAdjust="spacing" textLength="184" x="280" y="980.1009">UMLDoclet 2.1.1, PlantUML 1.2023.12</text><!--SRC=[fLPjJzim4FxEhx2e9gMZM8AFqJI9jrL8PKC2zYB4XqjoISqSNsIx1LJARv_ZZAqnAKjPf3RgtVESVS-TVMMCCOFMVIhGO4cpEDxQSaPMGVeJ2cGbPgBIn2cvnTJo10po0afiVhD5WwuVI8pLu6of16FOs86-UD0HAQj9IjJi-hhBpAUsb3StBXXRUGQIYW9rp2R-tVBjT8M9XZqmVurdbA7ad0UiMPM1HUyqKKQpHE8mPdCIMGktU4vt-Km9GuzODtlPGp8VeALMizlDXReZBREOVQjVRSzz_7k3RVD3jrcJ1Ij8TNjD2XA_l-BxqUqByelyDeE256WlDIYJaoxFm6fn7pb93_9SAFpZs4ZThmBlMkBMXZTecscuEp1Nfp5BY2I2QdU8gHLBbsoWyDuU2fK9LPoJK3Pcxgk5VJ9Jo52VQoeqb1r-wqBCD7vsMuxPgRA7ipmFjlDaeAnSYx-AcIUqdk_ty4b8HxzmEgjYNR5glS9s7xxK9XfhgAOYDVl7ex1W_pXJWu3V1T_9XAaaF4JZoS7Cqh5Zm9hJwg5ai0zKA65xu9vgt6LJ5jCNVz6Kg0z-KEERCeNmKTqVdMiahiisvEnEGMKIBtpnZwYiNFrFj2RTUr6VcATtv1LsyevJQmeLTaKFljPSdClsW4gfvBVaHbB5gK9Lo9KJx8AWpY55DfwSp57PYJ0MbHj4YxMNUS_ohrBwDrV8wjUzgwp_aMz5lTV7UXntJk_TtOzi-_ts1cH_CyIizDFKB_oYN0uUrER38-SRh55VHXlcv0T0dStRCcaImRgvM4vKlwxE9iUKIlTNQf_lyRqHEvUWhBEoTtDtBjpWZ8Q_0000]--></g></svg>