<?xml version="1.0" encoding="us-ascii" standalone="no"?><svg xmlns="http://www.w3.org/2000/svg" xmlns:xlink="http://www.w3.org/1999/xlink" contentStyleType="text/css" height="321px" preserveAspectRatio="none" style="width:291px;height:321px;background:#FFFFFF;" version="1.1" viewBox="0 0 291 321" width="291px" zoomAndPan="magnify"><defs/><g><!--class medipro.gui.panel.G2dGamePanel--><a href="G2dGamePanel.html" target="_top" title="G2dGamePanel.html" xlink:actuate="onRequest" xlink:href="G2dGamePanel.html" xlink:show="new" xlink:title="G2dGamePanel.html" xlink:type="simple"><g id="elem_medipro.gui.panel.G2dGamePanel"><rect codeLine="5" fill="#F1F1F1" height="161.8438" id="medipro.gui.panel.G2dGamePanel" rx="2.5" ry="2.5" style="stroke:#181818;stroke-width:0.5;" width="231" x="12.5" y="132.8"/><ellipse cx="73.25" cy="152.8937" fill="#ADD1B2" rx="11" ry="11" style="stroke:#181818;stroke-width:1.0;"/><path d="M76.0156,148.7687 Q76.1719,148.55 76.3594,148.4406 Q76.5469,148.3312 76.7656,148.3312 Q77.1406,148.3312 77.375,148.5969 Q77.6094,148.8469 77.6094,149.4562 L77.6094,150.9094 Q77.6094,151.5187 77.375,151.7844 Q77.1406,152.05 76.7656,152.05 Q76.4219,152.05 76.2188,151.8469 Q76.0156,151.6594 75.9063,151.1437 Q75.8594,150.7844 75.6719,150.5969 Q75.3438,150.2219 74.7344,150.0031 Q74.125,149.7844 73.5,149.7844 Q72.7344,149.7844 72.0938,150.1125 Q71.4688,150.4406 70.9688,151.1906 Q70.4844,151.9406 70.4844,152.9719 L70.4844,154.0656 Q70.4844,155.3 71.375,156.1281 Q72.2656,156.9406 73.8594,156.9406 Q74.7969,156.9406 75.4531,156.6906 Q75.8438,156.5344 76.2656,156.0969 Q76.5313,155.8312 76.6719,155.7531 Q76.8281,155.675 77.0313,155.675 Q77.3594,155.675 77.6094,155.9406 Q77.875,156.1906 77.875,156.5344 Q77.875,156.8781 77.5313,157.2844 Q77.0313,157.8625 76.2344,158.1906 Q75.1563,158.6437 73.8594,158.6437 Q72.3438,158.6437 71.1406,158.0187 Q70.1563,157.5187 69.4688,156.4562 Q68.7813,155.3781 68.7813,154.0969 L68.7813,152.9406 Q68.7813,151.6125 69.3906,150.4719 Q70.0156,149.3156 71.1094,148.7062 Q72.2031,148.0812 73.4375,148.0812 Q74.1719,148.0812 74.8125,148.2531 Q75.4688,148.4094 76.0156,148.7687 Z " fill="#000000"/><text fill="#000000" font-family="sans-serif" font-size="14" lengthAdjust="spacing" textLength="101" x="93.75" y="152.3332">G2dGamePanel</text><text fill="#000000" font-family="sans-serif" font-size="10" lengthAdjust="spacing" textLength="87" x="100.75" y="165.7902">medipro.gui.panel</text><line style="stroke:#181818;stroke-width:0.5;" x1="13.5" x2="242.5" y1="172.9875" y2="172.9875"/><ellipse cx="23.5" cy="187.2922" fill="none" rx="3" ry="3" style="stroke:#038048;stroke-width:1.0;"/><text fill="#000000" font-family="sans-serif" font-size="14" lengthAdjust="spacing" textLength="78" x="32.5" y="191.5207">world: World</text><polygon fill="none" points="23.5,199.9016,27.5,203.9016,23.5,207.9016,19.5,203.9016" style="stroke:#B38D22;stroke-width:1.0;"/><text fill="#000000" font-family="sans-serif" font-size="14" lengthAdjust="spacing" textLength="93" x="32.5" y="209.1301">logger: Logger</text><ellipse cx="23.5" cy="222.5109" fill="none" rx="3" ry="3" style="stroke:#038048;stroke-width:1.0;"/><text fill="#000000" font-family="sans-serif" font-size="14" lengthAdjust="spacing" textLength="91" x="32.5" y="226.7395">frame: JFrame</text><line style="stroke:#181818;stroke-width:0.5;" x1="13.5" x2="242.5" y1="233.8156" y2="233.8156"/><ellipse cx="23.5" cy="248.1203" fill="#84BE84" rx="3" ry="3" style="stroke:#038048;stroke-width:1.0;"/><text fill="#000000" font-family="sans-serif" font-size="14" lengthAdjust="spacing" textLength="158" x="32.5" y="252.3488">G2dGamePanel(JFrame)</text><ellipse cx="23.5" cy="265.7297" fill="#84BE84" rx="3" ry="3" style="stroke:#038048;stroke-width:1.0;"/><text fill="#000000" font-family="sans-serif" font-size="14" lengthAdjust="spacing" textLength="131" x="32.5" y="269.9582">update(double): void</text><ellipse cx="23.5" cy="283.3391" fill="#84BE84" rx="3" ry="3" style="stroke:#038048;stroke-width:1.0;"/><text fill="#000000" font-family="sans-serif" font-size="14" lengthAdjust="spacing" textLength="205" x="32.5" y="287.5676">paintComponent(Graphics): void</text></g></a><!--class javax.swing.JPanel--><g id="elem_javax.swing.JPanel"><rect codeLine="14" fill="#F1F1F1" height="40.1875" id="javax.swing.JPanel" rx="2.5" ry="2.5" style="stroke:#181818;stroke-width:0.5;" width="86" x="7" y="19.8"/><ellipse cx="22" cy="39.8938" fill="#ADD1B2" rx="11" ry="11" style="stroke:#181818;stroke-width:1.0;"/><path d="M24.7656,35.7688 Q24.9219,35.55 25.1094,35.4406 Q25.2969,35.3313 25.5156,35.3313 Q25.8906,35.3313 26.125,35.5969 Q26.3594,35.8469 26.3594,36.4563 L26.3594,37.9094 Q26.3594,38.5188 26.125,38.7844 Q25.8906,39.05 25.5156,39.05 Q25.1719,39.05 24.9688,38.8469 Q24.7656,38.6594 24.6563,38.1438 Q24.6094,37.7844 24.4219,37.5969 Q24.0938,37.2219 23.4844,37.0031 Q22.875,36.7844 22.25,36.7844 Q21.4844,36.7844 20.8438,37.1125 Q20.2188,37.4406 19.7188,38.1906 Q19.2344,38.9406 19.2344,39.9719 L19.2344,41.0656 Q19.2344,42.3 20.125,43.1281 Q21.0156,43.9406 22.6094,43.9406 Q23.5469,43.9406 24.2031,43.6906 Q24.5938,43.5344 25.0156,43.0969 Q25.2813,42.8313 25.4219,42.7531 Q25.5781,42.675 25.7813,42.675 Q26.1094,42.675 26.3594,42.9406 Q26.625,43.1906 26.625,43.5344 Q26.625,43.8781 26.2813,44.2844 Q25.7813,44.8625 24.9844,45.1906 Q23.9063,45.6438 22.6094,45.6438 Q21.0938,45.6438 19.8906,45.0188 Q18.9063,44.5188 18.2188,43.4563 Q17.5313,42.3781 17.5313,41.0969 L17.5313,39.9406 Q17.5313,38.6125 18.1406,37.4719 Q18.7656,36.3156 19.8594,35.7063 Q20.9531,35.0813 22.1875,35.0813 Q22.9219,35.0813 23.5625,35.2531 Q24.2188,35.4094 24.7656,35.7688 Z " fill="#000000"/><text fill="#000000" font-family="sans-serif" font-size="14" lengthAdjust="spacing" textLength="42" x="42" y="39.3332">JPanel</text><text fill="#000000" font-family="sans-serif" font-size="10" lengthAdjust="spacing" textLength="54" x="36" y="52.7902">javax.swing</text></g><!--class medipro.gui.panel.IGamePanel--><a href="IGamePanel.html" target="_top" title="IGamePanel.html" xlink:actuate="onRequest" xlink:href="IGamePanel.html" xlink:show="new" xlink:title="IGamePanel.html" xlink:type="simple"><g id="elem_medipro.gui.panel.IGamePanel"><rect codeLine="15" fill="#F1F1F1" height="65.7969" id="medipro.gui.panel.IGamePanel" rx="2.5" ry="2.5" style="stroke:#181818;stroke-width:0.5;" width="156" x="128" y="7"/><ellipse cx="160.55" cy="27.0938" fill="#B4A7E5" rx="11" ry="11" style="stroke:#181818;stroke-width:1.0;"/><path d="M161.5031,23.7344 L161.5031,30.3906 L163.2219,30.3906 Q163.8313,30.3906 164.0969,30.625 Q164.3625,30.8594 164.3625,31.25 Q164.3625,31.625 164.0969,31.8594 Q163.8313,32.0938 163.2219,32.0938 L158.0813,32.0938 Q157.4719,32.0938 157.2063,31.8594 Q156.9406,31.625 156.9406,31.2344 Q156.9406,30.8594 157.2063,30.625 Q157.4719,30.3906 158.0813,30.3906 L159.8,30.3906 L159.8,23.7344 L158.0813,23.7344 Q157.4719,23.7344 157.2063,23.5 Q156.9406,23.2656 156.9406,22.875 Q156.9406,22.5 157.2063,22.2656 Q157.4719,22.0313 158.0813,22.0313 L163.2219,22.0313 Q163.8313,22.0313 164.0969,22.2656 Q164.3625,22.5 164.3625,22.875 Q164.3625,23.2656 164.0969,23.5 Q163.8313,23.7344 163.2219,23.7344 L161.5031,23.7344 Z " fill="#000000"/><text fill="#000000" font-family="sans-serif" font-size="14" font-style="italic" lengthAdjust="spacing" textLength="78" x="181.95" y="26.5332">IGamePanel</text><text fill="#000000" font-family="sans-serif" font-size="10" font-style="italic" lengthAdjust="spacing" textLength="85" x="178.45" y="39.9902">medipro.gui.panel</text><line style="stroke:#181818;stroke-width:0.5;" x1="129" x2="283" y1="47.1875" y2="47.1875"/><ellipse cx="139" cy="61.4922" fill="#84BE84" rx="3" ry="3" style="stroke:#038048;stroke-width:1.0;"/><text fill="#000000" font-family="sans-serif" font-size="14" font-style="italic" lengthAdjust="spacing" textLength="130" x="148" y="65.7207">update(double): void</text></g></a><!--reverse link javax.swing.JPanel to medipro.gui.panel.G2dGamePanel--><g id="link_javax.swing.JPanel_medipro.gui.panel.G2dGamePanel"><path codeLine="19" d="M66.2332,76.6635 C74.3132,94.4835 79.44,105.74 91.64,132.63 " fill="none" id="javax.swing.JPanel-backto-medipro.gui.panel.G2dGamePanel" style="stroke:#181818;stroke-width:1.0;"/><polygon fill="none" points="58.8,60.27,60.7687,79.1413,71.6977,74.1858,58.8,60.27" style="stroke:#181818;stroke-width:1.0;"/></g><!--reverse link medipro.gui.panel.IGamePanel to medipro.gui.panel.G2dGamePanel--><g id="link_medipro.gui.panel.IGamePanel_medipro.gui.panel.G2dGamePanel"><path codeLine="20" d="M183.8823,89.6069 C176.2423,106.4169 173.99,111.41 164.48,132.35 " fill="none" id="medipro.gui.panel.IGamePanel-backto-medipro.gui.panel.G2dGamePanel" style="stroke:#181818;stroke-width:1.0;stroke-dasharray:7.0,7.0;"/><polygon fill="none" points="191.33,73.22,178.42,87.1244,189.3446,92.0895,191.33,73.22" style="stroke:#181818;stroke-width:1.0;"/></g><text fill="#888888" font-family="sans-serif" font-size="10" lengthAdjust="spacing" textLength="184" x="46.5" y="311.0246">UMLDoclet 2.1.1, PlantUML 1.2023.12</text><!--SRC=[fP9HQy8m4CVVzoaEnw3Y35FsL8el6nF5WJ367fmFPtjjCz8a956tgTzzQPMrw723vUN8_ox_k_mI001B3YGMP3N6z4GQ3JfbG2f95puDEKy8gD3k0r9E8h77Qa4kLrwkz5YWjT2ABF-ai7Sx6FQJeJUVeYJnAW_opQ2WX6kZMBRaJ9Uv5g254vKrZyDirjoot1LYFeTDrRTSdRKo8WdXfGpVwgLGMKOcX4aLw-hKUAiGnWzbhELcZs2VRDVPfKxGKP2evK9GEuILudMhZaOktPqgj8SdNJ0qg7CUssRTxcTEusD2RxZ2TsRNN6OLcyQUxOih7z-FJEfVhk4r-W_nKPFtw0pj3IwiCnYxtHagXzkU3W_HjjlzvS6hesSdZBQC_SKafX8Jf4gLuVbnSgzYuVzzd_LOxngc0gNpAbojo5YkPD3-0W00]--></g></svg>