<?xml version="1.0" encoding="us-ascii" standalone="no"?><svg xmlns="http://www.w3.org/2000/svg" xmlns:xlink="http://www.w3.org/1999/xlink" contentStyleType="text/css" height="426px" preserveAspectRatio="none" style="width:706px;height:426px;background:#FFFFFF;" version="1.1" viewBox="0 0 706 426" width="706px" zoomAndPan="magnify"><defs/><g><!--class medipro.gui.panel.GLGamePanel--><a href="GLGamePanel.html" target="_top" title="GLGamePanel.html" xlink:actuate="onRequest" xlink:href="GLGamePanel.html" xlink:show="new" xlink:title="GLGamePanel.html" xlink:type="simple"><g id="elem_medipro.gui.panel.GLGamePanel"><rect codeLine="5" fill="#F1F1F1" height="214.6719" id="medipro.gui.panel.GLGamePanel" rx="2.5" ry="2.5" style="stroke:#181818;stroke-width:0.5;" width="321" x="188" y="185.63"/><ellipse cx="297.75" cy="205.7238" fill="#ADD1B2" rx="11" ry="11" style="stroke:#181818;stroke-width:1.0;"/><path d="M300.5156,201.5988 Q300.6719,201.38 300.8594,201.2706 Q301.0469,201.1613 301.2656,201.1613 Q301.6406,201.1613 301.875,201.4269 Q302.1094,201.6769 302.1094,202.2863 L302.1094,203.7394 Q302.1094,204.3488 301.875,204.6144 Q301.6406,204.88 301.2656,204.88 Q300.9219,204.88 300.7188,204.6769 Q300.5156,204.4894 300.4063,203.9738 Q300.3594,203.6144 300.1719,203.4269 Q299.8438,203.0519 299.2344,202.8331 Q298.625,202.6144 298,202.6144 Q297.2344,202.6144 296.5938,202.9425 Q295.9688,203.2706 295.4688,204.0206 Q294.9844,204.7706 294.9844,205.8019 L294.9844,206.8956 Q294.9844,208.13 295.875,208.9581 Q296.7656,209.7706 298.3594,209.7706 Q299.2969,209.7706 299.9531,209.5206 Q300.3438,209.3644 300.7656,208.9269 Q301.0313,208.6613 301.1719,208.5831 Q301.3281,208.505 301.5313,208.505 Q301.8594,208.505 302.1094,208.7706 Q302.375,209.0206 302.375,209.3644 Q302.375,209.7081 302.0313,210.1144 Q301.5313,210.6925 300.7344,211.0206 Q299.6563,211.4738 298.3594,211.4738 Q296.8438,211.4738 295.6406,210.8488 Q294.6563,210.3488 293.9688,209.2863 Q293.2813,208.2081 293.2813,206.9269 L293.2813,205.7706 Q293.2813,204.4425 293.8906,203.3019 Q294.5156,202.1456 295.6094,201.5363 Q296.7031,200.9113 297.9375,200.9113 Q298.6719,200.9113 299.3125,201.0831 Q299.9688,201.2394 300.5156,201.5988 Z " fill="#000000"/><text fill="#000000" font-family="sans-serif" font-size="14" lengthAdjust="spacing" textLength="93" x="318.25" y="205.1632">GLGamePanel</text><text fill="#000000" font-family="sans-serif" font-size="10" lengthAdjust="spacing" textLength="87" x="321.25" y="218.6202">medipro.gui.panel</text><line style="stroke:#181818;stroke-width:0.5;" x1="189" x2="508" y1="225.8175" y2="225.8175"/><ellipse cx="199" cy="240.1222" fill="none" rx="3" ry="3" style="stroke:#038048;stroke-width:1.0;"/><text fill="#000000" font-family="sans-serif" font-size="14" lengthAdjust="spacing" textLength="78" x="208" y="244.3507">world: World</text><polygon fill="none" points="199,252.7316,203,256.7316,199,260.7316,195,256.7316" style="stroke:#B38D22;stroke-width:1.0;"/><text fill="#000000" font-family="sans-serif" font-size="14" lengthAdjust="spacing" textLength="93" x="208" y="261.9601">logger: Logger</text><ellipse cx="199" cy="275.3409" fill="none" rx="3" ry="3" style="stroke:#038048;stroke-width:1.0;"/><text fill="#000000" font-family="sans-serif" font-size="14" lengthAdjust="spacing" textLength="91" x="208" y="279.5695">frame: JFrame</text><line style="stroke:#181818;stroke-width:0.5;" x1="189" x2="508" y1="286.6456" y2="286.6456"/><ellipse cx="199" cy="300.9503" fill="#84BE84" rx="3" ry="3" style="stroke:#038048;stroke-width:1.0;"/><text fill="#000000" font-family="sans-serif" font-size="14" lengthAdjust="spacing" textLength="150" x="208" y="305.1788">GLGamePanel(JFrame)</text><ellipse cx="199" cy="318.5597" fill="#84BE84" rx="3" ry="3" style="stroke:#038048;stroke-width:1.0;"/><text fill="#000000" font-family="sans-serif" font-size="14" lengthAdjust="spacing" textLength="131" x="208" y="322.7882">update(double): void</text><ellipse cx="199" cy="336.1691" fill="#84BE84" rx="3" ry="3" style="stroke:#038048;stroke-width:1.0;"/><text fill="#000000" font-family="sans-serif" font-size="14" lengthAdjust="spacing" textLength="195" x="208" y="340.3976">display(GLAutoDrawable): void</text><ellipse cx="199" cy="353.7784" fill="#84BE84" rx="3" ry="3" style="stroke:#038048;stroke-width:1.0;"/><text fill="#000000" font-family="sans-serif" font-size="14" lengthAdjust="spacing" textLength="200" x="208" y="358.007">dispose(GLAutoDrawable): void</text><ellipse cx="199" cy="371.3878" fill="#84BE84" rx="3" ry="3" style="stroke:#038048;stroke-width:1.0;"/><text fill="#000000" font-family="sans-serif" font-size="14" lengthAdjust="spacing" textLength="169" x="208" y="375.6163">init(GLAutoDrawable): void</text><ellipse cx="199" cy="388.9972" fill="#84BE84" rx="3" ry="3" style="stroke:#038048;stroke-width:1.0;"/><text fill="#000000" font-family="sans-serif" font-size="14" lengthAdjust="spacing" textLength="295" x="208" y="393.2257">reshape(GLAutoDrawable, int, int, int, int): void</text></g></a><!--class com.jogamp.opengl.awt.GLJPanel--><g id="elem_com.jogamp.opengl.awt.GLJPanel"><rect codeLine="17" fill="#F1F1F1" height="40.1875" id="com.jogamp.opengl.awt.GLJPanel" rx="2.5" ry="2.5" style="stroke:#181818;stroke-width:0.5;" width="147" x="7" y="46.22"/><ellipse cx="22" cy="66.3138" fill="#ADD1B2" rx="11" ry="11" style="stroke:#181818;stroke-width:1.0;"/><path d="M24.7656,62.1888 Q24.9219,61.97 25.1094,61.8606 Q25.2969,61.7513 25.5156,61.7513 Q25.8906,61.7513 26.125,62.0169 Q26.3594,62.2669 26.3594,62.8763 L26.3594,64.3294 Q26.3594,64.9388 26.125,65.2044 Q25.8906,65.47 25.5156,65.47 Q25.1719,65.47 24.9688,65.2669 Q24.7656,65.0794 24.6563,64.5638 Q24.6094,64.2044 24.4219,64.0169 Q24.0938,63.6419 23.4844,63.4231 Q22.875,63.2044 22.25,63.2044 Q21.4844,63.2044 20.8438,63.5325 Q20.2188,63.8606 19.7188,64.6106 Q19.2344,65.3606 19.2344,66.3919 L19.2344,67.4856 Q19.2344,68.72 20.125,69.5481 Q21.0156,70.3606 22.6094,70.3606 Q23.5469,70.3606 24.2031,70.1106 Q24.5938,69.9544 25.0156,69.5169 Q25.2813,69.2513 25.4219,69.1731 Q25.5781,69.095 25.7813,69.095 Q26.1094,69.095 26.3594,69.3606 Q26.625,69.6106 26.625,69.9544 Q26.625,70.2981 26.2813,70.7044 Q25.7813,71.2825 24.9844,71.6106 Q23.9063,72.0638 22.6094,72.0638 Q21.0938,72.0638 19.8906,71.4388 Q18.9063,70.9388 18.2188,69.8763 Q17.5313,68.7981 17.5313,67.5169 L17.5313,66.3606 Q17.5313,65.0325 18.1406,63.8919 Q18.7656,62.7356 19.8594,62.1263 Q20.9531,61.5013 22.1875,61.5013 Q22.9219,61.5013 23.5625,61.6731 Q24.2188,61.8294 24.7656,62.1888 Z " fill="#000000"/><text fill="#000000" font-family="sans-serif" font-size="14" lengthAdjust="spacing" textLength="61" x="63" y="65.7532">GLJPanel</text><text fill="#000000" font-family="sans-serif" font-size="10" lengthAdjust="spacing" textLength="115" x="36" y="79.2102">com.jogamp.opengl.awt</text></g><!--class com.jogamp.opengl.GLEventListener--><g id="elem_com.jogamp.opengl.GLEventListener"><rect codeLine="18" fill="#F1F1F1" height="118.625" id="com.jogamp.opengl.GLEventListener" rx="2.5" ry="2.5" style="stroke:#181818;stroke-width:0.5;" width="320" x="188.5" y="7"/><ellipse cx="291.75" cy="27.0938" fill="#B4A7E5" rx="11" ry="11" style="stroke:#181818;stroke-width:1.0;"/><path d="M292.7031,23.7344 L292.7031,30.3906 L294.4219,30.3906 Q295.0313,30.3906 295.2969,30.625 Q295.5625,30.8594 295.5625,31.25 Q295.5625,31.625 295.2969,31.8594 Q295.0313,32.0938 294.4219,32.0938 L289.2813,32.0938 Q288.6719,32.0938 288.4063,31.8594 Q288.1406,31.625 288.1406,31.2344 Q288.1406,30.8594 288.4063,30.625 Q288.6719,30.3906 289.2813,30.3906 L291,30.3906 L291,23.7344 L289.2813,23.7344 Q288.6719,23.7344 288.4063,23.5 Q288.1406,23.2656 288.1406,22.875 Q288.1406,22.5 288.4063,22.2656 Q288.6719,22.0313 289.2813,22.0313 L294.4219,22.0313 Q295.0313,22.0313 295.2969,22.2656 Q295.5625,22.5 295.5625,22.875 Q295.5625,23.2656 295.2969,23.5 Q295.0313,23.7344 294.4219,23.7344 L292.7031,23.7344 Z " fill="#000000"/><text fill="#000000" font-family="sans-serif" font-size="14" font-style="italic" lengthAdjust="spacing" textLength="105" x="312.25" y="26.5332">GLEventListener</text><text fill="#000000" font-family="sans-serif" font-size="10" font-style="italic" lengthAdjust="spacing" textLength="90" x="319.75" y="39.9902">com.jogamp.opengl</text><line style="stroke:#181818;stroke-width:0.5;" x1="189.5" x2="507.5" y1="47.1875" y2="47.1875"/><ellipse cx="199.5" cy="61.4922" fill="#84BE84" rx="3" ry="3" style="stroke:#038048;stroke-width:1.0;"/><text fill="#000000" font-family="sans-serif" font-size="14" font-style="italic" lengthAdjust="spacing" textLength="168" x="208.5" y="65.7207">init(GLAutoDrawable): void</text><ellipse cx="199.5" cy="79.1016" fill="#84BE84" rx="3" ry="3" style="stroke:#038048;stroke-width:1.0;"/><text fill="#000000" font-family="sans-serif" font-size="14" font-style="italic" lengthAdjust="spacing" textLength="199" x="208.5" y="83.3301">dispose(GLAutoDrawable): void</text><ellipse cx="199.5" cy="96.7109" fill="#84BE84" rx="3" ry="3" style="stroke:#038048;stroke-width:1.0;"/><text fill="#000000" font-family="sans-serif" font-size="14" font-style="italic" lengthAdjust="spacing" textLength="194" x="208.5" y="100.9395">display(GLAutoDrawable): void</text><ellipse cx="199.5" cy="114.3203" fill="#84BE84" rx="3" ry="3" style="stroke:#038048;stroke-width:1.0;"/><text fill="#000000" font-family="sans-serif" font-size="14" font-style="italic" lengthAdjust="spacing" textLength="294" x="208.5" y="118.5488">reshape(GLAutoDrawable, int, int, int, int): void</text></g><!--class medipro.gui.panel.IGamePanel--><a href="IGamePanel.html" target="_top" title="IGamePanel.html" xlink:actuate="onRequest" xlink:href="IGamePanel.html" xlink:show="new" xlink:title="IGamePanel.html" xlink:type="simple"><g id="elem_medipro.gui.panel.IGamePanel"><rect codeLine="24" fill="#F1F1F1" height="65.7969" id="medipro.gui.panel.IGamePanel" rx="2.5" ry="2.5" style="stroke:#181818;stroke-width:0.5;" width="156" x="543.5" y="33.42"/><ellipse cx="576.05" cy="53.5138" fill="#B4A7E5" rx="11" ry="11" style="stroke:#181818;stroke-width:1.0;"/><path d="M577.0031,50.1544 L577.0031,56.8106 L578.7219,56.8106 Q579.3313,56.8106 579.5969,57.045 Q579.8625,57.2794 579.8625,57.67 Q579.8625,58.045 579.5969,58.2794 Q579.3313,58.5138 578.7219,58.5138 L573.5813,58.5138 Q572.9719,58.5138 572.7063,58.2794 Q572.4406,58.045 572.4406,57.6544 Q572.4406,57.2794 572.7063,57.045 Q572.9719,56.8106 573.5813,56.8106 L575.3,56.8106 L575.3,50.1544 L573.5813,50.1544 Q572.9719,50.1544 572.7063,49.92 Q572.4406,49.6856 572.4406,49.295 Q572.4406,48.92 572.7063,48.6856 Q572.9719,48.4513 573.5813,48.4513 L578.7219,48.4513 Q579.3313,48.4513 579.5969,48.6856 Q579.8625,48.92 579.8625,49.295 Q579.8625,49.6856 579.5969,49.92 Q579.3313,50.1544 578.7219,50.1544 L577.0031,50.1544 Z " fill="#000000"/><text fill="#000000" font-family="sans-serif" font-size="14" font-style="italic" lengthAdjust="spacing" textLength="78" x="597.45" y="52.9532">IGamePanel</text><text fill="#000000" font-family="sans-serif" font-size="10" font-style="italic" lengthAdjust="spacing" textLength="85" x="593.95" y="66.4102">medipro.gui.panel</text><line style="stroke:#181818;stroke-width:0.5;" x1="544.5" x2="698.5" y1="73.6075" y2="73.6075"/><ellipse cx="554.5" cy="87.9122" fill="#84BE84" rx="3" ry="3" style="stroke:#038048;stroke-width:1.0;"/><text fill="#000000" font-family="sans-serif" font-size="14" font-style="italic" lengthAdjust="spacing" textLength="130" x="563.5" y="92.1407">update(double): void</text></g></a><!--reverse link com.jogamp.opengl.awt.GLJPanel to medipro.gui.panel.GLGamePanel--><g id="link_com.jogamp.opengl.awt.GLJPanel_medipro.gui.panel.GLGamePanel"><path codeLine="28" d="M117.6057,98.4219 C144.2857,120.7819 176.31,147.63 221.13,185.2 " fill="none" id="com.jogamp.opengl.awt.GLJPanel-backto-medipro.gui.panel.GLGamePanel" style="stroke:#181818;stroke-width:1.0;"/><polygon fill="none" points="103.81,86.86,113.7517,103.0205,121.4597,93.8234,103.81,86.86" style="stroke:#181818;stroke-width:1.0;"/></g><!--reverse link com.jogamp.opengl.GLEventListener to medipro.gui.panel.GLGamePanel--><g id="link_com.jogamp.opengl.GLEventListener_medipro.gui.panel.GLGamePanel"><path codeLine="29" d="M348.5,144.05 C348.5,162.25 348.5,164.9 348.5,185.3 " fill="none" id="com.jogamp.opengl.GLEventListener-backto-medipro.gui.panel.GLGamePanel" style="stroke:#181818;stroke-width:1.0;stroke-dasharray:7.0,7.0;"/><polygon fill="none" points="348.5,126.05,342.5,144.05,354.5,144.05,348.5,126.05" style="stroke:#181818;stroke-width:1.0;"/></g><!--reverse link medipro.gui.panel.IGamePanel to medipro.gui.panel.GLGamePanel--><g id="link_medipro.gui.panel.IGamePanel_medipro.gui.panel.GLGamePanel"><path codeLine="30" d="M568.4916,110.9383 C540.9216,133.6283 516.18,153.98 478.25,185.19 " fill="none" id="medipro.gui.panel.IGamePanel-backto-medipro.gui.panel.GLGamePanel" style="stroke:#181818;stroke-width:1.0;stroke-dasharray:7.0,7.0;"/><polygon fill="none" points="582.39,99.5,564.6788,106.3055,572.3044,115.5711,582.39,99.5" style="stroke:#181818;stroke-width:1.0;"/></g><text fill="#888888" font-family="sans-serif" font-size="10" lengthAdjust="spacing" textLength="184" x="254.25" y="416.6827">UMLDoclet 2.1.1, PlantUML 1.2023.12</text><!--SRC=[fLHDIyD04BtxAmP5QB4kLZo5KX3KKeaWY7Ye7iPacgviTfRTROjV_zqaVdID9YsQGuQycNcFtJSJ00177ZJcv0mcT4K6BNgse5dJLf66cKm9A3V-4QQILEhgQ4v-nWLSuOb2vs1xuEGJHVsZuIWU5ToNg4dTwW_qO9XJAerbaSsbC6Lk6z313rG4tJ2P15zYvdDrTmVFbMZvx2tPgZI2cp9yeJkAiuni174LLzLJMr15S7vMnXKSI7JUSzrLScvIzDH9UNwlg1l1WkLAQI-LpYXyx8pYuxdd4ujBR2fZH-lAf9P-NOqbDqDJf-g1rBxs2bjVcumwhxkKS2uUECFS23QaCoLmwIkdVis8JugAlr0bEor6wfl6wOAqZwNpfCcsIJN8r1W2_v_ntdcBYN_TwFB2yiqigNUizphi-AjNJLSv_izQZSEj6hSiLNY2nkd_7AZMcO31o_v- -uOtiDGj7xm8iG5Hwwatv4Yel7cOCfVX-Y8-uKGLlyj3qHVz7bmgrBv0ONT1radMdUuR]--></g></svg>