<?xml version="1.0" encoding="us-ascii" standalone="no"?><svg xmlns="http://www.w3.org/2000/svg" xmlns:xlink="http://www.w3.org/1999/xlink" contentStyleType="text/css" height="1209px" preserveAspectRatio="none" style="width:1699px;height:1209px;background:#FFFFFF;" version="1.1" viewBox="0 0 1699 1209" width="1699px" zoomAndPan="magnify"><defs/><g><!--cluster medipro.gui.panel--><g id="cluster_medipro.gui.panel"><path d="M8.5,402.22 L136.5,402.22 A3.75,3.75 0 0 1 139,404.72 L146,425.8294 L621.5,425.8294 A2.5,2.5 0 0 1 624,428.3294 L624,1180.02 A2.5,2.5 0 0 1 621.5,1182.52 L8.5,1182.52 A2.5,2.5 0 0 1 6,1180.02 L6,404.72 A2.5,2.5 0 0 1 8.5,402.22 " fill="none" style="stroke:#000000;stroke-width:1.5;"/><line style="stroke:#000000;stroke-width:1.5;" x1="6" x2="146" y1="425.8294" y2="425.8294"/><text fill="#000000" font-family="sans-serif" font-size="14" font-weight="bold" lengthAdjust="spacing" textLength="127" x="10" y="418.7532">medipro.gui.panel</text></g><!--cluster javax.swing--><g id="cluster_javax.swing"><path d="M650.5,402.22 L733.5,402.22 A3.75,3.75 0 0 1 736,404.72 L743,425.8294 L807.5,425.8294 A2.5,2.5 0 0 1 810,428.3294 L810,517.32 A2.5,2.5 0 0 1 807.5,519.82 L650.5,519.82 A2.5,2.5 0 0 1 648,517.32 L648,404.72 A2.5,2.5 0 0 1 650.5,402.22 " fill="none" style="stroke:#000000;stroke-width:1.5;"/><line style="stroke:#000000;stroke-width:1.5;" x1="648" x2="743" y1="425.8294" y2="425.8294"/><text fill="#000000" font-family="sans-serif" font-size="14" font-weight="bold" lengthAdjust="spacing" textLength="82" x="652" y="418.7532">javax.swing</text></g><!--cluster com.jogamp.opengl.awt--><g id="cluster_com.jogamp.opengl.awt"><path d="M836.5,6 L1002.5,6 A3.75,3.75 0 0 1 1005,8.5 L1012,29.6094 L1313.5,29.6094 A2.5,2.5 0 0 1 1316,32.1094 L1316,913.54 A2.5,2.5 0 0 1 1313.5,916.04 L836.5,916.04 A2.5,2.5 0 0 1 834,913.54 L834,8.5 A2.5,2.5 0 0 1 836.5,6 " fill="none" style="stroke:#000000;stroke-width:1.5;"/><line style="stroke:#000000;stroke-width:1.5;" x1="834" x2="1012" y1="29.6094" y2="29.6094"/><text fill="#000000" font-family="sans-serif" font-size="14" font-weight="bold" lengthAdjust="spacing" textLength="165" x="838" y="22.5332">com.jogamp.opengl.awt</text></g><!--cluster com.jogamp.opengl--><g id="cluster_com.jogamp.opengl"><path d="M1342.5,375.8 L1480.5,375.8 A3.75,3.75 0 0 1 1483,378.3 L1490,399.4094 L1689.5,399.4094 A2.5,2.5 0 0 1 1692,401.9094 L1692,543.74 A2.5,2.5 0 0 1 1689.5,546.24 L1342.5,546.24 A2.5,2.5 0 0 1 1340,543.74 L1340,378.3 A2.5,2.5 0 0 1 1342.5,375.8 " fill="none" style="stroke:#000000;stroke-width:1.5;"/><line style="stroke:#000000;stroke-width:1.5;" x1="1340" x2="1490" y1="399.4094" y2="399.4094"/><text fill="#000000" font-family="sans-serif" font-size="14" font-weight="bold" lengthAdjust="spacing" textLength="137" x="1344" y="392.3332">com.jogamp.opengl</text></g><!--class G2dGamePanel--><a href="G2dGamePanel.html" target="_top" title="G2dGamePanel.html" xlink:actuate="onRequest" xlink:href="G2dGamePanel.html" xlink:show="new" xlink:title="G2dGamePanel.html" xlink:type="simple"><g id="elem_G2dGamePanel"><rect codeLine="5" fill="#F1F1F1" height="153.6563" id="G2dGamePanel" rx="2.5" ry="2.5" style="stroke:#181818;stroke-width:0.5;" width="231" x="21.5" y="986.45"/><ellipse cx="82.25" cy="1002.45" fill="#ADD1B2" rx="11" ry="11" style="stroke:#181818;stroke-width:1.0;"/><path d="M85.0156,998.325 Q85.1719,998.1063 85.3594,997.9969 Q85.5469,997.8875 85.7656,997.8875 Q86.1406,997.8875 86.375,998.1531 Q86.6094,998.4031 86.6094,999.0125 L86.6094,1000.4656 Q86.6094,1001.075 86.375,1001.3406 Q86.1406,1001.6063 85.7656,1001.6063 Q85.4219,1001.6063 85.2188,1001.4031 Q85.0156,1001.2156 84.9063,1000.7 Q84.8594,1000.3406 84.6719,1000.1531 Q84.3438,999.7781 83.7344,999.5594 Q83.125,999.3406 82.5,999.3406 Q81.7344,999.3406 81.0938,999.6688 Q80.4688,999.9969 79.9688,1000.7469 Q79.4844,1001.4969 79.4844,1002.5281 L79.4844,1003.6219 Q79.4844,1004.8563 80.375,1005.6844 Q81.2656,1006.4969 82.8594,1006.4969 Q83.7969,1006.4969 84.4531,1006.2469 Q84.8438,1006.0906 85.2656,1005.6531 Q85.5313,1005.3875 85.6719,1005.3094 Q85.8281,1005.2313 86.0313,1005.2313 Q86.3594,1005.2313 86.6094,1005.4969 Q86.875,1005.7469 86.875,1006.0906 Q86.875,1006.4344 86.5313,1006.8406 Q86.0313,1007.4188 85.2344,1007.7469 Q84.1563,1008.2 82.8594,1008.2 Q81.3438,1008.2 80.1406,1007.575 Q79.1563,1007.075 78.4688,1006.0125 Q77.7813,1004.9344 77.7813,1003.6531 L77.7813,1002.4969 Q77.7813,1001.1688 78.3906,1000.0281 Q79.0156,998.8719 80.1094,998.2625 Q81.2031,997.6375 82.4375,997.6375 Q83.1719,997.6375 83.8125,997.8094 Q84.4688,997.9656 85.0156,998.325 Z " fill="#000000"/><text fill="#000000" font-family="sans-serif" font-size="14" lengthAdjust="spacing" textLength="101" x="102.75" y="1008.1785">G2dGamePanel</text><line style="stroke:#181818;stroke-width:0.5;" x1="22.5" x2="251.5" y1="1018.45" y2="1018.45"/><ellipse cx="32.5" cy="1032.7547" fill="none" rx="3" ry="3" style="stroke:#038048;stroke-width:1.0;"/><text fill="#000000" font-family="sans-serif" font-size="14" lengthAdjust="spacing" textLength="78" x="41.5" y="1036.9832">world: World</text><polygon fill="none" points="32.5,1045.3641,36.5,1049.3641,32.5,1053.3641,28.5,1049.3641" style="stroke:#B38D22;stroke-width:1.0;"/><text fill="#000000" font-family="sans-serif" font-size="14" lengthAdjust="spacing" textLength="93" x="41.5" y="1054.5926">logger: Logger</text><ellipse cx="32.5" cy="1067.9734" fill="none" rx="3" ry="3" style="stroke:#038048;stroke-width:1.0;"/><text fill="#000000" font-family="sans-serif" font-size="14" lengthAdjust="spacing" textLength="91" x="41.5" y="1072.202">frame: JFrame</text><line style="stroke:#181818;stroke-width:0.5;" x1="22.5" x2="251.5" y1="1079.2781" y2="1079.2781"/><ellipse cx="32.5" cy="1093.5828" fill="#84BE84" rx="3" ry="3" style="stroke:#038048;stroke-width:1.0;"/><text fill="#000000" font-family="sans-serif" font-size="14" lengthAdjust="spacing" textLength="158" x="41.5" y="1097.8113">G2dGamePanel(JFrame)</text><ellipse cx="32.5" cy="1111.1922" fill="#84BE84" rx="3" ry="3" style="stroke:#038048;stroke-width:1.0;"/><text fill="#000000" font-family="sans-serif" font-size="14" lengthAdjust="spacing" textLength="131" x="41.5" y="1115.4207">update(double): void</text><ellipse cx="32.5" cy="1128.8016" fill="#84BE84" rx="3" ry="3" style="stroke:#038048;stroke-width:1.0;"/><text fill="#000000" font-family="sans-serif" font-size="14" lengthAdjust="spacing" textLength="205" x="41.5" y="1133.0301">paintComponent(Graphics): void</text></g></a><!--class GLGamePanel--><a href="GLGamePanel.html" target="_top" title="GLGamePanel.html" xlink:actuate="onRequest" xlink:href="GLGamePanel.html" xlink:show="new" xlink:title="GLGamePanel.html" xlink:type="simple"><g id="elem_GLGamePanel"><rect codeLine="14" fill="#F1F1F1" height="206.4844" id="GLGamePanel" rx="2.5" ry="2.5" style="stroke:#181818;stroke-width:0.5;" width="321" x="287.5" y="960.04"/><ellipse cx="397.25" cy="976.04" fill="#ADD1B2" rx="11" ry="11" style="stroke:#181818;stroke-width:1.0;"/><path d="M400.0156,971.915 Q400.1719,971.6963 400.3594,971.5869 Q400.5469,971.4775 400.7656,971.4775 Q401.1406,971.4775 401.375,971.7431 Q401.6094,971.9931 401.6094,972.6025 L401.6094,974.0556 Q401.6094,974.665 401.375,974.9306 Q401.1406,975.1963 400.7656,975.1963 Q400.4219,975.1963 400.2188,974.9931 Q400.0156,974.8056 399.9063,974.29 Q399.8594,973.9306 399.6719,973.7431 Q399.3438,973.3681 398.7344,973.1494 Q398.125,972.9306 397.5,972.9306 Q396.7344,972.9306 396.0938,973.2588 Q395.4688,973.5869 394.9688,974.3369 Q394.4844,975.0869 394.4844,976.1181 L394.4844,977.2119 Q394.4844,978.4463 395.375,979.2744 Q396.2656,980.0869 397.8594,980.0869 Q398.7969,980.0869 399.4531,979.8369 Q399.8438,979.6806 400.2656,979.2431 Q400.5313,978.9775 400.6719,978.8994 Q400.8281,978.8213 401.0313,978.8213 Q401.3594,978.8213 401.6094,979.0869 Q401.875,979.3369 401.875,979.6806 Q401.875,980.0244 401.5313,980.4306 Q401.0313,981.0088 400.2344,981.3369 Q399.1563,981.79 397.8594,981.79 Q396.3438,981.79 395.1406,981.165 Q394.1563,980.665 393.4688,979.6025 Q392.7813,978.5244 392.7813,977.2431 L392.7813,976.0869 Q392.7813,974.7588 393.3906,973.6181 Q394.0156,972.4619 395.1094,971.8525 Q396.2031,971.2275 397.4375,971.2275 Q398.1719,971.2275 398.8125,971.3994 Q399.4688,971.5556 400.0156,971.915 Z " fill="#000000"/><text fill="#000000" font-family="sans-serif" font-size="14" lengthAdjust="spacing" textLength="93" x="417.75" y="981.7685">GLGamePanel</text><line style="stroke:#181818;stroke-width:0.5;" x1="288.5" x2="607.5" y1="992.04" y2="992.04"/><ellipse cx="298.5" cy="1006.3447" fill="none" rx="3" ry="3" style="stroke:#038048;stroke-width:1.0;"/><text fill="#000000" font-family="sans-serif" font-size="14" lengthAdjust="spacing" textLength="78" x="307.5" y="1010.5732">world: World</text><polygon fill="none" points="298.5,1018.9541,302.5,1022.9541,298.5,1026.9541,294.5,1022.9541" style="stroke:#B38D22;stroke-width:1.0;"/><text fill="#000000" font-family="sans-serif" font-size="14" lengthAdjust="spacing" textLength="93" x="307.5" y="1028.1826">logger: Logger</text><ellipse cx="298.5" cy="1041.5634" fill="none" rx="3" ry="3" style="stroke:#038048;stroke-width:1.0;"/><text fill="#000000" font-family="sans-serif" font-size="14" lengthAdjust="spacing" textLength="91" x="307.5" y="1045.792">frame: JFrame</text><line style="stroke:#181818;stroke-width:0.5;" x1="288.5" x2="607.5" y1="1052.8681" y2="1052.8681"/><ellipse cx="298.5" cy="1067.1728" fill="#84BE84" rx="3" ry="3" style="stroke:#038048;stroke-width:1.0;"/><text fill="#000000" font-family="sans-serif" font-size="14" lengthAdjust="spacing" textLength="150" x="307.5" y="1071.4013">GLGamePanel(JFrame)</text><ellipse cx="298.5" cy="1084.7822" fill="#84BE84" rx="3" ry="3" style="stroke:#038048;stroke-width:1.0;"/><text fill="#000000" font-family="sans-serif" font-size="14" lengthAdjust="spacing" textLength="131" x="307.5" y="1089.0107">update(double): void</text><ellipse cx="298.5" cy="1102.3916" fill="#84BE84" rx="3" ry="3" style="stroke:#038048;stroke-width:1.0;"/><text fill="#000000" font-family="sans-serif" font-size="14" lengthAdjust="spacing" textLength="195" x="307.5" y="1106.6201">display(GLAutoDrawable): void</text><ellipse cx="298.5" cy="1120.0009" fill="#84BE84" rx="3" ry="3" style="stroke:#038048;stroke-width:1.0;"/><text fill="#000000" font-family="sans-serif" font-size="14" lengthAdjust="spacing" textLength="200" x="307.5" y="1124.2295">dispose(GLAutoDrawable): void</text><ellipse cx="298.5" cy="1137.6103" fill="#84BE84" rx="3" ry="3" style="stroke:#038048;stroke-width:1.0;"/><text fill="#000000" font-family="sans-serif" font-size="14" lengthAdjust="spacing" textLength="169" x="307.5" y="1141.8388">init(GLAutoDrawable): void</text><ellipse cx="298.5" cy="1155.2197" fill="#84BE84" rx="3" ry="3" style="stroke:#038048;stroke-width:1.0;"/><text fill="#000000" font-family="sans-serif" font-size="14" lengthAdjust="spacing" textLength="295" x="307.5" y="1159.4482">reshape(GLAutoDrawable, int, int, int, int): void</text></g></a><!--class IGamePanel--><a href="IGamePanel.html" target="_top" title="IGamePanel.html" xlink:actuate="onRequest" xlink:href="IGamePanel.html" xlink:show="new" xlink:title="IGamePanel.html" xlink:type="simple"><g id="elem_IGamePanel"><rect codeLine="26" fill="#F1F1F1" height="65.6094" id="IGamePanel" rx="2.5" ry="2.5" style="stroke:#181818;stroke-width:0.5;" width="156" x="214" y="438.22"/><ellipse cx="249.7" cy="454.22" fill="#B4A7E5" rx="11" ry="11" style="stroke:#181818;stroke-width:1.0;"/><path d="M250.6531,450.8606 L250.6531,457.5169 L252.3719,457.5169 Q252.9813,457.5169 253.2469,457.7513 Q253.5125,457.9856 253.5125,458.3763 Q253.5125,458.7513 253.2469,458.9856 Q252.9813,459.22 252.3719,459.22 L247.2313,459.22 Q246.6219,459.22 246.3563,458.9856 Q246.0906,458.7513 246.0906,458.3606 Q246.0906,457.9856 246.3563,457.7513 Q246.6219,457.5169 247.2313,457.5169 L248.95,457.5169 L248.95,450.8606 L247.2313,450.8606 Q246.6219,450.8606 246.3563,450.6263 Q246.0906,450.3919 246.0906,450.0013 Q246.0906,449.6263 246.3563,449.3919 Q246.6219,449.1575 247.2313,449.1575 L252.3719,449.1575 Q252.9813,449.1575 253.2469,449.3919 Q253.5125,449.6263 253.5125,450.0013 Q253.5125,450.3919 253.2469,450.6263 Q252.9813,450.8606 252.3719,450.8606 L250.6531,450.8606 Z " fill="#000000"/><text fill="#000000" font-family="sans-serif" font-size="14" font-style="italic" lengthAdjust="spacing" textLength="78" x="268.3" y="459.9485">IGamePanel</text><line style="stroke:#181818;stroke-width:0.5;" x1="215" x2="369" y1="470.22" y2="470.22"/><line style="stroke:#181818;stroke-width:0.5;" x1="215" x2="369" y1="478.22" y2="478.22"/><ellipse cx="225" cy="492.5247" fill="#84BE84" rx="3" ry="3" style="stroke:#038048;stroke-width:1.0;"/><text fill="#000000" font-family="sans-serif" font-size="14" font-style="italic" lengthAdjust="spacing" textLength="130" x="234" y="496.7532">update(double): void</text></g></a><!--class JPanel--><g id="elem_JPanel"><rect codeLine="33" fill="#F1F1F1" height="65.6094" id="JPanel" rx="2.5" ry="2.5" style="stroke:#181818;stroke-width:0.5;" width="130" x="664" y="438.22"/><ellipse cx="704.2" cy="454.22" fill="#ADD1B2" rx="11" ry="11" style="stroke:#181818;stroke-width:1.0;"/><path d="M706.9656,450.095 Q707.1219,449.8763 707.3094,449.7669 Q707.4969,449.6575 707.7156,449.6575 Q708.0906,449.6575 708.325,449.9231 Q708.5594,450.1731 708.5594,450.7825 L708.5594,452.2356 Q708.5594,452.845 708.325,453.1106 Q708.0906,453.3763 707.7156,453.3763 Q707.3719,453.3763 707.1688,453.1731 Q706.9656,452.9856 706.8563,452.47 Q706.8094,452.1106 706.6219,451.9231 Q706.2938,451.5481 705.6844,451.3294 Q705.075,451.1106 704.45,451.1106 Q703.6844,451.1106 703.0438,451.4388 Q702.4188,451.7669 701.9188,452.5169 Q701.4344,453.2669 701.4344,454.2981 L701.4344,455.3919 Q701.4344,456.6263 702.325,457.4544 Q703.2156,458.2669 704.8094,458.2669 Q705.7469,458.2669 706.4031,458.0169 Q706.7938,457.8606 707.2156,457.4231 Q707.4813,457.1575 707.6219,457.0794 Q707.7781,457.0013 707.9813,457.0013 Q708.3094,457.0013 708.5594,457.2669 Q708.825,457.5169 708.825,457.8606 Q708.825,458.2044 708.4813,458.6106 Q707.9813,459.1888 707.1844,459.5169 Q706.1063,459.97 704.8094,459.97 Q703.2938,459.97 702.0906,459.345 Q701.1063,458.845 700.4188,457.7825 Q699.7313,456.7044 699.7313,455.4231 L699.7313,454.2669 Q699.7313,452.9388 700.3406,451.7981 Q700.9656,450.6419 702.0594,450.0325 Q703.1531,449.4075 704.3875,449.4075 Q705.1219,449.4075 705.7625,449.5794 Q706.4188,449.7356 706.9656,450.095 Z " fill="#000000"/><text fill="#000000" font-family="sans-serif" font-size="14" lengthAdjust="spacing" textLength="42" x="723.8" y="459.9485">JPanel</text><line style="stroke:#181818;stroke-width:0.5;" x1="665" x2="793" y1="470.22" y2="470.22"/><rect fill="none" height="6" style="stroke:#C82930;stroke-width:1.0;" width="6" x="672" y="481.5247"/><text fill="#000000" font-family="sans-serif" font-size="14" lengthAdjust="spacing" text-decoration="underline" textLength="104" x="684" y="488.7532">uiClassID: String</text><line style="stroke:#181818;stroke-width:0.5;" x1="665" x2="793" y1="495.8294" y2="495.8294"/></g><!--class GLJPanel--><g id="elem_GLJPanel"><rect codeLine="39" fill="#F1F1F1" height="858.0313" id="GLJPanel" rx="2.5" ry="2.5" style="stroke:#181818;stroke-width:0.5;" width="450" x="850" y="42"/><ellipse cx="1040.25" cy="58" fill="#ADD1B2" rx="11" ry="11" style="stroke:#181818;stroke-width:1.0;"/><path d="M1043.0156,53.875 Q1043.1719,53.6563 1043.3594,53.5469 Q1043.5469,53.4375 1043.7656,53.4375 Q1044.1406,53.4375 1044.375,53.7031 Q1044.6094,53.9531 1044.6094,54.5625 L1044.6094,56.0156 Q1044.6094,56.625 1044.375,56.8906 Q1044.1406,57.1563 1043.7656,57.1563 Q1043.4219,57.1563 1043.2188,56.9531 Q1043.0156,56.7656 1042.9063,56.25 Q1042.8594,55.8906 1042.6719,55.7031 Q1042.3438,55.3281 1041.7344,55.1094 Q1041.125,54.8906 1040.5,54.8906 Q1039.7344,54.8906 1039.0938,55.2188 Q1038.4688,55.5469 1037.9688,56.2969 Q1037.4844,57.0469 1037.4844,58.0781 L1037.4844,59.1719 Q1037.4844,60.4063 1038.375,61.2344 Q1039.2656,62.0469 1040.8594,62.0469 Q1041.7969,62.0469 1042.4531,61.7969 Q1042.8438,61.6406 1043.2656,61.2031 Q1043.5313,60.9375 1043.6719,60.8594 Q1043.8281,60.7813 1044.0313,60.7813 Q1044.3594,60.7813 1044.6094,61.0469 Q1044.875,61.2969 1044.875,61.6406 Q1044.875,61.9844 1044.5313,62.3906 Q1044.0313,62.9688 1043.2344,63.2969 Q1042.1563,63.75 1040.8594,63.75 Q1039.3438,63.75 1038.1406,63.125 Q1037.1563,62.625 1036.4688,61.5625 Q1035.7813,60.4844 1035.7813,59.2031 L1035.7813,58.0469 Q1035.7813,56.7188 1036.3906,55.5781 Q1037.0156,54.4219 1038.1094,53.8125 Q1039.2031,53.1875 1040.4375,53.1875 Q1041.1719,53.1875 1041.8125,53.3594 Q1042.4688,53.5156 1043.0156,53.875 Z " fill="#000000"/><text fill="#000000" font-family="sans-serif" font-size="14" lengthAdjust="spacing" textLength="61" x="1060.75" y="63.7285">GLJPanel</text><line style="stroke:#181818;stroke-width:0.5;" x1="851" x2="1299" y1="74" y2="74"/><rect fill="none" height="6" style="stroke:#C82930;stroke-width:1.0;" width="6" x="858" y="85.3047"/><text fill="#000000" font-family="sans-serif" font-size="14" lengthAdjust="spacing" text-decoration="underline" textLength="107" x="870" y="92.5332">DEBUG: boolean</text><rect fill="none" height="6" style="stroke:#C82930;stroke-width:1.0;" width="6" x="858" y="102.9141"/><text fill="#000000" font-family="sans-serif" font-size="14" lengthAdjust="spacing" text-decoration="underline" textLength="172" x="870" y="110.1426">DEBUG_FRAMES: boolean</text><rect fill="none" height="6" style="stroke:#C82930;stroke-width:1.0;" width="6" x="858" y="120.5234"/><text fill="#000000" font-family="sans-serif" font-size="14" lengthAdjust="spacing" text-decoration="underline" textLength="188" x="870" y="127.752">DEBUG_VIEWPORT: boolean</text><rect fill="none" height="6" style="stroke:#C82930;stroke-width:1.0;" width="6" x="858" y="138.1328"/><text fill="#000000" font-family="sans-serif" font-size="14" lengthAdjust="spacing" text-decoration="underline" textLength="295" x="870" y="145.3613">USE_GLSL_TEXTURE_RASTERIZER: boolean</text><rect fill="none" height="6" style="stroke:#C82930;stroke-width:1.0;" width="6" x="858" y="155.7422"/><text fill="#000000" font-family="sans-serif" font-size="14" lengthAdjust="spacing" text-decoration="underline" textLength="272" x="870" y="162.9707">SKIP_VERTICAL_FLIP_DEFAULT: boolean</text><rect fill="none" height="6" style="stroke:#C82930;stroke-width:1.0;" width="6" x="858" y="173.3516"/><text fill="#000000" font-family="sans-serif" font-size="14" lengthAdjust="spacing" text-decoration="underline" textLength="229" x="870" y="180.5801">java2dOGLEnabledByProp: boolean</text><rect fill="none" height="6" style="stroke:#C82930;stroke-width:1.0;" width="6" x="858" y="190.9609"/><text fill="#000000" font-family="sans-serif" font-size="14" lengthAdjust="spacing" text-decoration="underline" textLength="198" x="870" y="198.1895">useJava2DGLPipeline: boolean</text><rect fill="none" height="6" style="stroke:#C82930;stroke-width:1.0;" width="6" x="858" y="208.5703"/><text fill="#000000" font-family="sans-serif" font-size="14" lengthAdjust="spacing" text-decoration="underline" textLength="192" x="870" y="215.7988">java2DGLPipelineOK: boolean</text><rect fill="none" height="6" style="stroke:#C82930;stroke-width:1.0;" width="6" x="858" y="226.1797"/><text fill="#000000" font-family="sans-serif" font-size="14" lengthAdjust="spacing" text-decoration="underline" textLength="424" x="870" y="233.4082">singleAWTGLPixelBufferProvider: SingleAWTGLPixelBufferProvider</text><rect fill="none" height="6" style="stroke:#C82930;stroke-width:1.0;" width="6" x="858" y="243.7891"/><text fill="#000000" font-family="sans-serif" font-size="14" lengthAdjust="spacing" textLength="126" x="870" y="251.0176">lock: RecursiveLock</text><rect fill="none" height="6" style="stroke:#C82930;stroke-width:1.0;" width="6" x="858" y="261.3984"/><text fill="#000000" font-family="sans-serif" font-size="14" lengthAdjust="spacing" textLength="167" x="870" y="268.627">helper: GLDrawableHelper</text><rect fill="none" height="6" style="stroke:#C82930;stroke-width:1.0;" width="6" x="858" y="279.0078"/><text fill="#000000" font-family="sans-serif" font-size="14" lengthAdjust="spacing" textLength="194" x="870" y="286.2363">autoSwapBufferMode: boolean</text><rect fill="none" height="6" style="stroke:#C82930;stroke-width:1.0;" width="6" x="858" y="296.6172"/><text fill="#000000" font-family="sans-serif" font-size="14" lengthAdjust="spacing" textLength="126" x="870" y="303.8457">isInitialized: boolean</text><rect fill="none" height="6" style="stroke:#C82930;stroke-width:1.0;" width="6" x="858" y="314.2266"/><text fill="#000000" font-family="sans-serif" font-size="14" lengthAdjust="spacing" textLength="343" x="870" y="321.4551">customPixelBufferProvider: AWTGLPixelBufferProvider</text><rect fill="none" height="6" style="stroke:#C82930;stroke-width:1.0;" width="6" x="858" y="331.8359"/><text fill="#000000" font-family="sans-serif" font-size="14" lengthAdjust="spacing" textLength="280" x="870" y="339.0645">reqOffscreenCaps: GLCapabilitiesImmutable</text><rect fill="none" height="6" style="stroke:#C82930;stroke-width:1.0;" width="6" x="858" y="349.4453"/><text fill="#000000" font-family="sans-serif" font-size="14" lengthAdjust="spacing" textLength="202" x="870" y="356.6738">factory: GLDrawableFactoryImpl</text><rect fill="none" height="6" style="stroke:#C82930;stroke-width:1.0;" width="6" x="858" y="367.0547"/><text fill="#000000" font-family="sans-serif" font-size="14" lengthAdjust="spacing" textLength="205" x="870" y="374.2832">chooser: GLCapabilitiesChooser</text><rect fill="none" height="6" style="stroke:#C82930;stroke-width:1.0;" width="6" x="858" y="384.6641"/><text fill="#000000" font-family="sans-serif" font-size="14" lengthAdjust="spacing" textLength="193" x="870" y="391.8926">additionalCtxCreationFlags: int</text><rect fill="none" height="6" style="stroke:#C82930;stroke-width:1.0;" width="6" x="858" y="402.2734"/><text fill="#000000" font-family="sans-serif" font-size="14" lengthAdjust="spacing" textLength="159" x="870" y="409.502">handleReshape: boolean</text><rect fill="none" height="6" style="stroke:#C82930;stroke-width:1.0;" width="6" x="858" y="419.8828"/><text fill="#000000" font-family="sans-serif" font-size="14" lengthAdjust="spacing" textLength="147" x="870" y="427.1113">sendReshape: boolean</text><rect fill="none" height="6" style="stroke:#C82930;stroke-width:1.0;" width="6" x="858" y="437.4922"/><text fill="#000000" font-family="sans-serif" font-size="14" lengthAdjust="spacing" textLength="130" x="870" y="444.7207">hasPixelScale: float[]</text><rect fill="none" height="6" style="stroke:#C82930;stroke-width:1.0;" width="6" x="858" y="455.1016"/><text fill="#000000" font-family="sans-serif" font-size="14" lengthAdjust="spacing" textLength="111" x="870" y="462.3301">reshapeWidth: int</text><rect fill="none" height="6" style="stroke:#C82930;stroke-width:1.0;" width="6" x="858" y="472.7109"/><text fill="#000000" font-family="sans-serif" font-size="14" lengthAdjust="spacing" textLength="115" x="870" y="479.9395">reshapeHeight: int</text><rect fill="none" height="6" style="stroke:#C82930;stroke-width:1.0;" width="6" x="858" y="490.3203"/><text fill="#000000" font-family="sans-serif" font-size="14" lengthAdjust="spacing" textLength="94" x="870" y="497.5488">panelWidth: int</text><rect fill="none" height="6" style="stroke:#C82930;stroke-width:1.0;" width="6" x="858" y="507.9297"/><text fill="#000000" font-family="sans-serif" font-size="14" lengthAdjust="spacing" textLength="98" x="870" y="515.1582">panelHeight: int</text><rect fill="none" height="6" style="stroke:#C82930;stroke-width:1.0;" width="6" x="858" y="525.5391"/><text fill="#000000" font-family="sans-serif" font-size="14" lengthAdjust="spacing" textLength="83" x="870" y="532.7676">viewportX: int</text><rect fill="none" height="6" style="stroke:#C82930;stroke-width:1.0;" width="6" x="858" y="543.1484"/><text fill="#000000" font-family="sans-serif" font-size="14" lengthAdjust="spacing" textLength="84" x="870" y="550.377">viewportY: int</text><rect fill="none" height="6" style="stroke:#C82930;stroke-width:1.0;" width="6" x="858" y="560.7578"/><text fill="#000000" font-family="sans-serif" font-size="14" lengthAdjust="spacing" textLength="159" x="870" y="567.9863">requestedTextureUnit: int</text><rect fill="none" height="6" style="stroke:#C82930;stroke-width:1.0;" width="6" x="858" y="578.3672"/><text fill="#000000" font-family="sans-serif" font-size="14" lengthAdjust="spacing" textLength="117" x="870" y="585.5957">backend: Backend</text><rect fill="none" height="6" style="stroke:#C82930;stroke-width:1.0;" width="6" x="858" y="595.9766"/><text fill="#000000" font-family="sans-serif" font-size="14" lengthAdjust="spacing" textLength="243" x="870" y="603.2051">skipGLOrientationVerticalFlip: boolean</text><rect fill="none" height="6" style="stroke:#C82930;stroke-width:1.0;" width="6" x="858" y="613.5859"/><text fill="#000000" font-family="sans-serif" font-size="14" lengthAdjust="spacing" textLength="107" x="870" y="620.8145">updater: Updater</text><rect fill="none" height="6" style="stroke:#C82930;stroke-width:1.0;" width="6" x="858" y="631.1953"/><text fill="#000000" font-family="sans-serif" font-size="14" lengthAdjust="spacing" textLength="122" x="870" y="638.4238">isShowing: boolean</text><rect fill="none" height="6" style="stroke:#C82930;stroke-width:1.0;" width="6" x="858" y="648.8047"/><text fill="#000000" font-family="sans-serif" font-size="14" lengthAdjust="spacing" textLength="229" x="870" y="656.0332">hierarchyListener: HierarchyListener</text><rect fill="none" height="6" style="stroke:#C82930;stroke-width:1.0;" width="6" x="858" y="666.4141"/><text fill="#000000" font-family="sans-serif" font-size="14" lengthAdjust="spacing" textLength="356" x="870" y="673.6426">awtWindowClosingProtocol: AWTWindowClosingProtocol</text><rect fill="none" height="6" style="stroke:#C82930;stroke-width:1.0;" width="6" x="858" y="684.0234"/><text fill="#000000" font-family="sans-serif" font-size="14" lengthAdjust="spacing" textLength="125" x="870" y="691.252">printActive: boolean</text><rect fill="none" height="6" style="stroke:#C82930;stroke-width:1.0;" width="6" x="858" y="701.6328"/><text fill="#000000" font-family="sans-serif" font-size="14" lengthAdjust="spacing" textLength="213" x="870" y="708.8613">printAnimator: GLAnimatorControl</text><rect fill="none" height="6" style="stroke:#C82930;stroke-width:1.0;" width="6" x="858" y="719.2422"/><text fill="#000000" font-family="sans-serif" font-size="14" lengthAdjust="spacing" textLength="181" x="870" y="726.4707">printGLAD: GLAutoDrawable</text><rect fill="none" height="6" style="stroke:#C82930;stroke-width:1.0;" width="6" x="858" y="736.8516"/><text fill="#000000" font-family="sans-serif" font-size="14" lengthAdjust="spacing" textLength="196" x="870" y="744.0801">printAWTTiles: AWTTilePainter</text><rect fill="none" height="6" style="stroke:#C82930;stroke-width:1.0;" width="6" x="858" y="754.4609"/><text fill="#000000" font-family="sans-serif" font-size="14" lengthAdjust="spacing" textLength="180" x="870" y="761.6895">setupPrintOnEDT: Runnable</text><rect fill="none" height="6" style="stroke:#C82930;stroke-width:1.0;" width="6" x="858" y="772.0703"/><text fill="#000000" font-family="sans-serif" font-size="14" lengthAdjust="spacing" textLength="192" x="870" y="779.2988">releasePrintOnEDT: Runnable</text><rect fill="none" height="6" style="stroke:#C82930;stroke-width:1.0;" width="6" x="858" y="789.6797"/><text fill="#000000" font-family="sans-serif" font-size="14" lengthAdjust="spacing" textLength="98" x="870" y="796.9082">initSync: Object</text><rect fill="none" height="6" style="stroke:#C82930;stroke-width:1.0;" width="6" x="858" y="807.2891"/><text fill="#000000" font-family="sans-serif" font-size="14" lengthAdjust="spacing" textLength="157" x="870" y="814.5176">disposeAction: Runnable</text><rect fill="none" height="6" style="stroke:#C82930;stroke-width:1.0;" width="6" x="858" y="824.8984"/><text fill="#000000" font-family="sans-serif" font-size="14" lengthAdjust="spacing" textLength="175" x="870" y="832.127">updaterInitAction: Runnable</text><rect fill="none" height="6" style="stroke:#C82930;stroke-width:1.0;" width="6" x="858" y="842.5078"/><text fill="#000000" font-family="sans-serif" font-size="14" lengthAdjust="spacing" textLength="203" x="870" y="849.7363">updaterDisplayAction: Runnable</text><rect fill="none" height="6" style="stroke:#C82930;stroke-width:1.0;" width="6" x="858" y="860.1172"/><text fill="#000000" font-family="sans-serif" font-size="14" lengthAdjust="spacing" textLength="234" x="870" y="867.3457">updaterPlainDisplayAction: Runnable</text><rect fill="none" height="6" style="stroke:#C82930;stroke-width:1.0;" width="6" x="858" y="877.7266"/><text fill="#000000" font-family="sans-serif" font-size="14" lengthAdjust="spacing" textLength="213" x="870" y="884.9551">paintImmediatelyAction: Runnable</text><line style="stroke:#181818;stroke-width:0.5;" x1="851" x2="1299" y1="892.0313" y2="892.0313"/></g><!--class GLEventListener--><g id="elem_GLEventListener"><rect codeLine="90" fill="#F1F1F1" height="118.4375" id="GLEventListener" rx="2.5" ry="2.5" style="stroke:#181818;stroke-width:0.5;" width="320" x="1356" y="411.8"/><ellipse cx="1459.25" cy="427.8" fill="#B4A7E5" rx="11" ry="11" style="stroke:#181818;stroke-width:1.0;"/><path d="M1460.2031,424.4406 L1460.2031,431.0969 L1461.9219,431.0969 Q1462.5313,431.0969 1462.7969,431.3312 Q1463.0625,431.5656 1463.0625,431.9562 Q1463.0625,432.3312 1462.7969,432.5656 Q1462.5313,432.8 1461.9219,432.8 L1456.7813,432.8 Q1456.1719,432.8 1455.9063,432.5656 Q1455.6406,432.3312 1455.6406,431.9406 Q1455.6406,431.5656 1455.9063,431.3312 Q1456.1719,431.0969 1456.7813,431.0969 L1458.5,431.0969 L1458.5,424.4406 L1456.7813,424.4406 Q1456.1719,424.4406 1455.9063,424.2062 Q1455.6406,423.9719 1455.6406,423.5812 Q1455.6406,423.2062 1455.9063,422.9719 Q1456.1719,422.7375 1456.7813,422.7375 L1461.9219,422.7375 Q1462.5313,422.7375 1462.7969,422.9719 Q1463.0625,423.2062 1463.0625,423.5812 Q1463.0625,423.9719 1462.7969,424.2062 Q1462.5313,424.4406 1461.9219,424.4406 L1460.2031,424.4406 Z " fill="#000000"/><text fill="#000000" font-family="sans-serif" font-size="14" font-style="italic" lengthAdjust="spacing" textLength="105" x="1479.75" y="433.5285">GLEventListener</text><line style="stroke:#181818;stroke-width:0.5;" x1="1357" x2="1675" y1="443.8" y2="443.8"/><line style="stroke:#181818;stroke-width:0.5;" x1="1357" x2="1675" y1="451.8" y2="451.8"/><ellipse cx="1367" cy="466.1047" fill="#84BE84" rx="3" ry="3" style="stroke:#038048;stroke-width:1.0;"/><text fill="#000000" font-family="sans-serif" font-size="14" font-style="italic" lengthAdjust="spacing" textLength="168" x="1376" y="470.3332">init(GLAutoDrawable): void</text><ellipse cx="1367" cy="483.7141" fill="#84BE84" rx="3" ry="3" style="stroke:#038048;stroke-width:1.0;"/><text fill="#000000" font-family="sans-serif" font-size="14" font-style="italic" lengthAdjust="spacing" textLength="199" x="1376" y="487.9426">dispose(GLAutoDrawable): void</text><ellipse cx="1367" cy="501.3234" fill="#84BE84" rx="3" ry="3" style="stroke:#038048;stroke-width:1.0;"/><text fill="#000000" font-family="sans-serif" font-size="14" font-style="italic" lengthAdjust="spacing" textLength="194" x="1376" y="505.552">display(GLAutoDrawable): void</text><ellipse cx="1367" cy="518.9328" fill="#84BE84" rx="3" ry="3" style="stroke:#038048;stroke-width:1.0;"/><text fill="#000000" font-family="sans-serif" font-size="14" font-style="italic" lengthAdjust="spacing" textLength="294" x="1376" y="523.1613">reshape(GLAutoDrawable, int, int, int, int): void</text></g><!--reverse link JPanel to G2dGamePanel--><g id="link_JPanel_G2dGamePanel"><path codeLine="98" d="M734.4511,522.0813 C742.3111,605.8713 748.71,814.23 624,924.04 C564.65,976.29 343.48,930.83 270,960.04 C253.49,966.6 237.3,975.84 222.21,986.11 " fill="none" id="JPanel-backto-G2dGamePanel" style="stroke:#181818;stroke-width:1.0;"/><polygon fill="none" points="732.77,504.16,728.4774,522.6417,740.4249,521.5209,732.77,504.16" style="stroke:#181818;stroke-width:1.0;"/></g><!--reverse link IGamePanel to G2dGamePanel--><g id="link_IGamePanel_G2dGamePanel"><path codeLine="99" d="M278.9873,521.5795 C255.1173,612.4595 191.27,855.63 157.02,986.03 " fill="none" id="IGamePanel-backto-G2dGamePanel" style="stroke:#181818;stroke-width:1.0;stroke-dasharray:7.0,7.0;"/><polygon fill="none" points="283.56,504.17,273.1842,520.0553,284.7905,523.1037,283.56,504.17" style="stroke:#181818;stroke-width:1.0;"/></g><!--reverse link GLJPanel to GLGamePanel--><g id="link_GLJPanel_GLGamePanel"><path codeLine="100" d="M837.0708,899.7207 C824.4308,912.9207 823.71,912.43 810,924.04 C752.63,972.62 676.37,1005.13 608.64,1026.34 " fill="none" id="GLJPanel-backto-GLGamePanel" style="stroke:#181818;stroke-width:1.0;"/><polygon fill="none" points="849.52,886.72,832.7373,895.571,841.4044,903.8704,849.52,886.72" style="stroke:#181818;stroke-width:1.0;"/></g><!--reverse link GLEventListener to GLGamePanel--><g id="link_GLEventListener_GLGamePanel"><path codeLine="101" d="M1505.0986,548.4597 C1488.5286,646.7797 1443.5,825.88 1316,924.04 C1208.08,1007.11 828.66,1041.55 608.82,1054.78 " fill="none" id="GLEventListener-backto-GLGamePanel" style="stroke:#181818;stroke-width:1.0;stroke-dasharray:7.0,7.0;"/><polygon fill="none" points="1508.09,530.71,1499.1821,547.4626,1511.0152,549.4568,1508.09,530.71" style="stroke:#181818;stroke-width:1.0;"/></g><!--reverse link IGamePanel to GLGamePanel--><g id="link_IGamePanel_GLGamePanel"><path codeLine="102" d="M305.0986,521.5727 C327.5886,606.6827 384.81,823.2 420.88,959.68 " fill="none" id="IGamePanel-backto-GLGamePanel" style="stroke:#181818;stroke-width:1.0;stroke-dasharray:7.0,7.0;"/><polygon fill="none" points="300.5,504.17,299.2977,523.1055,310.8995,520.0398,300.5,504.17" style="stroke:#181818;stroke-width:1.0;"/></g><text fill="#888888" font-family="sans-serif" font-size="10" lengthAdjust="spacing" textLength="184" x="750.5" y="1198.9009">UMLDoclet 2.1.1, PlantUML 1.2023.12</text><!--SRC=[lLTRR-8u57wVNs5fjLAh6I9D7wDveH1IEgb0NChiLXKooG7SEdR6Tg3CJF_x7YTKcwI4H9hL8hLEVBvpyRdvX112D1ZyIwYYHYhYkXy-u2P9QFXCDq1YY5YYfBD9cPDG0Ppyp07s5tAgDV6l8f_6CCwe3m_5LsThOlxuY3oayFkubuf7BbdOfKJvWylD1fHBWcmjSwqLYdN9xS2kPL9HvqKEk2mZqYIY1YuYcQuuNBfa9rbPzSU4Cc5wCawa064kV4MJBGjr5VlwxlX1wVJ1_t_uuBVF7Z6TS7guy8DkQcHVqJqz1vKQsa2POAODJe7UqgGgyXF1U5J-dGa6Ka6jQGXaM8p7i24SF-bA6qL3yzhWfwEgrt9vFD4TVN7qdebDGN2U6BVZOxsKz6b33GjVIITbFGiRzbqoDGe555ITq1JAs7cI6nedZan0RBX3z-QTJZzeqDhthkU-IrPISg3Y76Wvc7Jll6axxFtGMun7araJUZxrbdum3POpxzjiFl6Ma-vqvas6VtkJ9jRfr-5uUUzDPiDUDrWE0dphUuFkF6XKQeDq5Otym1CsiQBhmrZ9f8ahrN1h6Vj-C6O9S2QWbQ82VlIrYKDZt3bq5pFBz0ByEbslGQ5vEnRPLZ0zIoy9xN0PFhja0c6gDDj1WAzbm1PuOeNwmLkDtMGxPHJ56fpkQPAhkfDHpR4xJ0-nm1dbx0T4DPWmrKR69u_Mxb0Ale_MQnqg0D6ZYRRMuqfNZADkqCCuJeqzIfaD6m7UPeVYMGVvrZ1EUCN6hSI6fggIU_bsnJbHX4GfAE-Pbvu2Qby6d6xGCEn05NzJ4N6OvDsjna4QH7GUiQKwyz8qf1mnQowfUNYiUYcJi62HsPumv4Y-0RRPcXFqx6AlOyw8jQmx1lj4AlFj3EslaoPzJq4RY6RmOb85Sqob4x0LTZ_qa4kkyuUAyvvPuWSZnV32pY9n3mhhYl81PpNrtScRF4PxdZzKStgwbRQRrmM3WQ8gt1u2XiOBA-UckbN9cBrPC179VOzBM-sOvaQ6acS5S99ISJzU3QOR6gpe6fjoX62n7U1i5hyzzwGmwgGynFGpPE6-FILqCPin3ZgprJwDQNRDLbFOfCdOuaV2wsCtdgH2l9Ue04tNq0oqOyFq84ANZ5PF45OouZX_M8z8KIVY66JRdre1-_dyqmexvkY4LWpPH8aD2aTePEJrw7ONVk5E_tVOmKjjXzd_bdjdffkMqrYHfVsiL-LgDqmMkNvd22nuhp2GkUvn5lhogzDv_o7ZkiMlXepv1AOmJ7xvvJYjn9mSrH0NDDaJDCYna7AuQsqA_fEJLGq2ctTaBQLTvdT1NuOSFn-ldC_Evqy4AqCOt2L_xW1742akBly1]--></g></svg>