<?xml version="1.0" encoding="us-ascii" standalone="no"?><svg xmlns="http://www.w3.org/2000/svg" xmlns:xlink="http://www.w3.org/1999/xlink" contentStyleType="text/css" height="203px" preserveAspectRatio="none" style="width:433px;height:203px;background:#FFFFFF;" version="1.1" viewBox="0 0 433 203" width="433px" zoomAndPan="magnify"><defs/><g><!--cluster medipro.config--><g id="cluster_medipro.config"><path d="M8.5,6 L115.5,6 A3.75,3.75 0 0 1 118,8.5 L125,29.6094 L423.5,29.6094 A2.5,2.5 0 0 1 426,32.1094 L426,173.94 A2.5,2.5 0 0 1 423.5,176.44 L8.5,176.44 A2.5,2.5 0 0 1 6,173.94 L6,8.5 A2.5,2.5 0 0 1 8.5,6 " fill="none" style="stroke:#000000;stroke-width:1.5;"/><line style="stroke:#000000;stroke-width:1.5;" x1="6" x2="125" y1="29.6094" y2="29.6094"/><text fill="#000000" font-family="sans-serif" font-size="14" font-weight="bold" lengthAdjust="spacing" textLength="106" x="10" y="22.5332">medipro.config</text></g><!--class EngineConfig--><a href="EngineConfig.html" target="_top" title="EngineConfig.html" xlink:actuate="onRequest" xlink:href="EngineConfig.html" xlink:show="new" xlink:title="EngineConfig.html" xlink:type="simple"><g id="elem_EngineConfig"><rect codeLine="5" fill="#F1F1F1" height="83.2188" id="EngineConfig" rx="2.5" ry="2.5" style="stroke:#181818;stroke-width:0.5;" width="177" x="233.5" y="59.61"/><ellipse cx="275.5" cy="75.61" fill="#ADD1B2" rx="11" ry="11" style="stroke:#181818;stroke-width:1.0;"/><path d="M278.2656,71.485 Q278.4219,71.2662 278.6094,71.1569 Q278.7969,71.0475 279.0156,71.0475 Q279.3906,71.0475 279.625,71.3131 Q279.8594,71.5631 279.8594,72.1725 L279.8594,73.6256 Q279.8594,74.235 279.625,74.5006 Q279.3906,74.7662 279.0156,74.7662 Q278.6719,74.7662 278.4688,74.5631 Q278.2656,74.3756 278.1563,73.86 Q278.1094,73.5006 277.9219,73.3131 Q277.5938,72.9381 276.9844,72.7194 Q276.375,72.5006 275.75,72.5006 Q274.9844,72.5006 274.3438,72.8287 Q273.7188,73.1569 273.2188,73.9069 Q272.7344,74.6569 272.7344,75.6881 L272.7344,76.7819 Q272.7344,78.0162 273.625,78.8444 Q274.5156,79.6569 276.1094,79.6569 Q277.0469,79.6569 277.7031,79.4069 Q278.0938,79.2506 278.5156,78.8131 Q278.7813,78.5475 278.9219,78.4694 Q279.0781,78.3912 279.2813,78.3912 Q279.6094,78.3912 279.8594,78.6569 Q280.125,78.9069 280.125,79.2506 Q280.125,79.5944 279.7813,80.0006 Q279.2813,80.5787 278.4844,80.9069 Q277.4063,81.36 276.1094,81.36 Q274.5938,81.36 273.3906,80.735 Q272.4063,80.235 271.7188,79.1725 Q271.0313,78.0944 271.0313,76.8131 L271.0313,75.6569 Q271.0313,74.3287 271.6406,73.1881 Q272.2656,72.0319 273.3594,71.4225 Q274.4531,70.7975 275.6875,70.7975 Q276.4219,70.7975 277.0625,70.9694 Q277.7188,71.1256 278.2656,71.485 Z " fill="#000000"/><text fill="#000000" font-family="sans-serif" font-size="14" lengthAdjust="spacing" textLength="85" x="295.5" y="81.3385">EngineConfig</text><line style="stroke:#181818;stroke-width:0.5;" x1="234.5" x2="409.5" y1="91.61" y2="91.61"/><ellipse cx="244.5" cy="105.9147" fill="none" rx="3" ry="3" style="stroke:#038048;stroke-width:1.0;"/><text fill="#000000" font-family="sans-serif" font-size="14" lengthAdjust="spacing" text-decoration="underline" textLength="105" x="253.5" y="110.1432">LAYER_NUM: int</text><ellipse cx="244.5" cy="123.5241" fill="none" rx="3" ry="3" style="stroke:#038048;stroke-width:1.0;"/><text fill="#000000" font-family="sans-serif" font-size="14" lengthAdjust="spacing" text-decoration="underline" textLength="151" x="253.5" y="127.7526">DEFAULT_LAYER: byte</text><line style="stroke:#181818;stroke-width:0.5;" x1="234.5" x2="409.5" y1="134.8287" y2="134.8287"/></g></a><!--class InGameConfig--><a href="InGameConfig.html" target="_top" title="InGameConfig.html" xlink:actuate="onRequest" xlink:href="InGameConfig.html" xlink:show="new" xlink:title="InGameConfig.html" xlink:type="simple"><g id="elem_InGameConfig"><rect codeLine="10" fill="#F1F1F1" height="118.4375" id="InGameConfig" rx="2.5" ry="2.5" style="stroke:#181818;stroke-width:0.5;" width="177" x="21.5" y="42"/><ellipse cx="61.25" cy="58" fill="#ADD1B2" rx="11" ry="11" style="stroke:#181818;stroke-width:1.0;"/><path d="M64.0156,53.875 Q64.1719,53.6563 64.3594,53.5469 Q64.5469,53.4375 64.7656,53.4375 Q65.1406,53.4375 65.375,53.7031 Q65.6094,53.9531 65.6094,54.5625 L65.6094,56.0156 Q65.6094,56.625 65.375,56.8906 Q65.1406,57.1563 64.7656,57.1563 Q64.4219,57.1563 64.2188,56.9531 Q64.0156,56.7656 63.9063,56.25 Q63.8594,55.8906 63.6719,55.7031 Q63.3438,55.3281 62.7344,55.1094 Q62.125,54.8906 61.5,54.8906 Q60.7344,54.8906 60.0938,55.2188 Q59.4688,55.5469 58.9688,56.2969 Q58.4844,57.0469 58.4844,58.0781 L58.4844,59.1719 Q58.4844,60.4063 59.375,61.2344 Q60.2656,62.0469 61.8594,62.0469 Q62.7969,62.0469 63.4531,61.7969 Q63.8438,61.6406 64.2656,61.2031 Q64.5313,60.9375 64.6719,60.8594 Q64.8281,60.7813 65.0313,60.7813 Q65.3594,60.7813 65.6094,61.0469 Q65.875,61.2969 65.875,61.6406 Q65.875,61.9844 65.5313,62.3906 Q65.0313,62.9688 64.2344,63.2969 Q63.1563,63.75 61.8594,63.75 Q60.3438,63.75 59.1406,63.125 Q58.1563,62.625 57.4688,61.5625 Q56.7813,60.4844 56.7813,59.2031 L56.7813,58.0469 Q56.7813,56.7188 57.3906,55.5781 Q58.0156,54.4219 59.1094,53.8125 Q60.2031,53.1875 61.4375,53.1875 Q62.1719,53.1875 62.8125,53.3594 Q63.4688,53.5156 64.0156,53.875 Z " fill="#000000"/><text fill="#000000" font-family="sans-serif" font-size="14" lengthAdjust="spacing" textLength="90" x="80.75" y="63.7285">InGameConfig</text><line style="stroke:#181818;stroke-width:0.5;" x1="22.5" x2="197.5" y1="74" y2="74"/><ellipse cx="32.5" cy="88.3047" fill="none" rx="3" ry="3" style="stroke:#038048;stroke-width:1.0;"/><text fill="#000000" font-family="sans-serif" font-size="14" lengthAdjust="spacing" text-decoration="underline" textLength="134" x="41.5" y="92.5332">WINDOW_WIDTH: int</text><ellipse cx="32.5" cy="105.9141" fill="none" rx="3" ry="3" style="stroke:#038048;stroke-width:1.0;"/><text fill="#000000" font-family="sans-serif" font-size="14" lengthAdjust="spacing" text-decoration="underline" textLength="140" x="41.5" y="110.1426">WINDOW_HEIGHT: int</text><ellipse cx="32.5" cy="123.5234" fill="none" rx="3" ry="3" style="stroke:#038048;stroke-width:1.0;"/><text fill="#000000" font-family="sans-serif" font-size="14" lengthAdjust="spacing" text-decoration="underline" textLength="151" x="41.5" y="127.752">USE_OPENGL: boolean</text><ellipse cx="32.5" cy="141.1328" fill="none" rx="3" ry="3" style="stroke:#038048;stroke-width:1.0;"/><text fill="#000000" font-family="sans-serif" font-size="14" lengthAdjust="spacing" text-decoration="underline" textLength="50" x="41.5" y="145.3613">FPS: int</text><line style="stroke:#181818;stroke-width:0.5;" x1="22.5" x2="197.5" y1="152.4375" y2="152.4375"/></g></a><text fill="#888888" font-family="sans-serif" font-size="10" lengthAdjust="spacing" textLength="184" x="117.5" y="192.8209">UMLDoclet 2.1.1, PlantUML 1.2023.12</text><!--SRC=[XP7VIyCm483VzrVSYw0eXVdOjs6pjj1rnRKK6QESCQl1D5UI8CZe_sxs0-s4pOCatDrtuGi10B32-TMZGKS6md0oyKNeaNzWAw0JRx8t573IMzd2xjZT1rTeBJ3TIYsUZjtrUfm6xwvJcusVWL7ih4Cd-G3tsUo5FJTvjGX1QdS1YjXyLcLbSu13UFroueSS_igaEiRkLsQS_YTJftcqh9iwZShaci-9IrWQ9-Kri5gnPbcmFCwyDP4Ig2-Gys9rVj7fNSDXvq8xOM1Bj3-gHHOHL_xB7eDfC7s0Gg5slWetdy9OIVhsxXi0]--></g></svg>