<?xml version="1.0" encoding="us-ascii" standalone="no"?><svg xmlns="http://www.w3.org/2000/svg" xmlns:xlink="http://www.w3.org/1999/xlink" contentStyleType="text/css" height="410px" preserveAspectRatio="none" style="width:1660px;height:410px;" version="1.1" viewBox="0 0 1660 410" width="1660px" zoomAndPan="magnify"><defs/><g><!--class medipro.gui.panel--><a href="medipro\gui\panel\package-summary.html" target="_top" title="medipro\gui\panel\package-summary.html" xlink:actuate="onRequest" xlink:href="medipro\gui\panel\package-summary.html" xlink:show="new" xlink:title="medipro\gui\panel\package-summary.html" xlink:type="simple"><g id="elem_medipro.gui.panel"><rect codeLine="35" fill="#F1F1F1" height="27.6094" id="medipro.gui.panel" rx="2.5" ry="2.5" style="stroke:#181818;stroke-width:0.5;" width="119" x="24.5" y="94.61"/><text fill="#000000" font-family="sans-serif" font-size="14" lengthAdjust="spacing" textLength="113" x="27.5" y="114.1432">medipro.gui.panel</text></g></a><!--class medipro.object.base--><a href="medipro\object\base\package-summary.html" target="_top" title="medipro\object\base\package-summary.html" xlink:actuate="onRequest" xlink:href="medipro\object\base\package-summary.html" xlink:show="new" xlink:title="medipro\object\base\package-summary.html" xlink:type="simple"><g id="elem_medipro.object.base"><rect codeLine="37" fill="#F1F1F1" height="27.6094" id="medipro.object.base" rx="2.5" ry="2.5" style="stroke:#181818;stroke-width:0.5;" width="134" x="569" y="182.22"/><text fill="#000000" font-family="sans-serif" font-size="14" lengthAdjust="spacing" textLength="128" x="572" y="201.7532">medipro.object.base</text></g></a><!--class com.jogamp.opengl.awt--><g id="elem_com.jogamp.opengl.awt"><rect fill="#F1F1F1" height="27.6094" id="com.jogamp.opengl.awt" rx="2.5" ry="2.5" style="stroke:#181818;stroke-width:0.5;" width="154" x="7" y="182.22"/><text fill="#000000" font-family="sans-serif" font-size="14" lengthAdjust="spacing" textLength="148" x="10" y="201.7532">com.jogamp.opengl.awt</text></g><!--class com.jogamp.opengl--><g id="elem_com.jogamp.opengl"><rect fill="#F1F1F1" height="27.6094" id="com.jogamp.opengl" rx="2.5" ry="2.5" style="stroke:#181818;stroke-width:0.5;" width="129" x="425.5" y="357.44"/><text fill="#000000" font-family="sans-serif" font-size="14" lengthAdjust="spacing" textLength="123" x="428.5" y="376.9732">com.jogamp.opengl</text></g><!--class medipro.interfaces--><a href="medipro\interfaces\package-summary.html" target="_top" title="medipro\interfaces\package-summary.html" xlink:actuate="onRequest" xlink:href="medipro\interfaces\package-summary.html" xlink:show="new" xlink:title="medipro\interfaces\package-summary.html" xlink:type="simple"><g id="elem_medipro.interfaces"><rect codeLine="39" fill="#F1F1F1" height="27.6094" id="medipro.interfaces" rx="2.5" ry="2.5" style="stroke:#181818;stroke-width:0.5;" width="123" x="428.5" y="269.83"/><text fill="#000000" font-family="sans-serif" font-size="14" lengthAdjust="spacing" textLength="117" x="431.5" y="289.3632">medipro.interfaces</text></g></a><!--class medipro.object.base.gameobject--><a href="medipro\object\base\gameobject\package-summary.html" target="_top" title="medipro\object\base\gameobject\package-summary.html" xlink:actuate="onRequest" xlink:href="medipro\object\base\gameobject\package-summary.html" xlink:show="new" xlink:title="medipro\object\base\gameobject\package-summary.html" xlink:type="simple"><g id="elem_medipro.object.base.gameobject"><rect codeLine="41" fill="#F1F1F1" height="27.6094" id="medipro.object.base.gameobject" rx="2.5" ry="2.5" style="stroke:#181818;stroke-width:0.5;" width="211" x="759.5" y="269.83"/><text fill="#000000" font-family="sans-serif" font-size="14" lengthAdjust="spacing" textLength="205" x="762.5" y="289.3632">medipro.object.base.gameobject</text></g></a><!--class medipro.object.base.camera--><a href="medipro\object\base\camera\package-summary.html" target="_top" title="medipro\object\base\camera\package-summary.html" xlink:actuate="onRequest" xlink:href="medipro\object\base\camera\package-summary.html" xlink:show="new" xlink:title="medipro\object\base\camera\package-summary.html" xlink:type="simple"><g id="elem_medipro.object.base.camera"><rect codeLine="43" fill="#F1F1F1" height="27.6094" id="medipro.object.base.camera" rx="2.5" ry="2.5" style="stroke:#181818;stroke-width:0.5;" width="185" x="178.5" y="94.61"/><text fill="#000000" font-family="sans-serif" font-size="14" lengthAdjust="spacing" textLength="179" x="181.5" y="114.1432">medipro.object.base.camera</text></g></a><!--class medipro.object.base.gridobject--><a href="medipro\object\base\gridobject\package-summary.html" target="_top" title="medipro\object\base\gridobject\package-summary.html" xlink:actuate="onRequest" xlink:href="medipro\object\base\gridobject\package-summary.html" xlink:show="new" xlink:title="medipro\object\base\gridobject\package-summary.html" xlink:type="simple"><g id="elem_medipro.object.base.gridobject"><rect codeLine="45" fill="#F1F1F1" height="27.6094" id="medipro.object.base.gridobject" rx="2.5" ry="2.5" style="stroke:#181818;stroke-width:0.5;" width="200" x="1094" y="94.61"/><text fill="#000000" font-family="sans-serif" font-size="14" lengthAdjust="spacing" textLength="194" x="1097" y="114.1432">medipro.object.base.gridobject</text></g></a><!--class medipro.object.camera--><a href="medipro\object\camera\package-summary.html" target="_top" title="medipro\object\camera\package-summary.html" xlink:actuate="onRequest" xlink:href="medipro\object\camera\package-summary.html" xlink:show="new" xlink:title="medipro\object\camera\package-summary.html" xlink:type="simple"><g id="elem_medipro.object.camera"><rect codeLine="47" fill="#F1F1F1" height="27.6094" id="medipro.object.camera" rx="2.5" ry="2.5" style="stroke:#181818;stroke-width:0.5;" width="150" x="471" y="7"/><text fill="#000000" font-family="sans-serif" font-size="14" lengthAdjust="spacing" textLength="144" x="474" y="26.5332">medipro.object.camera</text></g></a><!--class medipro.object.example.grid--><a href="medipro\object\example\grid\package-summary.html" target="_top" title="medipro\object\example\grid\package-summary.html" xlink:actuate="onRequest" xlink:href="medipro\object\example\grid\package-summary.html" xlink:show="new" xlink:title="medipro\object\example\grid\package-summary.html" xlink:type="simple"><g id="elem_medipro.object.example.grid"><rect codeLine="49" fill="#F1F1F1" height="27.6094" id="medipro.object.example.grid" rx="2.5" ry="2.5" style="stroke:#181818;stroke-width:0.5;" width="183" x="1102.5" y="7"/><text fill="#000000" font-family="sans-serif" font-size="14" lengthAdjust="spacing" textLength="177" x="1105.5" y="26.5332">medipro.object.example.grid</text></g></a><!--class medipro.object.ornament.glmarker--><a href="medipro\object\ornament\glmarker\package-summary.html" target="_top" title="medipro\object\ornament\glmarker\package-summary.html" xlink:actuate="onRequest" xlink:href="medipro\object\ornament\glmarker\package-summary.html" xlink:show="new" xlink:title="medipro\object\ornament\glmarker\package-summary.html" xlink:type="simple"><g id="elem_medipro.object.ornament.glmarker"><rect codeLine="51" fill="#F1F1F1" height="27.6094" id="medipro.object.ornament.glmarker" rx="2.5" ry="2.5" style="stroke:#181818;stroke-width:0.5;" width="222" x="1329" y="94.61"/><text fill="#000000" font-family="sans-serif" font-size="14" lengthAdjust="spacing" textLength="216" x="1332" y="114.1432">medipro.object.ornament.glmarker</text></g></a><!--class medipro.object.ornament.marker--><a href="medipro\object\ornament\marker\package-summary.html" target="_top" title="medipro\object\ornament\marker\package-summary.html" xlink:actuate="onRequest" xlink:href="medipro\object\ornament\marker\package-summary.html" xlink:show="new" xlink:title="medipro\object\ornament\marker\package-summary.html" xlink:type="simple"><g id="elem_medipro.object.ornament.marker"><rect codeLine="53" fill="#F1F1F1" height="27.6094" id="medipro.object.ornament.marker" rx="2.5" ry="2.5" style="stroke:#181818;stroke-width:0.5;" width="211" x="670.5" y="94.61"/><text fill="#000000" font-family="sans-serif" font-size="14" lengthAdjust="spacing" textLength="205" x="673.5" y="114.1432">medipro.object.ornament.marker</text></g></a><!--class medipro.object.player--><a href="medipro\object\player\package-summary.html" target="_top" title="medipro\object\player\package-summary.html" xlink:actuate="onRequest" xlink:href="medipro\object\player\package-summary.html" xlink:show="new" xlink:title="medipro\object\player\package-summary.html" xlink:type="simple"><g id="elem_medipro.object.player"><rect codeLine="55" fill="#F1F1F1" height="27.6094" id="medipro.object.player" rx="2.5" ry="2.5" style="stroke:#181818;stroke-width:0.5;" width="142" x="917" y="94.61"/><text fill="#000000" font-family="sans-serif" font-size="14" lengthAdjust="spacing" textLength="136" x="920" y="114.1432">medipro.object.player</text></g></a><!--class medipro.world--><a href="medipro\world\package-summary.html" target="_top" title="medipro\world\package-summary.html" xlink:actuate="onRequest" xlink:href="medipro\world\package-summary.html" xlink:show="new" xlink:title="medipro\world\package-summary.html" xlink:type="simple"><g id="elem_medipro.world"><rect codeLine="57" fill="#F1F1F1" height="27.6094" id="medipro.world" rx="2.5" ry="2.5" style="stroke:#181818;stroke-width:0.5;" width="94" x="399" y="94.61"/><text fill="#000000" font-family="sans-serif" font-size="14" lengthAdjust="spacing" textLength="88" x="402" y="114.1432">medipro.world</text></g></a><!--link medipro.gui.panel to medipro.object.base--><g id="link_medipro.gui.panel_medipro.object.base"><path codeLine="7" d="M143.68,119.42 C149.53,120.38 155.38,121.32 161,122.22 C306.2,145.42 470.6863,170.3007 562.7663,184.1007 " fill="none" id="medipro.gui.panel-to-medipro.object.base" style="stroke:#181818;stroke-width:1.0;"/><polygon fill="#181818" points="568.7,184.99,560.3923,179.7002,563.7552,184.2489,559.2065,187.6119,568.7,184.99" style="stroke:#181818;stroke-width:1.0;"/></g><!--link medipro.gui.panel to com.jogamp.opengl.awt--><g id="link_medipro.gui.panel_com.jogamp.opengl.awt"><path codeLine="8" d="M84,122.42 C84,138.51 84,159.75 84,175.9 " fill="none" id="medipro.gui.panel-to-com.jogamp.opengl.awt" style="stroke:#181818;stroke-width:1.0;"/><polygon fill="#181818" points="84,181.9,88,172.9,84,176.9,80,172.9,84,181.9" style="stroke:#181818;stroke-width:1.0;"/></g><!--link medipro.gui.panel to com.jogamp.opengl--><g id="link_medipro.gui.panel_com.jogamp.opengl"><path codeLine="9" d="M104.69,122.71 C174.34,167.45 394.7219,309.037 464.3019,353.737 " fill="none" id="medipro.gui.panel-to-com.jogamp.opengl" style="stroke:#181818;stroke-width:1.0;"/><polygon fill="#181818" points="469.35,356.98,463.9399,348.7501,465.1433,354.2775,459.6159,355.4809,469.35,356.98" style="stroke:#181818;stroke-width:1.0;"/></g><!--link medipro.interfaces to com.jogamp.opengl--><g id="link_medipro.interfaces_com.jogamp.opengl"><path codeLine="10" d="M490,297.64 C490,313.73 490,334.97 490,351.12 " fill="none" id="medipro.interfaces-to-com.jogamp.opengl" style="stroke:#181818;stroke-width:1.0;"/><polygon fill="#181818" points="490,357.12,494,348.12,490,352.12,486,348.12,490,357.12" style="stroke:#181818;stroke-width:1.0;"/></g><!--link medipro.object.base to com.jogamp.opengl--><g id="link_medipro.object.base_com.jogamp.opengl"><path codeLine="11" d="M628.65,210.08 C617.19,229.93 593.78,268.45 569,297.44 C549.49,320.27 527.8949,339.3576 511.1249,353.2176 " fill="none" id="medipro.object.base-to-com.jogamp.opengl" style="stroke:#181818;stroke-width:1.0;"/><polygon fill="#181818" points="506.5,357.04,515.9856,354.3897,510.3541,353.8547,510.8891,348.2232,506.5,357.04" style="stroke:#181818;stroke-width:1.0;"/></g><!--link medipro.object.base to medipro.object.base.gameobject--><g id="link_medipro.object.base_medipro.object.base.gameobject"><path codeLine="12" d="M661.77,210.22 C700.48,226.3 767.1189,251.4099 814.4789,267.4999 " fill="none" id="medipro.object.base-to-medipro.object.base.gameobject" style="stroke:#181818;stroke-width:1.0;"/><polygon fill="#181818" points="820.16,269.43,812.9251,262.7475,815.4258,267.8216,810.3516,270.3223,820.16,269.43" style="stroke:#181818;stroke-width:1.0;"/></g><!--link medipro.object.base.gameobject to medipro.object.base--><g id="link_medipro.object.base.gameobject_medipro.object.base"><path codeLine="16" d="M839.83,269.46 C801.44,253.4 734.9437,228.3424 687.3137,212.2324 " fill="none" id="medipro.object.base.gameobject-to-medipro.object.base" style="stroke:#181818;stroke-width:1.0;"/><polygon fill="#181818" points="681.63,210.31,688.8739,216.9827,686.3664,211.912,691.4371,209.4045,681.63,210.31" style="stroke:#181818;stroke-width:1.0;"/></g><!--link medipro.object.base.camera to medipro.object.base.gameobject--><g id="link_medipro.object.base.camera_medipro.object.base.gameobject"><path codeLine="13" d="M303.9,122.57 C355.96,143.05 460.79,183.02 552,209.83 C635.77,234.45 728.214,254.9667 791.994,268.1367 " fill="none" id="medipro.object.base.camera-to-medipro.object.base.gameobject" style="stroke:#181818;stroke-width:1.0;"/><polygon fill="#181818" points="797.87,269.35,789.8648,263.6126,792.9733,268.3389,788.247,271.4473,797.87,269.35" style="stroke:#181818;stroke-width:1.0;"/></g><!--link medipro.object.base.camera to medipro.object.base--><g id="link_medipro.object.base.camera_medipro.object.base"><path codeLine="14" d="M327.63,122.7 C396.21,138.79 505.1884,164.3506 573.6984,180.4106 " fill="none" id="medipro.object.base.camera-to-medipro.object.base" style="stroke:#181818;stroke-width:1.0;"/><polygon fill="#181818" points="579.54,181.78,571.6905,175.8315,574.672,180.6388,569.8646,183.6203,579.54,181.78" style="stroke:#181818;stroke-width:1.0;"/></g><!--link medipro.object.base.camera to com.jogamp.opengl--><g id="link_medipro.object.base.camera_com.jogamp.opengl"><path codeLine="15" d="M279.41,122.36 C300.08,153.79 355.71,236.05 411,297.44 C431.22,319.89 452.8982,339.2061 469.4682,353.2161 " fill="none" id="medipro.object.base.camera-to-com.jogamp.opengl" style="stroke:#181818;stroke-width:1.0;"/><polygon fill="#181818" points="474.05,357.09,469.7599,348.2246,470.2318,353.8617,464.5947,354.3336,474.05,357.09" style="stroke:#181818;stroke-width:1.0;"/></g><!--link medipro.object.base.gameobject to com.jogamp.opengl--><g id="link_medipro.object.base.gameobject_com.jogamp.opengl"><path codeLine="17" d="M806.82,297.92 C736.36,314 624.2395,339.5944 553.8595,355.6644 " fill="none" id="medipro.object.base.gameobject-to-com.jogamp.opengl" style="stroke:#181818;stroke-width:1.0;"/><polygon fill="#181818" points="548.01,357,557.6746,358.8962,552.8845,355.887,555.8938,351.0969,548.01,357" style="stroke:#181818;stroke-width:1.0;"/></g><!--link medipro.object.base.gridobject to medipro.object.base.gameobject--><g id="link_medipro.object.base.gridobject_medipro.object.base.gameobject"><path codeLine="18" d="M1168.73,122.72 C1107.34,155.04 956.2292,234.6049 895.2192,266.7249 " fill="none" id="medipro.object.base.gridobject-to-medipro.object.base.gameobject" style="stroke:#181818;stroke-width:1.0;"/><polygon fill="#181818" points="889.91,269.52,899.7372,268.8668,894.3343,267.1907,896.0103,261.7879,889.91,269.52" style="stroke:#181818;stroke-width:1.0;"/></g><!--link medipro.object.base.gridobject to medipro.object.base--><g id="link_medipro.object.base.gridobject_medipro.object.base"><path codeLine="19" d="M1107.42,122.7 C996,139.79 810.6606,168.2299 709.4006,183.7699 " fill="none" id="medipro.object.base.gridobject-to-medipro.object.base" style="stroke:#181818;stroke-width:1.0;"/><polygon fill="#181818" points="703.47,184.68,712.9726,187.2685,708.4121,183.9215,711.7591,179.3611,703.47,184.68" style="stroke:#181818;stroke-width:1.0;"/></g><!--link medipro.object.camera to medipro.object.base.camera--><g id="link_medipro.object.camera_medipro.object.base.camera"><path codeLine="20" d="M503.33,35.09 C451.59,51.2 370.6287,76.3963 319.0487,92.4563 " fill="none" id="medipro.object.camera-to-medipro.object.base.camera" style="stroke:#181818;stroke-width:1.0;"/><polygon fill="#181818" points="313.32,94.24,323.1022,95.3836,318.0939,92.7536,320.724,87.7453,313.32,94.24" style="stroke:#181818;stroke-width:1.0;"/></g><!--link medipro.object.camera to medipro.object.base.gameobject--><g id="link_medipro.object.camera_medipro.object.base.gameobject"><path codeLine="21" d="M621.3,24.39 C852.06,32.66 1535.78,60.01 1568,94.61 C1653.13,186.03 1193.2345,247.7582 976.8145,271.4082 " fill="none" id="medipro.object.camera-to-medipro.object.base.gameobject" style="stroke:#181818;stroke-width:1.0;"/><polygon fill="#181818" points="970.85,272.06,980.2313,275.0586,975.8204,271.5168,979.3622,267.106,970.85,272.06" style="stroke:#181818;stroke-width:1.0;"/></g><!--link medipro.object.camera to medipro.object.base--><g id="link_medipro.object.camera_medipro.object.base"><path codeLine="22" d="M551.28,35.07 C559.19,54.54 574.89,91.84 591,122.22 C602.41,143.75 614.3587,162.5765 623.8487,176.9165 " fill="none" id="medipro.object.camera-to-medipro.object.base" style="stroke:#181818;stroke-width:1.0;"/><polygon fill="#181818" points="627.16,181.92,625.5288,172.2072,624.4006,177.7504,618.8574,176.6222,627.16,181.92" style="stroke:#181818;stroke-width:1.0;"/></g><!--link medipro.object.example.grid to medipro.object.base.gridobject--><g id="link_medipro.object.example.grid_medipro.object.base.gridobject"><path codeLine="23" d="M1194,34.81 C1194,50.9 1194,72.15 1194,88.29 " fill="none" id="medipro.object.example.grid-to-medipro.object.base.gridobject" style="stroke:#181818;stroke-width:1.0;"/><polygon fill="#181818" points="1194,94.29,1198,85.29,1194,89.29,1190,85.29,1194,94.29" style="stroke:#181818;stroke-width:1.0;"/></g><!--link medipro.object.example.grid to medipro.object.base--><g id="link_medipro.object.example.grid_medipro.object.base"><path codeLine="24" d="M1102.04,21.49 C964.67,23.05 715.31,34.39 653,94.61 C629.35,117.47 630.341,154.1669 633.061,175.7869 " fill="none" id="medipro.object.example.grid-to-medipro.object.base" style="stroke:#181818;stroke-width:1.0;"/><polygon fill="#181818" points="633.81,181.74,636.6553,172.3111,633.1859,176.7791,628.7179,173.3097,633.81,181.74" style="stroke:#181818;stroke-width:1.0;"/></g><!--link medipro.object.example.grid to medipro.object.base.gameobject--><g id="link_medipro.object.example.grid_medipro.object.base.gameobject"><path codeLine="25" d="M1285.81,25.09 C1392.77,31.06 1559.87,47.82 1599,94.61 C1606.87,104.03 1605.01,111.53 1599,122.22 C1562.29,187.53 1525.76,185.22 1455,209.83 C1292.45,266.36 1097.3285,280.0041 976.8585,282.7341 " fill="none" id="medipro.object.example.grid-to-medipro.object.base.gameobject" style="stroke:#181818;stroke-width:1.0;"/><polygon fill="#181818" points="970.86,282.87,979.9483,286.6651,975.8587,282.7567,979.7671,278.6671,970.86,282.87" style="stroke:#181818;stroke-width:1.0;"/></g><!--link medipro.object.ornament.glmarker to medipro.object.base.gameobject--><g id="link_medipro.object.ornament.glmarker_medipro.object.base.gameobject"><path codeLine="26" d="M1395.84,122.72 C1288.67,155 1021.5751,235.4697 914.6651,267.6697 " fill="none" id="medipro.object.ornament.glmarker-to-medipro.object.base.gameobject" style="stroke:#181818;stroke-width:1.0;"/><polygon fill="#181818" points="908.92,269.4,918.6912,270.6345,913.7076,267.958,916.384,262.9744,908.92,269.4" style="stroke:#181818;stroke-width:1.0;"/></g><!--link medipro.object.ornament.glmarker to medipro.object.base--><g id="link_medipro.object.ornament.glmarker_medipro.object.base"><path codeLine="27" d="M1328.63,121.28 C1159.2,139.32 847.7563,172.4745 709.3663,187.2145 " fill="none" id="medipro.object.ornament.glmarker-to-medipro.object.base" style="stroke:#181818;stroke-width:1.0;"/><polygon fill="#181818" points="703.4,187.85,712.773,190.8743,708.3719,187.3204,711.9257,182.9193,703.4,187.85" style="stroke:#181818;stroke-width:1.0;"/></g><!--link medipro.object.ornament.marker to medipro.object.base.gameobject--><g id="link_medipro.object.ornament.marker_medipro.object.base.gameobject"><path codeLine="28" d="M782.84,122.72 C799.44,155.04 839.0184,232.063 855.5184,264.183 " fill="none" id="medipro.object.ornament.marker-to-medipro.object.base.gameobject" style="stroke:#181818;stroke-width:1.0;"/><polygon fill="#181818" points="858.26,269.52,857.7056,259.6868,855.9753,265.0725,850.5896,263.3422,858.26,269.52" style="stroke:#181818;stroke-width:1.0;"/></g><!--link medipro.object.ornament.marker to medipro.object.base--><g id="link_medipro.object.ornament.marker_medipro.object.base"><path codeLine="29" d="M754.43,122.61 C728.05,138.74 688.7694,162.7607 662.4794,178.8307 " fill="none" id="medipro.object.ornament.marker-to-medipro.object.base" style="stroke:#181818;stroke-width:1.0;"/><polygon fill="#181818" points="657.36,181.96,667.1252,180.679,661.6261,179.3523,662.9529,173.8532,657.36,181.96" style="stroke:#181818;stroke-width:1.0;"/></g><!--link medipro.object.player to medipro.object.base.gameobject--><g id="link_medipro.object.player_medipro.object.base.gameobject"><path codeLine="30" d="M978.55,122.72 C955.6,155.04 900.594,232.508 877.784,264.628 " fill="none" id="medipro.object.player-to-medipro.object.base.gameobject" style="stroke:#181818;stroke-width:1.0;"/><polygon fill="#181818" points="874.31,269.52,882.7823,264.4981,877.205,265.4434,876.2597,259.8661,874.31,269.52" style="stroke:#181818;stroke-width:1.0;"/></g><!--link medipro.object.player to medipro.object.base--><g id="link_medipro.object.player_medipro.object.base"><path codeLine="31" d="M933.39,122.7 C867.25,138.79 762.3502,164.3028 696.2802,180.3628 " fill="none" id="medipro.object.player-to-medipro.object.base" style="stroke:#181818;stroke-width:1.0;"/><polygon fill="#181818" points="690.45,181.78,700.1401,183.541,695.3085,180.599,698.2506,175.7674,690.45,181.78" style="stroke:#181818;stroke-width:1.0;"/></g><!--link medipro.world to medipro.object.base--><g id="link_medipro.world_medipro.object.base"><path codeLine="32" d="M475.27,122.61 C510.98,138.69 565.5094,163.2658 601.2294,179.3558 " fill="none" id="medipro.world-to-medipro.object.base" style="stroke:#181818;stroke-width:1.0;"/><polygon fill="#181818" points="606.7,181.82,600.1369,174.4766,602.1412,179.7665,596.8513,181.7707,606.7,181.82" style="stroke:#181818;stroke-width:1.0;"/></g><text fill="#888888" font-family="sans-serif" font-size="10" lengthAdjust="spacing" textLength="184" x="731.065" y="400.4302">UMLDoclet 2.1.1, PlantUML 1.2023.12</text><!--SRC=[jLPBJiCm4DrpYX4I0YHg2Gx0YYL8I8WLxS9rfgcfFv7jKYh4tN5iQ0qaQUB0fbNUlC-ChKuA061NN5NKK0bpobQbqMjLC2sq0MUeihw4oXr1pKG7Yahq6CC7h4NEqvHM6EfBNY0mRfX8db5MRWiBZgAmFr69Rgaz77291Q-C9kMQaueg532PNEzGFNz6viYSMknWCot9iowfh8YkK9M2q8qRml_6vSgXMVXPRGzoqc06km4dNelnkKrAcASO-dyEVMIz1qtQ6PptGpeWq_2YExFFAHrsQP8Uk9rOpX1sDppyHl7L7wI8KxQ7xeuWro8_kdDURUgTf1mfXQHcXUQ_VJh5VzF2y0OgGRVPkTtYRugDDgBzXWFr5ExzYuIM28AhLLpwJ51huVZN5Zw6fwTFSEh1QG3zPz1Fx5hwazYIfPDYDeEtOFNUP9WqaLf6U5h36QRx_Pzwxj5nVIPtqjRodZ4oAkw4jfXO7JlDRZ-qJhDZv4Ur3Z9sXdGHDTX_biCC-I6_Lan3qXTd-iNvWxZ3OMEZuWPfI8Y53EEmQ5B30FGomleN2Wkjww_7kziRxV-HEhWYb-Jo0ku5LSwZSFA2ndAjpiu_0000]--></g></svg>