<?xml version="1.0" encoding="us-ascii" standalone="no"?><svg xmlns="http://www.w3.org/2000/svg" xmlns:xlink="http://www.w3.org/1999/xlink" contentStyleType="text/css" height="478px" preserveAspectRatio="none" style="width:357px;height:478px;background:#FFFFFF;" version="1.1" viewBox="0 0 357 478" width="357px" zoomAndPan="magnify"><defs/><g><!--class medipro.object.player.AutoWalker--><a href="AutoWalker.html" target="_top" title="AutoWalker.html" xlink:actuate="onRequest" xlink:href="AutoWalker.html" xlink:show="new" xlink:title="AutoWalker.html" xlink:type="simple"><g id="elem_medipro.object.player.AutoWalker"><rect codeLine="5" fill="#F1F1F1" height="443.5938" id="medipro.object.player.AutoWalker" rx="2.5" ry="2.5" style="stroke:#181818;stroke-width:0.5;" width="336" x="7" y="7"/><ellipse cx="118.75" cy="27.0938" fill="#ADD1B2" rx="11" ry="11" style="stroke:#181818;stroke-width:1.0;"/><path d="M121.5156,22.9688 Q121.6719,22.75 121.8594,22.6406 Q122.0469,22.5313 122.2656,22.5313 Q122.6406,22.5313 122.875,22.7969 Q123.1094,23.0469 123.1094,23.6563 L123.1094,25.1094 Q123.1094,25.7188 122.875,25.9844 Q122.6406,26.25 122.2656,26.25 Q121.9219,26.25 121.7188,26.0469 Q121.5156,25.8594 121.4063,25.3438 Q121.3594,24.9844 121.1719,24.7969 Q120.8438,24.4219 120.2344,24.2031 Q119.625,23.9844 119,23.9844 Q118.2344,23.9844 117.5938,24.3125 Q116.9688,24.6406 116.4688,25.3906 Q115.9844,26.1406 115.9844,27.1719 L115.9844,28.2656 Q115.9844,29.5 116.875,30.3281 Q117.7656,31.1406 119.3594,31.1406 Q120.2969,31.1406 120.9531,30.8906 Q121.3438,30.7344 121.7656,30.2969 Q122.0313,30.0313 122.1719,29.9531 Q122.3281,29.875 122.5313,29.875 Q122.8594,29.875 123.1094,30.1406 Q123.375,30.3906 123.375,30.7344 Q123.375,31.0781 123.0313,31.4844 Q122.5313,32.0625 121.7344,32.3906 Q120.6563,32.8438 119.3594,32.8438 Q117.8438,32.8438 116.6406,32.2188 Q115.6563,31.7188 114.9688,30.6563 Q114.2813,29.5781 114.2813,28.2969 L114.2813,27.1406 Q114.2813,25.8125 114.8906,24.6719 Q115.5156,23.5156 116.6094,22.9063 Q117.7031,22.2813 118.9375,22.2813 Q119.6719,22.2813 120.3125,22.4531 Q120.9688,22.6094 121.5156,22.9688 Z " fill="#000000"/><text fill="#000000" font-family="sans-serif" font-size="14" lengthAdjust="spacing" textLength="73" x="154.75" y="26.5332">AutoWalker</text><text fill="#000000" font-family="sans-serif" font-size="10" lengthAdjust="spacing" textLength="104" x="139.25" y="39.9902">medipro.object.player</text><line style="stroke:#181818;stroke-width:0.5;" x1="8" x2="342" y1="47.1875" y2="47.1875"/><rect fill="none" height="6" style="stroke:#C82930;stroke-width:1.0;" width="6" x="15" y="58.4922"/><text fill="#000000" font-family="sans-serif" font-size="14" lengthAdjust="spacing" textLength="81" x="27" y="65.7207">start: Double</text><rect fill="none" height="6" style="stroke:#C82930;stroke-width:1.0;" width="6" x="15" y="76.1016"/><text fill="#000000" font-family="sans-serif" font-size="14" lengthAdjust="spacing" textLength="77" x="27" y="83.3301">end: Double</text><rect fill="none" height="6" style="stroke:#C82930;stroke-width:1.0;" width="6" x="15" y="93.7109"/><text fill="#000000" font-family="sans-serif" font-size="14" lengthAdjust="spacing" textLength="103" x="27" y="100.9395">duration: double</text><rect fill="none" height="6" style="stroke:#C82930;stroke-width:1.0;" width="6" x="15" y="111.3203"/><text fill="#000000" font-family="sans-serif" font-size="14" lengthAdjust="spacing" textLength="255" x="27" y="118.5488">interpolation: Function&lt;Double, Double&gt;</text><rect fill="none" height="6" style="stroke:#C82930;stroke-width:1.0;" width="6" x="15" y="128.9297"/><text fill="#000000" font-family="sans-serif" font-size="14" lengthAdjust="spacing" textLength="120" x="27" y="136.1582">callback: Runnable</text><rect fill="none" height="6" style="stroke:#C82930;stroke-width:1.0;" width="6" x="15" y="146.5391"/><text fill="#000000" font-family="sans-serif" font-size="14" lengthAdjust="spacing" textLength="89" x="27" y="153.7676">direction: byte</text><rect fill="none" height="6" style="stroke:#C82930;stroke-width:1.0;" width="6" x="15" y="164.1484"/><text fill="#000000" font-family="sans-serif" font-size="14" lengthAdjust="spacing" textLength="77" x="27" y="171.377">time: double</text><line style="stroke:#181818;stroke-width:0.5;" x1="8" x2="342" y1="178.4531" y2="178.4531"/><ellipse cx="18" cy="192.7578" fill="#84BE84" rx="3" ry="3" style="stroke:#038048;stroke-width:1.0;"/><text fill="#000000" font-family="sans-serif" font-size="14" lengthAdjust="spacing" textLength="279" x="27" y="196.9863">AutoWalker(double, double, double, double)</text><ellipse cx="18" cy="210.3672" fill="#84BE84" rx="3" ry="3" style="stroke:#038048;stroke-width:1.0;"/><text fill="#000000" font-family="sans-serif" font-size="14" lengthAdjust="spacing" textLength="181" x="27" y="214.5957">AutoWalker(Double, Double)</text><ellipse cx="18" cy="227.9766" fill="#84BE84" rx="3" ry="3" style="stroke:#038048;stroke-width:1.0;"/><text fill="#000000" font-family="sans-serif" font-size="14" lengthAdjust="spacing" textLength="113" x="27" y="232.2051">getStart(): Double</text><ellipse cx="18" cy="245.5859" fill="#84BE84" rx="3" ry="3" style="stroke:#038048;stroke-width:1.0;"/><text fill="#000000" font-family="sans-serif" font-size="14" lengthAdjust="spacing" textLength="108" x="27" y="249.8145">getEnd(): Double</text><ellipse cx="18" cy="263.1953" fill="#84BE84" rx="3" ry="3" style="stroke:#038048;stroke-width:1.0;"/><text fill="#000000" font-family="sans-serif" font-size="14" lengthAdjust="spacing" textLength="160" x="27" y="267.4238">setDuration(double): void</text><ellipse cx="18" cy="280.8047" fill="#84BE84" rx="3" ry="3" style="stroke:#038048;stroke-width:1.0;"/><text fill="#000000" font-family="sans-serif" font-size="14" lengthAdjust="spacing" textLength="164" x="27" y="285.0332">setSpeed(double): double</text><ellipse cx="18" cy="298.4141" fill="#84BE84" rx="3" ry="3" style="stroke:#038048;stroke-width:1.0;"/><text fill="#000000" font-family="sans-serif" font-size="14" lengthAdjust="spacing" textLength="310" x="27" y="302.6426">setInterpolation(Function&lt;Double, Double&gt;): void</text><ellipse cx="18" cy="316.0234" fill="#84BE84" rx="3" ry="3" style="stroke:#038048;stroke-width:1.0;"/><text fill="#000000" font-family="sans-serif" font-size="14" lengthAdjust="spacing" textLength="178" x="27" y="320.252">setCallback(Runnable): void</text><ellipse cx="18" cy="333.6328" fill="#84BE84" rx="3" ry="3" style="stroke:#038048;stroke-width:1.0;"/><text fill="#000000" font-family="sans-serif" font-size="14" lengthAdjust="spacing" textLength="131" x="27" y="337.8613">update(double): void</text><ellipse cx="18" cy="351.2422" fill="#84BE84" rx="3" ry="3" style="stroke:#038048;stroke-width:1.0;"/><text fill="#000000" font-family="sans-serif" font-size="14" lengthAdjust="spacing" textLength="115" x="27" y="355.4707">getNewX(): double</text><ellipse cx="18" cy="368.8516" fill="#84BE84" rx="3" ry="3" style="stroke:#038048;stroke-width:1.0;"/><text fill="#000000" font-family="sans-serif" font-size="14" lengthAdjust="spacing" textLength="116" x="27" y="373.0801">getNewY(): double</text><ellipse cx="18" cy="386.4609" fill="#84BE84" rx="3" ry="3" style="stroke:#038048;stroke-width:1.0;"/><text fill="#000000" font-family="sans-serif" font-size="14" lengthAdjust="spacing" textLength="122" x="27" y="390.6895">getSpeed(): double</text><ellipse cx="18" cy="404.0703" fill="#84BE84" rx="3" ry="3" style="stroke:#038048;stroke-width:1.0;"/><text fill="#000000" font-family="sans-serif" font-size="14" lengthAdjust="spacing" textLength="133" x="27" y="408.2988">isFinished(): boolean</text><ellipse cx="18" cy="421.6797" fill="#84BE84" rx="3" ry="3" style="stroke:#038048;stroke-width:1.0;"/><text fill="#000000" font-family="sans-serif" font-size="14" lengthAdjust="spacing" textLength="121" x="27" y="425.9082">getDirection(): byte</text><ellipse cx="18" cy="439.2891" fill="#84BE84" rx="3" ry="3" style="stroke:#038048;stroke-width:1.0;"/><text fill="#000000" font-family="sans-serif" font-size="14" lengthAdjust="spacing" textLength="139" x="27" y="443.5176">invokeCallback(): void</text></g></a><text fill="#888888" font-family="sans-serif" font-size="10" lengthAdjust="spacing" textLength="184" x="82.5" y="467.9746">UMLDoclet 2.1.1, PlantUML 1.2023.12</text><!--SRC=[TPDTIyCm58Rl_HM7WT2nMPnuLSP0h0D1HHoYCdUHDcSsBar2aawc-DzDFsRRjUjDslSvEHzl6W00WnO4IT4e4kC25T74IWr22Znn61964J1LTWThXfoQGpL5cqWd5thCYJ4mc1hsZS7aSdQLMVb2-0RrkwZ4yrcAb2ajVHbzOcnznSaEzG28WLxYrqbWkQm__CIcVBM2dw9o_fmPIxGD89HPnB6MKT2kI3CtAPCY07f0cB2ebUGLdcSYpj-cPOPnbMbMRuW9vn69Dm4yPKAGTXccCIuJHJlR09QbsAazgiVpQ5MkVntsxccts8ZvGBl8pV667IToTYDe7t4_HrZPLBNZWhQIqLR8GY7IcjDkajkcezunG_joNrVMUdjdEq6PeiJYiVRSR0_uzUhrz5MYjoEe7Ag7CJDdWfcaf96K78beRGttHru4D0zznCHMRl1_g6Qxl-K5mjmgM4kPBy_tTw6CkRkY5_x4dupXaHDXdGgdMzIcAF47]--></g></svg>