<?xml version="1.0" encoding="us-ascii" standalone="no"?><svg xmlns="http://www.w3.org/2000/svg" xmlns:xlink="http://www.w3.org/1999/xlink" contentStyleType="text/css" height="714px" preserveAspectRatio="none" style="width:1046px;height:714px;background:#FFFFFF;" version="1.1" viewBox="0 0 1046 714" width="1046px" zoomAndPan="magnify"><defs/><g><!--cluster medipro.object.player--><g id="cluster_medipro.object.player"><path d="M8.5,306.09 L162.5,306.09 A3.75,3.75 0 0 1 165,308.59 L172,329.6994 L831.5,329.6994 A2.5,2.5 0 0 1 834,332.1994 L834,685.34 A2.5,2.5 0 0 1 831.5,687.84 L8.5,687.84 A2.5,2.5 0 0 1 6,685.34 L6,308.59 A2.5,2.5 0 0 1 8.5,306.09 " fill="none" style="stroke:#000000;stroke-width:1.5;"/><line style="stroke:#000000;stroke-width:1.5;" x1="6" x2="172" y1="329.6994" y2="329.6994"/><text fill="#000000" font-family="sans-serif" font-size="14" font-weight="bold" lengthAdjust="spacing" textLength="153" x="10" y="322.6232">medipro.object.player</text></g><!--cluster medipro.object.base.gameobject--><g id="cluster_medipro.object.base.gameobject"><path d="M50.5,6 L281.5,6 A3.75,3.75 0 0 1 284,8.5 L291,29.6094 L768.5,29.6094 A2.5,2.5 0 0 1 771,32.1094 L771,279.59 A2.5,2.5 0 0 1 768.5,282.09 L50.5,282.09 A2.5,2.5 0 0 1 48,279.59 L48,8.5 A2.5,2.5 0 0 1 50.5,6 " fill="none" style="stroke:#000000;stroke-width:1.5;"/><line style="stroke:#000000;stroke-width:1.5;" x1="48" x2="291" y1="29.6094" y2="29.6094"/><text fill="#000000" font-family="sans-serif" font-size="14" font-weight="bold" lengthAdjust="spacing" textLength="230" x="52" y="22.5332">medipro.object.base.gameobject</text></g><!--cluster java.awt.event--><g id="cluster_java.awt.event"><path d="M797.5,67.63 L900.5,67.63 A3.75,3.75 0 0 1 903,70.13 L910,91.2394 L1036.5,91.2394 A2.5,2.5 0 0 1 1039,93.7394 L1039,217.96 A2.5,2.5 0 0 1 1036.5,220.46 L797.5,220.46 A2.5,2.5 0 0 1 795,217.96 L795,70.13 A2.5,2.5 0 0 1 797.5,67.63 " fill="none" style="stroke:#000000;stroke-width:1.5;"/><line style="stroke:#000000;stroke-width:1.5;" x1="795" x2="910" y1="91.2394" y2="91.2394"/><text fill="#000000" font-family="sans-serif" font-size="14" font-weight="bold" lengthAdjust="spacing" textLength="102" x="799" y="84.1632">java.awt.event</text></g><!--class PlayerController--><a href="PlayerController.html" target="_top" title="PlayerController.html" xlink:actuate="onRequest" xlink:href="PlayerController.html" xlink:show="new" xlink:title="PlayerController.html" xlink:type="simple"><g id="elem_PlayerController"><rect codeLine="5" fill="#F1F1F1" height="153.6563" id="PlayerController" rx="2.5" ry="2.5" style="stroke:#181818;stroke-width:0.5;" width="282" x="536" y="430.14"/><ellipse cx="621.75" cy="446.14" fill="#ADD1B2" rx="11" ry="11" style="stroke:#181818;stroke-width:1.0;"/><path d="M624.5156,442.015 Q624.6719,441.7963 624.8594,441.6869 Q625.0469,441.5775 625.2656,441.5775 Q625.6406,441.5775 625.875,441.8431 Q626.1094,442.0931 626.1094,442.7025 L626.1094,444.1556 Q626.1094,444.765 625.875,445.0306 Q625.6406,445.2963 625.2656,445.2963 Q624.9219,445.2963 624.7188,445.0931 Q624.5156,444.9056 624.4063,444.39 Q624.3594,444.0306 624.1719,443.8431 Q623.8438,443.4681 623.2344,443.2494 Q622.625,443.0306 622,443.0306 Q621.2344,443.0306 620.5938,443.3588 Q619.9688,443.6869 619.4688,444.4369 Q618.9844,445.1869 618.9844,446.2181 L618.9844,447.3119 Q618.9844,448.5463 619.875,449.3744 Q620.7656,450.1869 622.3594,450.1869 Q623.2969,450.1869 623.9531,449.9369 Q624.3438,449.7806 624.7656,449.3431 Q625.0313,449.0775 625.1719,448.9994 Q625.3281,448.9213 625.5313,448.9213 Q625.8594,448.9213 626.1094,449.1869 Q626.375,449.4369 626.375,449.7806 Q626.375,450.1244 626.0313,450.5306 Q625.5313,451.1088 624.7344,451.4369 Q623.6563,451.89 622.3594,451.89 Q620.8438,451.89 619.6406,451.265 Q618.6563,450.765 617.9688,449.7025 Q617.2813,448.6244 617.2813,447.3431 L617.2813,446.1869 Q617.2813,444.8588 617.8906,443.7181 Q618.5156,442.5619 619.6094,441.9525 Q620.7031,441.3275 621.9375,441.3275 Q622.6719,441.3275 623.3125,441.4994 Q623.9688,441.6556 624.5156,442.015 Z " fill="#000000"/><text fill="#000000" font-family="sans-serif" font-size="14" lengthAdjust="spacing" textLength="102" x="642.25" y="451.8685">PlayerController</text><line style="stroke:#181818;stroke-width:0.5;" x1="537" x2="817" y1="462.14" y2="462.14"/><polygon fill="none" points="547,472.4447,543,478.4447,551,478.4447" style="stroke:#1963A0;stroke-width:1.0;"/><text fill="#000000" font-family="sans-serif" font-size="14" lengthAdjust="spacing" textLength="98" x="556" y="480.6732">keyStateX: byte</text><line style="stroke:#181818;stroke-width:0.5;" x1="537" x2="817" y1="487.7494" y2="487.7494"/><ellipse cx="547" cy="502.0541" fill="#84BE84" rx="3" ry="3" style="stroke:#038048;stroke-width:1.0;"/><text fill="#000000" font-family="sans-serif" font-size="14" lengthAdjust="spacing" textLength="241" x="556" y="506.2826">PlayerController(GameObjectModel...)</text><ellipse cx="547" cy="519.6634" fill="#84BE84" rx="3" ry="3" style="stroke:#038048;stroke-width:1.0;"/><text fill="#000000" font-family="sans-serif" font-size="14" lengthAdjust="spacing" textLength="178" x="556" y="523.892">keyPressed(KeyEvent): void</text><ellipse cx="547" cy="537.2728" fill="#84BE84" rx="3" ry="3" style="stroke:#038048;stroke-width:1.0;"/><text fill="#000000" font-family="sans-serif" font-size="14" lengthAdjust="spacing" textLength="166" x="556" y="541.5013">keyTyped(KeyEvent): void</text><ellipse cx="547" cy="554.8822" fill="#84BE84" rx="3" ry="3" style="stroke:#038048;stroke-width:1.0;"/><text fill="#000000" font-family="sans-serif" font-size="14" lengthAdjust="spacing" textLength="186" x="556" y="559.1107">keyReleased(KeyEvent): void</text><ellipse cx="547" cy="572.4916" fill="#84BE84" rx="3" ry="3" style="stroke:#038048;stroke-width:1.0;"/><text fill="#000000" font-family="sans-serif" font-size="14" lengthAdjust="spacing" textLength="256" x="556" y="576.7201">update(GameObjectModel, double): void</text></g></a><!--class PlayerModel--><a href="PlayerModel.html" target="_top" title="PlayerModel.html" xlink:actuate="onRequest" xlink:href="PlayerModel.html" xlink:show="new" xlink:title="PlayerModel.html" xlink:type="simple"><g id="elem_PlayerModel"><rect codeLine="14" fill="#F1F1F1" height="329.75" id="PlayerModel" rx="2.5" ry="2.5" style="stroke:#181818;stroke-width:0.5;" width="222" x="279" y="342.09"/><ellipse cx="346.75" cy="358.09" fill="#ADD1B2" rx="11" ry="11" style="stroke:#181818;stroke-width:1.0;"/><path d="M349.5156,353.965 Q349.6719,353.7463 349.8594,353.6369 Q350.0469,353.5275 350.2656,353.5275 Q350.6406,353.5275 350.875,353.7931 Q351.1094,354.0431 351.1094,354.6525 L351.1094,356.1056 Q351.1094,356.715 350.875,356.9806 Q350.6406,357.2463 350.2656,357.2463 Q349.9219,357.2463 349.7188,357.0431 Q349.5156,356.8556 349.4063,356.34 Q349.3594,355.9806 349.1719,355.7931 Q348.8438,355.4181 348.2344,355.1994 Q347.625,354.9806 347,354.9806 Q346.2344,354.9806 345.5938,355.3088 Q344.9688,355.6369 344.4688,356.3869 Q343.9844,357.1369 343.9844,358.1681 L343.9844,359.2619 Q343.9844,360.4963 344.875,361.3244 Q345.7656,362.1369 347.3594,362.1369 Q348.2969,362.1369 348.9531,361.8869 Q349.3438,361.7306 349.7656,361.2931 Q350.0313,361.0275 350.1719,360.9494 Q350.3281,360.8713 350.5313,360.8713 Q350.8594,360.8713 351.1094,361.1369 Q351.375,361.3869 351.375,361.7306 Q351.375,362.0744 351.0313,362.4806 Q350.5313,363.0588 349.7344,363.3869 Q348.6563,363.84 347.3594,363.84 Q345.8438,363.84 344.6406,363.215 Q343.6563,362.715 342.9688,361.6525 Q342.2813,360.5744 342.2813,359.2931 L342.2813,358.1369 Q342.2813,356.8088 342.8906,355.6681 Q343.5156,354.5119 344.6094,353.9025 Q345.7031,353.2775 346.9375,353.2775 Q347.6719,353.2775 348.3125,353.4494 Q348.9688,353.6056 349.5156,353.965 Z " fill="#000000"/><text fill="#000000" font-family="sans-serif" font-size="14" lengthAdjust="spacing" textLength="78" x="367.25" y="363.8185">PlayerModel</text><line style="stroke:#181818;stroke-width:0.5;" x1="280" x2="500" y1="374.09" y2="374.09"/><polygon fill="none" points="290,384.3947,286,390.3947,294,390.3947" style="stroke:#1963A0;stroke-width:1.0;"/><text fill="#000000" font-family="sans-serif" font-size="14" lengthAdjust="spacing" textLength="98" x="299" y="392.6232">speedX: double</text><ellipse cx="290" cy="406.0041" fill="none" rx="3" ry="3" style="stroke:#038048;stroke-width:1.0;"/><text fill="#000000" font-family="sans-serif" font-size="14" lengthAdjust="spacing" textLength="127" x="299" y="410.2326">speedLimitX: double</text><ellipse cx="290" cy="423.6134" fill="none" rx="3" ry="3" style="stroke:#038048;stroke-width:1.0;"/><text fill="#000000" font-family="sans-serif" font-size="14" lengthAdjust="spacing" textLength="86" x="299" y="427.842">resitX: double</text><ellipse cx="290" cy="441.2228" fill="none" rx="3" ry="3" style="stroke:#038048;stroke-width:1.0;"/><text fill="#000000" font-family="sans-serif" font-size="14" lengthAdjust="spacing" textLength="81" x="299" y="445.4513">accX: double</text><polygon fill="none" points="290,454.8322,286,460.8322,294,460.8322" style="stroke:#1963A0;stroke-width:1.0;"/><text fill="#000000" font-family="sans-serif" font-size="14" lengthAdjust="spacing" textLength="120" x="299" y="463.0607">spritesIdleIndex: int</text><polygon fill="none" points="290,472.4416,286,478.4416,294,478.4416" style="stroke:#1963A0;stroke-width:1.0;"/><text fill="#000000" font-family="sans-serif" font-size="14" lengthAdjust="spacing" textLength="98" x="299" y="480.6701">spritesIndex: int</text><polygon fill="none" points="290,490.0509,286,496.0509,294,496.0509" style="stroke:#1963A0;stroke-width:1.0;"/><text fill="#000000" font-family="sans-serif" font-size="14" lengthAdjust="spacing" textLength="115" x="299" y="498.2795">spritesRange: int[]</text><polygon fill="none" points="290,507.6603,286,513.6603,294,513.6603" style="stroke:#1963A0;stroke-width:1.0;"/><text fill="#000000" font-family="sans-serif" font-size="14" lengthAdjust="spacing" text-decoration="underline" textLength="150" x="299" y="515.8888">changeSpriteTime: float</text><polygon fill="none" points="290,525.2697,286,531.2697,294,531.2697" style="stroke:#1963A0;stroke-width:1.0;"/><text fill="#000000" font-family="sans-serif" font-size="14" lengthAdjust="spacing" textLength="89" x="299" y="533.4982">direction: byte</text><polygon fill="none" points="290,542.8791,286,548.8791,294,548.8791" style="stroke:#1963A0;stroke-width:1.0;"/><text fill="#000000" font-family="sans-serif" font-size="14" lengthAdjust="spacing" textLength="120" x="299" y="551.1076">isWalking: Boolean</text><polygon fill="none" points="290,560.4884,286,566.4884,294,566.4884" style="stroke:#1963A0;stroke-width:1.0;"/><text fill="#000000" font-family="sans-serif" font-size="14" lengthAdjust="spacing" textLength="155" x="299" y="568.717">changeSpriteTimer: float</text><line style="stroke:#181818;stroke-width:0.5;" x1="280" x2="500" y1="575.7931" y2="575.7931"/><ellipse cx="290" cy="590.0978" fill="#84BE84" rx="3" ry="3" style="stroke:#038048;stroke-width:1.0;"/><text fill="#000000" font-family="sans-serif" font-size="14" lengthAdjust="spacing" textLength="125" x="299" y="594.3263">PlayerModel(World)</text><ellipse cx="290" cy="607.7072" fill="#84BE84" rx="3" ry="3" style="stroke:#038048;stroke-width:1.0;"/><text fill="#000000" font-family="sans-serif" font-size="14" lengthAdjust="spacing" textLength="111" x="299" y="611.9357">moveRight(): void</text><ellipse cx="290" cy="625.3166" fill="#84BE84" rx="3" ry="3" style="stroke:#038048;stroke-width:1.0;"/><text fill="#000000" font-family="sans-serif" font-size="14" lengthAdjust="spacing" textLength="102" x="299" y="629.5451">moveLeft(): void</text><ellipse cx="290" cy="642.9259" fill="#84BE84" rx="3" ry="3" style="stroke:#038048;stroke-width:1.0;"/><text fill="#000000" font-family="sans-serif" font-size="14" lengthAdjust="spacing" textLength="193" x="299" y="647.1545">updateAnimation(double): void</text><ellipse cx="290" cy="660.5353" fill="#84BE84" rx="3" ry="3" style="stroke:#038048;stroke-width:1.0;"/><text fill="#000000" font-family="sans-serif" font-size="14" lengthAdjust="spacing" textLength="196" x="299" y="664.7638">updateMovement(double): void</text></g></a><!--class PlayerView--><a href="PlayerView.html" target="_top" title="PlayerView.html" xlink:actuate="onRequest" xlink:href="PlayerView.html" xlink:show="new" xlink:title="PlayerView.html" xlink:type="simple"><g id="elem_PlayerView"><rect codeLine="33" fill="#F1F1F1" height="136.0469" id="PlayerView" rx="2.5" ry="2.5" style="stroke:#181818;stroke-width:0.5;" width="222" x="22" y="438.94"/><ellipse cx="94.25" cy="454.94" fill="#ADD1B2" rx="11" ry="11" style="stroke:#181818;stroke-width:1.0;"/><path d="M97.0156,450.815 Q97.1719,450.5963 97.3594,450.4869 Q97.5469,450.3775 97.7656,450.3775 Q98.1406,450.3775 98.375,450.6431 Q98.6094,450.8931 98.6094,451.5025 L98.6094,452.9556 Q98.6094,453.565 98.375,453.8306 Q98.1406,454.0963 97.7656,454.0963 Q97.4219,454.0963 97.2188,453.8931 Q97.0156,453.7056 96.9063,453.19 Q96.8594,452.8306 96.6719,452.6431 Q96.3438,452.2681 95.7344,452.0494 Q95.125,451.8306 94.5,451.8306 Q93.7344,451.8306 93.0938,452.1588 Q92.4688,452.4869 91.9688,453.2369 Q91.4844,453.9869 91.4844,455.0181 L91.4844,456.1119 Q91.4844,457.3463 92.375,458.1744 Q93.2656,458.9869 94.8594,458.9869 Q95.7969,458.9869 96.4531,458.7369 Q96.8438,458.5806 97.2656,458.1431 Q97.5313,457.8775 97.6719,457.7994 Q97.8281,457.7213 98.0313,457.7213 Q98.3594,457.7213 98.6094,457.9869 Q98.875,458.2369 98.875,458.5806 Q98.875,458.9244 98.5313,459.3306 Q98.0313,459.9088 97.2344,460.2369 Q96.1563,460.69 94.8594,460.69 Q93.3438,460.69 92.1406,460.065 Q91.1563,459.565 90.4688,458.5025 Q89.7813,457.4244 89.7813,456.1431 L89.7813,454.9869 Q89.7813,453.6588 90.3906,452.5181 Q91.0156,451.3619 92.1094,450.7525 Q93.2031,450.1275 94.4375,450.1275 Q95.1719,450.1275 95.8125,450.2994 Q96.4688,450.4556 97.0156,450.815 Z " fill="#000000"/><text fill="#000000" font-family="sans-serif" font-size="14" lengthAdjust="spacing" textLength="69" x="114.75" y="460.6685">PlayerView</text><line style="stroke:#181818;stroke-width:0.5;" x1="23" x2="243" y1="470.94" y2="470.94"/><polygon fill="none" points="33,481.2447,29,487.2447,37,487.2447" style="stroke:#1963A0;stroke-width:1.0;"/><text fill="#000000" font-family="sans-serif" font-size="14" lengthAdjust="spacing" textLength="96" x="42" y="489.4732">sprites: Image[]</text><polygon fill="none" points="33,498.8541,29,504.8541,37,504.8541" style="stroke:#1963A0;stroke-width:1.0;"/><text fill="#000000" font-family="sans-serif" font-size="14" lengthAdjust="spacing" textLength="124" x="42" y="507.0826">SPRITE_WIDTH: int</text><polygon fill="none" points="33,516.4634,29,522.4634,37,522.4634" style="stroke:#1963A0;stroke-width:1.0;"/><text fill="#000000" font-family="sans-serif" font-size="14" lengthAdjust="spacing" textLength="130" x="42" y="524.692">SPRITE_HEIGHT: int</text><line style="stroke:#181818;stroke-width:0.5;" x1="23" x2="243" y1="531.7681" y2="531.7681"/><ellipse cx="33" cy="546.0728" fill="#84BE84" rx="3" ry="3" style="stroke:#038048;stroke-width:1.0;"/><text fill="#000000" font-family="sans-serif" font-size="14" lengthAdjust="spacing" textLength="196" x="42" y="550.3013">PlayerView(GameObjectModel)</text><ellipse cx="33" cy="563.6822" fill="#84BE84" rx="3" ry="3" style="stroke:#038048;stroke-width:1.0;"/><text fill="#000000" font-family="sans-serif" font-size="14" lengthAdjust="spacing" textLength="149" x="42" y="567.9107">draw(Graphics2D): void</text></g></a><!--class GameObjectController--><a href="..\base\gameobject\GameObjectController.html" target="_top" title="..\base\gameobject\GameObjectController.html" xlink:actuate="onRequest" xlink:href="..\base\gameobject\GameObjectController.html" xlink:show="new" xlink:title="..\base\gameobject\GameObjectController.html" xlink:type="simple"><g id="elem_GameObjectController"><rect codeLine="44" fill="#F1F1F1" height="100.8281" id="GameObjectController" rx="2.5" ry="2.5" style="stroke:#181818;stroke-width:0.5;" width="282" x="473" y="103.63"/><ellipse cx="539.25" cy="119.63" fill="#A9DCDF" rx="11" ry="11" style="stroke:#181818;stroke-width:1.0;"/><path d="M541.4375,121.3956 L537.2969,121.3956 L536.875,122.4269 L537.2969,122.4269 Q537.9063,122.4269 538.1719,122.6613 Q538.4375,122.8956 538.4375,123.2863 Q538.4375,123.6613 538.1719,123.8956 Q537.9063,124.13 537.2969,124.13 L535,124.13 Q534.3906,124.13 534.1406,123.8956 Q533.875,123.6613 533.875,123.2706 Q533.875,122.8956 534.1563,122.6613 Q534.4219,122.4113 535.0469,122.4269 L537.7188,115.7706 L536.6094,115.7706 Q536,115.7706 535.7344,115.5363 Q535.4688,115.3019 535.4688,114.9113 Q535.4688,114.5363 535.7344,114.3019 Q536,114.0675 536.6094,114.0675 L540.2813,114.0675 L543.6719,122.4269 Q544.2656,122.4269 544.4531,122.5675 Q544.8438,122.8331 544.8438,123.2863 Q544.8438,123.6613 544.5781,123.8956 Q544.3281,124.13 543.7188,124.13 L541.4219,124.13 Q540.8125,124.13 540.5469,123.8956 Q540.2813,123.6613 540.2813,123.2706 Q540.2813,122.8956 540.5469,122.6613 Q540.8125,122.4269 541.4219,122.4269 L541.8438,122.4269 L541.4375,121.3956 Z M540.7188,119.6925 L539.3594,116.3175 L537.9844,119.6925 L540.7188,119.6925 Z " fill="#000000"/><text fill="#000000" font-family="sans-serif" font-size="14" font-style="italic" lengthAdjust="spacing" textLength="141" x="559.75" y="125.3585">GameObjectController</text><line style="stroke:#181818;stroke-width:0.5;" x1="474" x2="754" y1="135.63" y2="135.63"/><polygon fill="none" points="484,144.9347,488,148.9347,484,152.9347,480,148.9347" style="stroke:#B38D22;stroke-width:1.0;"/><text fill="#000000" font-family="sans-serif" font-size="14" lengthAdjust="spacing" textLength="93" x="493" y="154.1632">logger: Logger</text><ellipse cx="484" cy="167.5441" fill="none" rx="3" ry="3" style="stroke:#038048;stroke-width:1.0;"/><text fill="#000000" font-family="sans-serif" font-size="14" lengthAdjust="spacing" textLength="242" x="493" y="171.7726">models: ArrayList&lt;GameObjectModel&gt;</text><line style="stroke:#181818;stroke-width:0.5;" x1="474" x2="754" y1="178.8488" y2="178.8488"/><ellipse cx="484" cy="193.1534" fill="#84BE84" rx="3" ry="3" style="stroke:#038048;stroke-width:1.0;"/><text fill="#000000" font-family="sans-serif" font-size="14" font-style="italic" lengthAdjust="spacing" textLength="256" x="493" y="197.382">update(GameObjectModel, double): void</text></g></a><!--class GameObjectModel--><a href="..\base\gameobject\GameObjectModel.html" target="_top" title="..\base\gameobject\GameObjectModel.html" xlink:actuate="onRequest" xlink:href="..\base\gameobject\GameObjectModel.html" xlink:show="new" xlink:title="..\base\gameobject\GameObjectModel.html" xlink:type="simple"><g id="elem_GameObjectModel"><rect codeLine="49" fill="#F1F1F1" height="171.2656" id="GameObjectModel" rx="2.5" ry="2.5" style="stroke:#181818;stroke-width:0.5;" width="150" x="288" y="68.41"/><ellipse cx="303" cy="84.41" fill="#A9DCDF" rx="11" ry="11" style="stroke:#181818;stroke-width:1.0;"/><path d="M305.1875,86.1756 L301.0469,86.1756 L300.625,87.2069 L301.0469,87.2069 Q301.6563,87.2069 301.9219,87.4413 Q302.1875,87.6756 302.1875,88.0663 Q302.1875,88.4413 301.9219,88.6756 Q301.6563,88.91 301.0469,88.91 L298.75,88.91 Q298.1406,88.91 297.8906,88.6756 Q297.625,88.4413 297.625,88.0506 Q297.625,87.6756 297.9063,87.4413 Q298.1719,87.1913 298.7969,87.2069 L301.4688,80.5506 L300.3594,80.5506 Q299.75,80.5506 299.4844,80.3163 Q299.2188,80.0819 299.2188,79.6913 Q299.2188,79.3163 299.4844,79.0819 Q299.75,78.8475 300.3594,78.8475 L304.0313,78.8475 L307.4219,87.2069 Q308.0156,87.2069 308.2031,87.3475 Q308.5938,87.6131 308.5938,88.0663 Q308.5938,88.4413 308.3281,88.6756 Q308.0781,88.91 307.4688,88.91 L305.1719,88.91 Q304.5625,88.91 304.2969,88.6756 Q304.0313,88.4413 304.0313,88.0506 Q304.0313,87.6756 304.2969,87.4413 Q304.5625,87.2069 305.1719,87.2069 L305.5938,87.2069 L305.1875,86.1756 Z M304.4688,84.4725 L303.1094,81.0975 L301.7344,84.4725 L304.4688,84.4725 Z " fill="#000000"/><text fill="#000000" font-family="sans-serif" font-size="14" font-style="italic" lengthAdjust="spacing" textLength="118" x="317" y="90.1385">GameObjectModel</text><line style="stroke:#181818;stroke-width:0.5;" x1="289" x2="437" y1="100.41" y2="100.41"/><polygon fill="none" points="299,109.7147,303,113.7147,299,117.7147,295,113.7147" style="stroke:#B38D22;stroke-width:1.0;"/><text fill="#000000" font-family="sans-serif" font-size="14" lengthAdjust="spacing" textLength="93" x="308" y="118.9432">logger: Logger</text><ellipse cx="299" cy="132.3241" fill="none" rx="3" ry="3" style="stroke:#038048;stroke-width:1.0;"/><text fill="#000000" font-family="sans-serif" font-size="14" lengthAdjust="spacing" textLength="78" x="308" y="136.5526">world: World</text><ellipse cx="299" cy="149.9334" fill="none" rx="3" ry="3" style="stroke:#038048;stroke-width:1.0;"/><text fill="#000000" font-family="sans-serif" font-size="14" lengthAdjust="spacing" textLength="57" x="308" y="154.162">x: double</text><ellipse cx="299" cy="167.5428" fill="none" rx="3" ry="3" style="stroke:#038048;stroke-width:1.0;"/><text fill="#000000" font-family="sans-serif" font-size="14" lengthAdjust="spacing" textLength="58" x="308" y="171.7713">y: double</text><ellipse cx="299" cy="185.1522" fill="none" rx="3" ry="3" style="stroke:#038048;stroke-width:1.0;"/><text fill="#000000" font-family="sans-serif" font-size="14" lengthAdjust="spacing" textLength="99" x="308" y="189.3807">rotation: double</text><ellipse cx="299" cy="202.7616" fill="none" rx="3" ry="3" style="stroke:#038048;stroke-width:1.0;"/><text fill="#000000" font-family="sans-serif" font-size="14" lengthAdjust="spacing" textLength="92" x="308" y="206.9901">scaleX: double</text><ellipse cx="299" cy="220.3709" fill="none" rx="3" ry="3" style="stroke:#038048;stroke-width:1.0;"/><text fill="#000000" font-family="sans-serif" font-size="14" lengthAdjust="spacing" textLength="93" x="308" y="224.5995">scaleY: double</text><line style="stroke:#181818;stroke-width:0.5;" x1="289" x2="437" y1="231.6756" y2="231.6756"/></g></a><!--class GameObjectView--><a href="..\base\gameobject\GameObjectView.html" target="_top" title="..\base\gameobject\GameObjectView.html" xlink:actuate="onRequest" xlink:href="..\base\gameobject\GameObjectView.html" xlink:show="new" xlink:title="..\base\gameobject\GameObjectView.html" xlink:type="simple"><g id="elem_GameObjectView"><rect codeLine="58" fill="#F1F1F1" height="224.0938" id="GameObjectView" rx="2.5" ry="2.5" style="stroke:#181818;stroke-width:0.5;" width="189" x="64.5" y="42"/><ellipse cx="101.55" cy="58" fill="#A9DCDF" rx="11" ry="11" style="stroke:#181818;stroke-width:1.0;"/><path d="M103.7375,59.7656 L99.5969,59.7656 L99.175,60.7969 L99.5969,60.7969 Q100.2063,60.7969 100.4719,61.0313 Q100.7375,61.2656 100.7375,61.6563 Q100.7375,62.0313 100.4719,62.2656 Q100.2063,62.5 99.5969,62.5 L97.3,62.5 Q96.6906,62.5 96.4406,62.2656 Q96.175,62.0313 96.175,61.6406 Q96.175,61.2656 96.4563,61.0313 Q96.7219,60.7813 97.3469,60.7969 L100.0188,54.1406 L98.9094,54.1406 Q98.3,54.1406 98.0344,53.9063 Q97.7688,53.6719 97.7688,53.2813 Q97.7688,52.9063 98.0344,52.6719 Q98.3,52.4375 98.9094,52.4375 L102.5813,52.4375 L105.9719,60.7969 Q106.5656,60.7969 106.7531,60.9375 Q107.1438,61.2031 107.1438,61.6563 Q107.1438,62.0313 106.8781,62.2656 Q106.6281,62.5 106.0188,62.5 L103.7219,62.5 Q103.1125,62.5 102.8469,62.2656 Q102.5813,62.0313 102.5813,61.6406 Q102.5813,61.2656 102.8469,61.0313 Q103.1125,60.7969 103.7219,60.7969 L104.1438,60.7969 L103.7375,59.7656 Z M103.0188,58.0625 L101.6594,54.6875 L100.2844,58.0625 L103.0188,58.0625 Z " fill="#000000"/><text fill="#000000" font-family="sans-serif" font-size="14" font-style="italic" lengthAdjust="spacing" textLength="108" x="120.45" y="63.7285">GameObjectView</text><line style="stroke:#181818;stroke-width:0.5;" x1="65.5" x2="252.5" y1="74" y2="74"/><polygon fill="none" points="75.5,83.3047,79.5,87.3047,75.5,91.3047,71.5,87.3047" style="stroke:#B38D22;stroke-width:1.0;"/><text fill="#000000" font-family="sans-serif" font-size="14" lengthAdjust="spacing" textLength="93" x="84.5" y="92.5332">logger: Logger</text><ellipse cx="75.5" cy="105.9141" fill="none" rx="3" ry="3" style="stroke:#038048;stroke-width:1.0;"/><text fill="#000000" font-family="sans-serif" font-size="14" lengthAdjust="spacing" textLength="163" x="84.5" y="110.1426">model: GameObjectModel</text><ellipse cx="75.5" cy="123.5234" fill="none" rx="3" ry="3" style="stroke:#038048;stroke-width:1.0;"/><text fill="#000000" font-family="sans-serif" font-size="14" lengthAdjust="spacing" textLength="117" x="84.5" y="127.752">drawAsUI: boolean</text><polygon fill="none" points="75.5,136.1328,79.5,140.1328,75.5,144.1328,71.5,140.1328" style="stroke:#B38D22;stroke-width:1.0;"/><text fill="#000000" font-family="sans-serif" font-size="14" lengthAdjust="spacing" text-decoration="underline" textLength="128" x="84.5" y="145.3613">nextBindingPoint: int</text><polygon fill="none" points="75.5,154.7422,71.5,160.7422,79.5,160.7422" style="stroke:#1963A0;stroke-width:1.0;"/><text fill="#000000" font-family="sans-serif" font-size="14" lengthAdjust="spacing" textLength="121" x="84.5" y="162.9707">shaderProgram: int</text><polygon fill="none" points="75.5,172.3516,71.5,178.3516,79.5,178.3516" style="stroke:#1963A0;stroke-width:1.0;"/><text fill="#000000" font-family="sans-serif" font-size="14" lengthAdjust="spacing" textLength="140" x="84.5" y="180.5801">textureName: IntBuffer</text><polygon fill="none" points="75.5,189.9609,71.5,195.9609,79.5,195.9609" style="stroke:#1963A0;stroke-width:1.0;"/><text fill="#000000" font-family="sans-serif" font-size="14" lengthAdjust="spacing" textLength="147" x="84.5" y="198.1895">samplerName: IntBuffer</text><polygon fill="none" points="75.5,207.5703,71.5,213.5703,79.5,213.5703" style="stroke:#1963A0;stroke-width:1.0;"/><text fill="#000000" font-family="sans-serif" font-size="14" lengthAdjust="spacing" textLength="84" x="84.5" y="215.7988">vbo: IntBuffer</text><polygon fill="none" points="75.5,225.1797,71.5,231.1797,79.5,231.1797" style="stroke:#1963A0;stroke-width:1.0;"/><text fill="#000000" font-family="sans-serif" font-size="14" lengthAdjust="spacing" textLength="112" x="84.5" y="233.4082">shaderFile: String</text><line style="stroke:#181818;stroke-width:0.5;" x1="65.5" x2="252.5" y1="240.4844" y2="240.4844"/><polygon fill="#FFFF44" points="75.5,249.7891,79.5,253.7891,75.5,257.7891,71.5,253.7891" style="stroke:#B38D22;stroke-width:1.0;"/><text fill="#000000" font-family="sans-serif" font-size="14" font-style="italic" lengthAdjust="spacing" textLength="148" x="84.5" y="259.0176">draw(Graphics2D): void</text></g></a><!--class KeyListener--><g id="elem_KeyListener"><rect codeLine="73" fill="#F1F1F1" height="100.8281" id="KeyListener" rx="2.5" ry="2.5" style="stroke:#181818;stroke-width:0.5;" width="211" x="811.5" y="103.63"/><ellipse cx="875.25" cy="119.63" fill="#B4A7E5" rx="11" ry="11" style="stroke:#181818;stroke-width:1.0;"/><path d="M876.2031,116.2706 L876.2031,122.9269 L877.9219,122.9269 Q878.5313,122.9269 878.7969,123.1613 Q879.0625,123.3956 879.0625,123.7863 Q879.0625,124.1613 878.7969,124.3956 Q878.5313,124.63 877.9219,124.63 L872.7813,124.63 Q872.1719,124.63 871.9063,124.3956 Q871.6406,124.1613 871.6406,123.7706 Q871.6406,123.3956 871.9063,123.1613 Q872.1719,122.9269 872.7813,122.9269 L874.5,122.9269 L874.5,116.2706 L872.7813,116.2706 Q872.1719,116.2706 871.9063,116.0363 Q871.6406,115.8019 871.6406,115.4113 Q871.6406,115.0363 871.9063,114.8019 Q872.1719,114.5675 872.7813,114.5675 L877.9219,114.5675 Q878.5313,114.5675 878.7969,114.8019 Q879.0625,115.0363 879.0625,115.4113 Q879.0625,115.8019 878.7969,116.0363 Q878.5313,116.2706 877.9219,116.2706 L876.2031,116.2706 Z " fill="#000000"/><text fill="#000000" font-family="sans-serif" font-size="14" font-style="italic" lengthAdjust="spacing" textLength="75" x="895.75" y="125.3585">KeyListener</text><line style="stroke:#181818;stroke-width:0.5;" x1="812.5" x2="1021.5" y1="135.63" y2="135.63"/><line style="stroke:#181818;stroke-width:0.5;" x1="812.5" x2="1021.5" y1="143.63" y2="143.63"/><ellipse cx="822.5" cy="157.9347" fill="#84BE84" rx="3" ry="3" style="stroke:#038048;stroke-width:1.0;"/><text fill="#000000" font-family="sans-serif" font-size="14" font-style="italic" lengthAdjust="spacing" textLength="165" x="831.5" y="162.1632">keyTyped(KeyEvent): void</text><ellipse cx="822.5" cy="175.5441" fill="#84BE84" rx="3" ry="3" style="stroke:#038048;stroke-width:1.0;"/><text fill="#000000" font-family="sans-serif" font-size="14" font-style="italic" lengthAdjust="spacing" textLength="177" x="831.5" y="179.7726">keyPressed(KeyEvent): void</text><ellipse cx="822.5" cy="193.1534" fill="#84BE84" rx="3" ry="3" style="stroke:#038048;stroke-width:1.0;"/><text fill="#000000" font-family="sans-serif" font-size="14" font-style="italic" lengthAdjust="spacing" textLength="185" x="831.5" y="197.382">keyReleased(KeyEvent): void</text></g><!--reverse link GameObjectController to PlayerController--><g id="link_GameObjectController_PlayerController"><path codeLine="80" d="M626.1403,222.6668 C636.6703,281.3268 651.08,361.59 663.32,429.76 " fill="none" id="GameObjectController-backto-PlayerController" style="stroke:#181818;stroke-width:1.0;"/><polygon fill="none" points="622.96,204.95,620.2347,223.7269,632.0459,221.6067,622.96,204.95" style="stroke:#181818;stroke-width:1.0;"/></g><!--reverse link KeyListener to PlayerController--><g id="link_KeyListener_PlayerController"><path codeLine="81" d="M872.7084,219.8074 C832.5884,278.4674 775.74,361.59 729.11,429.76 " fill="none" id="KeyListener-backto-PlayerController" style="stroke:#181818;stroke-width:1.0;stroke-dasharray:7.0,7.0;"/><polygon fill="none" points="882.87,204.95,867.7559,216.4202,877.6609,223.1946,882.87,204.95" style="stroke:#181818;stroke-width:1.0;"/></g><!--reverse link GameObjectModel to PlayerModel--><g id="link_GameObjectModel_PlayerModel"><path codeLine="82" d="M370.9183,257.9372 C373.2783,288.6672 374.66,306.55 377.37,341.78 " fill="none" id="GameObjectModel-backto-PlayerModel" style="stroke:#181818;stroke-width:1.0;"/><polygon fill="none" points="369.54,239.99,364.9359,258.3966,376.9007,257.4777,369.54,239.99" style="stroke:#181818;stroke-width:1.0;"/></g><!--reverse link GameObjectView to PlayerView--><g id="link_GameObjectView_PlayerView"><path codeLine="83" d="M149.4077,284.5106 C145.2077,341.1006 141.59,390.03 137.98,438.7 " fill="none" id="GameObjectView-backto-PlayerView" style="stroke:#181818;stroke-width:1.0;"/><polygon fill="none" points="150.74,266.56,143.4242,284.0665,155.3913,284.9547,150.74,266.56" style="stroke:#181818;stroke-width:1.0;"/></g><text fill="#888888" font-family="sans-serif" font-size="10" lengthAdjust="spacing" textLength="184" x="424" y="704.2209">UMLDoclet 2.1.1, PlantUML 1.2023.12</text><!--SRC=[bLP_I-Cm6FxVJn6GWuaQq3-B7EZfQRbvDxPvUgWSMVkkYwPDIRBfqEsp-wPLjsPfDmkbDE-FlB-U9o6440q6tvmfPgGYGR2rXOiaPz4ZIu2a4FDSIIe73n0PcWis1KLUIYNxH89fJJh5-W-P6IM5G8tRMtU9Zamgxk_HbYmzyqUOzWmpS1EGmTH0HRZh-cYTinJ-5A5SoXW4fNIdQe7kEWgqXhZr2wPd4yZCJa0caiShUlrfle5M5mImjUx6UOmvkE7jaLYE1m9Savc_V8NDP-NA1Fr5qpb0Z1KhtLT3AMHjdd9Jeu3bgPMnAF9BS4l53UWm5X1cCJm7X6V6hz8ixh8iWK9yUrzHUD4u1poQaNaqiZgzGh_FKzGU2iaSTp5NM6SkCy_WpBc-PkAHPqb0JgJ43cPLkRk3ycsnkzI8rhLK8dQ6BPKJwF9aP5hUeR3YDWnhfEN876SyPJQBbdzKbbGlqLsA0zZwqb3zvV3qELFsftQaYku494mHzqvhvhrED-oV_RyEJ_iNdjQ-Yo_EmlEB_gfyTx6x2n6deh5YgA9OFkAHFZojoN7Mo543X2jDS9loVobHDj16CLmg2xG8fK9SbDvP5tSB5tS-JNyTjuLC4ZjExUBh3WHcZ2K-LefDsroR8wSQtwk0-8XtzdM2MPlo1zaqPjl0GOs9Fbcm1AJ0J5NoxEUTQGrLISDAY7kPBc82RXfa_rPa6nJc7J2DTQd7qVh-1suJLX5mhAz2P3KFSNrov7O6p-Q4Pp5oN4SYu7o4Es8ng8wIYMAfHsxGnLZ1RsOPDipCoNWuT4AUQvRcEEoDEfE1hBSlOlZ91PhtZC9ewqPyUotsFT1_O1D6sPEXO8_cfLvWig26B0A2vxQ56cJ5lQKENnlT1no3JIuQZidQsqGbosPY2m8lWHszxk_xhsr1uDwdYbsgDGo2vO8TlLBw9MURXrmIqFfe5nZPt7U1uVMkhLhXEG8xBcGefVrSNRPFPIJmNdn83-Z1dZr9CuEhvDi4bBQ7zSuR]--></g></svg>