<?xml version="1.0" encoding="us-ascii" standalone="no"?><svg xmlns="http://www.w3.org/2000/svg" xmlns:xlink="http://www.w3.org/1999/xlink" contentStyleType="text/css" height="471px" preserveAspectRatio="none" style="width:238px;height:471px;background:#FFFFFF;" version="1.1" viewBox="0 0 238 471" width="238px" zoomAndPan="magnify"><defs/><g><!--class medipro.object.player.PlayerModel--><a href="PlayerModel.html" target="_top" title="PlayerModel.html" xlink:actuate="onRequest" xlink:href="PlayerModel.html" xlink:show="new" xlink:title="PlayerModel.html" xlink:type="simple"><g id="elem_medipro.object.player.PlayerModel"><rect codeLine="5" fill="#F1F1F1" height="337.9375" id="medipro.object.player.PlayerModel" rx="2.5" ry="2.5" style="stroke:#181818;stroke-width:0.5;" width="222" x="9" y="107.18"/><ellipse cx="63.75" cy="127.2738" fill="#ADD1B2" rx="11" ry="11" style="stroke:#181818;stroke-width:1.0;"/><path d="M66.5156,123.1488 Q66.6719,122.93 66.8594,122.8206 Q67.0469,122.7113 67.2656,122.7113 Q67.6406,122.7113 67.875,122.9769 Q68.1094,123.2269 68.1094,123.8363 L68.1094,125.2894 Q68.1094,125.8988 67.875,126.1644 Q67.6406,126.43 67.2656,126.43 Q66.9219,126.43 66.7188,126.2269 Q66.5156,126.0394 66.4063,125.5238 Q66.3594,125.1644 66.1719,124.9769 Q65.8438,124.6019 65.2344,124.3831 Q64.625,124.1644 64,124.1644 Q63.2344,124.1644 62.5938,124.4925 Q61.9688,124.8206 61.4688,125.5706 Q60.9844,126.3206 60.9844,127.3519 L60.9844,128.4456 Q60.9844,129.68 61.875,130.5081 Q62.7656,131.3206 64.3594,131.3206 Q65.2969,131.3206 65.9531,131.0706 Q66.3438,130.9144 66.7656,130.4769 Q67.0313,130.2113 67.1719,130.1331 Q67.3281,130.055 67.5313,130.055 Q67.8594,130.055 68.1094,130.3206 Q68.375,130.5706 68.375,130.9144 Q68.375,131.2581 68.0313,131.6644 Q67.5313,132.2425 66.7344,132.5706 Q65.6563,133.0238 64.3594,133.0238 Q62.8438,133.0238 61.6406,132.3988 Q60.6563,131.8988 59.9688,130.8363 Q59.2813,129.7581 59.2813,128.4769 L59.2813,127.3206 Q59.2813,125.9925 59.8906,124.8519 Q60.5156,123.6956 61.6094,123.0863 Q62.7031,122.4613 63.9375,122.4613 Q64.6719,122.4613 65.3125,122.6331 Q65.9688,122.7894 66.5156,123.1488 Z " fill="#000000"/><text fill="#000000" font-family="sans-serif" font-size="14" lengthAdjust="spacing" textLength="78" x="97.25" y="126.7132">PlayerModel</text><text fill="#000000" font-family="sans-serif" font-size="10" lengthAdjust="spacing" textLength="104" x="84.25" y="140.1702">medipro.object.player</text><line style="stroke:#181818;stroke-width:0.5;" x1="10" x2="230" y1="147.3675" y2="147.3675"/><polygon fill="none" points="20,157.6722,16,163.6722,24,163.6722" style="stroke:#1963A0;stroke-width:1.0;"/><text fill="#000000" font-family="sans-serif" font-size="14" lengthAdjust="spacing" textLength="98" x="29" y="165.9007">speedX: double</text><ellipse cx="20" cy="179.2816" fill="none" rx="3" ry="3" style="stroke:#038048;stroke-width:1.0;"/><text fill="#000000" font-family="sans-serif" font-size="14" lengthAdjust="spacing" textLength="127" x="29" y="183.5101">speedLimitX: double</text><ellipse cx="20" cy="196.8909" fill="none" rx="3" ry="3" style="stroke:#038048;stroke-width:1.0;"/><text fill="#000000" font-family="sans-serif" font-size="14" lengthAdjust="spacing" textLength="86" x="29" y="201.1195">resitX: double</text><ellipse cx="20" cy="214.5003" fill="none" rx="3" ry="3" style="stroke:#038048;stroke-width:1.0;"/><text fill="#000000" font-family="sans-serif" font-size="14" lengthAdjust="spacing" textLength="81" x="29" y="218.7288">accX: double</text><polygon fill="none" points="20,228.1097,16,234.1097,24,234.1097" style="stroke:#1963A0;stroke-width:1.0;"/><text fill="#000000" font-family="sans-serif" font-size="14" lengthAdjust="spacing" textLength="120" x="29" y="236.3382">spritesIdleIndex: int</text><polygon fill="none" points="20,245.7191,16,251.7191,24,251.7191" style="stroke:#1963A0;stroke-width:1.0;"/><text fill="#000000" font-family="sans-serif" font-size="14" lengthAdjust="spacing" textLength="98" x="29" y="253.9476">spritesIndex: int</text><polygon fill="none" points="20,263.3284,16,269.3284,24,269.3284" style="stroke:#1963A0;stroke-width:1.0;"/><text fill="#000000" font-family="sans-serif" font-size="14" lengthAdjust="spacing" textLength="115" x="29" y="271.557">spritesRange: int[]</text><polygon fill="none" points="20,280.9378,16,286.9378,24,286.9378" style="stroke:#1963A0;stroke-width:1.0;"/><text fill="#000000" font-family="sans-serif" font-size="14" lengthAdjust="spacing" text-decoration="underline" textLength="150" x="29" y="289.1663">changeSpriteTime: float</text><polygon fill="none" points="20,298.5472,16,304.5472,24,304.5472" style="stroke:#1963A0;stroke-width:1.0;"/><text fill="#000000" font-family="sans-serif" font-size="14" lengthAdjust="spacing" textLength="89" x="29" y="306.7757">direction: byte</text><polygon fill="none" points="20,316.1566,16,322.1566,24,322.1566" style="stroke:#1963A0;stroke-width:1.0;"/><text fill="#000000" font-family="sans-serif" font-size="14" lengthAdjust="spacing" textLength="120" x="29" y="324.3851">isWalking: Boolean</text><polygon fill="none" points="20,333.7659,16,339.7659,24,339.7659" style="stroke:#1963A0;stroke-width:1.0;"/><text fill="#000000" font-family="sans-serif" font-size="14" lengthAdjust="spacing" textLength="155" x="29" y="341.9945">changeSpriteTimer: float</text><line style="stroke:#181818;stroke-width:0.5;" x1="10" x2="230" y1="349.0706" y2="349.0706"/><ellipse cx="20" cy="363.3753" fill="#84BE84" rx="3" ry="3" style="stroke:#038048;stroke-width:1.0;"/><text fill="#000000" font-family="sans-serif" font-size="14" lengthAdjust="spacing" textLength="125" x="29" y="367.6038">PlayerModel(World)</text><ellipse cx="20" cy="380.9847" fill="#84BE84" rx="3" ry="3" style="stroke:#038048;stroke-width:1.0;"/><text fill="#000000" font-family="sans-serif" font-size="14" lengthAdjust="spacing" textLength="111" x="29" y="385.2132">moveRight(): void</text><ellipse cx="20" cy="398.5941" fill="#84BE84" rx="3" ry="3" style="stroke:#038048;stroke-width:1.0;"/><text fill="#000000" font-family="sans-serif" font-size="14" lengthAdjust="spacing" textLength="102" x="29" y="402.8226">moveLeft(): void</text><ellipse cx="20" cy="416.2034" fill="#84BE84" rx="3" ry="3" style="stroke:#038048;stroke-width:1.0;"/><text fill="#000000" font-family="sans-serif" font-size="14" lengthAdjust="spacing" textLength="193" x="29" y="420.432">updateAnimation(double): void</text><ellipse cx="20" cy="433.8128" fill="#84BE84" rx="3" ry="3" style="stroke:#038048;stroke-width:1.0;"/><text fill="#000000" font-family="sans-serif" font-size="14" lengthAdjust="spacing" textLength="196" x="29" y="438.0413">updateMovement(double): void</text></g></a><!--class medipro.object.base.gameobject.GameObjectModel--><a href="..\base\gameobject\GameObjectModel.html" target="_top" title="..\base\gameobject\GameObjectModel.html" xlink:actuate="onRequest" xlink:href="..\base\gameobject\GameObjectModel.html" xlink:show="new" xlink:title="..\base\gameobject\GameObjectModel.html" xlink:type="simple"><g id="elem_medipro.object.base.gameobject.GameObjectModel"><rect codeLine="24" fill="#F1F1F1" height="40.1875" id="medipro.object.base.gameobject.GameObjectModel" rx="2.5" ry="2.5" style="stroke:#181818;stroke-width:0.5;" width="182" x="29" y="7"/><ellipse cx="44" cy="27.0938" fill="#A9DCDF" rx="11" ry="11" style="stroke:#181818;stroke-width:1.0;"/><path d="M46.1875,28.8594 L42.0469,28.8594 L41.625,29.8906 L42.0469,29.8906 Q42.6563,29.8906 42.9219,30.125 Q43.1875,30.3594 43.1875,30.75 Q43.1875,31.125 42.9219,31.3594 Q42.6563,31.5938 42.0469,31.5938 L39.75,31.5938 Q39.1406,31.5938 38.8906,31.3594 Q38.625,31.125 38.625,30.7344 Q38.625,30.3594 38.9063,30.125 Q39.1719,29.875 39.7969,29.8906 L42.4688,23.2344 L41.3594,23.2344 Q40.75,23.2344 40.4844,23 Q40.2188,22.7656 40.2188,22.375 Q40.2188,22 40.4844,21.7656 Q40.75,21.5313 41.3594,21.5313 L45.0313,21.5313 L48.4219,29.8906 Q49.0156,29.8906 49.2031,30.0313 Q49.5938,30.2969 49.5938,30.75 Q49.5938,31.125 49.3281,31.3594 Q49.0781,31.5938 48.4688,31.5938 L46.1719,31.5938 Q45.5625,31.5938 45.2969,31.3594 Q45.0313,31.125 45.0313,30.7344 Q45.0313,30.3594 45.2969,30.125 Q45.5625,29.8906 46.1719,29.8906 L46.5938,29.8906 L46.1875,28.8594 Z M45.4688,27.1563 L44.1094,23.7813 L42.7344,27.1563 L45.4688,27.1563 Z " fill="#000000"/><text fill="#000000" font-family="sans-serif" font-size="14" font-style="italic" lengthAdjust="spacing" textLength="118" x="74" y="26.5332">GameObjectModel</text><text fill="#000000" font-family="sans-serif" font-size="10" font-style="italic" lengthAdjust="spacing" textLength="150" x="58" y="39.9902">medipro.object.base.gameobject</text></g></a><!--reverse link medipro.object.base.gameobject.GameObjectModel to medipro.object.player.PlayerModel--><g id="link_medipro.object.base.gameobject.GameObjectModel_medipro.object.player.PlayerModel"><path codeLine="26" d="M120,65.48 C120,79.87 120,83.04 120,106.78 " fill="none" id="medipro.object.base.gameobject.GameObjectModel-backto-medipro.object.player.PlayerModel" style="stroke:#181818;stroke-width:1.0;"/><polygon fill="none" points="120,47.48,114,65.48,126,65.48,120,47.48" style="stroke:#181818;stroke-width:1.0;"/></g><text fill="#888888" font-family="sans-serif" font-size="10" lengthAdjust="spacing" textLength="184" x="20" y="461.4984">UMLDoclet 2.1.1, PlantUML 1.2023.12</text><!--SRC=[bPFTI-D05CNV_IikWj3YEjZ5fo228eZGiekkkD3suMRcjXcTZp1pBTlrusztaeYDQKJCIvZpEvovNCu004HYS6WfbYZfcaeCo3w0yuvs4eP2AmAo9QzXeSces5KjSU6JNElIO8omUnprVyf6HoU_3QufJBmYCtDlwk699QNBu8NFxqYoA6lJBc24NY9QAJ2TjawYO6lcStYiBw- -brWIgRyPAF-G6thNzsjzhAtc7XWezkeevRQQhWYQALugGvTEqRyCjEDj_3cwGhUa6atdx_0nChAMp_0YYufVrzu_sYRdmdXinIWTqdQqTndaQsvDfkCjcdljbXcSUMy8tOPrKqCtTh-rsC6j3qODDypw5LtfPS63OGOhhzL7DAP53tae5JATEcsncdRGBF8JsoJ5M7BSutfkoeLvv82IjrfsaVhxgsxC5qtBCP9O9dTpxgjSno8wsQb_GimgqsnZcdLCRxLiflvc_l7JmS7Npw1vR6bR563XVVMxcOpFlJJfEVyK8p7w0SdkEAcmjw8Gg_qFNm40]--></g></svg>