<?xml version="1.0" encoding="us-ascii" standalone="no"?><svg xmlns="http://www.w3.org/2000/svg" xmlns:xlink="http://www.w3.org/1999/xlink" contentStyleType="text/css" height="303px" preserveAspectRatio="none" style="width:238px;height:303px;background:#FFFFFF;" version="1.1" viewBox="0 0 238 303" width="238px" zoomAndPan="magnify"><defs/><g><!--class medipro.object.player.PlayerView--><a href="PlayerView.html" target="_top" title="PlayerView.html" xlink:actuate="onRequest" xlink:href="PlayerView.html" xlink:show="new" xlink:title="PlayerView.html" xlink:type="simple"><g id="elem_medipro.object.player.PlayerView"><rect codeLine="5" fill="#F1F1F1" height="144.2344" id="medipro.object.player.PlayerView" rx="2.5" ry="2.5" style="stroke:#181818;stroke-width:0.5;" width="222" x="9" y="132.8"/><ellipse cx="63.75" cy="152.8937" fill="#ADD1B2" rx="11" ry="11" style="stroke:#181818;stroke-width:1.0;"/><path d="M66.5156,148.7687 Q66.6719,148.55 66.8594,148.4406 Q67.0469,148.3312 67.2656,148.3312 Q67.6406,148.3312 67.875,148.5969 Q68.1094,148.8469 68.1094,149.4562 L68.1094,150.9094 Q68.1094,151.5187 67.875,151.7844 Q67.6406,152.05 67.2656,152.05 Q66.9219,152.05 66.7188,151.8469 Q66.5156,151.6594 66.4063,151.1437 Q66.3594,150.7844 66.1719,150.5969 Q65.8438,150.2219 65.2344,150.0031 Q64.625,149.7844 64,149.7844 Q63.2344,149.7844 62.5938,150.1125 Q61.9688,150.4406 61.4688,151.1906 Q60.9844,151.9406 60.9844,152.9719 L60.9844,154.0656 Q60.9844,155.3 61.875,156.1281 Q62.7656,156.9406 64.3594,156.9406 Q65.2969,156.9406 65.9531,156.6906 Q66.3438,156.5344 66.7656,156.0969 Q67.0313,155.8312 67.1719,155.7531 Q67.3281,155.675 67.5313,155.675 Q67.8594,155.675 68.1094,155.9406 Q68.375,156.1906 68.375,156.5344 Q68.375,156.8781 68.0313,157.2844 Q67.5313,157.8625 66.7344,158.1906 Q65.6563,158.6437 64.3594,158.6437 Q62.8438,158.6437 61.6406,158.0187 Q60.6563,157.5187 59.9688,156.4562 Q59.2813,155.3781 59.2813,154.0969 L59.2813,152.9406 Q59.2813,151.6125 59.8906,150.4719 Q60.5156,149.3156 61.6094,148.7062 Q62.7031,148.0812 63.9375,148.0812 Q64.6719,148.0812 65.3125,148.2531 Q65.9688,148.4094 66.5156,148.7687 Z " fill="#000000"/><text fill="#000000" font-family="sans-serif" font-size="14" lengthAdjust="spacing" textLength="69" x="101.75" y="152.3332">PlayerView</text><text fill="#000000" font-family="sans-serif" font-size="10" lengthAdjust="spacing" textLength="104" x="84.25" y="165.7902">medipro.object.player</text><line style="stroke:#181818;stroke-width:0.5;" x1="10" x2="230" y1="172.9875" y2="172.9875"/><polygon fill="none" points="20,183.2922,16,189.2922,24,189.2922" style="stroke:#1963A0;stroke-width:1.0;"/><text fill="#000000" font-family="sans-serif" font-size="14" lengthAdjust="spacing" textLength="96" x="29" y="191.5207">sprites: Image[]</text><polygon fill="none" points="20,200.9016,16,206.9016,24,206.9016" style="stroke:#1963A0;stroke-width:1.0;"/><text fill="#000000" font-family="sans-serif" font-size="14" lengthAdjust="spacing" textLength="124" x="29" y="209.1301">SPRITE_WIDTH: int</text><polygon fill="none" points="20,218.5109,16,224.5109,24,224.5109" style="stroke:#1963A0;stroke-width:1.0;"/><text fill="#000000" font-family="sans-serif" font-size="14" lengthAdjust="spacing" textLength="130" x="29" y="226.7395">SPRITE_HEIGHT: int</text><line style="stroke:#181818;stroke-width:0.5;" x1="10" x2="230" y1="233.8156" y2="233.8156"/><ellipse cx="20" cy="248.1203" fill="#84BE84" rx="3" ry="3" style="stroke:#038048;stroke-width:1.0;"/><text fill="#000000" font-family="sans-serif" font-size="14" lengthAdjust="spacing" textLength="196" x="29" y="252.3488">PlayerView(GameObjectModel)</text><ellipse cx="20" cy="265.7297" fill="#84BE84" rx="3" ry="3" style="stroke:#038048;stroke-width:1.0;"/><text fill="#000000" font-family="sans-serif" font-size="14" lengthAdjust="spacing" textLength="149" x="29" y="269.9582">draw(Graphics2D): void</text></g></a><!--class medipro.object.base.gameobject.GameObjectView--><a href="..\base\gameobject\GameObjectView.html" target="_top" title="..\base\gameobject\GameObjectView.html" xlink:actuate="onRequest" xlink:href="..\base\gameobject\GameObjectView.html" xlink:show="new" xlink:title="..\base\gameobject\GameObjectView.html" xlink:type="simple"><g id="elem_medipro.object.base.gameobject.GameObjectView"><rect codeLine="13" fill="#F1F1F1" height="65.7969" id="medipro.object.base.gameobject.GameObjectView" rx="2.5" ry="2.5" style="stroke:#181818;stroke-width:0.5;" width="182" x="29" y="7"/><ellipse cx="44" cy="27.0938" fill="#A9DCDF" rx="11" ry="11" style="stroke:#181818;stroke-width:1.0;"/><path d="M46.1875,28.8594 L42.0469,28.8594 L41.625,29.8906 L42.0469,29.8906 Q42.6563,29.8906 42.9219,30.125 Q43.1875,30.3594 43.1875,30.75 Q43.1875,31.125 42.9219,31.3594 Q42.6563,31.5938 42.0469,31.5938 L39.75,31.5938 Q39.1406,31.5938 38.8906,31.3594 Q38.625,31.125 38.625,30.7344 Q38.625,30.3594 38.9063,30.125 Q39.1719,29.875 39.7969,29.8906 L42.4688,23.2344 L41.3594,23.2344 Q40.75,23.2344 40.4844,23 Q40.2188,22.7656 40.2188,22.375 Q40.2188,22 40.4844,21.7656 Q40.75,21.5313 41.3594,21.5313 L45.0313,21.5313 L48.4219,29.8906 Q49.0156,29.8906 49.2031,30.0313 Q49.5938,30.2969 49.5938,30.75 Q49.5938,31.125 49.3281,31.3594 Q49.0781,31.5938 48.4688,31.5938 L46.1719,31.5938 Q45.5625,31.5938 45.2969,31.3594 Q45.0313,31.125 45.0313,30.7344 Q45.0313,30.3594 45.2969,30.125 Q45.5625,29.8906 46.1719,29.8906 L46.5938,29.8906 L46.1875,28.8594 Z M45.4688,27.1563 L44.1094,23.7813 L42.7344,27.1563 L45.4688,27.1563 Z " fill="#000000"/><text fill="#000000" font-family="sans-serif" font-size="14" font-style="italic" lengthAdjust="spacing" textLength="108" x="79" y="26.5332">GameObjectView</text><text fill="#000000" font-family="sans-serif" font-size="10" font-style="italic" lengthAdjust="spacing" textLength="150" x="58" y="39.9902">medipro.object.base.gameobject</text><line style="stroke:#181818;stroke-width:0.5;" x1="30" x2="210" y1="47.1875" y2="47.1875"/><polygon fill="#FFFF44" points="40,56.4922,44,60.4922,40,64.4922,36,60.4922" style="stroke:#B38D22;stroke-width:1.0;"/><text fill="#000000" font-family="sans-serif" font-size="14" font-style="italic" lengthAdjust="spacing" textLength="148" x="49" y="65.7207">draw(Graphics2D): void</text></g></a><!--reverse link medipro.object.base.gameobject.GameObjectView to medipro.object.player.PlayerView--><g id="link_medipro.object.base.gameobject.GameObjectView_medipro.object.player.PlayerView"><path codeLine="17" d="M120,91.1 C120,108.08 120,111.64 120,132.32 " fill="none" id="medipro.object.base.gameobject.GameObjectView-backto-medipro.object.player.PlayerView" style="stroke:#181818;stroke-width:1.0;"/><polygon fill="none" points="120,73.1,114,91.1,126,91.1,120,73.1" style="stroke:#181818;stroke-width:1.0;"/></g><text fill="#888888" font-family="sans-serif" font-size="10" lengthAdjust="spacing" textLength="184" x="20" y="293.4152">UMLDoclet 2.1.1, PlantUML 1.2023.12</text><!--SRC=[bP9FQm8n4CNl_HI3fQ2qXYezBU99SHSgbMhRWoibkpkwARj9o0IBjVQpDwujmJzKcal8Upzc9Yy1022q87c9f7cAOzJSSAiCI2NnmjcGYmm1IsrNC1TOP7IebcXpvUHAJmjE1BKEYGyCMdVTKS5NQ9u5liVoHxpjbfW9RHHJoHkcbkcAgG4dEEamNmIcKtzWkIsBsGpMLUVj-Y9jX4KA82hv0gSpxun7Zz6a__eIzIPX04BQ8oliHuDmikzT-sxrWGlfePfhg38i6XxA37UsuJeNARLxZG2MIcILlzd5mXEoXgVsA1zVzE-C4ax85WxUdK-5TO2m_T8kESRYBHDx9jvdZWDT_mw-WSlpj_pVG9tFPlFiW-y-5KgB1kPARRUduNrFfONxjctMOgqRSBIqJeMh9HeIIjORtm00]--></g></svg>