<?xml version="1.0" encoding="us-ascii" standalone="no"?><svg xmlns="http://www.w3.org/2000/svg" xmlns:xlink="http://www.w3.org/1999/xlink" contentStyleType="text/css" height="356px" preserveAspectRatio="none" style="width:542px;height:356px;background:#FFFFFF;" version="1.1" viewBox="0 0 542 356" width="542px" zoomAndPan="magnify"><defs/><g><!--class medipro.object.player.PlayerController--><a href="PlayerController.html" target="_top" title="PlayerController.html" xlink:actuate="onRequest" xlink:href="PlayerController.html" xlink:show="new" xlink:title="PlayerController.html" xlink:type="simple"><g id="elem_medipro.object.player.PlayerController"><rect codeLine="5" fill="#F1F1F1" height="161.8438" id="medipro.object.player.PlayerController" rx="2.5" ry="2.5" style="stroke:#181818;stroke-width:0.5;" width="282" x="148" y="168.02"/><ellipse cx="232.75" cy="188.1138" fill="#ADD1B2" rx="11" ry="11" style="stroke:#181818;stroke-width:1.0;"/><path d="M235.5156,183.9888 Q235.6719,183.77 235.8594,183.6606 Q236.0469,183.5513 236.2656,183.5513 Q236.6406,183.5513 236.875,183.8169 Q237.1094,184.0669 237.1094,184.6763 L237.1094,186.1294 Q237.1094,186.7388 236.875,187.0044 Q236.6406,187.27 236.2656,187.27 Q235.9219,187.27 235.7188,187.0669 Q235.5156,186.8794 235.4063,186.3638 Q235.3594,186.0044 235.1719,185.8169 Q234.8438,185.4419 234.2344,185.2231 Q233.625,185.0044 233,185.0044 Q232.2344,185.0044 231.5938,185.3325 Q230.9688,185.6606 230.4688,186.4106 Q229.9844,187.1606 229.9844,188.1919 L229.9844,189.2856 Q229.9844,190.52 230.875,191.3481 Q231.7656,192.1606 233.3594,192.1606 Q234.2969,192.1606 234.9531,191.9106 Q235.3438,191.7544 235.7656,191.3169 Q236.0313,191.0513 236.1719,190.9731 Q236.3281,190.895 236.5313,190.895 Q236.8594,190.895 237.1094,191.1606 Q237.375,191.4106 237.375,191.7544 Q237.375,192.0981 237.0313,192.5044 Q236.5313,193.0825 235.7344,193.4106 Q234.6563,193.8638 233.3594,193.8638 Q231.8438,193.8638 230.6406,193.2388 Q229.6563,192.7388 228.9688,191.6763 Q228.2813,190.5981 228.2813,189.3169 L228.2813,188.1606 Q228.2813,186.8325 228.8906,185.6919 Q229.5156,184.5356 230.6094,183.9263 Q231.7031,183.3013 232.9375,183.3013 Q233.6719,183.3013 234.3125,183.4731 Q234.9688,183.6294 235.5156,183.9888 Z " fill="#000000"/><text fill="#000000" font-family="sans-serif" font-size="14" lengthAdjust="spacing" textLength="102" x="254.25" y="187.5532">PlayerController</text><text fill="#000000" font-family="sans-serif" font-size="10" lengthAdjust="spacing" textLength="104" x="253.25" y="201.0102">medipro.object.player</text><line style="stroke:#181818;stroke-width:0.5;" x1="149" x2="429" y1="208.2075" y2="208.2075"/><polygon fill="none" points="159,218.5122,155,224.5122,163,224.5122" style="stroke:#1963A0;stroke-width:1.0;"/><text fill="#000000" font-family="sans-serif" font-size="14" lengthAdjust="spacing" textLength="98" x="168" y="226.7407">keyStateX: byte</text><line style="stroke:#181818;stroke-width:0.5;" x1="149" x2="429" y1="233.8169" y2="233.8169"/><ellipse cx="159" cy="248.1216" fill="#84BE84" rx="3" ry="3" style="stroke:#038048;stroke-width:1.0;"/><text fill="#000000" font-family="sans-serif" font-size="14" lengthAdjust="spacing" textLength="241" x="168" y="252.3501">PlayerController(GameObjectModel...)</text><ellipse cx="159" cy="265.7309" fill="#84BE84" rx="3" ry="3" style="stroke:#038048;stroke-width:1.0;"/><text fill="#000000" font-family="sans-serif" font-size="14" lengthAdjust="spacing" textLength="178" x="168" y="269.9595">keyPressed(KeyEvent): void</text><ellipse cx="159" cy="283.3403" fill="#84BE84" rx="3" ry="3" style="stroke:#038048;stroke-width:1.0;"/><text fill="#000000" font-family="sans-serif" font-size="14" lengthAdjust="spacing" textLength="166" x="168" y="287.5688">keyTyped(KeyEvent): void</text><ellipse cx="159" cy="300.9497" fill="#84BE84" rx="3" ry="3" style="stroke:#038048;stroke-width:1.0;"/><text fill="#000000" font-family="sans-serif" font-size="14" lengthAdjust="spacing" textLength="186" x="168" y="305.1782">keyReleased(KeyEvent): void</text><ellipse cx="159" cy="318.5591" fill="#84BE84" rx="3" ry="3" style="stroke:#038048;stroke-width:1.0;"/><text fill="#000000" font-family="sans-serif" font-size="14" lengthAdjust="spacing" textLength="256" x="168" y="322.7876">update(GameObjectModel, double): void</text></g></a><!--class medipro.object.base.gameobject.GameObjectController--><a href="..\base\gameobject\GameObjectController.html" target="_top" title="..\base\gameobject\GameObjectController.html" xlink:actuate="onRequest" xlink:href="..\base\gameobject\GameObjectController.html" xlink:show="new" xlink:title="..\base\gameobject\GameObjectController.html" xlink:type="simple"><g id="elem_medipro.object.base.gameobject.GameObjectController"><rect codeLine="14" fill="#F1F1F1" height="65.7969" id="medipro.object.base.gameobject.GameObjectController" rx="2.5" ry="2.5" style="stroke:#181818;stroke-width:0.5;" width="282" x="7" y="24.61"/><ellipse cx="68.75" cy="44.7038" fill="#A9DCDF" rx="11" ry="11" style="stroke:#181818;stroke-width:1.0;"/><path d="M70.9375,46.4694 L66.7969,46.4694 L66.375,47.5006 L66.7969,47.5006 Q67.4063,47.5006 67.6719,47.735 Q67.9375,47.9694 67.9375,48.36 Q67.9375,48.735 67.6719,48.9694 Q67.4063,49.2038 66.7969,49.2038 L64.5,49.2038 Q63.8906,49.2038 63.6406,48.9694 Q63.375,48.735 63.375,48.3444 Q63.375,47.9694 63.6563,47.735 Q63.9219,47.485 64.5469,47.5006 L67.2188,40.8444 L66.1094,40.8444 Q65.5,40.8444 65.2344,40.61 Q64.9688,40.3756 64.9688,39.985 Q64.9688,39.61 65.2344,39.3756 Q65.5,39.1413 66.1094,39.1413 L69.7813,39.1413 L73.1719,47.5006 Q73.7656,47.5006 73.9531,47.6413 Q74.3438,47.9069 74.3438,48.36 Q74.3438,48.735 74.0781,48.9694 Q73.8281,49.2038 73.2188,49.2038 L70.9219,49.2038 Q70.3125,49.2038 70.0469,48.9694 Q69.7813,48.735 69.7813,48.3444 Q69.7813,47.9694 70.0469,47.735 Q70.3125,47.5006 70.9219,47.5006 L71.3438,47.5006 L70.9375,46.4694 Z M70.2188,44.7663 L68.8594,41.3913 L67.4844,44.7663 L70.2188,44.7663 Z " fill="#000000"/><text fill="#000000" font-family="sans-serif" font-size="14" font-style="italic" lengthAdjust="spacing" textLength="141" x="93.75" y="44.1432">GameObjectController</text><text fill="#000000" font-family="sans-serif" font-size="10" font-style="italic" lengthAdjust="spacing" textLength="150" x="89.25" y="57.6002">medipro.object.base.gameobject</text><line style="stroke:#181818;stroke-width:0.5;" x1="8" x2="288" y1="64.7975" y2="64.7975"/><ellipse cx="18" cy="79.1022" fill="#84BE84" rx="3" ry="3" style="stroke:#038048;stroke-width:1.0;"/><text fill="#000000" font-family="sans-serif" font-size="14" font-style="italic" lengthAdjust="spacing" textLength="256" x="27" y="83.3307">update(GameObjectModel, double): void</text></g></a><!--class java.awt.event.KeyListener--><g id="elem_java.awt.event.KeyListener"><rect codeLine="17" fill="#F1F1F1" height="101.0156" id="java.awt.event.KeyListener" rx="2.5" ry="2.5" style="stroke:#181818;stroke-width:0.5;" width="211" x="324.5" y="7"/><ellipse cx="388.25" cy="27.0938" fill="#B4A7E5" rx="11" ry="11" style="stroke:#181818;stroke-width:1.0;"/><path d="M389.2031,23.7344 L389.2031,30.3906 L390.9219,30.3906 Q391.5313,30.3906 391.7969,30.625 Q392.0625,30.8594 392.0625,31.25 Q392.0625,31.625 391.7969,31.8594 Q391.5313,32.0938 390.9219,32.0938 L385.7813,32.0938 Q385.1719,32.0938 384.9063,31.8594 Q384.6406,31.625 384.6406,31.2344 Q384.6406,30.8594 384.9063,30.625 Q385.1719,30.3906 385.7813,30.3906 L387.5,30.3906 L387.5,23.7344 L385.7813,23.7344 Q385.1719,23.7344 384.9063,23.5 Q384.6406,23.2656 384.6406,22.875 Q384.6406,22.5 384.9063,22.2656 Q385.1719,22.0313 385.7813,22.0313 L390.9219,22.0313 Q391.5313,22.0313 391.7969,22.2656 Q392.0625,22.5 392.0625,22.875 Q392.0625,23.2656 391.7969,23.5 Q391.5313,23.7344 390.9219,23.7344 L389.2031,23.7344 Z " fill="#000000"/><text fill="#000000" font-family="sans-serif" font-size="14" font-style="italic" lengthAdjust="spacing" textLength="75" x="408.75" y="26.5332">KeyListener</text><text fill="#000000" font-family="sans-serif" font-size="10" font-style="italic" lengthAdjust="spacing" textLength="68" x="412.25" y="39.9902">java.awt.event</text><line style="stroke:#181818;stroke-width:0.5;" x1="325.5" x2="534.5" y1="47.1875" y2="47.1875"/><ellipse cx="335.5" cy="61.4922" fill="#84BE84" rx="3" ry="3" style="stroke:#038048;stroke-width:1.0;"/><text fill="#000000" font-family="sans-serif" font-size="14" font-style="italic" lengthAdjust="spacing" textLength="165" x="344.5" y="65.7207">keyTyped(KeyEvent): void</text><ellipse cx="335.5" cy="79.1016" fill="#84BE84" rx="3" ry="3" style="stroke:#038048;stroke-width:1.0;"/><text fill="#000000" font-family="sans-serif" font-size="14" font-style="italic" lengthAdjust="spacing" textLength="177" x="344.5" y="83.3301">keyPressed(KeyEvent): void</text><ellipse cx="335.5" cy="96.7109" fill="#84BE84" rx="3" ry="3" style="stroke:#038048;stroke-width:1.0;"/><text fill="#000000" font-family="sans-serif" font-size="14" font-style="italic" lengthAdjust="spacing" textLength="185" x="344.5" y="100.9395">keyReleased(KeyEvent): void</text></g><!--reverse link medipro.object.base.gameobject.GameObjectController to medipro.object.player.PlayerController--><g id="link_medipro.object.base.gameobject.GameObjectController_medipro.object.player.PlayerController"><path codeLine="23" d="M182.6655,105.0807 C198.4555,126.3007 209.15,140.66 229.36,167.82 " fill="none" id="medipro.object.base.gameobject.GameObjectController-backto-medipro.object.player.PlayerController" style="stroke:#181818;stroke-width:1.0;"/><polygon fill="none" points="171.92,90.64,177.8519,108.6626,187.4791,101.4989,171.92,90.64" style="stroke:#181818;stroke-width:1.0;"/></g><!--reverse link java.awt.event.KeyListener to medipro.object.player.PlayerController--><g id="link_java.awt.event.KeyListener_medipro.object.player.PlayerController"><path codeLine="24" d="M382.2059,122.7218 C368.6659,140.9218 363.72,147.55 348.7,167.73 " fill="none" id="java.awt.event.KeyListener-backto-medipro.object.player.PlayerController" style="stroke:#181818;stroke-width:1.0;stroke-dasharray:7.0,7.0;"/><polygon fill="none" points="392.95,108.28,377.392,119.1404,387.0199,126.3031,392.95,108.28" style="stroke:#181818;stroke-width:1.0;"/></g><text fill="#888888" font-family="sans-serif" font-size="10" lengthAdjust="spacing" textLength="184" x="172.25" y="346.2446">UMLDoclet 2.1.1, PlantUML 1.2023.12</text><!--SRC=[dLHDJy904BtxAoOa9X1X8iOJ8LpKU10Y4KrCWCEs7QIutMrs1qm5_Erk2meKvCCUslJDcw_tjWK0iCIWH4Gs5ZvrA1P6i3QWjA8p5uPX611G57C2Wv1aOFDeH3pK3ivmNmfheL2tuIVLgjUDjXG9cHkjs6WfoVJKCdJPY2W8OwDHUoFo6UECMG1XOMS4ywMWsyr3EEH8zlimpMP9hwztIZeic5vhu2LClu6BV6xntedmc7LiwO0a8fPMR5UcRSXQ2eeFbDnDI76f1XCT1XkSvoG-m7WYIM9lcN4Sk7dpuvGXq6DFqZfzlj1SU9QDy7bB_5M9Ompmt5Zuvb8MxxkSo55mLmDd2s8lPVPMpDukvhPRqvzLvgV9aDv3nMG6xWol2U0qReQMIMtiFH8JWUA3aLBzipqt8LpB-sEwWrxdo8SEJuw-zvGiRV-FD_LPfNBavvNrsADBVOPuIYcVKeDWe7NwU6arRxKltR_d2gjOBOFBKUnGE9-GiQ5MnT8t]--></g></svg>