<?xml version="1.0" encoding="us-ascii" standalone="no"?><svg xmlns="http://www.w3.org/2000/svg" xmlns:xlink="http://www.w3.org/1999/xlink" contentStyleType="text/css" height="313px" preserveAspectRatio="none" style="width:281px;height:313px;background:#FFFFFF;" version="1.1" viewBox="0 0 281 313" width="281px" zoomAndPan="magnify"><defs/><g><!--class medipro.object.base.camera.CameraModel--><a href="CameraModel.html" target="_top" title="CameraModel.html" xlink:actuate="onRequest" xlink:href="CameraModel.html" xlink:show="new" xlink:title="CameraModel.html" xlink:type="simple"><g id="elem_medipro.object.base.camera.CameraModel"><rect codeLine="5" fill="#F1F1F1" height="179.4531" id="medipro.object.base.camera.CameraModel" rx="2.5" ry="2.5" style="stroke:#181818;stroke-width:0.5;" width="267" x="7" y="107.19"/><ellipse cx="68.25" cy="127.2838" fill="#ADD1B2" rx="11" ry="11" style="stroke:#181818;stroke-width:1.0;"/><path d="M71.0156,123.1588 Q71.1719,122.94 71.3594,122.8306 Q71.5469,122.7213 71.7656,122.7213 Q72.1406,122.7213 72.375,122.9869 Q72.6094,123.2369 72.6094,123.8463 L72.6094,125.2994 Q72.6094,125.9088 72.375,126.1744 Q72.1406,126.44 71.7656,126.44 Q71.4219,126.44 71.2188,126.2369 Q71.0156,126.0494 70.9063,125.5338 Q70.8594,125.1744 70.6719,124.9869 Q70.3438,124.6119 69.7344,124.3931 Q69.125,124.1744 68.5,124.1744 Q67.7344,124.1744 67.0938,124.5025 Q66.4688,124.8306 65.9688,125.5806 Q65.4844,126.3306 65.4844,127.3619 L65.4844,128.4556 Q65.4844,129.69 66.375,130.5181 Q67.2656,131.3306 68.8594,131.3306 Q69.7969,131.3306 70.4531,131.0806 Q70.8438,130.9244 71.2656,130.4869 Q71.5313,130.2213 71.6719,130.1431 Q71.8281,130.065 72.0313,130.065 Q72.3594,130.065 72.6094,130.3306 Q72.875,130.5806 72.875,130.9244 Q72.875,131.2681 72.5313,131.6744 Q72.0313,132.2525 71.2344,132.5806 Q70.1563,133.0338 68.8594,133.0338 Q67.3438,133.0338 66.1406,132.4088 Q65.1563,131.9088 64.4688,130.8463 Q63.7813,129.7681 63.7813,128.4869 L63.7813,127.3306 Q63.7813,126.0025 64.3906,124.8619 Q65.0156,123.7056 66.1094,123.0963 Q67.2031,122.4713 68.4375,122.4713 Q69.1719,122.4713 69.8125,122.6431 Q70.4688,122.7994 71.0156,123.1588 Z " fill="#000000"/><text fill="#000000" font-family="sans-serif" font-size="14" lengthAdjust="spacing" textLength="88" x="112.75" y="126.7232">CameraModel</text><text fill="#000000" font-family="sans-serif" font-size="10" lengthAdjust="spacing" textLength="136" x="88.75" y="140.1802">medipro.object.base.camera</text><line style="stroke:#181818;stroke-width:0.5;" x1="8" x2="273" y1="147.3775" y2="147.3775"/><ellipse cx="18" cy="161.6822" fill="none" rx="3" ry="3" style="stroke:#038048;stroke-width:1.0;"/><text fill="#000000" font-family="sans-serif" font-size="14" lengthAdjust="spacing" textLength="84" x="27" y="165.9107">scale: double</text><rect fill="none" height="6" style="stroke:#C82930;stroke-width:1.0;" width="6" x="15" y="176.2916"/><text fill="#000000" font-family="sans-serif" font-size="14" lengthAdjust="spacing" textLength="47" x="27" y="183.5201">ubo: int</text><line style="stroke:#181818;stroke-width:0.5;" x1="8" x2="273" y1="190.5963" y2="190.5963"/><ellipse cx="18" cy="204.9009" fill="#84BE84" rx="3" ry="3" style="stroke:#038048;stroke-width:1.0;"/><text fill="#000000" font-family="sans-serif" font-size="14" lengthAdjust="spacing" textLength="135" x="27" y="209.1295">CameraModel(World)</text><ellipse cx="18" cy="222.5103" fill="#84BE84" rx="3" ry="3" style="stroke:#038048;stroke-width:1.0;"/><text fill="#000000" font-family="sans-serif" font-size="14" lengthAdjust="spacing" textLength="241" x="27" y="226.7388">getTransformMatrix(): AffineTransform</text><ellipse cx="18" cy="240.1197" fill="#84BE84" rx="3" ry="3" style="stroke:#038048;stroke-width:1.0;"/><text fill="#000000" font-family="sans-serif" font-size="14" lengthAdjust="spacing" textLength="162" x="27" y="244.3482">getVisibleArea(): Double[]</text><ellipse cx="18" cy="257.7291" fill="#84BE84" rx="3" ry="3" style="stroke:#038048;stroke-width:1.0;"/><text fill="#000000" font-family="sans-serif" font-size="14" lengthAdjust="spacing" textLength="82" x="27" y="261.9576">getUBO(): int</text><ellipse cx="18" cy="275.3384" fill="#84BE84" rx="3" ry="3" style="stroke:#038048;stroke-width:1.0;"/><text fill="#000000" font-family="sans-serif" font-size="14" lengthAdjust="spacing" textLength="107" x="27" y="279.567">setUBO(int): void</text></g></a><!--class medipro.object.base.gameobject.GameObjectModel--><a href="..\gameobject\GameObjectModel.html" target="_top" title="..\gameobject\GameObjectModel.html" xlink:actuate="onRequest" xlink:href="..\gameobject\GameObjectModel.html" xlink:show="new" xlink:title="..\gameobject\GameObjectModel.html" xlink:type="simple"><g id="elem_medipro.object.base.gameobject.GameObjectModel"><rect codeLine="15" fill="#F1F1F1" height="40.1875" id="medipro.object.base.gameobject.GameObjectModel" rx="2.5" ry="2.5" style="stroke:#181818;stroke-width:0.5;" width="182" x="49.5" y="7"/><ellipse cx="64.5" cy="27.0938" fill="#A9DCDF" rx="11" ry="11" style="stroke:#181818;stroke-width:1.0;"/><path d="M66.6875,28.8594 L62.5469,28.8594 L62.125,29.8906 L62.5469,29.8906 Q63.1563,29.8906 63.4219,30.125 Q63.6875,30.3594 63.6875,30.75 Q63.6875,31.125 63.4219,31.3594 Q63.1563,31.5938 62.5469,31.5938 L60.25,31.5938 Q59.6406,31.5938 59.3906,31.3594 Q59.125,31.125 59.125,30.7344 Q59.125,30.3594 59.4063,30.125 Q59.6719,29.875 60.2969,29.8906 L62.9688,23.2344 L61.8594,23.2344 Q61.25,23.2344 60.9844,23 Q60.7188,22.7656 60.7188,22.375 Q60.7188,22 60.9844,21.7656 Q61.25,21.5313 61.8594,21.5313 L65.5313,21.5313 L68.9219,29.8906 Q69.5156,29.8906 69.7031,30.0313 Q70.0938,30.2969 70.0938,30.75 Q70.0938,31.125 69.8281,31.3594 Q69.5781,31.5938 68.9688,31.5938 L66.6719,31.5938 Q66.0625,31.5938 65.7969,31.3594 Q65.5313,31.125 65.5313,30.7344 Q65.5313,30.3594 65.7969,30.125 Q66.0625,29.8906 66.6719,29.8906 L67.0938,29.8906 L66.6875,28.8594 Z M65.9688,27.1563 L64.6094,23.7813 L63.2344,27.1563 L65.9688,27.1563 Z " fill="#000000"/><text fill="#000000" font-family="sans-serif" font-size="14" font-style="italic" lengthAdjust="spacing" textLength="118" x="94.5" y="26.5332">GameObjectModel</text><text fill="#000000" font-family="sans-serif" font-size="10" font-style="italic" lengthAdjust="spacing" textLength="150" x="78.5" y="39.9902">medipro.object.base.gameobject</text></g></a><!--reverse link medipro.object.base.gameobject.GameObjectModel to medipro.object.base.camera.CameraModel--><g id="link_medipro.object.base.gameobject.GameObjectModel_medipro.object.base.camera.CameraModel"><path codeLine="17" d="M140.5,65.67 C140.5,80.72 140.5,84.66 140.5,107.07 " fill="none" id="medipro.object.base.gameobject.GameObjectModel-backto-medipro.object.base.camera.CameraModel" style="stroke:#181818;stroke-width:1.0;"/><polygon fill="none" points="140.5,47.67,134.5,65.67,146.5,65.67,140.5,47.67" style="stroke:#181818;stroke-width:1.0;"/></g><text fill="#888888" font-family="sans-serif" font-size="10" lengthAdjust="spacing" textLength="184" x="41.5" y="303.024">UMLDoclet 2.1.1, PlantUML 1.2023.12</text><!--SRC=[bP9FQm8n4CNl_HI3K51QGoqzBIBO2hrKBBIsXzN3x6PMKxAP9OdIlz-zsLrnrIBON4BUx_4ol0G0m947Wpcv0bDweW8jUhPWsD1PmB1Kae3omdz0faXBTwZcv9SSv4fFDJe7hRvJdnJrRWPt8TdYc2NfcTceLuESf2ei2qxUAFKYGKSYhPmjG0V7iTZ9WpZUEOcbp_Ly3b_L6EMwS2bgYa3oAj6qbRkhX2DGnZV6dPZsArijEmrRa7-sQ5p6DX-Zj-gztObWc6NAq1RisL-KK-72eIKihQFg-dY-vvdUJagsDuMhvQ05icObA_HJzug9ynPJ_wVW-p3xfEhfb98NmLsVZnRTMCH1TYXSY5d3PmTyymJrmF-CxdztkoU-U_tFo7Yoa36NstJyCE9KXvzyBNgYTmcF6eqFAfoloJh5fjtv1G00]--></g></svg>