<?xml version="1.0" encoding="us-ascii" standalone="no"?><svg xmlns="http://www.w3.org/2000/svg" xmlns:xlink="http://www.w3.org/1999/xlink" contentStyleType="text/css" height="330px" preserveAspectRatio="none" style="width:337px;height:330px;background:#FFFFFF;" version="1.1" viewBox="0 0 337 330" width="337px" zoomAndPan="magnify"><defs/><g><!--class medipro.object.base.camera.CameraView--><a href="CameraView.html" target="_top" title="CameraView.html" xlink:actuate="onRequest" xlink:href="CameraView.html" xlink:show="new" xlink:title="CameraView.html" xlink:type="simple"><g id="elem_medipro.object.base.camera.CameraView"><rect codeLine="5" fill="#F1F1F1" height="171.4531" id="medipro.object.base.camera.CameraView" rx="2.5" ry="2.5" style="stroke:#181818;stroke-width:0.5;" width="321" x="9" y="132.8"/><ellipse cx="97.25" cy="152.8938" fill="#ADD1B2" rx="11" ry="11" style="stroke:#181818;stroke-width:1.0;"/><path d="M100.0156,148.7688 Q100.1719,148.55 100.3594,148.4406 Q100.5469,148.3313 100.7656,148.3313 Q101.1406,148.3313 101.375,148.5969 Q101.6094,148.8469 101.6094,149.4563 L101.6094,150.9094 Q101.6094,151.5188 101.375,151.7844 Q101.1406,152.05 100.7656,152.05 Q100.4219,152.05 100.2188,151.8469 Q100.0156,151.6594 99.9063,151.1438 Q99.8594,150.7844 99.6719,150.5969 Q99.3438,150.2219 98.7344,150.0031 Q98.125,149.7844 97.5,149.7844 Q96.7344,149.7844 96.0938,150.1125 Q95.4688,150.4406 94.9688,151.1906 Q94.4844,151.9406 94.4844,152.9719 L94.4844,154.0656 Q94.4844,155.3 95.375,156.1281 Q96.2656,156.9406 97.8594,156.9406 Q98.7969,156.9406 99.4531,156.6906 Q99.8438,156.5344 100.2656,156.0969 Q100.5313,155.8313 100.6719,155.7531 Q100.8281,155.675 101.0313,155.675 Q101.3594,155.675 101.6094,155.9406 Q101.875,156.1906 101.875,156.5344 Q101.875,156.8781 101.5313,157.2844 Q101.0313,157.8625 100.2344,158.1906 Q99.1563,158.6438 97.8594,158.6438 Q96.3438,158.6438 95.1406,158.0188 Q94.1563,157.5188 93.4688,156.4563 Q92.7813,155.3781 92.7813,154.0969 L92.7813,152.9406 Q92.7813,151.6125 93.3906,150.4719 Q94.0156,149.3156 95.1094,148.7063 Q96.2031,148.0813 97.4375,148.0813 Q98.1719,148.0813 98.8125,148.2531 Q99.4688,148.4094 100.0156,148.7688 Z " fill="#000000"/><text fill="#000000" font-family="sans-serif" font-size="14" lengthAdjust="spacing" textLength="79" x="146.25" y="152.3332">CameraView</text><text fill="#000000" font-family="sans-serif" font-size="10" lengthAdjust="spacing" textLength="136" x="117.75" y="165.7902">medipro.object.base.camera</text><line style="stroke:#181818;stroke-width:0.5;" x1="10" x2="329" y1="172.9875" y2="172.9875"/><ellipse cx="20" cy="187.2922" fill="#84BE84" rx="3" ry="3" style="stroke:#038048;stroke-width:1.0;"/><text fill="#000000" font-family="sans-serif" font-size="14" lengthAdjust="spacing" textLength="177" x="29" y="191.5207">CameraView(CameraModel)</text><ellipse cx="20" cy="204.9016" fill="#84BE84" rx="3" ry="3" style="stroke:#038048;stroke-width:1.0;"/><text fill="#000000" font-family="sans-serif" font-size="14" lengthAdjust="spacing" textLength="149" x="29" y="209.1301">draw(Graphics2D): void</text><polygon fill="#FFFF44" points="20,217.5109,24,221.5109,20,225.5109,16,221.5109" style="stroke:#B38D22;stroke-width:1.0;"/><text fill="#000000" font-family="sans-serif" font-size="14" lengthAdjust="spacing" textLength="214" x="29" y="226.7395">initBuffers(GLAutoDrawable): void</text><ellipse cx="20" cy="240.1203" fill="#84BE84" rx="3" ry="3" style="stroke:#038048;stroke-width:1.0;"/><text fill="#000000" font-family="sans-serif" font-size="14" lengthAdjust="spacing" textLength="195" x="29" y="244.3488">display(GLAutoDrawable): void</text><ellipse cx="20" cy="257.7297" fill="#84BE84" rx="3" ry="3" style="stroke:#038048;stroke-width:1.0;"/><text fill="#000000" font-family="sans-serif" font-size="14" lengthAdjust="spacing" textLength="200" x="29" y="261.9582">dispose(GLAutoDrawable): void</text><ellipse cx="20" cy="275.3391" fill="#84BE84" rx="3" ry="3" style="stroke:#038048;stroke-width:1.0;"/><text fill="#000000" font-family="sans-serif" font-size="14" lengthAdjust="spacing" textLength="169" x="29" y="279.5676">init(GLAutoDrawable): void</text><ellipse cx="20" cy="292.9484" fill="#84BE84" rx="3" ry="3" style="stroke:#038048;stroke-width:1.0;"/><text fill="#000000" font-family="sans-serif" font-size="14" lengthAdjust="spacing" textLength="295" x="29" y="297.177">reshape(GLAutoDrawable, int, int, int, int): void</text></g></a><!--class medipro.object.base.gameobject.GameObjectView--><a href="..\gameobject\GameObjectView.html" target="_top" title="..\gameobject\GameObjectView.html" xlink:actuate="onRequest" xlink:href="..\gameobject\GameObjectView.html" xlink:show="new" xlink:title="..\gameobject\GameObjectView.html" xlink:type="simple"><g id="elem_medipro.object.base.gameobject.GameObjectView"><rect codeLine="15" fill="#F1F1F1" height="65.7969" id="medipro.object.base.gameobject.GameObjectView" rx="2.5" ry="2.5" style="stroke:#181818;stroke-width:0.5;" width="182" x="78.5" y="7"/><ellipse cx="93.5" cy="27.0938" fill="#A9DCDF" rx="11" ry="11" style="stroke:#181818;stroke-width:1.0;"/><path d="M95.6875,28.8594 L91.5469,28.8594 L91.125,29.8906 L91.5469,29.8906 Q92.1563,29.8906 92.4219,30.125 Q92.6875,30.3594 92.6875,30.75 Q92.6875,31.125 92.4219,31.3594 Q92.1563,31.5938 91.5469,31.5938 L89.25,31.5938 Q88.6406,31.5938 88.3906,31.3594 Q88.125,31.125 88.125,30.7344 Q88.125,30.3594 88.4063,30.125 Q88.6719,29.875 89.2969,29.8906 L91.9688,23.2344 L90.8594,23.2344 Q90.25,23.2344 89.9844,23 Q89.7188,22.7656 89.7188,22.375 Q89.7188,22 89.9844,21.7656 Q90.25,21.5313 90.8594,21.5313 L94.5313,21.5313 L97.9219,29.8906 Q98.5156,29.8906 98.7031,30.0313 Q99.0938,30.2969 99.0938,30.75 Q99.0938,31.125 98.8281,31.3594 Q98.5781,31.5938 97.9688,31.5938 L95.6719,31.5938 Q95.0625,31.5938 94.7969,31.3594 Q94.5313,31.125 94.5313,30.7344 Q94.5313,30.3594 94.7969,30.125 Q95.0625,29.8906 95.6719,29.8906 L96.0938,29.8906 L95.6875,28.8594 Z M94.9688,27.1563 L93.6094,23.7813 L92.2344,27.1563 L94.9688,27.1563 Z " fill="#000000"/><text fill="#000000" font-family="sans-serif" font-size="14" font-style="italic" lengthAdjust="spacing" textLength="108" x="128.5" y="26.5332">GameObjectView</text><text fill="#000000" font-family="sans-serif" font-size="10" font-style="italic" lengthAdjust="spacing" textLength="150" x="107.5" y="39.9902">medipro.object.base.gameobject</text><line style="stroke:#181818;stroke-width:0.5;" x1="79.5" x2="259.5" y1="47.1875" y2="47.1875"/><polygon fill="#FFFF44" points="89.5,56.4922,93.5,60.4922,89.5,64.4922,85.5,60.4922" style="stroke:#B38D22;stroke-width:1.0;"/><text fill="#000000" font-family="sans-serif" font-size="14" font-style="italic" lengthAdjust="spacing" textLength="148" x="98.5" y="65.7207">draw(Graphics2D): void</text></g></a><!--reverse link medipro.object.base.gameobject.GameObjectView to medipro.object.base.camera.CameraView--><g id="link_medipro.object.base.gameobject.GameObjectView_medipro.object.base.camera.CameraView"><path codeLine="19" d="M169.5,91.29 C169.5,108.03 169.5,111.31 169.5,132.35 " fill="none" id="medipro.object.base.gameobject.GameObjectView-backto-medipro.object.base.camera.CameraView" style="stroke:#181818;stroke-width:1.0;"/><polygon fill="none" points="169.5,73.29,163.5,91.29,175.5,91.29,169.5,73.29" style="stroke:#181818;stroke-width:1.0;"/></g><text fill="#888888" font-family="sans-serif" font-size="10" lengthAdjust="spacing" textLength="184" x="69.5" y="320.634">UMLDoclet 2.1.1, PlantUML 1.2023.12</text><!--SRC=[bLDDJm8n4BtxAoOGaoL08yGJ8IGg2HU89aOlm66sE-lMTDjDMo28_7VBBhgo1C4U-l7UwtJQDmK0iEH0OKesGqxFbA51fmqehUZAqv28Y83IpAqX5YGZMqLJSedsS8vpYTP2hM_51_KwjuC77zdWgw3LJEt1cq5AaSYCPZfy9-vOY9OOpuKrG0kdQLQ6W-cqNB34fN8-XqsUmwurIp8efXCTaMoKWiZWAXWPp1B1RNVOwC5IY-Y7hmibtFqYZidOO3I-MpWzz3imb5ILDYDXCudhIsJQqZdPxk1p6aCsmQmQgWL2kKhtU-ksy0X3wmnoTsJMo3_KO_xe5nZsviN5-gHffOGTXlRcCJOhwTaXVMpdvZldBTJ_C6v_mV_bqlzijo-hkQB2IJao46kz6rucuw7cql-XBkkmJWkU92hdKRXU-ieHMWMDBm00]--></g></svg>