<?xml version="1.0" encoding="us-ascii" standalone="no"?><svg xmlns="http://www.w3.org/2000/svg" xmlns:xlink="http://www.w3.org/1999/xlink" contentStyleType="text/css" height="555px" preserveAspectRatio="none" style="width:985px;height:555px;background:#FFFFFF;" version="1.1" viewBox="0 0 985 555" width="985px" zoomAndPan="magnify"><defs/><g><!--cluster medipro.object.base.camera--><g id="cluster_medipro.object.base.camera"><path d="M8.5,306.09 L208.5,306.09 A3.75,3.75 0 0 1 211,308.59 L218,329.6994 L975.5,329.6994 A2.5,2.5 0 0 1 978,332.1994 L978,526.86 A2.5,2.5 0 0 1 975.5,529.36 L8.5,529.36 A2.5,2.5 0 0 1 6,526.86 L6,308.59 A2.5,2.5 0 0 1 8.5,306.09 " fill="none" style="stroke:#000000;stroke-width:1.5;"/><line style="stroke:#000000;stroke-width:1.5;" x1="6" x2="218" y1="329.6994" y2="329.6994"/><text fill="#000000" font-family="sans-serif" font-size="14" font-weight="bold" lengthAdjust="spacing" textLength="199" x="10" y="322.6232">medipro.object.base.camera</text></g><!--cluster medipro.object.base.gameobject--><g id="cluster_medipro.object.base.gameobject"><path d="M198.5,6 L429.5,6 A3.75,3.75 0 0 1 432,8.5 L439,29.6094 L916.5,29.6094 A2.5,2.5 0 0 1 919,32.1094 L919,279.59 A2.5,2.5 0 0 1 916.5,282.09 L198.5,282.09 A2.5,2.5 0 0 1 196,279.59 L196,8.5 A2.5,2.5 0 0 1 198.5,6 " fill="none" style="stroke:#000000;stroke-width:1.5;"/><line style="stroke:#000000;stroke-width:1.5;" x1="196" x2="439" y1="29.6094" y2="29.6094"/><text fill="#000000" font-family="sans-serif" font-size="14" font-weight="bold" lengthAdjust="spacing" textLength="230" x="200" y="22.5332">medipro.object.base.gameobject</text></g><!--class CameraController--><a href="CameraController.html" target="_top" title="CameraController.html" xlink:actuate="onRequest" xlink:href="CameraController.html" xlink:show="new" xlink:title="CameraController.html" xlink:type="simple"><g id="elem_CameraController"><rect codeLine="5" fill="#F1F1F1" height="83.2188" id="CameraController" rx="2.5" ry="2.5" style="stroke:#181818;stroke-width:0.5;" width="282" x="680" y="386.12"/><ellipse cx="760.75" cy="402.12" fill="#ADD1B2" rx="11" ry="11" style="stroke:#181818;stroke-width:1.0;"/><path d="M763.5156,397.995 Q763.6719,397.7763 763.8594,397.6669 Q764.0469,397.5575 764.2656,397.5575 Q764.6406,397.5575 764.875,397.8231 Q765.1094,398.0731 765.1094,398.6825 L765.1094,400.1356 Q765.1094,400.745 764.875,401.0106 Q764.6406,401.2763 764.2656,401.2763 Q763.9219,401.2763 763.7188,401.0731 Q763.5156,400.8856 763.4063,400.37 Q763.3594,400.0106 763.1719,399.8231 Q762.8438,399.4481 762.2344,399.2294 Q761.625,399.0106 761,399.0106 Q760.2344,399.0106 759.5938,399.3388 Q758.9688,399.6669 758.4688,400.4169 Q757.9844,401.1669 757.9844,402.1981 L757.9844,403.2919 Q757.9844,404.5263 758.875,405.3544 Q759.7656,406.1669 761.3594,406.1669 Q762.2969,406.1669 762.9531,405.9169 Q763.3438,405.7606 763.7656,405.3231 Q764.0313,405.0575 764.1719,404.9794 Q764.3281,404.9013 764.5313,404.9013 Q764.8594,404.9013 765.1094,405.1669 Q765.375,405.4169 765.375,405.7606 Q765.375,406.1044 765.0313,406.5106 Q764.5313,407.0888 763.7344,407.4169 Q762.6563,407.87 761.3594,407.87 Q759.8438,407.87 758.6406,407.245 Q757.6563,406.745 756.9688,405.6825 Q756.2813,404.6044 756.2813,403.3231 L756.2813,402.1669 Q756.2813,400.8388 756.8906,399.6981 Q757.5156,398.5419 758.6094,397.9325 Q759.7031,397.3075 760.9375,397.3075 Q761.6719,397.3075 762.3125,397.4794 Q762.9688,397.6356 763.5156,397.995 Z " fill="#000000"/><text fill="#000000" font-family="sans-serif" font-size="14" lengthAdjust="spacing" textLength="112" x="781.25" y="407.8485">CameraController</text><line style="stroke:#181818;stroke-width:0.5;" x1="681" x2="961" y1="418.12" y2="418.12"/><line style="stroke:#181818;stroke-width:0.5;" x1="681" x2="961" y1="426.12" y2="426.12"/><ellipse cx="691" cy="440.4247" fill="#84BE84" rx="3" ry="3" style="stroke:#038048;stroke-width:1.0;"/><text fill="#000000" font-family="sans-serif" font-size="14" lengthAdjust="spacing" textLength="251" x="700" y="444.6532">CameraController(GameObjectModel...)</text><ellipse cx="691" cy="458.0341" fill="#84BE84" rx="3" ry="3" style="stroke:#038048;stroke-width:1.0;"/><text fill="#000000" font-family="sans-serif" font-size="14" lengthAdjust="spacing" textLength="256" x="700" y="462.2626">update(GameObjectModel, double): void</text></g></a><!--class CameraModel--><a href="CameraModel.html" target="_top" title="CameraModel.html" xlink:actuate="onRequest" xlink:href="CameraModel.html" xlink:show="new" xlink:title="CameraModel.html" xlink:type="simple"><g id="elem_CameraModel"><rect codeLine="10" fill="#F1F1F1" height="171.2656" id="CameraModel" rx="2.5" ry="2.5" style="stroke:#181818;stroke-width:0.5;" width="267" x="377.5" y="342.09"/><ellipse cx="462.75" cy="358.09" fill="#ADD1B2" rx="11" ry="11" style="stroke:#181818;stroke-width:1.0;"/><path d="M465.5156,353.965 Q465.6719,353.7463 465.8594,353.6369 Q466.0469,353.5275 466.2656,353.5275 Q466.6406,353.5275 466.875,353.7931 Q467.1094,354.0431 467.1094,354.6525 L467.1094,356.1056 Q467.1094,356.715 466.875,356.9806 Q466.6406,357.2463 466.2656,357.2463 Q465.9219,357.2463 465.7188,357.0431 Q465.5156,356.8556 465.4063,356.34 Q465.3594,355.9806 465.1719,355.7931 Q464.8438,355.4181 464.2344,355.1994 Q463.625,354.9806 463,354.9806 Q462.2344,354.9806 461.5938,355.3088 Q460.9688,355.6369 460.4688,356.3869 Q459.9844,357.1369 459.9844,358.1681 L459.9844,359.2619 Q459.9844,360.4963 460.875,361.3244 Q461.7656,362.1369 463.3594,362.1369 Q464.2969,362.1369 464.9531,361.8869 Q465.3438,361.7306 465.7656,361.2931 Q466.0313,361.0275 466.1719,360.9494 Q466.3281,360.8713 466.5313,360.8713 Q466.8594,360.8713 467.1094,361.1369 Q467.375,361.3869 467.375,361.7306 Q467.375,362.0744 467.0313,362.4806 Q466.5313,363.0588 465.7344,363.3869 Q464.6563,363.84 463.3594,363.84 Q461.8438,363.84 460.6406,363.215 Q459.6563,362.715 458.9688,361.6525 Q458.2813,360.5744 458.2813,359.2931 L458.2813,358.1369 Q458.2813,356.8088 458.8906,355.6681 Q459.5156,354.5119 460.6094,353.9025 Q461.7031,353.2775 462.9375,353.2775 Q463.6719,353.2775 464.3125,353.4494 Q464.9688,353.6056 465.5156,353.965 Z " fill="#000000"/><text fill="#000000" font-family="sans-serif" font-size="14" lengthAdjust="spacing" textLength="88" x="483.25" y="363.8185">CameraModel</text><line style="stroke:#181818;stroke-width:0.5;" x1="378.5" x2="643.5" y1="374.09" y2="374.09"/><ellipse cx="388.5" cy="388.3947" fill="none" rx="3" ry="3" style="stroke:#038048;stroke-width:1.0;"/><text fill="#000000" font-family="sans-serif" font-size="14" lengthAdjust="spacing" textLength="84" x="397.5" y="392.6232">scale: double</text><rect fill="none" height="6" style="stroke:#C82930;stroke-width:1.0;" width="6" x="385.5" y="403.0041"/><text fill="#000000" font-family="sans-serif" font-size="14" lengthAdjust="spacing" textLength="47" x="397.5" y="410.2326">ubo: int</text><line style="stroke:#181818;stroke-width:0.5;" x1="378.5" x2="643.5" y1="417.3088" y2="417.3088"/><ellipse cx="388.5" cy="431.6134" fill="#84BE84" rx="3" ry="3" style="stroke:#038048;stroke-width:1.0;"/><text fill="#000000" font-family="sans-serif" font-size="14" lengthAdjust="spacing" textLength="135" x="397.5" y="435.842">CameraModel(World)</text><ellipse cx="388.5" cy="449.2228" fill="#84BE84" rx="3" ry="3" style="stroke:#038048;stroke-width:1.0;"/><text fill="#000000" font-family="sans-serif" font-size="14" lengthAdjust="spacing" textLength="241" x="397.5" y="453.4513">getTransformMatrix(): AffineTransform</text><ellipse cx="388.5" cy="466.8322" fill="#84BE84" rx="3" ry="3" style="stroke:#038048;stroke-width:1.0;"/><text fill="#000000" font-family="sans-serif" font-size="14" lengthAdjust="spacing" textLength="162" x="397.5" y="471.0607">getVisibleArea(): Double[]</text><ellipse cx="388.5" cy="484.4416" fill="#84BE84" rx="3" ry="3" style="stroke:#038048;stroke-width:1.0;"/><text fill="#000000" font-family="sans-serif" font-size="14" lengthAdjust="spacing" textLength="82" x="397.5" y="488.6701">getUBO(): int</text><ellipse cx="388.5" cy="502.0509" fill="#84BE84" rx="3" ry="3" style="stroke:#038048;stroke-width:1.0;"/><text fill="#000000" font-family="sans-serif" font-size="14" lengthAdjust="spacing" textLength="107" x="397.5" y="506.2795">setUBO(int): void</text></g></a><!--class CameraView--><a href="CameraView.html" target="_top" title="CameraView.html" xlink:actuate="onRequest" xlink:href="CameraView.html" xlink:show="new" xlink:title="CameraView.html" xlink:type="simple"><g id="elem_CameraView"><rect codeLine="20" fill="#F1F1F1" height="171.2656" id="CameraView" rx="2.5" ry="2.5" style="stroke:#181818;stroke-width:0.5;" width="321" x="21.5" y="342.09"/><ellipse cx="138.25" cy="358.09" fill="#ADD1B2" rx="11" ry="11" style="stroke:#181818;stroke-width:1.0;"/><path d="M141.0156,353.965 Q141.1719,353.7463 141.3594,353.6369 Q141.5469,353.5275 141.7656,353.5275 Q142.1406,353.5275 142.375,353.7931 Q142.6094,354.0431 142.6094,354.6525 L142.6094,356.1056 Q142.6094,356.715 142.375,356.9806 Q142.1406,357.2463 141.7656,357.2463 Q141.4219,357.2463 141.2188,357.0431 Q141.0156,356.8556 140.9063,356.34 Q140.8594,355.9806 140.6719,355.7931 Q140.3438,355.4181 139.7344,355.1994 Q139.125,354.9806 138.5,354.9806 Q137.7344,354.9806 137.0938,355.3088 Q136.4688,355.6369 135.9688,356.3869 Q135.4844,357.1369 135.4844,358.1681 L135.4844,359.2619 Q135.4844,360.4963 136.375,361.3244 Q137.2656,362.1369 138.8594,362.1369 Q139.7969,362.1369 140.4531,361.8869 Q140.8438,361.7306 141.2656,361.2931 Q141.5313,361.0275 141.6719,360.9494 Q141.8281,360.8713 142.0313,360.8713 Q142.3594,360.8713 142.6094,361.1369 Q142.875,361.3869 142.875,361.7306 Q142.875,362.0744 142.5313,362.4806 Q142.0313,363.0588 141.2344,363.3869 Q140.1563,363.84 138.8594,363.84 Q137.3438,363.84 136.1406,363.215 Q135.1563,362.715 134.4688,361.6525 Q133.7813,360.5744 133.7813,359.2931 L133.7813,358.1369 Q133.7813,356.8088 134.3906,355.6681 Q135.0156,354.5119 136.1094,353.9025 Q137.2031,353.2775 138.4375,353.2775 Q139.1719,353.2775 139.8125,353.4494 Q140.4688,353.6056 141.0156,353.965 Z " fill="#000000"/><text fill="#000000" font-family="sans-serif" font-size="14" lengthAdjust="spacing" textLength="79" x="158.75" y="363.8185">CameraView</text><line style="stroke:#181818;stroke-width:0.5;" x1="22.5" x2="341.5" y1="374.09" y2="374.09"/><line style="stroke:#181818;stroke-width:0.5;" x1="22.5" x2="341.5" y1="382.09" y2="382.09"/><ellipse cx="32.5" cy="396.3947" fill="#84BE84" rx="3" ry="3" style="stroke:#038048;stroke-width:1.0;"/><text fill="#000000" font-family="sans-serif" font-size="14" lengthAdjust="spacing" textLength="177" x="41.5" y="400.6232">CameraView(CameraModel)</text><ellipse cx="32.5" cy="414.0041" fill="#84BE84" rx="3" ry="3" style="stroke:#038048;stroke-width:1.0;"/><text fill="#000000" font-family="sans-serif" font-size="14" lengthAdjust="spacing" textLength="149" x="41.5" y="418.2326">draw(Graphics2D): void</text><polygon fill="#FFFF44" points="32.5,426.6134,36.5,430.6134,32.5,434.6134,28.5,430.6134" style="stroke:#B38D22;stroke-width:1.0;"/><text fill="#000000" font-family="sans-serif" font-size="14" lengthAdjust="spacing" textLength="214" x="41.5" y="435.842">initBuffers(GLAutoDrawable): void</text><ellipse cx="32.5" cy="449.2228" fill="#84BE84" rx="3" ry="3" style="stroke:#038048;stroke-width:1.0;"/><text fill="#000000" font-family="sans-serif" font-size="14" lengthAdjust="spacing" textLength="195" x="41.5" y="453.4513">display(GLAutoDrawable): void</text><ellipse cx="32.5" cy="466.8322" fill="#84BE84" rx="3" ry="3" style="stroke:#038048;stroke-width:1.0;"/><text fill="#000000" font-family="sans-serif" font-size="14" lengthAdjust="spacing" textLength="200" x="41.5" y="471.0607">dispose(GLAutoDrawable): void</text><ellipse cx="32.5" cy="484.4416" fill="#84BE84" rx="3" ry="3" style="stroke:#038048;stroke-width:1.0;"/><text fill="#000000" font-family="sans-serif" font-size="14" lengthAdjust="spacing" textLength="169" x="41.5" y="488.6701">init(GLAutoDrawable): void</text><ellipse cx="32.5" cy="502.0509" fill="#84BE84" rx="3" ry="3" style="stroke:#038048;stroke-width:1.0;"/><text fill="#000000" font-family="sans-serif" font-size="14" lengthAdjust="spacing" textLength="295" x="41.5" y="506.2795">reshape(GLAutoDrawable, int, int, int, int): void</text></g></a><!--class GameObjectController--><a href="..\gameobject\GameObjectController.html" target="_top" title="..\gameobject\GameObjectController.html" xlink:actuate="onRequest" xlink:href="..\gameobject\GameObjectController.html" xlink:show="new" xlink:title="..\gameobject\GameObjectController.html" xlink:type="simple"><g id="elem_GameObjectController"><rect codeLine="33" fill="#F1F1F1" height="100.8281" id="GameObjectController" rx="2.5" ry="2.5" style="stroke:#181818;stroke-width:0.5;" width="282" x="621" y="103.63"/><ellipse cx="687.25" cy="119.63" fill="#A9DCDF" rx="11" ry="11" style="stroke:#181818;stroke-width:1.0;"/><path d="M689.4375,121.3956 L685.2969,121.3956 L684.875,122.4269 L685.2969,122.4269 Q685.9063,122.4269 686.1719,122.6613 Q686.4375,122.8956 686.4375,123.2863 Q686.4375,123.6613 686.1719,123.8956 Q685.9063,124.13 685.2969,124.13 L683,124.13 Q682.3906,124.13 682.1406,123.8956 Q681.875,123.6613 681.875,123.2706 Q681.875,122.8956 682.1563,122.6613 Q682.4219,122.4113 683.0469,122.4269 L685.7188,115.7706 L684.6094,115.7706 Q684,115.7706 683.7344,115.5363 Q683.4688,115.3019 683.4688,114.9113 Q683.4688,114.5363 683.7344,114.3019 Q684,114.0675 684.6094,114.0675 L688.2813,114.0675 L691.6719,122.4269 Q692.2656,122.4269 692.4531,122.5675 Q692.8438,122.8331 692.8438,123.2863 Q692.8438,123.6613 692.5781,123.8956 Q692.3281,124.13 691.7188,124.13 L689.4219,124.13 Q688.8125,124.13 688.5469,123.8956 Q688.2813,123.6613 688.2813,123.2706 Q688.2813,122.8956 688.5469,122.6613 Q688.8125,122.4269 689.4219,122.4269 L689.8438,122.4269 L689.4375,121.3956 Z M688.7188,119.6925 L687.3594,116.3175 L685.9844,119.6925 L688.7188,119.6925 Z " fill="#000000"/><text fill="#000000" font-family="sans-serif" font-size="14" font-style="italic" lengthAdjust="spacing" textLength="141" x="707.75" y="125.3585">GameObjectController</text><line style="stroke:#181818;stroke-width:0.5;" x1="622" x2="902" y1="135.63" y2="135.63"/><polygon fill="none" points="632,144.9347,636,148.9347,632,152.9347,628,148.9347" style="stroke:#B38D22;stroke-width:1.0;"/><text fill="#000000" font-family="sans-serif" font-size="14" lengthAdjust="spacing" textLength="93" x="641" y="154.1632">logger: Logger</text><ellipse cx="632" cy="167.5441" fill="none" rx="3" ry="3" style="stroke:#038048;stroke-width:1.0;"/><text fill="#000000" font-family="sans-serif" font-size="14" lengthAdjust="spacing" textLength="242" x="641" y="171.7726">models: ArrayList&lt;GameObjectModel&gt;</text><line style="stroke:#181818;stroke-width:0.5;" x1="622" x2="902" y1="178.8488" y2="178.8488"/><ellipse cx="632" cy="193.1534" fill="#84BE84" rx="3" ry="3" style="stroke:#038048;stroke-width:1.0;"/><text fill="#000000" font-family="sans-serif" font-size="14" font-style="italic" lengthAdjust="spacing" textLength="256" x="641" y="197.382">update(GameObjectModel, double): void</text></g></a><!--class GameObjectModel--><a href="..\gameobject\GameObjectModel.html" target="_top" title="..\gameobject\GameObjectModel.html" xlink:actuate="onRequest" xlink:href="..\gameobject\GameObjectModel.html" xlink:show="new" xlink:title="..\gameobject\GameObjectModel.html" xlink:type="simple"><g id="elem_GameObjectModel"><rect codeLine="38" fill="#F1F1F1" height="171.2656" id="GameObjectModel" rx="2.5" ry="2.5" style="stroke:#181818;stroke-width:0.5;" width="150" x="436" y="68.41"/><ellipse cx="451" cy="84.41" fill="#A9DCDF" rx="11" ry="11" style="stroke:#181818;stroke-width:1.0;"/><path d="M453.1875,86.1756 L449.0469,86.1756 L448.625,87.2069 L449.0469,87.2069 Q449.6563,87.2069 449.9219,87.4413 Q450.1875,87.6756 450.1875,88.0663 Q450.1875,88.4413 449.9219,88.6756 Q449.6563,88.91 449.0469,88.91 L446.75,88.91 Q446.1406,88.91 445.8906,88.6756 Q445.625,88.4413 445.625,88.0506 Q445.625,87.6756 445.9063,87.4413 Q446.1719,87.1913 446.7969,87.2069 L449.4688,80.5506 L448.3594,80.5506 Q447.75,80.5506 447.4844,80.3163 Q447.2188,80.0819 447.2188,79.6913 Q447.2188,79.3163 447.4844,79.0819 Q447.75,78.8475 448.3594,78.8475 L452.0313,78.8475 L455.4219,87.2069 Q456.0156,87.2069 456.2031,87.3475 Q456.5938,87.6131 456.5938,88.0663 Q456.5938,88.4413 456.3281,88.6756 Q456.0781,88.91 455.4688,88.91 L453.1719,88.91 Q452.5625,88.91 452.2969,88.6756 Q452.0313,88.4413 452.0313,88.0506 Q452.0313,87.6756 452.2969,87.4413 Q452.5625,87.2069 453.1719,87.2069 L453.5938,87.2069 L453.1875,86.1756 Z M452.4688,84.4725 L451.1094,81.0975 L449.7344,84.4725 L452.4688,84.4725 Z " fill="#000000"/><text fill="#000000" font-family="sans-serif" font-size="14" font-style="italic" lengthAdjust="spacing" textLength="118" x="465" y="90.1385">GameObjectModel</text><line style="stroke:#181818;stroke-width:0.5;" x1="437" x2="585" y1="100.41" y2="100.41"/><polygon fill="none" points="447,109.7147,451,113.7147,447,117.7147,443,113.7147" style="stroke:#B38D22;stroke-width:1.0;"/><text fill="#000000" font-family="sans-serif" font-size="14" lengthAdjust="spacing" textLength="93" x="456" y="118.9432">logger: Logger</text><ellipse cx="447" cy="132.3241" fill="none" rx="3" ry="3" style="stroke:#038048;stroke-width:1.0;"/><text fill="#000000" font-family="sans-serif" font-size="14" lengthAdjust="spacing" textLength="78" x="456" y="136.5526">world: World</text><ellipse cx="447" cy="149.9334" fill="none" rx="3" ry="3" style="stroke:#038048;stroke-width:1.0;"/><text fill="#000000" font-family="sans-serif" font-size="14" lengthAdjust="spacing" textLength="57" x="456" y="154.162">x: double</text><ellipse cx="447" cy="167.5428" fill="none" rx="3" ry="3" style="stroke:#038048;stroke-width:1.0;"/><text fill="#000000" font-family="sans-serif" font-size="14" lengthAdjust="spacing" textLength="58" x="456" y="171.7713">y: double</text><ellipse cx="447" cy="185.1522" fill="none" rx="3" ry="3" style="stroke:#038048;stroke-width:1.0;"/><text fill="#000000" font-family="sans-serif" font-size="14" lengthAdjust="spacing" textLength="99" x="456" y="189.3807">rotation: double</text><ellipse cx="447" cy="202.7616" fill="none" rx="3" ry="3" style="stroke:#038048;stroke-width:1.0;"/><text fill="#000000" font-family="sans-serif" font-size="14" lengthAdjust="spacing" textLength="92" x="456" y="206.9901">scaleX: double</text><ellipse cx="447" cy="220.3709" fill="none" rx="3" ry="3" style="stroke:#038048;stroke-width:1.0;"/><text fill="#000000" font-family="sans-serif" font-size="14" lengthAdjust="spacing" textLength="93" x="456" y="224.5995">scaleY: double</text><line style="stroke:#181818;stroke-width:0.5;" x1="437" x2="585" y1="231.6756" y2="231.6756"/></g></a><!--class GameObjectView--><a href="..\gameobject\GameObjectView.html" target="_top" title="..\gameobject\GameObjectView.html" xlink:actuate="onRequest" xlink:href="..\gameobject\GameObjectView.html" xlink:show="new" xlink:title="..\gameobject\GameObjectView.html" xlink:type="simple"><g id="elem_GameObjectView"><rect codeLine="47" fill="#F1F1F1" height="224.0938" id="GameObjectView" rx="2.5" ry="2.5" style="stroke:#181818;stroke-width:0.5;" width="189" x="212.5" y="42"/><ellipse cx="249.55" cy="58" fill="#A9DCDF" rx="11" ry="11" style="stroke:#181818;stroke-width:1.0;"/><path d="M251.7375,59.7656 L247.5969,59.7656 L247.175,60.7969 L247.5969,60.7969 Q248.2063,60.7969 248.4719,61.0313 Q248.7375,61.2656 248.7375,61.6563 Q248.7375,62.0313 248.4719,62.2656 Q248.2063,62.5 247.5969,62.5 L245.3,62.5 Q244.6906,62.5 244.4406,62.2656 Q244.175,62.0313 244.175,61.6406 Q244.175,61.2656 244.4563,61.0313 Q244.7219,60.7813 245.3469,60.7969 L248.0188,54.1406 L246.9094,54.1406 Q246.3,54.1406 246.0344,53.9063 Q245.7688,53.6719 245.7688,53.2813 Q245.7688,52.9063 246.0344,52.6719 Q246.3,52.4375 246.9094,52.4375 L250.5813,52.4375 L253.9719,60.7969 Q254.5656,60.7969 254.7531,60.9375 Q255.1438,61.2031 255.1438,61.6563 Q255.1438,62.0313 254.8781,62.2656 Q254.6281,62.5 254.0188,62.5 L251.7219,62.5 Q251.1125,62.5 250.8469,62.2656 Q250.5813,62.0313 250.5813,61.6406 Q250.5813,61.2656 250.8469,61.0313 Q251.1125,60.7969 251.7219,60.7969 L252.1438,60.7969 L251.7375,59.7656 Z M251.0188,58.0625 L249.6594,54.6875 L248.2844,58.0625 L251.0188,58.0625 Z " fill="#000000"/><text fill="#000000" font-family="sans-serif" font-size="14" font-style="italic" lengthAdjust="spacing" textLength="108" x="268.45" y="63.7285">GameObjectView</text><line style="stroke:#181818;stroke-width:0.5;" x1="213.5" x2="400.5" y1="74" y2="74"/><polygon fill="none" points="223.5,83.3047,227.5,87.3047,223.5,91.3047,219.5,87.3047" style="stroke:#B38D22;stroke-width:1.0;"/><text fill="#000000" font-family="sans-serif" font-size="14" lengthAdjust="spacing" textLength="93" x="232.5" y="92.5332">logger: Logger</text><ellipse cx="223.5" cy="105.9141" fill="none" rx="3" ry="3" style="stroke:#038048;stroke-width:1.0;"/><text fill="#000000" font-family="sans-serif" font-size="14" lengthAdjust="spacing" textLength="163" x="232.5" y="110.1426">model: GameObjectModel</text><ellipse cx="223.5" cy="123.5234" fill="none" rx="3" ry="3" style="stroke:#038048;stroke-width:1.0;"/><text fill="#000000" font-family="sans-serif" font-size="14" lengthAdjust="spacing" textLength="117" x="232.5" y="127.752">drawAsUI: boolean</text><polygon fill="none" points="223.5,136.1328,227.5,140.1328,223.5,144.1328,219.5,140.1328" style="stroke:#B38D22;stroke-width:1.0;"/><text fill="#000000" font-family="sans-serif" font-size="14" lengthAdjust="spacing" text-decoration="underline" textLength="128" x="232.5" y="145.3613">nextBindingPoint: int</text><polygon fill="none" points="223.5,154.7422,219.5,160.7422,227.5,160.7422" style="stroke:#1963A0;stroke-width:1.0;"/><text fill="#000000" font-family="sans-serif" font-size="14" lengthAdjust="spacing" textLength="121" x="232.5" y="162.9707">shaderProgram: int</text><polygon fill="none" points="223.5,172.3516,219.5,178.3516,227.5,178.3516" style="stroke:#1963A0;stroke-width:1.0;"/><text fill="#000000" font-family="sans-serif" font-size="14" lengthAdjust="spacing" textLength="140" x="232.5" y="180.5801">textureName: IntBuffer</text><polygon fill="none" points="223.5,189.9609,219.5,195.9609,227.5,195.9609" style="stroke:#1963A0;stroke-width:1.0;"/><text fill="#000000" font-family="sans-serif" font-size="14" lengthAdjust="spacing" textLength="147" x="232.5" y="198.1895">samplerName: IntBuffer</text><polygon fill="none" points="223.5,207.5703,219.5,213.5703,227.5,213.5703" style="stroke:#1963A0;stroke-width:1.0;"/><text fill="#000000" font-family="sans-serif" font-size="14" lengthAdjust="spacing" textLength="84" x="232.5" y="215.7988">vbo: IntBuffer</text><polygon fill="none" points="223.5,225.1797,219.5,231.1797,227.5,231.1797" style="stroke:#1963A0;stroke-width:1.0;"/><text fill="#000000" font-family="sans-serif" font-size="14" lengthAdjust="spacing" textLength="112" x="232.5" y="233.4082">shaderFile: String</text><line style="stroke:#181818;stroke-width:0.5;" x1="213.5" x2="400.5" y1="240.4844" y2="240.4844"/><polygon fill="#FFFF44" points="223.5,249.7891,227.5,253.7891,223.5,257.7891,219.5,253.7891" style="stroke:#B38D22;stroke-width:1.0;"/><text fill="#000000" font-family="sans-serif" font-size="14" font-style="italic" lengthAdjust="spacing" textLength="148" x="232.5" y="259.0176">draw(Graphics2D): void</text></g></a><!--reverse link GameObjectController to CameraController--><g id="link_GameObjectController_CameraController"><path codeLine="61" d="M776.6408,222.4698 C787.9208,274.3998 801.56,337.23 812.08,385.64 " fill="none" id="GameObjectController-backto-CameraController" style="stroke:#181818;stroke-width:1.0;"/><polygon fill="none" points="772.82,204.88,770.7775,223.7434,782.5041,221.1962,772.82,204.88" style="stroke:#181818;stroke-width:1.0;"/></g><!--reverse link GameObjectModel to CameraModel--><g id="link_GameObjectModel_CameraModel"><path codeLine="62" d="M511,257.89 C511,290.43 511,309.54 511,342.06 " fill="none" id="GameObjectModel-backto-CameraModel" style="stroke:#181818;stroke-width:1.0;"/><polygon fill="none" points="511,239.89,505,257.89,517,257.89,511,239.89" style="stroke:#181818;stroke-width:1.0;"/></g><!--reverse link GameObjectView to CameraView--><g id="link_GameObjectView_CameraView"><path codeLine="63" d="M248.2759,282.682 C236.6759,307.892 232.07,317.91 221.07,341.82 " fill="none" id="GameObjectView-backto-CameraView" style="stroke:#181818;stroke-width:1.0;"/><polygon fill="none" points="255.8,266.33,242.8252,280.174,253.7265,285.19,255.8,266.33" style="stroke:#181818;stroke-width:1.0;"/></g><text fill="#888888" font-family="sans-serif" font-size="10" lengthAdjust="spacing" textLength="184" x="393.5" y="545.7409">UMLDoclet 2.1.1, PlantUML 1.2023.12</text><!--SRC=[bLPRQzim57xlhn24WKCJG_ieoY1fM2WaQs1Bjv7cuTYM7MsoP2JbHfVzzabsciJNk8B4-DpqdNFq7HaXX1JHvfU012qamlZcnWXH0luVY0YAIK0JALpX_IQ-TZrGnFKX9XBGMsPfbyz0AVIOoXy5rr8mHYHQB8eYTwLZjbmQNtInRejcpjW8djCjfo8Wp7NTRjvZdGIWIT6kXmAnzXZfOhGHD3Yv7AgXfZudbDbErG2L3upWO_ISgh_s14QKwwgCqf3E3o5PKC0V4VrT0bUXaF4KjAGxnu0UX27bvAGekRnGHGs0WIHWpKSfdCMoP3SVFbjz2PNAL4RUia8lb6nF1R8lZGsq1iv5veMS0mbRPomXML5VtO-A4EpgK4xrS1s6H2fdF1cijHWPBwZeQHQIgeJ1lgsfKAIDgGNHnauIjOAa6B9dwrxugodtuJhP8bFExFsYvk0fBS68ibwTMP0Zd-k-dhrVguogkzbX8eg8n6YIFlCvnxQnoXnLAM4_eKe_53ZuEMV_zWxry77ENitsdRzrYJOmkZ77hIKiHYblyvfTvGoutLUBfT2WgU3LsdIc_6pG_IhfMjJaoDYwajHp-7hNSR7qPNeFrFm98qy8He3d3uAojV0FgCF9JWyf3oYFPi9mepod_XbQ1KJEf8Wan1LwRKAi9Vbgu63qn8yJen03uiGSyKQRZPtTTVufXY_KplrlPa3pgEvWTwuCjiCbrvivZd4bbn_-zliDLp76nGlqWrjbH6gvoxdrxJT8JsNB-DOs3UyJhatoeH3sCPzEHi9dvclbthrpxtfene1h8qMVDkQsC3Hpkly1]--></g></svg>