<?xml version="1.0" encoding="us-ascii" standalone="no"?><svg xmlns="http://www.w3.org/2000/svg" xmlns:xlink="http://www.w3.org/1999/xlink" contentStyleType="text/css" height="242px" preserveAspectRatio="none" style="width:239px;height:242px;background:#FFFFFF;" version="1.1" viewBox="0 0 239 242" width="239px" zoomAndPan="magnify"><defs/><g><!--class medipro.object.base.gridobject.GridObjectModel--><a href="GridObjectModel.html" target="_top" title="GridObjectModel.html" xlink:actuate="onRequest" xlink:href="GridObjectModel.html" xlink:show="new" xlink:title="GridObjectModel.html" xlink:type="simple"><g id="elem_medipro.object.base.gridobject.GridObjectModel"><rect codeLine="5" fill="#F1F1F1" height="109.0156" id="medipro.object.base.gridobject.GridObjectModel" rx="2.5" ry="2.5" style="stroke:#181818;stroke-width:0.5;" width="225" x="7" y="107.18"/><ellipse cx="44.5" cy="127.2737" fill="#A9DCDF" rx="11" ry="11" style="stroke:#181818;stroke-width:1.0;"/><path d="M46.6875,129.0394 L42.5469,129.0394 L42.125,130.0706 L42.5469,130.0706 Q43.1563,130.0706 43.4219,130.305 Q43.6875,130.5394 43.6875,130.93 Q43.6875,131.305 43.4219,131.5394 Q43.1563,131.7738 42.5469,131.7738 L40.25,131.7738 Q39.6406,131.7738 39.3906,131.5394 Q39.125,131.305 39.125,130.9144 Q39.125,130.5394 39.4063,130.305 Q39.6719,130.055 40.2969,130.0706 L42.9688,123.4144 L41.8594,123.4144 Q41.25,123.4144 40.9844,123.18 Q40.7188,122.9456 40.7188,122.555 Q40.7188,122.18 40.9844,121.9456 Q41.25,121.7113 41.8594,121.7113 L45.5313,121.7113 L48.9219,130.0706 Q49.5156,130.0706 49.7031,130.2113 Q50.0938,130.4769 50.0938,130.93 Q50.0938,131.305 49.8281,131.5394 Q49.5781,131.7738 48.9688,131.7738 L46.6719,131.7738 Q46.0625,131.7738 45.7969,131.5394 Q45.5313,131.305 45.5313,130.9144 Q45.5313,130.5394 45.7969,130.305 Q46.0625,130.0706 46.6719,130.0706 L47.0938,130.0706 L46.6875,129.0394 Z M45.9688,127.3363 L44.6094,123.9613 L43.2344,127.3363 L45.9688,127.3363 Z " fill="#000000"/><text fill="#000000" font-family="sans-serif" font-size="14" font-style="italic" lengthAdjust="spacing" textLength="107" x="81.5" y="126.7132">GridObjectModel</text><text fill="#000000" font-family="sans-serif" font-size="10" font-style="italic" lengthAdjust="spacing" textLength="143" x="63.5" y="140.1702">medipro.object.base.gridobject</text><line style="stroke:#181818;stroke-width:0.5;" x1="8" x2="231" y1="147.3675" y2="147.3675"/><ellipse cx="18" cy="161.6722" fill="none" rx="3" ry="3" style="stroke:#038048;stroke-width:1.0;"/><text fill="#000000" font-family="sans-serif" font-size="14" lengthAdjust="spacing" textLength="55" x="27" y="165.9007">width: int</text><ellipse cx="18" cy="179.2816" fill="none" rx="3" ry="3" style="stroke:#038048;stroke-width:1.0;"/><text fill="#000000" font-family="sans-serif" font-size="14" lengthAdjust="spacing" textLength="62" x="27" y="183.5101">height: int</text><line style="stroke:#181818;stroke-width:0.5;" x1="8" x2="231" y1="190.5863" y2="190.5863"/><ellipse cx="18" cy="204.8909" fill="#84BE84" rx="3" ry="3" style="stroke:#038048;stroke-width:1.0;"/><text fill="#000000" font-family="sans-serif" font-size="14" lengthAdjust="spacing" textLength="199" x="27" y="209.1195">GridObjectModel(World, int, int)</text></g></a><!--class medipro.object.base.gameobject.GameObjectModel--><a href="..\gameobject\GameObjectModel.html" target="_top" title="..\gameobject\GameObjectModel.html" xlink:actuate="onRequest" xlink:href="..\gameobject\GameObjectModel.html" xlink:show="new" xlink:title="..\gameobject\GameObjectModel.html" xlink:type="simple"><g id="elem_medipro.object.base.gameobject.GameObjectModel"><rect codeLine="11" fill="#F1F1F1" height="40.1875" id="medipro.object.base.gameobject.GameObjectModel" rx="2.5" ry="2.5" style="stroke:#181818;stroke-width:0.5;" width="182" x="28.5" y="7"/><ellipse cx="43.5" cy="27.0938" fill="#A9DCDF" rx="11" ry="11" style="stroke:#181818;stroke-width:1.0;"/><path d="M45.6875,28.8594 L41.5469,28.8594 L41.125,29.8906 L41.5469,29.8906 Q42.1563,29.8906 42.4219,30.125 Q42.6875,30.3594 42.6875,30.75 Q42.6875,31.125 42.4219,31.3594 Q42.1563,31.5938 41.5469,31.5938 L39.25,31.5938 Q38.6406,31.5938 38.3906,31.3594 Q38.125,31.125 38.125,30.7344 Q38.125,30.3594 38.4063,30.125 Q38.6719,29.875 39.2969,29.8906 L41.9688,23.2344 L40.8594,23.2344 Q40.25,23.2344 39.9844,23 Q39.7188,22.7656 39.7188,22.375 Q39.7188,22 39.9844,21.7656 Q40.25,21.5313 40.8594,21.5313 L44.5313,21.5313 L47.9219,29.8906 Q48.5156,29.8906 48.7031,30.0313 Q49.0938,30.2969 49.0938,30.75 Q49.0938,31.125 48.8281,31.3594 Q48.5781,31.5938 47.9688,31.5938 L45.6719,31.5938 Q45.0625,31.5938 44.7969,31.3594 Q44.5313,31.125 44.5313,30.7344 Q44.5313,30.3594 44.7969,30.125 Q45.0625,29.8906 45.6719,29.8906 L46.0938,29.8906 L45.6875,28.8594 Z M44.9688,27.1563 L43.6094,23.7813 L42.2344,27.1563 L44.9688,27.1563 Z " fill="#000000"/><text fill="#000000" font-family="sans-serif" font-size="14" font-style="italic" lengthAdjust="spacing" textLength="118" x="73.5" y="26.5332">GameObjectModel</text><text fill="#000000" font-family="sans-serif" font-size="10" font-style="italic" lengthAdjust="spacing" textLength="150" x="57.5" y="39.9902">medipro.object.base.gameobject</text></g></a><!--reverse link medipro.object.base.gameobject.GameObjectModel to medipro.object.base.gridobject.GridObjectModel--><g id="link_medipro.object.base.gameobject.GameObjectModel_medipro.object.base.gridobject.GridObjectModel"><path codeLine="13" d="M119.5,65.66 C119.5,81.29 119.5,85.98 119.5,106.93 " fill="none" id="medipro.object.base.gameobject.GameObjectModel-backto-medipro.object.base.gridobject.GridObjectModel" style="stroke:#181818;stroke-width:1.0;"/><polygon fill="none" points="119.5,47.66,113.5,65.66,125.5,65.66,119.5,47.66" style="stroke:#181818;stroke-width:1.0;"/></g><text fill="#888888" font-family="sans-serif" font-size="10" lengthAdjust="spacing" textLength="184" x="20.5" y="232.5765">UMLDoclet 2.1.1, PlantUML 1.2023.12</text><!--SRC=[bL9DImCn4BtxAuQ2q68RNF5KIa-25uk2Y8Tk3zbasaIocIKP5B_-kzcqMCYXPND8o7kFD_Cc0G28oE1bYx6J2f-naq4o1V3ayIBHOAn6mBRZJzXQT3gMQ8jiAC4Pbqta81M3SZ9662sY_S9vTRky3rO_Dc-eU4KQNUqFpFMoHMsxG88oAnePKUoIUdyVWOnmMY8ARrYl2qGORjrc0z-vntvTVLZDPWxMyn4pQ7U62x2m6hzIS7hQQ_8soShVS-dJW0UaJ-fpwVybel1EwOMeZtnTy8TPx1iUQBtucSq6FaOkez0p1jWIzSVBwk6Eb4l_xaPKefh2avEU4mgNxnYY9J-U_040]--></g></svg>