<?xml version="1.0" encoding="us-ascii" standalone="no"?><svg xmlns="http://www.w3.org/2000/svg" xmlns:xlink="http://www.w3.org/1999/xlink" contentStyleType="text/css" height="278px" preserveAspectRatio="none" style="width:459px;height:278px;background:#FFFFFF;" version="1.1" viewBox="0 0 459 278" width="459px" zoomAndPan="magnify"><defs/><g><!--class medipro.object.base.gridobject.GridObjectView--><a href="GridObjectView.html" target="_top" title="GridObjectView.html" xlink:actuate="onRequest" xlink:href="GridObjectView.html" xlink:show="new" xlink:title="GridObjectView.html" xlink:type="simple"><g id="elem_medipro.object.base.gridobject.GridObjectView"><rect codeLine="5" fill="#F1F1F1" height="118.625" id="medipro.object.base.gridobject.GridObjectView" rx="2.5" ry="2.5" style="stroke:#181818;stroke-width:0.5;" width="445" x="7" y="132.8"/><ellipse cx="153.75" cy="152.8937" fill="#A9DCDF" rx="11" ry="11" style="stroke:#181818;stroke-width:1.0;"/><path d="M155.9375,154.6594 L151.7969,154.6594 L151.375,155.6906 L151.7969,155.6906 Q152.4063,155.6906 152.6719,155.925 Q152.9375,156.1594 152.9375,156.55 Q152.9375,156.925 152.6719,157.1594 Q152.4063,157.3937 151.7969,157.3937 L149.5,157.3937 Q148.8906,157.3937 148.6406,157.1594 Q148.375,156.925 148.375,156.5344 Q148.375,156.1594 148.6563,155.925 Q148.9219,155.675 149.5469,155.6906 L152.2188,149.0344 L151.1094,149.0344 Q150.5,149.0344 150.2344,148.8 Q149.9688,148.5656 149.9688,148.175 Q149.9688,147.8 150.2344,147.5656 Q150.5,147.3312 151.1094,147.3312 L154.7813,147.3312 L158.1719,155.6906 Q158.7656,155.6906 158.9531,155.8312 Q159.3438,156.0969 159.3438,156.55 Q159.3438,156.925 159.0781,157.1594 Q158.8281,157.3937 158.2188,157.3937 L155.9219,157.3937 Q155.3125,157.3937 155.0469,157.1594 Q154.7813,156.925 154.7813,156.5344 Q154.7813,156.1594 155.0469,155.925 Q155.3125,155.6906 155.9219,155.6906 L156.3438,155.6906 L155.9375,154.6594 Z M155.2188,152.9562 L153.8594,149.5812 L152.4844,152.9562 L155.2188,152.9562 Z " fill="#000000"/><text fill="#000000" font-family="sans-serif" font-size="14" font-style="italic" lengthAdjust="spacing" textLength="97" x="197.25" y="152.3332">GridObjectView</text><text fill="#000000" font-family="sans-serif" font-size="10" font-style="italic" lengthAdjust="spacing" textLength="143" x="174.25" y="165.7902">medipro.object.base.gridobject</text><line style="stroke:#181818;stroke-width:0.5;" x1="8" x2="451" y1="172.9875" y2="172.9875"/><ellipse cx="18" cy="187.2922" fill="#84BE84" rx="3" ry="3" style="stroke:#038048;stroke-width:1.0;"/><text fill="#000000" font-family="sans-serif" font-size="14" lengthAdjust="spacing" textLength="213" x="27" y="191.5207">GridObjectView(GridObjectModel)</text><ellipse cx="18" cy="204.9016" fill="#84BE84" rx="3" ry="3" style="stroke:#038048;stroke-width:1.0;"/><text fill="#000000" font-family="sans-serif" font-size="14" lengthAdjust="spacing" textLength="149" x="27" y="209.1301">draw(Graphics2D): void</text><ellipse cx="18" cy="222.5109" fill="#84BE84" rx="3" ry="3" style="stroke:#038048;stroke-width:1.0;"/><text fill="#000000" font-family="sans-serif" font-size="14" font-style="italic" lengthAdjust="spacing" textLength="419" x="27" y="226.7395">drawGrid(GameObjectModel, Graphics2D, Rectangle, int, int): void</text><rect fill="#F24D5C" height="6" style="stroke:#C82930;stroke-width:1.0;" width="6" x="15" y="237.1203"/><text fill="#000000" font-family="sans-serif" font-size="14" lengthAdjust="spacing" text-decoration="underline" textLength="412" x="27" y="244.3488">getEnclosingRectangle(Double, Double, Double, Double): Double</text></g></a><!--class medipro.object.base.gameobject.GameObjectView--><a href="..\gameobject\GameObjectView.html" target="_top" title="..\gameobject\GameObjectView.html" xlink:actuate="onRequest" xlink:href="..\gameobject\GameObjectView.html" xlink:show="new" xlink:title="..\gameobject\GameObjectView.html" xlink:type="simple"><g id="elem_medipro.object.base.gameobject.GameObjectView"><rect codeLine="12" fill="#F1F1F1" height="65.7969" id="medipro.object.base.gameobject.GameObjectView" rx="2.5" ry="2.5" style="stroke:#181818;stroke-width:0.5;" width="182" x="138.5" y="7"/><ellipse cx="153.5" cy="27.0938" fill="#A9DCDF" rx="11" ry="11" style="stroke:#181818;stroke-width:1.0;"/><path d="M155.6875,28.8594 L151.5469,28.8594 L151.125,29.8906 L151.5469,29.8906 Q152.1563,29.8906 152.4219,30.125 Q152.6875,30.3594 152.6875,30.75 Q152.6875,31.125 152.4219,31.3594 Q152.1563,31.5938 151.5469,31.5938 L149.25,31.5938 Q148.6406,31.5938 148.3906,31.3594 Q148.125,31.125 148.125,30.7344 Q148.125,30.3594 148.4063,30.125 Q148.6719,29.875 149.2969,29.8906 L151.9688,23.2344 L150.8594,23.2344 Q150.25,23.2344 149.9844,23 Q149.7188,22.7656 149.7188,22.375 Q149.7188,22 149.9844,21.7656 Q150.25,21.5313 150.8594,21.5313 L154.5313,21.5313 L157.9219,29.8906 Q158.5156,29.8906 158.7031,30.0313 Q159.0938,30.2969 159.0938,30.75 Q159.0938,31.125 158.8281,31.3594 Q158.5781,31.5938 157.9688,31.5938 L155.6719,31.5938 Q155.0625,31.5938 154.7969,31.3594 Q154.5313,31.125 154.5313,30.7344 Q154.5313,30.3594 154.7969,30.125 Q155.0625,29.8906 155.6719,29.8906 L156.0938,29.8906 L155.6875,28.8594 Z M154.9688,27.1563 L153.6094,23.7813 L152.2344,27.1563 L154.9688,27.1563 Z " fill="#000000"/><text fill="#000000" font-family="sans-serif" font-size="14" font-style="italic" lengthAdjust="spacing" textLength="108" x="188.5" y="26.5332">GameObjectView</text><text fill="#000000" font-family="sans-serif" font-size="10" font-style="italic" lengthAdjust="spacing" textLength="150" x="167.5" y="39.9902">medipro.object.base.gameobject</text><line style="stroke:#181818;stroke-width:0.5;" x1="139.5" x2="319.5" y1="47.1875" y2="47.1875"/><polygon fill="#FFFF44" points="149.5,56.4922,153.5,60.4922,149.5,64.4922,145.5,60.4922" style="stroke:#B38D22;stroke-width:1.0;"/><text fill="#000000" font-family="sans-serif" font-size="14" font-style="italic" lengthAdjust="spacing" textLength="148" x="158.5" y="65.7207">draw(Graphics2D): void</text></g></a><!--reverse link medipro.object.base.gameobject.GameObjectView to medipro.object.base.gridobject.GridObjectView--><g id="link_medipro.object.base.gameobject.GameObjectView_medipro.object.base.gridobject.GridObjectView"><path codeLine="16" d="M229.5,91.12 C229.5,108.45 229.5,112.35 229.5,132.57 " fill="none" id="medipro.object.base.gameobject.GameObjectView-backto-medipro.object.base.gridobject.GridObjectView" style="stroke:#181818;stroke-width:1.0;"/><polygon fill="none" points="229.5,73.12,223.5,91.12,235.5,91.12,229.5,73.12" style="stroke:#181818;stroke-width:1.0;"/></g><text fill="#888888" font-family="sans-serif" font-size="10" lengthAdjust="spacing" textLength="184" x="130.5" y="267.8059">UMLDoclet 2.1.1, PlantUML 1.2023.12</text><!--SRC=[bLFHJi8m57ttAsum9YEEHeXFXF24uKMYqUWBy73NNRQQhbtQYb7at-q6R4mCI1_QzPnppsvxDW00ImuKPcHpvFHCEHfqse3IYYuy3Qc82IZBtISi1CdO_aOpSgdsS8bZP9r1xe1Bj1PQ0ok-gD-z7OwDY1-YD-BkLT37J6s9cs56iSYDPheaMOIMMEB5ctqBqC9n2MjQmtJQ15ZgCZcVmwfii1ZNJK5GRoSw9jckXR71WiOy5TpsHkq-BBM8AtwrE-vw8osCWh6_p3st4Ehw49uyZ2gH589GhfmEJAr39_WQEWcvEyMbja8bLM4mqkzHKV_twjqs3wNV-bGgLQ__ISMBJwLIILZJsgV2sAocPqtwCAEzgxqyaiBsWEVrClZkTCxxgCgNS5AE32oqBfQNoVr8S-d_dXxhicu8ZnALyoXSBSbOeLNG_W40]--></g></svg>