<?xml version="1.0" encoding="us-ascii" standalone="no"?><svg xmlns="http://www.w3.org/2000/svg" xmlns:xlink="http://www.w3.org/1999/xlink" contentStyleType="text/css" height="225px" preserveAspectRatio="none" style="width:296px;height:225px;background:#FFFFFF;" version="1.1" viewBox="0 0 296 225" width="296px" zoomAndPan="magnify"><defs/><g><!--class medipro.object.base.gridobject.GridObjectController--><a href="GridObjectController.html" target="_top" title="GridObjectController.html" xlink:actuate="onRequest" xlink:href="GridObjectController.html" xlink:show="new" xlink:title="GridObjectController.html" xlink:type="simple"><g id="elem_medipro.object.base.gridobject.GridObjectController"><rect codeLine="5" fill="#F1F1F1" height="65.7969" id="medipro.object.base.gridobject.GridObjectController" rx="2.5" ry="2.5" style="stroke:#181818;stroke-width:0.5;" width="282" x="7" y="132.79"/><ellipse cx="72.25" cy="152.8838" fill="#A9DCDF" rx="11" ry="11" style="stroke:#181818;stroke-width:1.0;"/><path d="M74.4375,154.6494 L70.2969,154.6494 L69.875,155.6806 L70.2969,155.6806 Q70.9063,155.6806 71.1719,155.915 Q71.4375,156.1494 71.4375,156.54 Q71.4375,156.915 71.1719,157.1494 Q70.9063,157.3838 70.2969,157.3838 L68,157.3838 Q67.3906,157.3838 67.1406,157.1494 Q66.875,156.915 66.875,156.5244 Q66.875,156.1494 67.1563,155.915 Q67.4219,155.665 68.0469,155.6806 L70.7188,149.0244 L69.6094,149.0244 Q69,149.0244 68.7344,148.79 Q68.4688,148.5556 68.4688,148.165 Q68.4688,147.79 68.7344,147.5556 Q69,147.3213 69.6094,147.3213 L73.2813,147.3213 L76.6719,155.6806 Q77.2656,155.6806 77.4531,155.8213 Q77.8438,156.0869 77.8438,156.54 Q77.8438,156.915 77.5781,157.1494 Q77.3281,157.3838 76.7188,157.3838 L74.4219,157.3838 Q73.8125,157.3838 73.5469,157.1494 Q73.2813,156.915 73.2813,156.5244 Q73.2813,156.1494 73.5469,155.915 Q73.8125,155.6806 74.4219,155.6806 L74.8438,155.6806 L74.4375,154.6494 Z M73.7188,152.9463 L72.3594,149.5713 L70.9844,152.9463 L73.7188,152.9463 Z " fill="#000000"/><text fill="#000000" font-family="sans-serif" font-size="14" font-style="italic" lengthAdjust="spacing" textLength="130" x="99.25" y="152.3232">GridObjectController</text><text fill="#000000" font-family="sans-serif" font-size="10" font-style="italic" lengthAdjust="spacing" textLength="143" x="92.75" y="165.7802">medipro.object.base.gridobject</text><line style="stroke:#181818;stroke-width:0.5;" x1="8" x2="288" y1="172.9775" y2="172.9775"/><ellipse cx="18" cy="187.2822" fill="#84BE84" rx="3" ry="3" style="stroke:#038048;stroke-width:1.0;"/><text fill="#000000" font-family="sans-serif" font-size="14" lengthAdjust="spacing" textLength="256" x="27" y="191.5107">update(GameObjectModel, double): void</text></g></a><!--class medipro.object.base.gameobject.GameObjectController--><a href="..\gameobject\GameObjectController.html" target="_top" title="..\gameobject\GameObjectController.html" xlink:actuate="onRequest" xlink:href="..\gameobject\GameObjectController.html" xlink:show="new" xlink:title="..\gameobject\GameObjectController.html" xlink:type="simple"><g id="elem_medipro.object.base.gameobject.GameObjectController"><rect codeLine="9" fill="#F1F1F1" height="65.7969" id="medipro.object.base.gameobject.GameObjectController" rx="2.5" ry="2.5" style="stroke:#181818;stroke-width:0.5;" width="282" x="7" y="7"/><ellipse cx="68.75" cy="27.0938" fill="#A9DCDF" rx="11" ry="11" style="stroke:#181818;stroke-width:1.0;"/><path d="M70.9375,28.8594 L66.7969,28.8594 L66.375,29.8906 L66.7969,29.8906 Q67.4063,29.8906 67.6719,30.125 Q67.9375,30.3594 67.9375,30.75 Q67.9375,31.125 67.6719,31.3594 Q67.4063,31.5938 66.7969,31.5938 L64.5,31.5938 Q63.8906,31.5938 63.6406,31.3594 Q63.375,31.125 63.375,30.7344 Q63.375,30.3594 63.6563,30.125 Q63.9219,29.875 64.5469,29.8906 L67.2188,23.2344 L66.1094,23.2344 Q65.5,23.2344 65.2344,23 Q64.9688,22.7656 64.9688,22.375 Q64.9688,22 65.2344,21.7656 Q65.5,21.5313 66.1094,21.5313 L69.7813,21.5313 L73.1719,29.8906 Q73.7656,29.8906 73.9531,30.0313 Q74.3438,30.2969 74.3438,30.75 Q74.3438,31.125 74.0781,31.3594 Q73.8281,31.5938 73.2188,31.5938 L70.9219,31.5938 Q70.3125,31.5938 70.0469,31.3594 Q69.7813,31.125 69.7813,30.7344 Q69.7813,30.3594 70.0469,30.125 Q70.3125,29.8906 70.9219,29.8906 L71.3438,29.8906 L70.9375,28.8594 Z M70.2188,27.1563 L68.8594,23.7813 L67.4844,27.1563 L70.2188,27.1563 Z " fill="#000000"/><text fill="#000000" font-family="sans-serif" font-size="14" font-style="italic" lengthAdjust="spacing" textLength="141" x="93.75" y="26.5332">GameObjectController</text><text fill="#000000" font-family="sans-serif" font-size="10" font-style="italic" lengthAdjust="spacing" textLength="150" x="89.25" y="39.9902">medipro.object.base.gameobject</text><line style="stroke:#181818;stroke-width:0.5;" x1="8" x2="288" y1="47.1875" y2="47.1875"/><ellipse cx="18" cy="61.4922" fill="#84BE84" rx="3" ry="3" style="stroke:#038048;stroke-width:1.0;"/><text fill="#000000" font-family="sans-serif" font-size="14" font-style="italic" lengthAdjust="spacing" textLength="256" x="27" y="65.7207">update(GameObjectModel, double): void</text></g></a><!--reverse link medipro.object.base.gameobject.GameObjectController to medipro.object.base.gridobject.GridObjectController--><g id="link_medipro.object.base.gameobject.GameObjectController_medipro.object.base.gridobject.GridObjectController"><path codeLine="13" d="M148,91.1 C148,109.44 148,114.34 148,132.65 " fill="none" id="medipro.object.base.gameobject.GameObjectController-backto-medipro.object.base.gridobject.GridObjectController" style="stroke:#181818;stroke-width:1.0;"/><polygon fill="none" points="148,73.1,142,91.1,154,91.1,148,73.1" style="stroke:#181818;stroke-width:1.0;"/></g><text fill="#888888" font-family="sans-serif" font-size="10" lengthAdjust="spacing" textLength="184" x="49" y="214.9677">UMLDoclet 2.1.1, PlantUML 1.2023.12</text><!--SRC=[dPB1IWCn48RlFiLG45fiWokUIkb5eHUBWdZgzZ2RJDr8DhCaquBMlhlfLYleOcLp2Vddoypyam00H1BmM56iKTCZrHXGE81dJsSf3AKr15JLyWehIyx4dsf5KdAI6nsBA06rW7OO8_GcqRxHEBkUpe8rzyKBQRbXBu6Tev3xp_3bj29Zwy2A6qGL64azfok7Smymmj-8QYi0YqMRh4gft789swRb_RfOrmQ5-hCqY0CzPqDk28RNXQF163PiJOFlJXazflY_qNJbbD4ZejeA9ADAvTzGtWRzjhtzSh7hC84kRKxUHwCk3zaKrEGbvLWnxxUd-TqjQvT-xvNAL3Q41uTUaWhd6mhHikyFFW00]--></g></svg>