<?xml version="1.0" encoding="us-ascii" standalone="no"?><svg xmlns="http://www.w3.org/2000/svg" xmlns:xlink="http://www.w3.org/1999/xlink" contentStyleType="text/css" height="503px" preserveAspectRatio="none" style="width:1068px;height:503px;background:#FFFFFF;" version="1.1" viewBox="0 0 1068 503" width="1068px" zoomAndPan="magnify"><defs/><g><!--cluster medipro.object.base.gridobject--><g id="cluster_medipro.object.base.gridobject"><path d="M8.5,306.09 L229.5,306.09 A3.75,3.75 0 0 1 232,308.59 L239,329.6994 L1058.5,329.6994 A2.5,2.5 0 0 1 1061,332.1994 L1061,474.03 A2.5,2.5 0 0 1 1058.5,476.53 L8.5,476.53 A2.5,2.5 0 0 1 6,474.03 L6,308.59 A2.5,2.5 0 0 1 8.5,306.09 " fill="none" style="stroke:#000000;stroke-width:1.5;"/><line style="stroke:#000000;stroke-width:1.5;" x1="6" x2="239" y1="329.6994" y2="329.6994"/><text fill="#000000" font-family="sans-serif" font-size="14" font-weight="bold" lengthAdjust="spacing" textLength="220" x="10" y="322.6232">medipro.object.base.gridobject</text></g><!--cluster medipro.object.base.gameobject--><g id="cluster_medipro.object.base.gameobject"><path d="M302.5,6 L533.5,6 A3.75,3.75 0 0 1 536,8.5 L543,29.6094 L1020.5,29.6094 A2.5,2.5 0 0 1 1023,32.1094 L1023,279.59 A2.5,2.5 0 0 1 1020.5,282.09 L302.5,282.09 A2.5,2.5 0 0 1 300,279.59 L300,8.5 A2.5,2.5 0 0 1 302.5,6 " fill="none" style="stroke:#000000;stroke-width:1.5;"/><line style="stroke:#000000;stroke-width:1.5;" x1="300" x2="543" y1="29.6094" y2="29.6094"/><text fill="#000000" font-family="sans-serif" font-size="14" font-weight="bold" lengthAdjust="spacing" textLength="230" x="304" y="22.5332">medipro.object.base.gameobject</text></g><!--class GridObjectController--><a href="GridObjectController.html" target="_top" title="GridObjectController.html" xlink:actuate="onRequest" xlink:href="GridObjectController.html" xlink:show="new" xlink:title="GridObjectController.html" xlink:type="simple"><g id="elem_GridObjectController"><rect codeLine="5" fill="#F1F1F1" height="65.6094" id="GridObjectController" rx="2.5" ry="2.5" style="stroke:#181818;stroke-width:0.5;" width="282" x="763" y="368.51"/><ellipse cx="834.75" cy="384.51" fill="#A9DCDF" rx="11" ry="11" style="stroke:#181818;stroke-width:1.0;"/><path d="M836.9375,386.2756 L832.7969,386.2756 L832.375,387.3069 L832.7969,387.3069 Q833.4063,387.3069 833.6719,387.5413 Q833.9375,387.7756 833.9375,388.1663 Q833.9375,388.5413 833.6719,388.7756 Q833.4063,389.01 832.7969,389.01 L830.5,389.01 Q829.8906,389.01 829.6406,388.7756 Q829.375,388.5413 829.375,388.1506 Q829.375,387.7756 829.6563,387.5413 Q829.9219,387.2913 830.5469,387.3069 L833.2188,380.6506 L832.1094,380.6506 Q831.5,380.6506 831.2344,380.4163 Q830.9688,380.1819 830.9688,379.7913 Q830.9688,379.4163 831.2344,379.1819 Q831.5,378.9475 832.1094,378.9475 L835.7813,378.9475 L839.1719,387.3069 Q839.7656,387.3069 839.9531,387.4475 Q840.3438,387.7131 840.3438,388.1663 Q840.3438,388.5413 840.0781,388.7756 Q839.8281,389.01 839.2188,389.01 L836.9219,389.01 Q836.3125,389.01 836.0469,388.7756 Q835.7813,388.5413 835.7813,388.1506 Q835.7813,387.7756 836.0469,387.5413 Q836.3125,387.3069 836.9219,387.3069 L837.3438,387.3069 L836.9375,386.2756 Z M836.2188,384.5725 L834.8594,381.1975 L833.4844,384.5725 L836.2188,384.5725 Z " fill="#000000"/><text fill="#000000" font-family="sans-serif" font-size="14" font-style="italic" lengthAdjust="spacing" textLength="130" x="855.25" y="390.2385">GridObjectController</text><line style="stroke:#181818;stroke-width:0.5;" x1="764" x2="1044" y1="400.51" y2="400.51"/><line style="stroke:#181818;stroke-width:0.5;" x1="764" x2="1044" y1="408.51" y2="408.51"/><ellipse cx="774" cy="422.8147" fill="#84BE84" rx="3" ry="3" style="stroke:#038048;stroke-width:1.0;"/><text fill="#000000" font-family="sans-serif" font-size="14" lengthAdjust="spacing" textLength="256" x="783" y="427.0432">update(GameObjectModel, double): void</text></g></a><!--class GridObjectModel--><a href="GridObjectModel.html" target="_top" title="GridObjectModel.html" xlink:actuate="onRequest" xlink:href="GridObjectModel.html" xlink:show="new" xlink:title="GridObjectModel.html" xlink:type="simple"><g id="elem_GridObjectModel"><rect codeLine="9" fill="#F1F1F1" height="100.8281" id="GridObjectModel" rx="2.5" ry="2.5" style="stroke:#181818;stroke-width:0.5;" width="225" x="502.5" y="350.9"/><ellipse cx="557.25" cy="366.9" fill="#A9DCDF" rx="11" ry="11" style="stroke:#181818;stroke-width:1.0;"/><path d="M559.4375,368.6656 L555.2969,368.6656 L554.875,369.6969 L555.2969,369.6969 Q555.9063,369.6969 556.1719,369.9313 Q556.4375,370.1656 556.4375,370.5563 Q556.4375,370.9313 556.1719,371.1656 Q555.9063,371.4 555.2969,371.4 L553,371.4 Q552.3906,371.4 552.1406,371.1656 Q551.875,370.9313 551.875,370.5406 Q551.875,370.1656 552.1563,369.9313 Q552.4219,369.6813 553.0469,369.6969 L555.7188,363.0406 L554.6094,363.0406 Q554,363.0406 553.7344,362.8063 Q553.4688,362.5719 553.4688,362.1813 Q553.4688,361.8063 553.7344,361.5719 Q554,361.3375 554.6094,361.3375 L558.2813,361.3375 L561.6719,369.6969 Q562.2656,369.6969 562.4531,369.8375 Q562.8438,370.1031 562.8438,370.5563 Q562.8438,370.9313 562.5781,371.1656 Q562.3281,371.4 561.7188,371.4 L559.4219,371.4 Q558.8125,371.4 558.5469,371.1656 Q558.2813,370.9313 558.2813,370.5406 Q558.2813,370.1656 558.5469,369.9313 Q558.8125,369.6969 559.4219,369.6969 L559.8438,369.6969 L559.4375,368.6656 Z M558.7188,366.9625 L557.3594,363.5875 L555.9844,366.9625 L558.7188,366.9625 Z " fill="#000000"/><text fill="#000000" font-family="sans-serif" font-size="14" font-style="italic" lengthAdjust="spacing" textLength="107" x="577.75" y="372.6285">GridObjectModel</text><line style="stroke:#181818;stroke-width:0.5;" x1="503.5" x2="726.5" y1="382.9" y2="382.9"/><ellipse cx="513.5" cy="397.2047" fill="none" rx="3" ry="3" style="stroke:#038048;stroke-width:1.0;"/><text fill="#000000" font-family="sans-serif" font-size="14" lengthAdjust="spacing" textLength="55" x="522.5" y="401.4332">width: int</text><ellipse cx="513.5" cy="414.8141" fill="none" rx="3" ry="3" style="stroke:#038048;stroke-width:1.0;"/><text fill="#000000" font-family="sans-serif" font-size="14" lengthAdjust="spacing" textLength="62" x="522.5" y="419.0426">height: int</text><line style="stroke:#181818;stroke-width:0.5;" x1="503.5" x2="726.5" y1="426.1188" y2="426.1188"/><ellipse cx="513.5" cy="440.4234" fill="#84BE84" rx="3" ry="3" style="stroke:#038048;stroke-width:1.0;"/><text fill="#000000" font-family="sans-serif" font-size="14" lengthAdjust="spacing" textLength="199" x="522.5" y="444.652">GridObjectModel(World, int, int)</text></g></a><!--class GridObjectView--><a href="GridObjectView.html" target="_top" title="GridObjectView.html" xlink:actuate="onRequest" xlink:href="GridObjectView.html" xlink:show="new" xlink:title="GridObjectView.html" xlink:type="simple"><g id="elem_GridObjectView"><rect codeLine="15" fill="#F1F1F1" height="118.4375" id="GridObjectView" rx="2.5" ry="2.5" style="stroke:#181818;stroke-width:0.5;" width="445" x="22.5" y="342.09"/><ellipse cx="192.25" cy="358.09" fill="#A9DCDF" rx="11" ry="11" style="stroke:#181818;stroke-width:1.0;"/><path d="M194.4375,359.8556 L190.2969,359.8556 L189.875,360.8869 L190.2969,360.8869 Q190.9063,360.8869 191.1719,361.1213 Q191.4375,361.3556 191.4375,361.7463 Q191.4375,362.1213 191.1719,362.3556 Q190.9063,362.59 190.2969,362.59 L188,362.59 Q187.3906,362.59 187.1406,362.3556 Q186.875,362.1213 186.875,361.7306 Q186.875,361.3556 187.1563,361.1213 Q187.4219,360.8713 188.0469,360.8869 L190.7188,354.2306 L189.6094,354.2306 Q189,354.2306 188.7344,353.9963 Q188.4688,353.7619 188.4688,353.3713 Q188.4688,352.9963 188.7344,352.7619 Q189,352.5275 189.6094,352.5275 L193.2813,352.5275 L196.6719,360.8869 Q197.2656,360.8869 197.4531,361.0275 Q197.8438,361.2931 197.8438,361.7463 Q197.8438,362.1213 197.5781,362.3556 Q197.3281,362.59 196.7188,362.59 L194.4219,362.59 Q193.8125,362.59 193.5469,362.3556 Q193.2813,362.1213 193.2813,361.7306 Q193.2813,361.3556 193.5469,361.1213 Q193.8125,360.8869 194.4219,360.8869 L194.8438,360.8869 L194.4375,359.8556 Z M193.7188,358.1525 L192.3594,354.7775 L190.9844,358.1525 L193.7188,358.1525 Z " fill="#000000"/><text fill="#000000" font-family="sans-serif" font-size="14" font-style="italic" lengthAdjust="spacing" textLength="97" x="212.75" y="363.8185">GridObjectView</text><line style="stroke:#181818;stroke-width:0.5;" x1="23.5" x2="466.5" y1="374.09" y2="374.09"/><line style="stroke:#181818;stroke-width:0.5;" x1="23.5" x2="466.5" y1="382.09" y2="382.09"/><ellipse cx="33.5" cy="396.3947" fill="#84BE84" rx="3" ry="3" style="stroke:#038048;stroke-width:1.0;"/><text fill="#000000" font-family="sans-serif" font-size="14" lengthAdjust="spacing" textLength="213" x="42.5" y="400.6232">GridObjectView(GridObjectModel)</text><ellipse cx="33.5" cy="414.0041" fill="#84BE84" rx="3" ry="3" style="stroke:#038048;stroke-width:1.0;"/><text fill="#000000" font-family="sans-serif" font-size="14" lengthAdjust="spacing" textLength="149" x="42.5" y="418.2326">draw(Graphics2D): void</text><ellipse cx="33.5" cy="431.6134" fill="#84BE84" rx="3" ry="3" style="stroke:#038048;stroke-width:1.0;"/><text fill="#000000" font-family="sans-serif" font-size="14" font-style="italic" lengthAdjust="spacing" textLength="419" x="42.5" y="435.842">drawGrid(GameObjectModel, Graphics2D, Rectangle, int, int): void</text><rect fill="#F24D5C" height="6" style="stroke:#C82930;stroke-width:1.0;" width="6" x="30.5" y="446.2228"/><text fill="#000000" font-family="sans-serif" font-size="14" lengthAdjust="spacing" text-decoration="underline" textLength="412" x="42.5" y="453.4513">getEnclosingRectangle(Double, Double, Double, Double): Double</text></g></a><!--class GameObjectController--><a href="..\gameobject\GameObjectController.html" target="_top" title="..\gameobject\GameObjectController.html" xlink:actuate="onRequest" xlink:href="..\gameobject\GameObjectController.html" xlink:show="new" xlink:title="..\gameobject\GameObjectController.html" xlink:type="simple"><g id="elem_GameObjectController"><rect codeLine="25" fill="#F1F1F1" height="100.8281" id="GameObjectController" rx="2.5" ry="2.5" style="stroke:#181818;stroke-width:0.5;" width="282" x="725" y="103.63"/><ellipse cx="791.25" cy="119.63" fill="#A9DCDF" rx="11" ry="11" style="stroke:#181818;stroke-width:1.0;"/><path d="M793.4375,121.3956 L789.2969,121.3956 L788.875,122.4269 L789.2969,122.4269 Q789.9063,122.4269 790.1719,122.6613 Q790.4375,122.8956 790.4375,123.2863 Q790.4375,123.6613 790.1719,123.8956 Q789.9063,124.13 789.2969,124.13 L787,124.13 Q786.3906,124.13 786.1406,123.8956 Q785.875,123.6613 785.875,123.2706 Q785.875,122.8956 786.1563,122.6613 Q786.4219,122.4113 787.0469,122.4269 L789.7188,115.7706 L788.6094,115.7706 Q788,115.7706 787.7344,115.5363 Q787.4688,115.3019 787.4688,114.9113 Q787.4688,114.5363 787.7344,114.3019 Q788,114.0675 788.6094,114.0675 L792.2813,114.0675 L795.6719,122.4269 Q796.2656,122.4269 796.4531,122.5675 Q796.8438,122.8331 796.8438,123.2863 Q796.8438,123.6613 796.5781,123.8956 Q796.3281,124.13 795.7188,124.13 L793.4219,124.13 Q792.8125,124.13 792.5469,123.8956 Q792.2813,123.6613 792.2813,123.2706 Q792.2813,122.8956 792.5469,122.6613 Q792.8125,122.4269 793.4219,122.4269 L793.8438,122.4269 L793.4375,121.3956 Z M792.7188,119.6925 L791.3594,116.3175 L789.9844,119.6925 L792.7188,119.6925 Z " fill="#000000"/><text fill="#000000" font-family="sans-serif" font-size="14" font-style="italic" lengthAdjust="spacing" textLength="141" x="811.75" y="125.3585">GameObjectController</text><line style="stroke:#181818;stroke-width:0.5;" x1="726" x2="1006" y1="135.63" y2="135.63"/><polygon fill="none" points="736,144.9347,740,148.9347,736,152.9347,732,148.9347" style="stroke:#B38D22;stroke-width:1.0;"/><text fill="#000000" font-family="sans-serif" font-size="14" lengthAdjust="spacing" textLength="93" x="745" y="154.1632">logger: Logger</text><ellipse cx="736" cy="167.5441" fill="none" rx="3" ry="3" style="stroke:#038048;stroke-width:1.0;"/><text fill="#000000" font-family="sans-serif" font-size="14" lengthAdjust="spacing" textLength="242" x="745" y="171.7726">models: ArrayList&lt;GameObjectModel&gt;</text><line style="stroke:#181818;stroke-width:0.5;" x1="726" x2="1006" y1="178.8488" y2="178.8488"/><ellipse cx="736" cy="193.1534" fill="#84BE84" rx="3" ry="3" style="stroke:#038048;stroke-width:1.0;"/><text fill="#000000" font-family="sans-serif" font-size="14" font-style="italic" lengthAdjust="spacing" textLength="256" x="745" y="197.382">update(GameObjectModel, double): void</text></g></a><!--class GameObjectModel--><a href="..\gameobject\GameObjectModel.html" target="_top" title="..\gameobject\GameObjectModel.html" xlink:actuate="onRequest" xlink:href="..\gameobject\GameObjectModel.html" xlink:show="new" xlink:title="..\gameobject\GameObjectModel.html" xlink:type="simple"><g id="elem_GameObjectModel"><rect codeLine="30" fill="#F1F1F1" height="171.2656" id="GameObjectModel" rx="2.5" ry="2.5" style="stroke:#181818;stroke-width:0.5;" width="150" x="540" y="68.41"/><ellipse cx="555" cy="84.41" fill="#A9DCDF" rx="11" ry="11" style="stroke:#181818;stroke-width:1.0;"/><path d="M557.1875,86.1756 L553.0469,86.1756 L552.625,87.2069 L553.0469,87.2069 Q553.6563,87.2069 553.9219,87.4412 Q554.1875,87.6756 554.1875,88.0662 Q554.1875,88.4412 553.9219,88.6756 Q553.6563,88.91 553.0469,88.91 L550.75,88.91 Q550.1406,88.91 549.8906,88.6756 Q549.625,88.4412 549.625,88.0506 Q549.625,87.6756 549.9063,87.4412 Q550.1719,87.1912 550.7969,87.2069 L553.4688,80.5506 L552.3594,80.5506 Q551.75,80.5506 551.4844,80.3162 Q551.2188,80.0819 551.2188,79.6912 Q551.2188,79.3162 551.4844,79.0819 Q551.75,78.8475 552.3594,78.8475 L556.0313,78.8475 L559.4219,87.2069 Q560.0156,87.2069 560.2031,87.3475 Q560.5938,87.6131 560.5938,88.0662 Q560.5938,88.4412 560.3281,88.6756 Q560.0781,88.91 559.4688,88.91 L557.1719,88.91 Q556.5625,88.91 556.2969,88.6756 Q556.0313,88.4412 556.0313,88.0506 Q556.0313,87.6756 556.2969,87.4412 Q556.5625,87.2069 557.1719,87.2069 L557.5938,87.2069 L557.1875,86.1756 Z M556.4688,84.4725 L555.1094,81.0975 L553.7344,84.4725 L556.4688,84.4725 Z " fill="#000000"/><text fill="#000000" font-family="sans-serif" font-size="14" font-style="italic" lengthAdjust="spacing" textLength="118" x="569" y="90.1385">GameObjectModel</text><line style="stroke:#181818;stroke-width:0.5;" x1="541" x2="689" y1="100.41" y2="100.41"/><polygon fill="none" points="551,109.7147,555,113.7147,551,117.7147,547,113.7147" style="stroke:#B38D22;stroke-width:1.0;"/><text fill="#000000" font-family="sans-serif" font-size="14" lengthAdjust="spacing" textLength="93" x="560" y="118.9432">logger: Logger</text><ellipse cx="551" cy="132.3241" fill="none" rx="3" ry="3" style="stroke:#038048;stroke-width:1.0;"/><text fill="#000000" font-family="sans-serif" font-size="14" lengthAdjust="spacing" textLength="78" x="560" y="136.5526">world: World</text><ellipse cx="551" cy="149.9334" fill="none" rx="3" ry="3" style="stroke:#038048;stroke-width:1.0;"/><text fill="#000000" font-family="sans-serif" font-size="14" lengthAdjust="spacing" textLength="57" x="560" y="154.162">x: double</text><ellipse cx="551" cy="167.5428" fill="none" rx="3" ry="3" style="stroke:#038048;stroke-width:1.0;"/><text fill="#000000" font-family="sans-serif" font-size="14" lengthAdjust="spacing" textLength="58" x="560" y="171.7713">y: double</text><ellipse cx="551" cy="185.1522" fill="none" rx="3" ry="3" style="stroke:#038048;stroke-width:1.0;"/><text fill="#000000" font-family="sans-serif" font-size="14" lengthAdjust="spacing" textLength="99" x="560" y="189.3807">rotation: double</text><ellipse cx="551" cy="202.7616" fill="none" rx="3" ry="3" style="stroke:#038048;stroke-width:1.0;"/><text fill="#000000" font-family="sans-serif" font-size="14" lengthAdjust="spacing" textLength="92" x="560" y="206.9901">scaleX: double</text><ellipse cx="551" cy="220.3709" fill="none" rx="3" ry="3" style="stroke:#038048;stroke-width:1.0;"/><text fill="#000000" font-family="sans-serif" font-size="14" lengthAdjust="spacing" textLength="93" x="560" y="224.5995">scaleY: double</text><line style="stroke:#181818;stroke-width:0.5;" x1="541" x2="689" y1="231.6756" y2="231.6756"/></g></a><!--class GameObjectView--><a href="..\gameobject\GameObjectView.html" target="_top" title="..\gameobject\GameObjectView.html" xlink:actuate="onRequest" xlink:href="..\gameobject\GameObjectView.html" xlink:show="new" xlink:title="..\gameobject\GameObjectView.html" xlink:type="simple"><g id="elem_GameObjectView"><rect codeLine="39" fill="#F1F1F1" height="224.0938" id="GameObjectView" rx="2.5" ry="2.5" style="stroke:#181818;stroke-width:0.5;" width="189" x="316.5" y="42"/><ellipse cx="353.55" cy="58" fill="#A9DCDF" rx="11" ry="11" style="stroke:#181818;stroke-width:1.0;"/><path d="M355.7375,59.7656 L351.5969,59.7656 L351.175,60.7969 L351.5969,60.7969 Q352.2063,60.7969 352.4719,61.0313 Q352.7375,61.2656 352.7375,61.6563 Q352.7375,62.0313 352.4719,62.2656 Q352.2063,62.5 351.5969,62.5 L349.3,62.5 Q348.6906,62.5 348.4406,62.2656 Q348.175,62.0313 348.175,61.6406 Q348.175,61.2656 348.4563,61.0313 Q348.7219,60.7813 349.3469,60.7969 L352.0188,54.1406 L350.9094,54.1406 Q350.3,54.1406 350.0344,53.9063 Q349.7688,53.6719 349.7688,53.2813 Q349.7688,52.9063 350.0344,52.6719 Q350.3,52.4375 350.9094,52.4375 L354.5813,52.4375 L357.9719,60.7969 Q358.5656,60.7969 358.7531,60.9375 Q359.1438,61.2031 359.1438,61.6563 Q359.1438,62.0313 358.8781,62.2656 Q358.6281,62.5 358.0188,62.5 L355.7219,62.5 Q355.1125,62.5 354.8469,62.2656 Q354.5813,62.0313 354.5813,61.6406 Q354.5813,61.2656 354.8469,61.0313 Q355.1125,60.7969 355.7219,60.7969 L356.1438,60.7969 L355.7375,59.7656 Z M355.0188,58.0625 L353.6594,54.6875 L352.2844,58.0625 L355.0188,58.0625 Z " fill="#000000"/><text fill="#000000" font-family="sans-serif" font-size="14" font-style="italic" lengthAdjust="spacing" textLength="108" x="372.45" y="63.7285">GameObjectView</text><line style="stroke:#181818;stroke-width:0.5;" x1="317.5" x2="504.5" y1="74" y2="74"/><polygon fill="none" points="327.5,83.3047,331.5,87.3047,327.5,91.3047,323.5,87.3047" style="stroke:#B38D22;stroke-width:1.0;"/><text fill="#000000" font-family="sans-serif" font-size="14" lengthAdjust="spacing" textLength="93" x="336.5" y="92.5332">logger: Logger</text><ellipse cx="327.5" cy="105.9141" fill="none" rx="3" ry="3" style="stroke:#038048;stroke-width:1.0;"/><text fill="#000000" font-family="sans-serif" font-size="14" lengthAdjust="spacing" textLength="163" x="336.5" y="110.1426">model: GameObjectModel</text><ellipse cx="327.5" cy="123.5234" fill="none" rx="3" ry="3" style="stroke:#038048;stroke-width:1.0;"/><text fill="#000000" font-family="sans-serif" font-size="14" lengthAdjust="spacing" textLength="117" x="336.5" y="127.752">drawAsUI: boolean</text><polygon fill="none" points="327.5,136.1328,331.5,140.1328,327.5,144.1328,323.5,140.1328" style="stroke:#B38D22;stroke-width:1.0;"/><text fill="#000000" font-family="sans-serif" font-size="14" lengthAdjust="spacing" text-decoration="underline" textLength="128" x="336.5" y="145.3613">nextBindingPoint: int</text><polygon fill="none" points="327.5,154.7422,323.5,160.7422,331.5,160.7422" style="stroke:#1963A0;stroke-width:1.0;"/><text fill="#000000" font-family="sans-serif" font-size="14" lengthAdjust="spacing" textLength="121" x="336.5" y="162.9707">shaderProgram: int</text><polygon fill="none" points="327.5,172.3516,323.5,178.3516,331.5,178.3516" style="stroke:#1963A0;stroke-width:1.0;"/><text fill="#000000" font-family="sans-serif" font-size="14" lengthAdjust="spacing" textLength="140" x="336.5" y="180.5801">textureName: IntBuffer</text><polygon fill="none" points="327.5,189.9609,323.5,195.9609,331.5,195.9609" style="stroke:#1963A0;stroke-width:1.0;"/><text fill="#000000" font-family="sans-serif" font-size="14" lengthAdjust="spacing" textLength="147" x="336.5" y="198.1895">samplerName: IntBuffer</text><polygon fill="none" points="327.5,207.5703,323.5,213.5703,331.5,213.5703" style="stroke:#1963A0;stroke-width:1.0;"/><text fill="#000000" font-family="sans-serif" font-size="14" lengthAdjust="spacing" textLength="84" x="336.5" y="215.7988">vbo: IntBuffer</text><polygon fill="none" points="327.5,225.1797,323.5,231.1797,331.5,231.1797" style="stroke:#1963A0;stroke-width:1.0;"/><text fill="#000000" font-family="sans-serif" font-size="14" lengthAdjust="spacing" textLength="112" x="336.5" y="233.4082">shaderFile: String</text><line style="stroke:#181818;stroke-width:0.5;" x1="317.5" x2="504.5" y1="240.4844" y2="240.4844"/><polygon fill="#FFFF44" points="327.5,249.7891,331.5,253.7891,327.5,257.7891,323.5,253.7891" style="stroke:#B38D22;stroke-width:1.0;"/><text fill="#000000" font-family="sans-serif" font-size="14" font-style="italic" lengthAdjust="spacing" textLength="148" x="336.5" y="259.0176">draw(Graphics2D): void</text></g></a><!--reverse link GameObjectController to GridObjectController--><g id="link_GameObjectController_GridObjectController"><path codeLine="53" d="M876.4465,222.4677 C884.0165,271.3177 892.59,326.68 899.04,368.31 " fill="none" id="GameObjectController-backto-GridObjectController" style="stroke:#181818;stroke-width:1.0;"/><polygon fill="none" points="873.69,204.68,870.5172,223.3865,882.3757,221.5489,873.69,204.68" style="stroke:#181818;stroke-width:1.0;"/></g><!--reverse link GameObjectModel to GridObjectModel--><g id="link_GameObjectModel_GridObjectModel"><path codeLine="54" d="M615,258.14 C615,294.94 615,318.74 615,350.4 " fill="none" id="GameObjectModel-backto-GridObjectModel" style="stroke:#181818;stroke-width:1.0;"/><polygon fill="none" points="615,240.14,609,258.14,621,258.14,615,240.14" style="stroke:#181818;stroke-width:1.0;"/></g><!--reverse link GameObjectView to GridObjectView--><g id="link_GameObjectView_GridObjectView"><path codeLine="55" d="M325.4422,281.4576 C307.8822,307.4076 299.96,319.11 284.67,341.69 " fill="none" id="GameObjectView-backto-GridObjectView" style="stroke:#181818;stroke-width:1.0;"/><polygon fill="none" points="335.53,266.55,320.473,278.095,330.4114,284.8202,335.53,266.55" style="stroke:#181818;stroke-width:1.0;"/></g><text fill="#888888" font-family="sans-serif" font-size="10" lengthAdjust="spacing" textLength="184" x="435" y="492.9109">UMLDoclet 2.1.1, PlantUML 1.2023.12</text><!--SRC=[bLPRQzim57xlhpWG1WbB3EsZA8DssKeXtS96Tw7jWsoTsDfaoKXAqjAvltsItIQn8-SYY1MVwwTppcSR0C2WTR-2QcgL1a9EJfmG2fhyfIb2ZemNMaKg_eE9ZM9gC4erP_KzFDVMVj7OM4sTB17K6BXoHbyheuzAMgs4G0rtTo5nbDbSF3ouOB2ntiyBHYtshsYEjSUDOYY6mDGy5ZWWi52ShLpA0v1K0HeWAab7_YLdDYF0fMtAC-HfPWEALjZ-JwK56tgxwZ8u2kiFZii6L2_eGDeqwhTm39h6J5DlGekC9-PitAwZNyzlgChQt0VSxiCwnX2-EJ6LgS2DuuO26qijJqeOfMW_oKGemsMwSkwFgzOE8RoxYFMVTY7B0sRMeL_DR5VnLoTiZ6mKtQ-zxqD6uRRqX4fJr0GcrTxiGkvhQ0XSQ4sV9jpOyrPzFtHsv5XUx3tj6osw3hg393lFkFJpJw2YGLFpI5xHDiLFOR5MVcgK36jDGWN-sg7xlQKxe2QlzEigIJSPztUTj4k_pSyBStjD85PA89LX1lKaFjfBBfaZq5Gvlcq_a5vCHXdggLQffdb0Rrs8kSOl3Ww1QsalvxDP2_ABeNdXHdodpI9MtVuLXizSEFVlLZkqNOFTs_DaAZUvlflZX0IvVFvlDDhpHdEUWJVKaIbhGXsPRJqAXoUgflJ8FDwdIfEWjAueCwNyTdip6Qj4k8-1i-WqEXt2L51fdHJUBL0RHx_-u3y0]--></g></svg>