<?xml version="1.0" encoding="us-ascii" standalone="no"?><svg xmlns="http://www.w3.org/2000/svg" xmlns:xlink="http://www.w3.org/1999/xlink" contentStyleType="text/css" height="242px" preserveAspectRatio="none" style="width:304px;height:242px;background:#FFFFFF;" version="1.1" viewBox="0 0 304 242" width="304px" zoomAndPan="magnify"><defs/><g><!--class medipro.object.ornament.glmarker.GLMarkerController--><a href="GLMarkerController.html" target="_top" title="GLMarkerController.html" xlink:actuate="onRequest" xlink:href="GLMarkerController.html" xlink:show="new" xlink:title="GLMarkerController.html" xlink:type="simple"><g id="elem_medipro.object.ornament.glmarker.GLMarkerController"><rect codeLine="5" fill="#F1F1F1" height="83.4063" id="medipro.object.ornament.glmarker.GLMarkerController" rx="2.5" ry="2.5" style="stroke:#181818;stroke-width:0.5;" width="290" x="7" y="132.79"/><ellipse cx="66.25" cy="152.8838" fill="#ADD1B2" rx="11" ry="11" style="stroke:#181818;stroke-width:1.0;"/><path d="M69.0156,148.7588 Q69.1719,148.54 69.3594,148.4306 Q69.5469,148.3213 69.7656,148.3213 Q70.1406,148.3213 70.375,148.5869 Q70.6094,148.8369 70.6094,149.4463 L70.6094,150.8994 Q70.6094,151.5088 70.375,151.7744 Q70.1406,152.04 69.7656,152.04 Q69.4219,152.04 69.2188,151.8369 Q69.0156,151.6494 68.9063,151.1338 Q68.8594,150.7744 68.6719,150.5869 Q68.3438,150.2119 67.7344,149.9931 Q67.125,149.7744 66.5,149.7744 Q65.7344,149.7744 65.0938,150.1025 Q64.4688,150.4306 63.9688,151.1806 Q63.4844,151.9306 63.4844,152.9619 L63.4844,154.0556 Q63.4844,155.29 64.375,156.1181 Q65.2656,156.9306 66.8594,156.9306 Q67.7969,156.9306 68.4531,156.6806 Q68.8438,156.5244 69.2656,156.0869 Q69.5313,155.8213 69.6719,155.7431 Q69.8281,155.665 70.0313,155.665 Q70.3594,155.665 70.6094,155.9306 Q70.875,156.1806 70.875,156.5244 Q70.875,156.8681 70.5313,157.2744 Q70.0313,157.8525 69.2344,158.1806 Q68.1563,158.6338 66.8594,158.6338 Q65.3438,158.6338 64.1406,158.0088 Q63.1563,157.5088 62.4688,156.4463 Q61.7813,155.3681 61.7813,154.0869 L61.7813,152.9306 Q61.7813,151.6025 62.3906,150.4619 Q63.0156,149.3056 64.1094,148.6963 Q65.2031,148.0713 66.4375,148.0713 Q67.1719,148.0713 67.8125,148.2431 Q68.4688,148.3994 69.0156,148.7588 Z " fill="#000000"/><text fill="#000000" font-family="sans-serif" font-size="14" lengthAdjust="spacing" textLength="125" x="105.75" y="152.3232">GLMarkerController</text><text fill="#000000" font-family="sans-serif" font-size="10" lengthAdjust="spacing" textLength="163" x="86.75" y="165.7802">medipro.object.ornament.glmarker</text><line style="stroke:#181818;stroke-width:0.5;" x1="8" x2="296" y1="172.9775" y2="172.9775"/><ellipse cx="18" cy="187.2822" fill="#84BE84" rx="3" ry="3" style="stroke:#038048;stroke-width:1.0;"/><text fill="#000000" font-family="sans-serif" font-size="14" lengthAdjust="spacing" textLength="264" x="27" y="191.5107">GLMarkerController(GameObjectModel...)</text><ellipse cx="18" cy="204.8916" fill="#84BE84" rx="3" ry="3" style="stroke:#038048;stroke-width:1.0;"/><text fill="#000000" font-family="sans-serif" font-size="14" lengthAdjust="spacing" textLength="256" x="27" y="209.1201">update(GameObjectModel, double): void</text></g></a><!--class medipro.object.base.gameobject.GameObjectController--><a href="..\..\base\gameobject\GameObjectController.html" target="_top" title="..\..\base\gameobject\GameObjectController.html" xlink:actuate="onRequest" xlink:href="..\..\base\gameobject\GameObjectController.html" xlink:show="new" xlink:title="..\..\base\gameobject\GameObjectController.html" xlink:type="simple"><g id="elem_medipro.object.base.gameobject.GameObjectController"><rect codeLine="10" fill="#F1F1F1" height="65.7969" id="medipro.object.base.gameobject.GameObjectController" rx="2.5" ry="2.5" style="stroke:#181818;stroke-width:0.5;" width="282" x="11" y="7"/><ellipse cx="72.75" cy="27.0938" fill="#A9DCDF" rx="11" ry="11" style="stroke:#181818;stroke-width:1.0;"/><path d="M74.9375,28.8594 L70.7969,28.8594 L70.375,29.8906 L70.7969,29.8906 Q71.4063,29.8906 71.6719,30.125 Q71.9375,30.3594 71.9375,30.75 Q71.9375,31.125 71.6719,31.3594 Q71.4063,31.5938 70.7969,31.5938 L68.5,31.5938 Q67.8906,31.5938 67.6406,31.3594 Q67.375,31.125 67.375,30.7344 Q67.375,30.3594 67.6563,30.125 Q67.9219,29.875 68.5469,29.8906 L71.2188,23.2344 L70.1094,23.2344 Q69.5,23.2344 69.2344,23 Q68.9688,22.7656 68.9688,22.375 Q68.9688,22 69.2344,21.7656 Q69.5,21.5313 70.1094,21.5313 L73.7813,21.5313 L77.1719,29.8906 Q77.7656,29.8906 77.9531,30.0313 Q78.3438,30.2969 78.3438,30.75 Q78.3438,31.125 78.0781,31.3594 Q77.8281,31.5938 77.2188,31.5938 L74.9219,31.5938 Q74.3125,31.5938 74.0469,31.3594 Q73.7813,31.125 73.7813,30.7344 Q73.7813,30.3594 74.0469,30.125 Q74.3125,29.8906 74.9219,29.8906 L75.3438,29.8906 L74.9375,28.8594 Z M74.2188,27.1563 L72.8594,23.7813 L71.4844,27.1563 L74.2188,27.1563 Z " fill="#000000"/><text fill="#000000" font-family="sans-serif" font-size="14" font-style="italic" lengthAdjust="spacing" textLength="141" x="97.75" y="26.5332">GameObjectController</text><text fill="#000000" font-family="sans-serif" font-size="10" font-style="italic" lengthAdjust="spacing" textLength="150" x="93.25" y="39.9902">medipro.object.base.gameobject</text><line style="stroke:#181818;stroke-width:0.5;" x1="12" x2="292" y1="47.1875" y2="47.1875"/><ellipse cx="22" cy="61.4922" fill="#84BE84" rx="3" ry="3" style="stroke:#038048;stroke-width:1.0;"/><text fill="#000000" font-family="sans-serif" font-size="14" font-style="italic" lengthAdjust="spacing" textLength="256" x="31" y="65.7207">update(GameObjectModel, double): void</text></g></a><!--reverse link medipro.object.base.gameobject.GameObjectController to medipro.object.ornament.glmarker.GLMarkerController--><g id="link_medipro.object.base.gameobject.GameObjectController_medipro.object.ornament.glmarker.GLMarkerController"><path codeLine="14" d="M152,90.99 C152,108.93 152,113.46 152,132.65 " fill="none" id="medipro.object.base.gameobject.GameObjectController-backto-medipro.object.ornament.glmarker.GLMarkerController" style="stroke:#181818;stroke-width:1.0;"/><polygon fill="none" points="152,72.99,146,90.99,158,90.99,152,72.99" style="stroke:#181818;stroke-width:1.0;"/></g><text fill="#888888" font-family="sans-serif" font-size="10" lengthAdjust="spacing" textLength="184" x="53" y="232.5771">UMLDoclet 2.1.1, PlantUML 1.2023.12</text><!--SRC=[dP9TIyCm58Rl_HM7WR3YTh3YrHYxKTZDYe9ujUuYRSxMQffJacoWS__Tj5K7RM7I40XvyvoFl0a0W2K7MXHaIv7I2vN22CS6D6kwyiUGvPA0Yj9zm3Od9MrRBSXbxELQJvMm5aPpct_IBBnVB5UHCEza7bWxmqgHYVNFuUsY89cNXf6JDqeTigdwq0vtggY3HY0iN8AmMmBMwww8cIlKPWF7kizgt7IXyT8dVwehHIn98M9mvlUb58xQp0GaxnD5mGmEdCiQFpLkYCGw8rBNjUKlnN-CIOGbtFcGPjzdIml1lWBU5iJOpmgEpt3S1tVjElxUvZJ0YI7jph-cqo7Fttn43_aSM-PgUOrMZvmg_zNlCCHm0izAQETLk3wGiJdhSV0D]--></g></svg>