<?xml version="1.0" encoding="us-ascii" standalone="no"?><svg xmlns="http://www.w3.org/2000/svg" xmlns:xlink="http://www.w3.org/1999/xlink" contentStyleType="text/css" height="242px" preserveAspectRatio="none" style="width:259px;height:242px;background:#FFFFFF;" version="1.1" viewBox="0 0 259 242" width="259px" zoomAndPan="magnify"><defs/><g><!--class medipro.object.ornament.glmarker.GLMarkerView--><a href="GLMarkerView.html" target="_top" title="GLMarkerView.html" xlink:actuate="onRequest" xlink:href="GLMarkerView.html" xlink:show="new" xlink:title="GLMarkerView.html" xlink:type="simple"><g id="elem_medipro.object.ornament.glmarker.GLMarkerView"><rect codeLine="5" fill="#F1F1F1" height="83.4063" id="medipro.object.ornament.glmarker.GLMarkerView" rx="2.5" ry="2.5" style="stroke:#181818;stroke-width:0.5;" width="245" x="7" y="132.79"/><ellipse cx="44.5" cy="152.8838" fill="#ADD1B2" rx="11" ry="11" style="stroke:#181818;stroke-width:1.0;"/><path d="M47.2656,148.7588 Q47.4219,148.54 47.6094,148.4306 Q47.7969,148.3213 48.0156,148.3213 Q48.3906,148.3213 48.625,148.5869 Q48.8594,148.8369 48.8594,149.4463 L48.8594,150.8994 Q48.8594,151.5088 48.625,151.7744 Q48.3906,152.04 48.0156,152.04 Q47.6719,152.04 47.4688,151.8369 Q47.2656,151.6494 47.1563,151.1338 Q47.1094,150.7744 46.9219,150.5869 Q46.5938,150.2119 45.9844,149.9931 Q45.375,149.7744 44.75,149.7744 Q43.9844,149.7744 43.3438,150.1025 Q42.7188,150.4306 42.2188,151.1806 Q41.7344,151.9306 41.7344,152.9619 L41.7344,154.0556 Q41.7344,155.29 42.625,156.1181 Q43.5156,156.9306 45.1094,156.9306 Q46.0469,156.9306 46.7031,156.6806 Q47.0938,156.5244 47.5156,156.0869 Q47.7813,155.8213 47.9219,155.7431 Q48.0781,155.665 48.2813,155.665 Q48.6094,155.665 48.8594,155.9306 Q49.125,156.1806 49.125,156.5244 Q49.125,156.8681 48.7813,157.2744 Q48.2813,157.8525 47.4844,158.1806 Q46.4063,158.6338 45.1094,158.6338 Q43.5938,158.6338 42.3906,158.0088 Q41.4063,157.5088 40.7188,156.4463 Q40.0313,155.3681 40.0313,154.0869 L40.0313,152.9306 Q40.0313,151.6025 40.6406,150.4619 Q41.2656,149.3056 42.3594,148.6963 Q43.4531,148.0713 44.6875,148.0713 Q45.4219,148.0713 46.0625,148.2431 Q46.7188,148.3994 47.2656,148.7588 Z " fill="#000000"/><text fill="#000000" font-family="sans-serif" font-size="14" lengthAdjust="spacing" textLength="92" x="99" y="152.3232">GLMarkerView</text><text fill="#000000" font-family="sans-serif" font-size="10" lengthAdjust="spacing" textLength="163" x="63.5" y="165.7802">medipro.object.ornament.glmarker</text><line style="stroke:#181818;stroke-width:0.5;" x1="8" x2="251" y1="172.9775" y2="172.9775"/><ellipse cx="18" cy="187.2822" fill="#84BE84" rx="3" ry="3" style="stroke:#038048;stroke-width:1.0;"/><text fill="#000000" font-family="sans-serif" font-size="14" lengthAdjust="spacing" textLength="219" x="27" y="191.5107">GLMarkerView(GameObjectModel)</text><ellipse cx="18" cy="204.8916" fill="#84BE84" rx="3" ry="3" style="stroke:#038048;stroke-width:1.0;"/><text fill="#000000" font-family="sans-serif" font-size="14" lengthAdjust="spacing" textLength="149" x="27" y="209.1201">draw(Graphics2D): void</text></g></a><!--class medipro.object.base.gameobject.GameObjectView--><a href="..\..\base\gameobject\GameObjectView.html" target="_top" title="..\..\base\gameobject\GameObjectView.html" xlink:actuate="onRequest" xlink:href="..\..\base\gameobject\GameObjectView.html" xlink:show="new" xlink:title="..\..\base\gameobject\GameObjectView.html" xlink:type="simple"><g id="elem_medipro.object.base.gameobject.GameObjectView"><rect codeLine="10" fill="#F1F1F1" height="65.7969" id="medipro.object.base.gameobject.GameObjectView" rx="2.5" ry="2.5" style="stroke:#181818;stroke-width:0.5;" width="182" x="38.5" y="7"/><ellipse cx="53.5" cy="27.0938" fill="#A9DCDF" rx="11" ry="11" style="stroke:#181818;stroke-width:1.0;"/><path d="M55.6875,28.8594 L51.5469,28.8594 L51.125,29.8906 L51.5469,29.8906 Q52.1563,29.8906 52.4219,30.125 Q52.6875,30.3594 52.6875,30.75 Q52.6875,31.125 52.4219,31.3594 Q52.1563,31.5938 51.5469,31.5938 L49.25,31.5938 Q48.6406,31.5938 48.3906,31.3594 Q48.125,31.125 48.125,30.7344 Q48.125,30.3594 48.4063,30.125 Q48.6719,29.875 49.2969,29.8906 L51.9688,23.2344 L50.8594,23.2344 Q50.25,23.2344 49.9844,23 Q49.7188,22.7656 49.7188,22.375 Q49.7188,22 49.9844,21.7656 Q50.25,21.5313 50.8594,21.5313 L54.5313,21.5313 L57.9219,29.8906 Q58.5156,29.8906 58.7031,30.0313 Q59.0938,30.2969 59.0938,30.75 Q59.0938,31.125 58.8281,31.3594 Q58.5781,31.5938 57.9688,31.5938 L55.6719,31.5938 Q55.0625,31.5938 54.7969,31.3594 Q54.5313,31.125 54.5313,30.7344 Q54.5313,30.3594 54.7969,30.125 Q55.0625,29.8906 55.6719,29.8906 L56.0938,29.8906 L55.6875,28.8594 Z M54.9688,27.1563 L53.6094,23.7813 L52.2344,27.1563 L54.9688,27.1563 Z " fill="#000000"/><text fill="#000000" font-family="sans-serif" font-size="14" font-style="italic" lengthAdjust="spacing" textLength="108" x="88.5" y="26.5332">GameObjectView</text><text fill="#000000" font-family="sans-serif" font-size="10" font-style="italic" lengthAdjust="spacing" textLength="150" x="67.5" y="39.9902">medipro.object.base.gameobject</text><line style="stroke:#181818;stroke-width:0.5;" x1="39.5" x2="219.5" y1="47.1875" y2="47.1875"/><polygon fill="#FFFF44" points="49.5,56.4922,53.5,60.4922,49.5,64.4922,45.5,60.4922" style="stroke:#B38D22;stroke-width:1.0;"/><text fill="#000000" font-family="sans-serif" font-size="14" font-style="italic" lengthAdjust="spacing" textLength="148" x="58.5" y="65.7207">draw(Graphics2D): void</text></g></a><!--reverse link medipro.object.base.gameobject.GameObjectView to medipro.object.ornament.glmarker.GLMarkerView--><g id="link_medipro.object.base.gameobject.GameObjectView_medipro.object.ornament.glmarker.GLMarkerView"><path codeLine="14" d="M129.5,90.99 C129.5,108.93 129.5,113.46 129.5,132.65 " fill="none" id="medipro.object.base.gameobject.GameObjectView-backto-medipro.object.ornament.glmarker.GLMarkerView" style="stroke:#181818;stroke-width:1.0;"/><polygon fill="none" points="129.5,72.99,123.5,90.99,135.5,90.99,129.5,72.99" style="stroke:#181818;stroke-width:1.0;"/></g><text fill="#888888" font-family="sans-serif" font-size="10" lengthAdjust="spacing" textLength="184" x="30.5" y="232.5771">UMLDoclet 2.1.1, PlantUML 1.2023.12</text><!--SRC=[bL9DQm8n5BptLpmi1QKrTAKd4K-25vSMIdjnFRnDdcxQV2n9iBJM_zxiRbjNBHL38BoPOPX90W3WAO11JRv4JezKeiDW7HXhw2BIK4X1GBeCxx2Kf8G_H3M5maQunhb2xw4pylA3XidTU3fBqRsIUvRqbfbl-7QiISZIMMRp5-A1MLSbC86jbAxb7K0FfqIiRGxpUNjaHT1giO1DdQfQrsswEurMzxLlQWMftauc74RQOLb8xWUJtX3MLegQtpOTCVV18G_7PNzD_w-ReoUsYk9c_gliWOJjMyUoZ6LnLx9i9ylsPSUNiFd9leNBqqNFopJwxFVFUxFcnqIQ72ojhOwdT3QnNCK_EM09IsxWGQ494OMhDJalhUdslW00]--></g></svg>