<?xml version="1.0" encoding="us-ascii" standalone="no"?><svg xmlns="http://www.w3.org/2000/svg" xmlns:xlink="http://www.w3.org/1999/xlink" contentStyleType="text/css" height="467px" preserveAspectRatio="none" style="width:825px;height:467px;background:#FFFFFF;" version="1.1" viewBox="0 0 825 467" width="825px" zoomAndPan="magnify"><defs/><g><!--cluster medipro.object.ornament.glmarker--><g id="cluster_medipro.object.ornament.glmarker"><path d="M8.5,306.09 L252.5,306.09 A3.75,3.75 0 0 1 255,308.59 L262,329.6994 L815.5,329.6994 A2.5,2.5 0 0 1 818,332.1994 L818,438.81 A2.5,2.5 0 0 1 815.5,441.31 L8.5,441.31 A2.5,2.5 0 0 1 6,438.81 L6,308.59 A2.5,2.5 0 0 1 8.5,306.09 " fill="none" style="stroke:#000000;stroke-width:1.5;"/><line style="stroke:#000000;stroke-width:1.5;" x1="6" x2="262" y1="329.6994" y2="329.6994"/><text fill="#000000" font-family="sans-serif" font-size="14" font-weight="bold" lengthAdjust="spacing" textLength="243" x="10" y="322.6232">medipro.object.ornament.glmarker</text></g><!--cluster medipro.object.base.gameobject--><g id="cluster_medipro.object.base.gameobject"><path d="M77.5,6 L308.5,6 A3.75,3.75 0 0 1 311,8.5 L318,29.6094 L795.5,29.6094 A2.5,2.5 0 0 1 798,32.1094 L798,279.59 A2.5,2.5 0 0 1 795.5,282.09 L77.5,282.09 A2.5,2.5 0 0 1 75,279.59 L75,8.5 A2.5,2.5 0 0 1 77.5,6 " fill="none" style="stroke:#000000;stroke-width:1.5;"/><line style="stroke:#000000;stroke-width:1.5;" x1="75" x2="318" y1="29.6094" y2="29.6094"/><text fill="#000000" font-family="sans-serif" font-size="14" font-weight="bold" lengthAdjust="spacing" textLength="230" x="79" y="22.5332">medipro.object.base.gameobject</text></g><!--class GLMarkerController--><a href="GLMarkerController.html" target="_top" title="GLMarkerController.html" xlink:actuate="onRequest" xlink:href="GLMarkerController.html" xlink:show="new" xlink:title="GLMarkerController.html" xlink:type="simple"><g id="elem_GLMarkerController"><rect codeLine="5" fill="#F1F1F1" height="83.2188" id="GLMarkerController" rx="2.5" ry="2.5" style="stroke:#181818;stroke-width:0.5;" width="290" x="512" y="342.09"/><ellipse cx="590.25" cy="358.09" fill="#ADD1B2" rx="11" ry="11" style="stroke:#181818;stroke-width:1.0;"/><path d="M593.0156,353.965 Q593.1719,353.7463 593.3594,353.6369 Q593.5469,353.5275 593.7656,353.5275 Q594.1406,353.5275 594.375,353.7931 Q594.6094,354.0431 594.6094,354.6525 L594.6094,356.1056 Q594.6094,356.715 594.375,356.9806 Q594.1406,357.2463 593.7656,357.2463 Q593.4219,357.2463 593.2188,357.0431 Q593.0156,356.8556 592.9063,356.34 Q592.8594,355.9806 592.6719,355.7931 Q592.3438,355.4181 591.7344,355.1994 Q591.125,354.9806 590.5,354.9806 Q589.7344,354.9806 589.0938,355.3088 Q588.4688,355.6369 587.9688,356.3869 Q587.4844,357.1369 587.4844,358.1681 L587.4844,359.2619 Q587.4844,360.4963 588.375,361.3244 Q589.2656,362.1369 590.8594,362.1369 Q591.7969,362.1369 592.4531,361.8869 Q592.8438,361.7306 593.2656,361.2931 Q593.5313,361.0275 593.6719,360.9494 Q593.8281,360.8713 594.0313,360.8713 Q594.3594,360.8713 594.6094,361.1369 Q594.875,361.3869 594.875,361.7306 Q594.875,362.0744 594.5313,362.4806 Q594.0313,363.0588 593.2344,363.3869 Q592.1563,363.84 590.8594,363.84 Q589.3438,363.84 588.1406,363.215 Q587.1563,362.715 586.4688,361.6525 Q585.7813,360.5744 585.7813,359.2931 L585.7813,358.1369 Q585.7813,356.8088 586.3906,355.6681 Q587.0156,354.5119 588.1094,353.9025 Q589.2031,353.2775 590.4375,353.2775 Q591.1719,353.2775 591.8125,353.4494 Q592.4688,353.6056 593.0156,353.965 Z " fill="#000000"/><text fill="#000000" font-family="sans-serif" font-size="14" lengthAdjust="spacing" textLength="125" x="610.75" y="363.8185">GLMarkerController</text><line style="stroke:#181818;stroke-width:0.5;" x1="513" x2="801" y1="374.09" y2="374.09"/><line style="stroke:#181818;stroke-width:0.5;" x1="513" x2="801" y1="382.09" y2="382.09"/><ellipse cx="523" cy="396.3947" fill="#84BE84" rx="3" ry="3" style="stroke:#038048;stroke-width:1.0;"/><text fill="#000000" font-family="sans-serif" font-size="14" lengthAdjust="spacing" textLength="264" x="532" y="400.6232">GLMarkerController(GameObjectModel...)</text><ellipse cx="523" cy="414.0041" fill="#84BE84" rx="3" ry="3" style="stroke:#038048;stroke-width:1.0;"/><text fill="#000000" font-family="sans-serif" font-size="14" lengthAdjust="spacing" textLength="256" x="532" y="418.2326">update(GameObjectModel, double): void</text></g></a><!--class GLMarkerModel--><a href="GLMarkerModel.html" target="_top" title="GLMarkerModel.html" xlink:actuate="onRequest" xlink:href="GLMarkerModel.html" xlink:show="new" xlink:title="GLMarkerModel.html" xlink:type="simple"><g id="elem_GLMarkerModel"><rect codeLine="10" fill="#F1F1F1" height="65.6094" id="GLMarkerModel" rx="2.5" ry="2.5" style="stroke:#181818;stroke-width:0.5;" width="174" x="303" y="350.9"/><ellipse cx="336.45" cy="366.9" fill="#ADD1B2" rx="11" ry="11" style="stroke:#181818;stroke-width:1.0;"/><path d="M339.2156,362.775 Q339.3719,362.5563 339.5594,362.4469 Q339.7469,362.3375 339.9656,362.3375 Q340.3406,362.3375 340.575,362.6031 Q340.8094,362.8531 340.8094,363.4625 L340.8094,364.9156 Q340.8094,365.525 340.575,365.7906 Q340.3406,366.0563 339.9656,366.0563 Q339.6219,366.0563 339.4188,365.8531 Q339.2156,365.6656 339.1063,365.15 Q339.0594,364.7906 338.8719,364.6031 Q338.5438,364.2281 337.9344,364.0094 Q337.325,363.7906 336.7,363.7906 Q335.9344,363.7906 335.2938,364.1188 Q334.6688,364.4469 334.1688,365.1969 Q333.6844,365.9469 333.6844,366.9781 L333.6844,368.0719 Q333.6844,369.3063 334.575,370.1344 Q335.4656,370.9469 337.0594,370.9469 Q337.9969,370.9469 338.6531,370.6969 Q339.0438,370.5406 339.4656,370.1031 Q339.7313,369.8375 339.8719,369.7594 Q340.0281,369.6813 340.2313,369.6813 Q340.5594,369.6813 340.8094,369.9469 Q341.075,370.1969 341.075,370.5406 Q341.075,370.8844 340.7313,371.2906 Q340.2313,371.8688 339.4344,372.1969 Q338.3563,372.65 337.0594,372.65 Q335.5438,372.65 334.3406,372.025 Q333.3563,371.525 332.6688,370.4625 Q331.9813,369.3844 331.9813,368.1031 L331.9813,366.9469 Q331.9813,365.6188 332.5906,364.4781 Q333.2156,363.3219 334.3094,362.7125 Q335.4031,362.0875 336.6375,362.0875 Q337.3719,362.0875 338.0125,362.2594 Q338.6688,362.4156 339.2156,362.775 Z " fill="#000000"/><text fill="#000000" font-family="sans-serif" font-size="14" lengthAdjust="spacing" textLength="101" x="354.55" y="372.6285">GLMarkerModel</text><line style="stroke:#181818;stroke-width:0.5;" x1="304" x2="476" y1="382.9" y2="382.9"/><line style="stroke:#181818;stroke-width:0.5;" x1="304" x2="476" y1="390.9" y2="390.9"/><ellipse cx="314" cy="405.2047" fill="#84BE84" rx="3" ry="3" style="stroke:#038048;stroke-width:1.0;"/><text fill="#000000" font-family="sans-serif" font-size="14" lengthAdjust="spacing" textLength="148" x="323" y="409.4332">GLMarkerModel(World)</text></g></a><!--class GLMarkerView--><a href="GLMarkerView.html" target="_top" title="GLMarkerView.html" xlink:actuate="onRequest" xlink:href="GLMarkerView.html" xlink:show="new" xlink:title="GLMarkerView.html" xlink:type="simple"><g id="elem_GLMarkerView"><rect codeLine="14" fill="#F1F1F1" height="83.2188" id="GLMarkerView" rx="2.5" ry="2.5" style="stroke:#181818;stroke-width:0.5;" width="245" x="22.5" y="342.09"/><ellipse cx="94.75" cy="358.09" fill="#ADD1B2" rx="11" ry="11" style="stroke:#181818;stroke-width:1.0;"/><path d="M97.5156,353.965 Q97.6719,353.7463 97.8594,353.6369 Q98.0469,353.5275 98.2656,353.5275 Q98.6406,353.5275 98.875,353.7931 Q99.1094,354.0431 99.1094,354.6525 L99.1094,356.1056 Q99.1094,356.715 98.875,356.9806 Q98.6406,357.2463 98.2656,357.2463 Q97.9219,357.2463 97.7188,357.0431 Q97.5156,356.8556 97.4063,356.34 Q97.3594,355.9806 97.1719,355.7931 Q96.8438,355.4181 96.2344,355.1994 Q95.625,354.9806 95,354.9806 Q94.2344,354.9806 93.5938,355.3088 Q92.9688,355.6369 92.4688,356.3869 Q91.9844,357.1369 91.9844,358.1681 L91.9844,359.2619 Q91.9844,360.4963 92.875,361.3244 Q93.7656,362.1369 95.3594,362.1369 Q96.2969,362.1369 96.9531,361.8869 Q97.3438,361.7306 97.7656,361.2931 Q98.0313,361.0275 98.1719,360.9494 Q98.3281,360.8713 98.5313,360.8713 Q98.8594,360.8713 99.1094,361.1369 Q99.375,361.3869 99.375,361.7306 Q99.375,362.0744 99.0313,362.4806 Q98.5313,363.0588 97.7344,363.3869 Q96.6563,363.84 95.3594,363.84 Q93.8438,363.84 92.6406,363.215 Q91.6563,362.715 90.9688,361.6525 Q90.2813,360.5744 90.2813,359.2931 L90.2813,358.1369 Q90.2813,356.8088 90.8906,355.6681 Q91.5156,354.5119 92.6094,353.9025 Q93.7031,353.2775 94.9375,353.2775 Q95.6719,353.2775 96.3125,353.4494 Q96.9688,353.6056 97.5156,353.965 Z " fill="#000000"/><text fill="#000000" font-family="sans-serif" font-size="14" lengthAdjust="spacing" textLength="92" x="115.25" y="363.8185">GLMarkerView</text><line style="stroke:#181818;stroke-width:0.5;" x1="23.5" x2="266.5" y1="374.09" y2="374.09"/><line style="stroke:#181818;stroke-width:0.5;" x1="23.5" x2="266.5" y1="382.09" y2="382.09"/><ellipse cx="33.5" cy="396.3947" fill="#84BE84" rx="3" ry="3" style="stroke:#038048;stroke-width:1.0;"/><text fill="#000000" font-family="sans-serif" font-size="14" lengthAdjust="spacing" textLength="219" x="42.5" y="400.6232">GLMarkerView(GameObjectModel)</text><ellipse cx="33.5" cy="414.0041" fill="#84BE84" rx="3" ry="3" style="stroke:#038048;stroke-width:1.0;"/><text fill="#000000" font-family="sans-serif" font-size="14" lengthAdjust="spacing" textLength="149" x="42.5" y="418.2326">draw(Graphics2D): void</text></g></a><!--class GameObjectController--><a href="..\..\base\gameobject\GameObjectController.html" target="_top" title="..\..\base\gameobject\GameObjectController.html" xlink:actuate="onRequest" xlink:href="..\..\base\gameobject\GameObjectController.html" xlink:show="new" xlink:title="..\..\base\gameobject\GameObjectController.html" xlink:type="simple"><g id="elem_GameObjectController"><rect codeLine="22" fill="#F1F1F1" height="100.8281" id="GameObjectController" rx="2.5" ry="2.5" style="stroke:#181818;stroke-width:0.5;" width="282" x="500" y="103.63"/><ellipse cx="566.25" cy="119.63" fill="#A9DCDF" rx="11" ry="11" style="stroke:#181818;stroke-width:1.0;"/><path d="M568.4375,121.3956 L564.2969,121.3956 L563.875,122.4269 L564.2969,122.4269 Q564.9063,122.4269 565.1719,122.6613 Q565.4375,122.8956 565.4375,123.2863 Q565.4375,123.6613 565.1719,123.8956 Q564.9063,124.13 564.2969,124.13 L562,124.13 Q561.3906,124.13 561.1406,123.8956 Q560.875,123.6613 560.875,123.2706 Q560.875,122.8956 561.1563,122.6613 Q561.4219,122.4113 562.0469,122.4269 L564.7188,115.7706 L563.6094,115.7706 Q563,115.7706 562.7344,115.5363 Q562.4688,115.3019 562.4688,114.9113 Q562.4688,114.5363 562.7344,114.3019 Q563,114.0675 563.6094,114.0675 L567.2813,114.0675 L570.6719,122.4269 Q571.2656,122.4269 571.4531,122.5675 Q571.8438,122.8331 571.8438,123.2863 Q571.8438,123.6613 571.5781,123.8956 Q571.3281,124.13 570.7188,124.13 L568.4219,124.13 Q567.8125,124.13 567.5469,123.8956 Q567.2813,123.6613 567.2813,123.2706 Q567.2813,122.8956 567.5469,122.6613 Q567.8125,122.4269 568.4219,122.4269 L568.8438,122.4269 L568.4375,121.3956 Z M567.7188,119.6925 L566.3594,116.3175 L564.9844,119.6925 L567.7188,119.6925 Z " fill="#000000"/><text fill="#000000" font-family="sans-serif" font-size="14" font-style="italic" lengthAdjust="spacing" textLength="141" x="586.75" y="125.3585">GameObjectController</text><line style="stroke:#181818;stroke-width:0.5;" x1="501" x2="781" y1="135.63" y2="135.63"/><polygon fill="none" points="511,144.9347,515,148.9347,511,152.9347,507,148.9347" style="stroke:#B38D22;stroke-width:1.0;"/><text fill="#000000" font-family="sans-serif" font-size="14" lengthAdjust="spacing" textLength="93" x="520" y="154.1632">logger: Logger</text><ellipse cx="511" cy="167.5441" fill="none" rx="3" ry="3" style="stroke:#038048;stroke-width:1.0;"/><text fill="#000000" font-family="sans-serif" font-size="14" lengthAdjust="spacing" textLength="242" x="520" y="171.7726">models: ArrayList&lt;GameObjectModel&gt;</text><line style="stroke:#181818;stroke-width:0.5;" x1="501" x2="781" y1="178.8488" y2="178.8488"/><ellipse cx="511" cy="193.1534" fill="#84BE84" rx="3" ry="3" style="stroke:#038048;stroke-width:1.0;"/><text fill="#000000" font-family="sans-serif" font-size="14" font-style="italic" lengthAdjust="spacing" textLength="256" x="520" y="197.382">update(GameObjectModel, double): void</text></g></a><!--class GameObjectModel--><a href="..\..\base\gameobject\GameObjectModel.html" target="_top" title="..\..\base\gameobject\GameObjectModel.html" xlink:actuate="onRequest" xlink:href="..\..\base\gameobject\GameObjectModel.html" xlink:show="new" xlink:title="..\..\base\gameobject\GameObjectModel.html" xlink:type="simple"><g id="elem_GameObjectModel"><rect codeLine="27" fill="#F1F1F1" height="171.2656" id="GameObjectModel" rx="2.5" ry="2.5" style="stroke:#181818;stroke-width:0.5;" width="150" x="315" y="68.41"/><ellipse cx="330" cy="84.41" fill="#A9DCDF" rx="11" ry="11" style="stroke:#181818;stroke-width:1.0;"/><path d="M332.1875,86.1756 L328.0469,86.1756 L327.625,87.2069 L328.0469,87.2069 Q328.6563,87.2069 328.9219,87.4413 Q329.1875,87.6756 329.1875,88.0663 Q329.1875,88.4413 328.9219,88.6756 Q328.6563,88.91 328.0469,88.91 L325.75,88.91 Q325.1406,88.91 324.8906,88.6756 Q324.625,88.4413 324.625,88.0506 Q324.625,87.6756 324.9063,87.4413 Q325.1719,87.1913 325.7969,87.2069 L328.4688,80.5506 L327.3594,80.5506 Q326.75,80.5506 326.4844,80.3163 Q326.2188,80.0819 326.2188,79.6913 Q326.2188,79.3163 326.4844,79.0819 Q326.75,78.8475 327.3594,78.8475 L331.0313,78.8475 L334.4219,87.2069 Q335.0156,87.2069 335.2031,87.3475 Q335.5938,87.6131 335.5938,88.0663 Q335.5938,88.4413 335.3281,88.6756 Q335.0781,88.91 334.4688,88.91 L332.1719,88.91 Q331.5625,88.91 331.2969,88.6756 Q331.0313,88.4413 331.0313,88.0506 Q331.0313,87.6756 331.2969,87.4413 Q331.5625,87.2069 332.1719,87.2069 L332.5938,87.2069 L332.1875,86.1756 Z M331.4688,84.4725 L330.1094,81.0975 L328.7344,84.4725 L331.4688,84.4725 Z " fill="#000000"/><text fill="#000000" font-family="sans-serif" font-size="14" font-style="italic" lengthAdjust="spacing" textLength="118" x="344" y="90.1385">GameObjectModel</text><line style="stroke:#181818;stroke-width:0.5;" x1="316" x2="464" y1="100.41" y2="100.41"/><polygon fill="none" points="326,109.7147,330,113.7147,326,117.7147,322,113.7147" style="stroke:#B38D22;stroke-width:1.0;"/><text fill="#000000" font-family="sans-serif" font-size="14" lengthAdjust="spacing" textLength="93" x="335" y="118.9432">logger: Logger</text><ellipse cx="326" cy="132.3241" fill="none" rx="3" ry="3" style="stroke:#038048;stroke-width:1.0;"/><text fill="#000000" font-family="sans-serif" font-size="14" lengthAdjust="spacing" textLength="78" x="335" y="136.5526">world: World</text><ellipse cx="326" cy="149.9334" fill="none" rx="3" ry="3" style="stroke:#038048;stroke-width:1.0;"/><text fill="#000000" font-family="sans-serif" font-size="14" lengthAdjust="spacing" textLength="57" x="335" y="154.162">x: double</text><ellipse cx="326" cy="167.5428" fill="none" rx="3" ry="3" style="stroke:#038048;stroke-width:1.0;"/><text fill="#000000" font-family="sans-serif" font-size="14" lengthAdjust="spacing" textLength="58" x="335" y="171.7713">y: double</text><ellipse cx="326" cy="185.1522" fill="none" rx="3" ry="3" style="stroke:#038048;stroke-width:1.0;"/><text fill="#000000" font-family="sans-serif" font-size="14" lengthAdjust="spacing" textLength="99" x="335" y="189.3807">rotation: double</text><ellipse cx="326" cy="202.7616" fill="none" rx="3" ry="3" style="stroke:#038048;stroke-width:1.0;"/><text fill="#000000" font-family="sans-serif" font-size="14" lengthAdjust="spacing" textLength="92" x="335" y="206.9901">scaleX: double</text><ellipse cx="326" cy="220.3709" fill="none" rx="3" ry="3" style="stroke:#038048;stroke-width:1.0;"/><text fill="#000000" font-family="sans-serif" font-size="14" lengthAdjust="spacing" textLength="93" x="335" y="224.5995">scaleY: double</text><line style="stroke:#181818;stroke-width:0.5;" x1="316" x2="464" y1="231.6756" y2="231.6756"/></g></a><!--class GameObjectView--><a href="..\..\base\gameobject\GameObjectView.html" target="_top" title="..\..\base\gameobject\GameObjectView.html" xlink:actuate="onRequest" xlink:href="..\..\base\gameobject\GameObjectView.html" xlink:show="new" xlink:title="..\..\base\gameobject\GameObjectView.html" xlink:type="simple"><g id="elem_GameObjectView"><rect codeLine="36" fill="#F1F1F1" height="224.0938" id="GameObjectView" rx="2.5" ry="2.5" style="stroke:#181818;stroke-width:0.5;" width="189" x="91.5" y="42"/><ellipse cx="128.55" cy="58" fill="#A9DCDF" rx="11" ry="11" style="stroke:#181818;stroke-width:1.0;"/><path d="M130.7375,59.7656 L126.5969,59.7656 L126.175,60.7969 L126.5969,60.7969 Q127.2063,60.7969 127.4719,61.0313 Q127.7375,61.2656 127.7375,61.6563 Q127.7375,62.0313 127.4719,62.2656 Q127.2063,62.5 126.5969,62.5 L124.3,62.5 Q123.6906,62.5 123.4406,62.2656 Q123.175,62.0313 123.175,61.6406 Q123.175,61.2656 123.4563,61.0313 Q123.7219,60.7813 124.3469,60.7969 L127.0188,54.1406 L125.9094,54.1406 Q125.3,54.1406 125.0344,53.9063 Q124.7688,53.6719 124.7688,53.2813 Q124.7688,52.9063 125.0344,52.6719 Q125.3,52.4375 125.9094,52.4375 L129.5813,52.4375 L132.9719,60.7969 Q133.5656,60.7969 133.7531,60.9375 Q134.1438,61.2031 134.1438,61.6563 Q134.1438,62.0313 133.8781,62.2656 Q133.6281,62.5 133.0188,62.5 L130.7219,62.5 Q130.1125,62.5 129.8469,62.2656 Q129.5813,62.0313 129.5813,61.6406 Q129.5813,61.2656 129.8469,61.0313 Q130.1125,60.7969 130.7219,60.7969 L131.1438,60.7969 L130.7375,59.7656 Z M130.0188,58.0625 L128.6594,54.6875 L127.2844,58.0625 L130.0188,58.0625 Z " fill="#000000"/><text fill="#000000" font-family="sans-serif" font-size="14" font-style="italic" lengthAdjust="spacing" textLength="108" x="147.45" y="63.7285">GameObjectView</text><line style="stroke:#181818;stroke-width:0.5;" x1="92.5" x2="279.5" y1="74" y2="74"/><polygon fill="none" points="102.5,83.3047,106.5,87.3047,102.5,91.3047,98.5,87.3047" style="stroke:#B38D22;stroke-width:1.0;"/><text fill="#000000" font-family="sans-serif" font-size="14" lengthAdjust="spacing" textLength="93" x="111.5" y="92.5332">logger: Logger</text><ellipse cx="102.5" cy="105.9141" fill="none" rx="3" ry="3" style="stroke:#038048;stroke-width:1.0;"/><text fill="#000000" font-family="sans-serif" font-size="14" lengthAdjust="spacing" textLength="163" x="111.5" y="110.1426">model: GameObjectModel</text><ellipse cx="102.5" cy="123.5234" fill="none" rx="3" ry="3" style="stroke:#038048;stroke-width:1.0;"/><text fill="#000000" font-family="sans-serif" font-size="14" lengthAdjust="spacing" textLength="117" x="111.5" y="127.752">drawAsUI: boolean</text><polygon fill="none" points="102.5,136.1328,106.5,140.1328,102.5,144.1328,98.5,140.1328" style="stroke:#B38D22;stroke-width:1.0;"/><text fill="#000000" font-family="sans-serif" font-size="14" lengthAdjust="spacing" text-decoration="underline" textLength="128" x="111.5" y="145.3613">nextBindingPoint: int</text><polygon fill="none" points="102.5,154.7422,98.5,160.7422,106.5,160.7422" style="stroke:#1963A0;stroke-width:1.0;"/><text fill="#000000" font-family="sans-serif" font-size="14" lengthAdjust="spacing" textLength="121" x="111.5" y="162.9707">shaderProgram: int</text><polygon fill="none" points="102.5,172.3516,98.5,178.3516,106.5,178.3516" style="stroke:#1963A0;stroke-width:1.0;"/><text fill="#000000" font-family="sans-serif" font-size="14" lengthAdjust="spacing" textLength="140" x="111.5" y="180.5801">textureName: IntBuffer</text><polygon fill="none" points="102.5,189.9609,98.5,195.9609,106.5,195.9609" style="stroke:#1963A0;stroke-width:1.0;"/><text fill="#000000" font-family="sans-serif" font-size="14" lengthAdjust="spacing" textLength="147" x="111.5" y="198.1895">samplerName: IntBuffer</text><polygon fill="none" points="102.5,207.5703,98.5,213.5703,106.5,213.5703" style="stroke:#1963A0;stroke-width:1.0;"/><text fill="#000000" font-family="sans-serif" font-size="14" lengthAdjust="spacing" textLength="84" x="111.5" y="215.7988">vbo: IntBuffer</text><polygon fill="none" points="102.5,225.1797,98.5,231.1797,106.5,231.1797" style="stroke:#1963A0;stroke-width:1.0;"/><text fill="#000000" font-family="sans-serif" font-size="14" lengthAdjust="spacing" textLength="112" x="111.5" y="233.4082">shaderFile: String</text><line style="stroke:#181818;stroke-width:0.5;" x1="92.5" x2="279.5" y1="240.4844" y2="240.4844"/><polygon fill="#FFFF44" points="102.5,249.7891,106.5,253.7891,102.5,257.7891,98.5,253.7891" style="stroke:#B38D22;stroke-width:1.0;"/><text fill="#000000" font-family="sans-serif" font-size="14" font-style="italic" lengthAdjust="spacing" textLength="148" x="111.5" y="259.0176">draw(Graphics2D): void</text></g></a><!--reverse link GameObjectController to GLMarkerController--><g id="link_GameObjectController_GLMarkerController"><path codeLine="50" d="M645.7532,222.6756 C648.6432,263.7556 651.43,303.44 654.13,341.87 " fill="none" id="GameObjectController-backto-GLMarkerController" style="stroke:#181818;stroke-width:1.0;"/><polygon fill="none" points="644.49,204.72,639.768,223.0967,651.7384,222.2546,644.49,204.72" style="stroke:#181818;stroke-width:1.0;"/></g><!--reverse link GameObjectModel to GLMarkerModel--><g id="link_GameObjectModel_GLMarkerModel"><path codeLine="51" d="M390,258.14 C390,296.66 390,321.88 390,350.52 " fill="none" id="GameObjectModel-backto-GLMarkerModel" style="stroke:#181818;stroke-width:1.0;"/><polygon fill="none" points="390,240.14,384,258.14,396,258.14,390,240.14" style="stroke:#181818;stroke-width:1.0;"/></g><!--reverse link GameObjectView to GLMarkerView--><g id="link_GameObjectView_GLMarkerView"><path codeLine="52" d="M162.7284,284.2548 C157.8784,311.1748 156.19,320.56 152.36,341.81 " fill="none" id="GameObjectView-backto-GLMarkerView" style="stroke:#181818;stroke-width:1.0;"/><polygon fill="none" points="165.92,266.54,156.8235,283.1909,168.6334,285.3186,165.92,266.54" style="stroke:#181818;stroke-width:1.0;"/></g><text fill="#888888" font-family="sans-serif" font-size="10" lengthAdjust="spacing" textLength="184" x="313.5" y="457.6909">UMLDoclet 2.1.1, PlantUML 1.2023.12</text><!--SRC=[bLNRJkCm47tdAqQgLcgrO0aUBRGIB5g4rEvMMh4NKHwSn4spE9vex1OGMxwTILeWjoOqQXDbvepF6VlO0G1mslC_KwGy4aXvSC11o5Hufs8DgOwIZ51Wy4-7NY1PbMhhHMnIHNUQu6c3pw_GAEVWSZmfCb_HUa9Z67DpqmoAXK_DxItNG-dwt0GEBvdnHq4_mKWR8SIeMhFC8kLr7NS84Iu3eqSILfX4RoNhNOABgfBM3Lktp08p_8raeb4_mwz4tvS8yjUUyND8lR5Qzn4fXf3A5adeJYvsjBlkNDP0EIrYfjcybzIem7bI7DfsyYQbihn2pFYNZp9x7sNM1cxlTs0mZZL961VFQeDfthIJS4Qa7iU9ywUr2VbImJ-zIbxlxupUhbyzqjTmXtSwUxtFdIIXC5Gryo2tgglXn_OmeLS-GTkUTQ4o-az7xcyZzu6vsRgxRsfskxxV1RA-5CsjSEQkhoG4Y4OhMpM6o-SaNCF0wWT_djWeiV4K4-ibyAs2VNOB5McQ4iQaqfQyvo6MfB-p70bNrfylv_EQv6UdqemjtubP1RYxlj3mBJ5S_jCJgzrbz47l8L0w0xhtlfIjU_pq_z5HxyU0Qnl7zvwKcmss9zkx5JvELBXrJvwyfg09ES-JCaVC7zUJyGM6Xh-Z9-9O71_2r2ZhEGgVLfeSRyFXw0K0]--></g></svg>