<?xml version="1.0" encoding="us-ascii" standalone="no"?><svg xmlns="http://www.w3.org/2000/svg" xmlns:xlink="http://www.w3.org/1999/xlink" contentStyleType="text/css" height="785px" preserveAspectRatio="none" style="width:535px;height:785px;background:#FFFFFF;" version="1.1" viewBox="0 0 535 785" width="535px" zoomAndPan="magnify"><defs/><g><!--cluster medipro.object.base--><g id="cluster_medipro.object.base"><path d="M8.5,209.44 L153.5,209.44 A3.75,3.75 0 0 1 156,211.94 L163,233.0494 L525.5,233.0494 A2.5,2.5 0 0 1 528,235.5494 L528,606.3 A2.5,2.5 0 0 1 525.5,608.8 L8.5,608.8 A2.5,2.5 0 0 1 6,606.3 L6,211.94 A2.5,2.5 0 0 1 8.5,209.44 " fill="none" style="stroke:#000000;stroke-width:1.5;"/><line style="stroke:#000000;stroke-width:1.5;" x1="6" x2="163" y1="233.0494" y2="233.0494"/><text fill="#000000" font-family="sans-serif" font-size="14" font-weight="bold" lengthAdjust="spacing" textLength="144" x="10" y="225.9732">medipro.object.base</text></g><!--cluster com.jogamp.opengl--><g id="cluster_com.jogamp.opengl"><path d="M93.5,6 L231.5,6 A3.75,3.75 0 0 1 234,8.5 L241,29.6094 L440.5,29.6094 A2.5,2.5 0 0 1 443,32.1094 L443,173.94 A2.5,2.5 0 0 1 440.5,176.44 L93.5,176.44 A2.5,2.5 0 0 1 91,173.94 L91,8.5 A2.5,2.5 0 0 1 93.5,6 " fill="none" style="stroke:#000000;stroke-width:1.5;"/><line style="stroke:#000000;stroke-width:1.5;" x1="91" x2="241" y1="29.6094" y2="29.6094"/><text fill="#000000" font-family="sans-serif" font-size="14" font-weight="bold" lengthAdjust="spacing" textLength="137" x="95" y="22.5332">com.jogamp.opengl</text></g><!--cluster medipro.object.base.gameobject--><g id="cluster_medipro.object.base.gameobject"><path d="M28.5,658.8 L259.5,658.8 A3.75,3.75 0 0 1 262,661.3 L269,682.4094 L269.5,682.4094 A2.5,2.5 0 0 1 272,684.9094 L272,756.3 A2.5,2.5 0 0 1 269.5,758.8 L28.5,758.8 A2.5,2.5 0 0 1 26,756.3 L26,661.3 A2.5,2.5 0 0 1 28.5,658.8 " fill="none" style="stroke:#000000;stroke-width:1.5;"/><line style="stroke:#000000;stroke-width:1.5;" x1="26" x2="269" y1="682.4094" y2="682.4094"/><text fill="#000000" font-family="sans-serif" font-size="14" font-weight="bold" lengthAdjust="spacing" textLength="230" x="30" y="675.3332">medipro.object.base.gameobject</text></g><!--cluster medipro.object.base.camera--><g id="cluster_medipro.object.base.camera"><path d="M298.5,658.8 L498.5,658.8 A3.75,3.75 0 0 1 501,661.3 L508,682.4094 L508.5,682.4094 A2.5,2.5 0 0 1 511,684.9094 L511,756.3 A2.5,2.5 0 0 1 508.5,758.8 L298.5,758.8 A2.5,2.5 0 0 1 296,756.3 L296,661.3 A2.5,2.5 0 0 1 298.5,658.8 " fill="none" style="stroke:#000000;stroke-width:1.5;"/><line style="stroke:#000000;stroke-width:1.5;" x1="296" x2="508" y1="682.4094" y2="682.4094"/><text fill="#000000" font-family="sans-serif" font-size="14" font-weight="bold" lengthAdjust="spacing" textLength="199" x="300" y="675.3332">medipro.object.base.camera</text></g><!--class World--><a href="World.html" target="_top" title="World.html" xlink:actuate="onRequest" xlink:href="World.html" xlink:show="new" xlink:title="World.html" xlink:type="simple"><g id="elem_World"><rect codeLine="5" fill="#F1F1F1" height="347.3594" id="World" rx="2.5" ry="2.5" style="stroke:#181818;stroke-width:0.5;" width="490" x="22" y="245.44"/><ellipse cx="243.75" cy="261.44" fill="#A9DCDF" rx="11" ry="11" style="stroke:#181818;stroke-width:1.0;"/><path d="M245.9375,263.2056 L241.7969,263.2056 L241.375,264.2369 L241.7969,264.2369 Q242.4063,264.2369 242.6719,264.4712 Q242.9375,264.7056 242.9375,265.0962 Q242.9375,265.4712 242.6719,265.7056 Q242.4063,265.94 241.7969,265.94 L239.5,265.94 Q238.8906,265.94 238.6406,265.7056 Q238.375,265.4712 238.375,265.0806 Q238.375,264.7056 238.6563,264.4712 Q238.9219,264.2212 239.5469,264.2369 L242.2188,257.5806 L241.1094,257.5806 Q240.5,257.5806 240.2344,257.3462 Q239.9688,257.1119 239.9688,256.7212 Q239.9688,256.3462 240.2344,256.1119 Q240.5,255.8775 241.1094,255.8775 L244.7813,255.8775 L248.1719,264.2369 Q248.7656,264.2369 248.9531,264.3775 Q249.3438,264.6431 249.3438,265.0962 Q249.3438,265.4712 249.0781,265.7056 Q248.8281,265.94 248.2188,265.94 L245.9219,265.94 Q245.3125,265.94 245.0469,265.7056 Q244.7813,265.4712 244.7813,265.0806 Q244.7813,264.7056 245.0469,264.4712 Q245.3125,264.2369 245.9219,264.2369 L246.3438,264.2369 L245.9375,263.2056 Z M245.2188,261.5025 L243.8594,258.1275 L242.4844,261.5025 L245.2188,261.5025 Z " fill="#000000"/><text fill="#000000" font-family="sans-serif" font-size="14" font-style="italic" lengthAdjust="spacing" textLength="38" x="264.25" y="267.1685">World</text><line style="stroke:#181818;stroke-width:0.5;" x1="23" x2="511" y1="277.44" y2="277.44"/><polygon fill="none" points="33,286.7447,37,290.7447,33,294.7447,29,290.7447" style="stroke:#B38D22;stroke-width:1.0;"/><text fill="#000000" font-family="sans-serif" font-size="14" lengthAdjust="spacing" textLength="93" x="42" y="295.9732">logger: Logger</text><ellipse cx="33" cy="309.3541" fill="none" rx="3" ry="3" style="stroke:#038048;stroke-width:1.0;"/><text fill="#000000" font-family="sans-serif" font-size="14" lengthAdjust="spacing" textLength="294" x="42" y="313.5826">views: ArrayList&lt;ArrayList&lt;GameObjectView&gt;&gt;</text><ellipse cx="33" cy="326.9634" fill="none" rx="3" ry="3" style="stroke:#038048;stroke-width:1.0;"/><text fill="#000000" font-family="sans-serif" font-size="14" lengthAdjust="spacing" textLength="85" x="42" y="331.192">panel: JPanel</text><line style="stroke:#181818;stroke-width:0.5;" x1="23" x2="511" y1="338.2681" y2="338.2681"/><ellipse cx="33" cy="352.5728" fill="#84BE84" rx="3" ry="3" style="stroke:#038048;stroke-width:1.0;"/><text fill="#000000" font-family="sans-serif" font-size="14" lengthAdjust="spacing" textLength="89" x="42" y="356.8013">World(JPanel)</text><ellipse cx="33" cy="370.1822" fill="#84BE84" rx="3" ry="3" style="stroke:#038048;stroke-width:1.0;"/><text fill="#000000" font-family="sans-serif" font-size="14" lengthAdjust="spacing" textLength="290" x="42" y="374.4107">addControllers(GameObjectController...): void</text><ellipse cx="33" cy="387.7916" fill="#84BE84" rx="3" ry="3" style="stroke:#038048;stroke-width:1.0;"/><text fill="#000000" font-family="sans-serif" font-size="14" lengthAdjust="spacing" textLength="224" x="42" y="392.0201">addViews(GameObjectView...): void</text><ellipse cx="33" cy="405.4009" fill="#84BE84" rx="3" ry="3" style="stroke:#038048;stroke-width:1.0;"/><text fill="#000000" font-family="sans-serif" font-size="14" lengthAdjust="spacing" textLength="228" x="42" y="409.6295">addView(GameObjectView, int): void</text><ellipse cx="33" cy="423.0103" fill="#84BE84" rx="3" ry="3" style="stroke:#038048;stroke-width:1.0;"/><text fill="#000000" font-family="sans-serif" font-size="14" lengthAdjust="spacing" textLength="441" x="42" y="427.2388">addViewAndController(GameObjectView, GameObjectController): void</text><ellipse cx="33" cy="440.6197" fill="#84BE84" rx="3" ry="3" style="stroke:#038048;stroke-width:1.0;"/><text fill="#000000" font-family="sans-serif" font-size="14" lengthAdjust="spacing" textLength="464" x="42" y="444.8482">addViewAndController(GameObjectView, GameObjectController, int): void</text><ellipse cx="33" cy="458.2291" fill="#84BE84" rx="3" ry="3" style="stroke:#038048;stroke-width:1.0;"/><text fill="#000000" font-family="sans-serif" font-size="14" font-style="italic" lengthAdjust="spacing" textLength="159" x="42" y="462.4576">setupWorld(JPanel): void</text><ellipse cx="33" cy="475.8384" fill="#84BE84" rx="3" ry="3" style="stroke:#038048;stroke-width:1.0;"/><text fill="#000000" font-family="sans-serif" font-size="14" lengthAdjust="spacing" textLength="131" x="42" y="480.067">update(double): void</text><ellipse cx="33" cy="493.4478" fill="#84BE84" rx="3" ry="3" style="stroke:#038048;stroke-width:1.0;"/><text fill="#000000" font-family="sans-serif" font-size="14" lengthAdjust="spacing" textLength="254" x="42" y="497.6763">getCameraTransform(): AffineTransform</text><ellipse cx="33" cy="511.0572" fill="#84BE84" rx="3" ry="3" style="stroke:#038048;stroke-width:1.0;"/><text fill="#000000" font-family="sans-serif" font-size="14" lengthAdjust="spacing" textLength="149" x="42" y="515.2857">draw(Graphics2D): void</text><ellipse cx="33" cy="528.6666" fill="#84BE84" rx="3" ry="3" style="stroke:#038048;stroke-width:1.0;"/><text fill="#000000" font-family="sans-serif" font-size="14" lengthAdjust="spacing" textLength="169" x="42" y="532.8951">init(GLAutoDrawable): void</text><ellipse cx="33" cy="546.2759" fill="#84BE84" rx="3" ry="3" style="stroke:#038048;stroke-width:1.0;"/><text fill="#000000" font-family="sans-serif" font-size="14" lengthAdjust="spacing" textLength="200" x="42" y="550.5045">dispose(GLAutoDrawable): void</text><ellipse cx="33" cy="563.8853" fill="#84BE84" rx="3" ry="3" style="stroke:#038048;stroke-width:1.0;"/><text fill="#000000" font-family="sans-serif" font-size="14" lengthAdjust="spacing" textLength="195" x="42" y="568.1138">display(GLAutoDrawable): void</text><ellipse cx="33" cy="581.4947" fill="#84BE84" rx="3" ry="3" style="stroke:#038048;stroke-width:1.0;"/><text fill="#000000" font-family="sans-serif" font-size="14" lengthAdjust="spacing" textLength="295" x="42" y="585.7232">reshape(GLAutoDrawable, int, int, int, int): void</text></g></a><!--class GLEventListener--><g id="elem_GLEventListener"><rect codeLine="28" fill="#F1F1F1" height="118.4375" id="GLEventListener" rx="2.5" ry="2.5" style="stroke:#181818;stroke-width:0.5;" width="320" x="107" y="42"/><ellipse cx="210.25" cy="58" fill="#B4A7E5" rx="11" ry="11" style="stroke:#181818;stroke-width:1.0;"/><path d="M211.2031,54.6406 L211.2031,61.2969 L212.9219,61.2969 Q213.5313,61.2969 213.7969,61.5313 Q214.0625,61.7656 214.0625,62.1563 Q214.0625,62.5313 213.7969,62.7656 Q213.5313,63 212.9219,63 L207.7813,63 Q207.1719,63 206.9063,62.7656 Q206.6406,62.5313 206.6406,62.1406 Q206.6406,61.7656 206.9063,61.5313 Q207.1719,61.2969 207.7813,61.2969 L209.5,61.2969 L209.5,54.6406 L207.7813,54.6406 Q207.1719,54.6406 206.9063,54.4063 Q206.6406,54.1719 206.6406,53.7813 Q206.6406,53.4063 206.9063,53.1719 Q207.1719,52.9375 207.7813,52.9375 L212.9219,52.9375 Q213.5313,52.9375 213.7969,53.1719 Q214.0625,53.4063 214.0625,53.7813 Q214.0625,54.1719 213.7969,54.4063 Q213.5313,54.6406 212.9219,54.6406 L211.2031,54.6406 Z " fill="#000000"/><text fill="#000000" font-family="sans-serif" font-size="14" font-style="italic" lengthAdjust="spacing" textLength="105" x="230.75" y="63.7285">GLEventListener</text><line style="stroke:#181818;stroke-width:0.5;" x1="108" x2="426" y1="74" y2="74"/><line style="stroke:#181818;stroke-width:0.5;" x1="108" x2="426" y1="82" y2="82"/><ellipse cx="118" cy="96.3047" fill="#84BE84" rx="3" ry="3" style="stroke:#038048;stroke-width:1.0;"/><text fill="#000000" font-family="sans-serif" font-size="14" font-style="italic" lengthAdjust="spacing" textLength="168" x="127" y="100.5332">init(GLAutoDrawable): void</text><ellipse cx="118" cy="113.9141" fill="#84BE84" rx="3" ry="3" style="stroke:#038048;stroke-width:1.0;"/><text fill="#000000" font-family="sans-serif" font-size="14" font-style="italic" lengthAdjust="spacing" textLength="199" x="127" y="118.1426">dispose(GLAutoDrawable): void</text><ellipse cx="118" cy="131.5234" fill="#84BE84" rx="3" ry="3" style="stroke:#038048;stroke-width:1.0;"/><text fill="#000000" font-family="sans-serif" font-size="14" font-style="italic" lengthAdjust="spacing" textLength="194" x="127" y="135.752">display(GLAutoDrawable): void</text><ellipse cx="118" cy="149.1328" fill="#84BE84" rx="3" ry="3" style="stroke:#038048;stroke-width:1.0;"/><text fill="#000000" font-family="sans-serif" font-size="14" font-style="italic" lengthAdjust="spacing" textLength="294" x="127" y="153.3613">reshape(GLAutoDrawable, int, int, int, int): void</text></g><!--class GameObjectController--><g id="elem_GameObjectController"><rect fill="#F1F1F1" height="48" id="GameObjectController" rx="2.5" ry="2.5" style="stroke:#181818;stroke-width:0.5;" width="173" x="82.5" y="694.8"/><ellipse cx="97.5" cy="710.8" fill="#ADD1B2" rx="11" ry="11" style="stroke:#181818;stroke-width:1.0;"/><path d="M100.2656,706.675 Q100.4219,706.4563 100.6094,706.3469 Q100.7969,706.2375 101.0156,706.2375 Q101.3906,706.2375 101.625,706.5031 Q101.8594,706.7531 101.8594,707.3625 L101.8594,708.8156 Q101.8594,709.425 101.625,709.6906 Q101.3906,709.9563 101.0156,709.9563 Q100.6719,709.9563 100.4688,709.7531 Q100.2656,709.5656 100.1563,709.05 Q100.1094,708.6906 99.9219,708.5031 Q99.5938,708.1281 98.9844,707.9094 Q98.375,707.6906 97.75,707.6906 Q96.9844,707.6906 96.3438,708.0188 Q95.7188,708.3469 95.2188,709.0969 Q94.7344,709.8469 94.7344,710.8781 L94.7344,711.9719 Q94.7344,713.2063 95.625,714.0344 Q96.5156,714.8469 98.1094,714.8469 Q99.0469,714.8469 99.7031,714.5969 Q100.0938,714.4406 100.5156,714.0031 Q100.7813,713.7375 100.9219,713.6594 Q101.0781,713.5813 101.2813,713.5813 Q101.6094,713.5813 101.8594,713.8469 Q102.125,714.0969 102.125,714.4406 Q102.125,714.7844 101.7813,715.1906 Q101.2813,715.7688 100.4844,716.0969 Q99.4063,716.55 98.1094,716.55 Q96.5938,716.55 95.3906,715.925 Q94.4063,715.425 93.7188,714.3625 Q93.0313,713.2844 93.0313,712.0031 L93.0313,710.8469 Q93.0313,709.5188 93.6406,708.3781 Q94.2656,707.2219 95.3594,706.6125 Q96.4531,705.9875 97.6875,705.9875 Q98.4219,705.9875 99.0625,706.1594 Q99.7188,706.3156 100.2656,706.675 Z " fill="#000000"/><text fill="#000000" font-family="sans-serif" font-size="14" lengthAdjust="spacing" textLength="141" x="111.5" y="716.5285">GameObjectController</text><line style="stroke:#181818;stroke-width:0.5;" x1="83.5" x2="254.5" y1="726.8" y2="726.8"/><line style="stroke:#181818;stroke-width:0.5;" x1="83.5" x2="254.5" y1="734.8" y2="734.8"/></g><!--class CameraModel--><g id="elem_CameraModel"><rect fill="#F1F1F1" height="48" id="CameraModel" rx="2.5" ry="2.5" style="stroke:#181818;stroke-width:0.5;" width="120" x="312" y="694.8"/><ellipse cx="327" cy="710.8" fill="#ADD1B2" rx="11" ry="11" style="stroke:#181818;stroke-width:1.0;"/><path d="M329.7656,706.675 Q329.9219,706.4563 330.1094,706.3469 Q330.2969,706.2375 330.5156,706.2375 Q330.8906,706.2375 331.125,706.5031 Q331.3594,706.7531 331.3594,707.3625 L331.3594,708.8156 Q331.3594,709.425 331.125,709.6906 Q330.8906,709.9563 330.5156,709.9563 Q330.1719,709.9563 329.9688,709.7531 Q329.7656,709.5656 329.6563,709.05 Q329.6094,708.6906 329.4219,708.5031 Q329.0938,708.1281 328.4844,707.9094 Q327.875,707.6906 327.25,707.6906 Q326.4844,707.6906 325.8438,708.0188 Q325.2188,708.3469 324.7188,709.0969 Q324.2344,709.8469 324.2344,710.8781 L324.2344,711.9719 Q324.2344,713.2063 325.125,714.0344 Q326.0156,714.8469 327.6094,714.8469 Q328.5469,714.8469 329.2031,714.5969 Q329.5938,714.4406 330.0156,714.0031 Q330.2813,713.7375 330.4219,713.6594 Q330.5781,713.5813 330.7813,713.5813 Q331.1094,713.5813 331.3594,713.8469 Q331.625,714.0969 331.625,714.4406 Q331.625,714.7844 331.2813,715.1906 Q330.7813,715.7688 329.9844,716.0969 Q328.9063,716.55 327.6094,716.55 Q326.0938,716.55 324.8906,715.925 Q323.9063,715.425 323.2188,714.3625 Q322.5313,713.2844 322.5313,712.0031 L322.5313,710.8469 Q322.5313,709.5188 323.1406,708.3781 Q323.7656,707.2219 324.8594,706.6125 Q325.9531,705.9875 327.1875,705.9875 Q327.9219,705.9875 328.5625,706.1594 Q329.2188,706.3156 329.7656,706.675 Z " fill="#000000"/><text fill="#000000" font-family="sans-serif" font-size="14" lengthAdjust="spacing" textLength="88" x="341" y="716.5285">CameraModel</text><line style="stroke:#181818;stroke-width:0.5;" x1="313" x2="431" y1="726.8" y2="726.8"/><line style="stroke:#181818;stroke-width:0.5;" x1="313" x2="431" y1="734.8" y2="734.8"/></g><!--reverse link GLEventListener to World--><g id="link_GLEventListener_World"><path codeLine="36" d="M267,178.9 C267,203.17 267,214.69 267,244.96 " fill="none" id="GLEventListener-backto-World" style="stroke:#181818;stroke-width:1.0;stroke-dasharray:7.0,7.0;"/><polygon fill="none" points="267,160.9,261,178.9,273,178.9,267,160.9" style="stroke:#181818;stroke-width:1.0;"/></g><!--link World to GameObjectController--><g id="link_World_GameObjectController"><path codeLine="37" d="M187.34,593.28 C183.85,603.83 180.69,614.39 178,624.8 C171.98,648.04 170.1343,669.4938 169.4543,688.5238 " fill="none" id="World-to-GameObjectController" style="stroke:#181818;stroke-width:1.0;"/><polygon fill="#181818" points="169.24,694.52,173.5588,685.6686,169.4186,689.5232,165.5639,685.3829,169.24,694.52" style="stroke:#181818;stroke-width:1.0;"/><text fill="#000000" font-family="sans-serif" font-size="13" lengthAdjust="spacing" textLength="60" x="179" y="639.2951">controllers</text><text fill="#000000" font-family="sans-serif" font-size="13" lengthAdjust="spacing" textLength="5" x="163.6609" y="683.7884">*</text></g><!--link World to CameraModel--><g id="link_World_CameraModel"><path codeLine="38" d="M328.08,593.28 C342.25,633.44 353.5655,665.5212 361.7355,688.7012 " fill="none" id="World-to-CameraModel" style="stroke:#181818;stroke-width:1.0;"/><polygon fill="#181818" points="363.73,694.36,364.5108,684.5421,362.0679,689.6443,356.9657,687.2015,363.73,694.36" style="stroke:#181818;stroke-width:1.0;"/><text fill="#000000" font-family="sans-serif" font-size="13" lengthAdjust="spacing" textLength="43" x="344" y="639.2951">camera</text><text fill="#000000" font-family="sans-serif" font-size="13" lengthAdjust="spacing" textLength="22" x="337.0329" y="683.9907">0..1</text></g><text fill="#888888" font-family="sans-serif" font-size="10" lengthAdjust="spacing" textLength="184" x="168.5" y="775.1809">UMLDoclet 2.1.1, PlantUML 1.2023.12</text><!--SRC=[hLNVQzim47xlNt5q39or5KiVHGc4PWH6olgm7m-b3nVxxAYJTK9ICagN_tsopHhRSJR3Ph0LtttVtSTddG80u2d4swB3m0waF3kBGR2OViU2eAHCMSU2rq-K1h56J_3IGAeBrpuuJ0Ea6hs7R-nq1WyFzIeseTIFZn4EhUkDvg8W9s5LhvtSnKxH3ozXxXm-hvGFDuTVIopfKotYQmJDPbsYHKDQmiVxQkscQYr9avbqKvXbjso2Owt9-UJGuX0LGamax5XbHzHAHvjKlVy5taDVWZBXJ_YvQGay8W_f_R_LJWfy-VtXzt0HDz3MTbmUqh2r6GPACjwkDGqY2WgtKOF3pmwDpzcLISJDyrmPUWrrAPd3wAb3kr6flruCbbL6XMIvccy3Bo8SJxNFbBViQInKu_COg2E_GTklMllQU_Jf-sRAzjrvJBaKJrnWQGLRCeLkZLSiGYx7b62v-h0Z4wh18KEkDuBjZpVIdJPbl55zrZZFsgn_iQ_btf5hKlOjklafnD1f9sMzjUiofzDmTJM3ytVdGn0H-rBp7jiEJ9cC-bvFeL6DtWin7UwLrXCaPJD9TvnLns8JR9oWQfD0pbmjN-vM2qvr_0Uu5bCnlOHxZIR4ABpTHIsAJJBv1G00]--></g></svg>