<?xml version="1.0" encoding="us-ascii" standalone="no"?><svg xmlns="http://www.w3.org/2000/svg" xmlns:xlink="http://www.w3.org/1999/xlink" contentStyleType="text/css" height="602px" preserveAspectRatio="none" style="width:506px;height:602px;background:#FFFFFF;" version="1.1" viewBox="0 0 506 602" width="506px" zoomAndPan="magnify"><defs/><g><!--class medipro.object.base.World--><a href="World.html" target="_top" title="World.html" xlink:actuate="onRequest" xlink:href="World.html" xlink:show="new" xlink:title="World.html" xlink:type="simple"><g id="elem_medipro.object.base.World"><rect codeLine="5" fill="#F1F1F1" height="390.7656" id="medipro.object.base.World" rx="2.5" ry="2.5" style="stroke:#181818;stroke-width:0.5;" width="490" x="9" y="185.62"/><ellipse cx="202.75" cy="205.7138" fill="#A9DCDF" rx="11" ry="11" style="stroke:#181818;stroke-width:1.0;"/><path d="M204.9375,207.4794 L200.7969,207.4794 L200.375,208.5106 L200.7969,208.5106 Q201.4063,208.5106 201.6719,208.745 Q201.9375,208.9794 201.9375,209.37 Q201.9375,209.745 201.6719,209.9794 Q201.4063,210.2138 200.7969,210.2138 L198.5,210.2138 Q197.8906,210.2138 197.6406,209.9794 Q197.375,209.745 197.375,209.3544 Q197.375,208.9794 197.6563,208.745 Q197.9219,208.495 198.5469,208.5106 L201.2188,201.8544 L200.1094,201.8544 Q199.5,201.8544 199.2344,201.62 Q198.9688,201.3856 198.9688,200.995 Q198.9688,200.62 199.2344,200.3856 Q199.5,200.1513 200.1094,200.1513 L203.7813,200.1513 L207.1719,208.5106 Q207.7656,208.5106 207.9531,208.6513 Q208.3438,208.9169 208.3438,209.37 Q208.3438,209.745 208.0781,209.9794 Q207.8281,210.2138 207.2188,210.2138 L204.9219,210.2138 Q204.3125,210.2138 204.0469,209.9794 Q203.7813,209.745 203.7813,209.3544 Q203.7813,208.9794 204.0469,208.745 Q204.3125,208.5106 204.9219,208.5106 L205.3438,208.5106 L204.9375,207.4794 Z M204.2188,205.7763 L202.8594,202.4013 L201.4844,205.7763 L204.2188,205.7763 Z " fill="#000000"/><text fill="#000000" font-family="sans-serif" font-size="14" font-style="italic" lengthAdjust="spacing" textLength="38" x="251.25" y="205.1532">World</text><text fill="#000000" font-family="sans-serif" font-size="10" font-style="italic" lengthAdjust="spacing" textLength="94" x="223.25" y="218.6102">medipro.object.base</text><line style="stroke:#181818;stroke-width:0.5;" x1="10" x2="498" y1="225.8075" y2="225.8075"/><polygon fill="none" points="20,235.1122,24,239.1122,20,243.1122,16,239.1122" style="stroke:#B38D22;stroke-width:1.0;"/><text fill="#000000" font-family="sans-serif" font-size="14" lengthAdjust="spacing" textLength="93" x="29" y="244.3407">logger: Logger</text><ellipse cx="20" cy="257.7216" fill="none" rx="3" ry="3" style="stroke:#038048;stroke-width:1.0;"/><text fill="#000000" font-family="sans-serif" font-size="14" lengthAdjust="spacing" textLength="287" x="29" y="261.9501">controllers: ArrayList&lt;GameObjectController&gt;</text><ellipse cx="20" cy="275.3309" fill="none" rx="3" ry="3" style="stroke:#038048;stroke-width:1.0;"/><text fill="#000000" font-family="sans-serif" font-size="14" lengthAdjust="spacing" textLength="294" x="29" y="279.5595">views: ArrayList&lt;ArrayList&lt;GameObjectView&gt;&gt;</text><ellipse cx="20" cy="292.9403" fill="none" rx="3" ry="3" style="stroke:#038048;stroke-width:1.0;"/><text fill="#000000" font-family="sans-serif" font-size="14" lengthAdjust="spacing" textLength="85" x="29" y="297.1688">panel: JPanel</text><ellipse cx="20" cy="310.5497" fill="none" rx="3" ry="3" style="stroke:#038048;stroke-width:1.0;"/><text fill="#000000" font-family="sans-serif" font-size="14" lengthAdjust="spacing" textLength="212" x="29" y="314.7782">camera: Optional&lt;CameraModel&gt;</text><line style="stroke:#181818;stroke-width:0.5;" x1="10" x2="498" y1="321.8544" y2="321.8544"/><ellipse cx="20" cy="336.1591" fill="#84BE84" rx="3" ry="3" style="stroke:#038048;stroke-width:1.0;"/><text fill="#000000" font-family="sans-serif" font-size="14" lengthAdjust="spacing" textLength="89" x="29" y="340.3876">World(JPanel)</text><ellipse cx="20" cy="353.7684" fill="#84BE84" rx="3" ry="3" style="stroke:#038048;stroke-width:1.0;"/><text fill="#000000" font-family="sans-serif" font-size="14" lengthAdjust="spacing" textLength="290" x="29" y="357.997">addControllers(GameObjectController...): void</text><ellipse cx="20" cy="371.3778" fill="#84BE84" rx="3" ry="3" style="stroke:#038048;stroke-width:1.0;"/><text fill="#000000" font-family="sans-serif" font-size="14" lengthAdjust="spacing" textLength="224" x="29" y="375.6063">addViews(GameObjectView...): void</text><ellipse cx="20" cy="388.9872" fill="#84BE84" rx="3" ry="3" style="stroke:#038048;stroke-width:1.0;"/><text fill="#000000" font-family="sans-serif" font-size="14" lengthAdjust="spacing" textLength="228" x="29" y="393.2157">addView(GameObjectView, int): void</text><ellipse cx="20" cy="406.5966" fill="#84BE84" rx="3" ry="3" style="stroke:#038048;stroke-width:1.0;"/><text fill="#000000" font-family="sans-serif" font-size="14" lengthAdjust="spacing" textLength="441" x="29" y="410.8251">addViewAndController(GameObjectView, GameObjectController): void</text><ellipse cx="20" cy="424.2059" fill="#84BE84" rx="3" ry="3" style="stroke:#038048;stroke-width:1.0;"/><text fill="#000000" font-family="sans-serif" font-size="14" lengthAdjust="spacing" textLength="464" x="29" y="428.4345">addViewAndController(GameObjectView, GameObjectController, int): void</text><ellipse cx="20" cy="441.8153" fill="#84BE84" rx="3" ry="3" style="stroke:#038048;stroke-width:1.0;"/><text fill="#000000" font-family="sans-serif" font-size="14" font-style="italic" lengthAdjust="spacing" textLength="159" x="29" y="446.0438">setupWorld(JPanel): void</text><ellipse cx="20" cy="459.4247" fill="#84BE84" rx="3" ry="3" style="stroke:#038048;stroke-width:1.0;"/><text fill="#000000" font-family="sans-serif" font-size="14" lengthAdjust="spacing" textLength="131" x="29" y="463.6532">update(double): void</text><ellipse cx="20" cy="477.0341" fill="#84BE84" rx="3" ry="3" style="stroke:#038048;stroke-width:1.0;"/><text fill="#000000" font-family="sans-serif" font-size="14" lengthAdjust="spacing" textLength="254" x="29" y="481.2626">getCameraTransform(): AffineTransform</text><ellipse cx="20" cy="494.6434" fill="#84BE84" rx="3" ry="3" style="stroke:#038048;stroke-width:1.0;"/><text fill="#000000" font-family="sans-serif" font-size="14" lengthAdjust="spacing" textLength="149" x="29" y="498.872">draw(Graphics2D): void</text><ellipse cx="20" cy="512.2528" fill="#84BE84" rx="3" ry="3" style="stroke:#038048;stroke-width:1.0;"/><text fill="#000000" font-family="sans-serif" font-size="14" lengthAdjust="spacing" textLength="169" x="29" y="516.4813">init(GLAutoDrawable): void</text><ellipse cx="20" cy="529.8622" fill="#84BE84" rx="3" ry="3" style="stroke:#038048;stroke-width:1.0;"/><text fill="#000000" font-family="sans-serif" font-size="14" lengthAdjust="spacing" textLength="200" x="29" y="534.0907">dispose(GLAutoDrawable): void</text><ellipse cx="20" cy="547.4716" fill="#84BE84" rx="3" ry="3" style="stroke:#038048;stroke-width:1.0;"/><text fill="#000000" font-family="sans-serif" font-size="14" lengthAdjust="spacing" textLength="195" x="29" y="551.7001">display(GLAutoDrawable): void</text><ellipse cx="20" cy="565.0809" fill="#84BE84" rx="3" ry="3" style="stroke:#038048;stroke-width:1.0;"/><text fill="#000000" font-family="sans-serif" font-size="14" lengthAdjust="spacing" textLength="295" x="29" y="569.3095">reshape(GLAutoDrawable, int, int, int, int): void</text></g></a><!--class com.jogamp.opengl.GLEventListener--><g id="elem_com.jogamp.opengl.GLEventListener"><rect codeLine="27" fill="#F1F1F1" height="118.625" id="com.jogamp.opengl.GLEventListener" rx="2.5" ry="2.5" style="stroke:#181818;stroke-width:0.5;" width="320" x="94" y="7"/><ellipse cx="197.25" cy="27.0938" fill="#B4A7E5" rx="11" ry="11" style="stroke:#181818;stroke-width:1.0;"/><path d="M198.2031,23.7344 L198.2031,30.3906 L199.9219,30.3906 Q200.5313,30.3906 200.7969,30.625 Q201.0625,30.8594 201.0625,31.25 Q201.0625,31.625 200.7969,31.8594 Q200.5313,32.0938 199.9219,32.0938 L194.7813,32.0938 Q194.1719,32.0938 193.9063,31.8594 Q193.6406,31.625 193.6406,31.2344 Q193.6406,30.8594 193.9063,30.625 Q194.1719,30.3906 194.7813,30.3906 L196.5,30.3906 L196.5,23.7344 L194.7813,23.7344 Q194.1719,23.7344 193.9063,23.5 Q193.6406,23.2656 193.6406,22.875 Q193.6406,22.5 193.9063,22.2656 Q194.1719,22.0313 194.7813,22.0313 L199.9219,22.0313 Q200.5313,22.0313 200.7969,22.2656 Q201.0625,22.5 201.0625,22.875 Q201.0625,23.2656 200.7969,23.5 Q200.5313,23.7344 199.9219,23.7344 L198.2031,23.7344 Z " fill="#000000"/><text fill="#000000" font-family="sans-serif" font-size="14" font-style="italic" lengthAdjust="spacing" textLength="105" x="217.75" y="26.5332">GLEventListener</text><text fill="#000000" font-family="sans-serif" font-size="10" font-style="italic" lengthAdjust="spacing" textLength="90" x="225.25" y="39.9902">com.jogamp.opengl</text><line style="stroke:#181818;stroke-width:0.5;" x1="95" x2="413" y1="47.1875" y2="47.1875"/><ellipse cx="105" cy="61.4922" fill="#84BE84" rx="3" ry="3" style="stroke:#038048;stroke-width:1.0;"/><text fill="#000000" font-family="sans-serif" font-size="14" font-style="italic" lengthAdjust="spacing" textLength="168" x="114" y="65.7207">init(GLAutoDrawable): void</text><ellipse cx="105" cy="79.1016" fill="#84BE84" rx="3" ry="3" style="stroke:#038048;stroke-width:1.0;"/><text fill="#000000" font-family="sans-serif" font-size="14" font-style="italic" lengthAdjust="spacing" textLength="199" x="114" y="83.3301">dispose(GLAutoDrawable): void</text><ellipse cx="105" cy="96.7109" fill="#84BE84" rx="3" ry="3" style="stroke:#038048;stroke-width:1.0;"/><text fill="#000000" font-family="sans-serif" font-size="14" font-style="italic" lengthAdjust="spacing" textLength="194" x="114" y="100.9395">display(GLAutoDrawable): void</text><ellipse cx="105" cy="114.3203" fill="#84BE84" rx="3" ry="3" style="stroke:#038048;stroke-width:1.0;"/><text fill="#000000" font-family="sans-serif" font-size="14" font-style="italic" lengthAdjust="spacing" textLength="294" x="114" y="118.5488">reshape(GLAutoDrawable, int, int, int, int): void</text></g><!--reverse link com.jogamp.opengl.GLEventListener to medipro.object.base.World--><g id="link_com.jogamp.opengl.GLEventListener_medipro.object.base.World"><path codeLine="34" d="M254,143.76 C254,161.44 254,163.91 254,185.41 " fill="none" id="com.jogamp.opengl.GLEventListener-backto-medipro.object.base.World" style="stroke:#181818;stroke-width:1.0;stroke-dasharray:7.0,7.0;"/><polygon fill="none" points="254,125.76,248,143.76,260,143.76,254,125.76" style="stroke:#181818;stroke-width:1.0;"/></g><text fill="#888888" font-family="sans-serif" font-size="10" lengthAdjust="spacing" textLength="184" x="154" y="592.7665">UMLDoclet 2.1.1, PlantUML 1.2023.12</text><!--SRC=[hLHDQnin4BttLmm9XJK9eWuzBSPWuc8e3Wdqwv3cC5xDsWfQZP1a5pVDVwzstThoUXCRsZsiqDDxez6JPW00F0KmM96tMD0dikWmi0F3Xjx4PLWeIK2L3Mie5MdfssX5OS4HRd2S-U2m251ez1xE1bxzfBp_VlYDdPRVpP_vks55Kbd7WcUFL0GnGqzdW1uwSD5euVw-6SKYLFhX0PwQ_UhlNFDyJYw7QJDkyOk2JN2iDJcVmyWvN4-L3uD9FErj4_vwInZkL2j5F_RuNSglaJHCH1ODwHm-tjLZaa4KECpXrWR51lNWkW5kM99ErCt1iesujuDHobs6FklAMmZHos75Ikx9wlHIGJr_XTfYNe8ouINko2H97GYxSln_aJeJU_hxvfxX8ZxcfTrpixttqaeCb4bUpZGThCufR6xeiqFZItPL5ZcZibI6jj2EBXr6xnpQXIhyrVWWd38gP9FfQ1bu7AdOjQLKthAdKsWQryTeZlm2RJjQurlhbqgVDyKRKN9bR0D9tKwc7rPaGltyoP1BAhZWIZpo72ihs9APwwP-3r3HYf0KRdfp9rYLqazphQquRc2g-2SlZ_im-2N4o-rk4uJg6u6IkHw-t4p7NEZOhwz4N_GluKwZ2H65jwlO7sA3oNg_0G00]--></g></svg>