<?xml version="1.0" encoding="us-ascii" standalone="no"?><svg xmlns="http://www.w3.org/2000/svg" xmlns:xlink="http://www.w3.org/1999/xlink" contentStyleType="text/css" height="478px" preserveAspectRatio="none" style="width:657px;height:478px;background:#FFFFFF;" version="1.1" viewBox="0 0 657 478" width="657px" zoomAndPan="magnify"><defs/><g><!--class medipro.object.base.World--><a href="World.html" target="_top" title="World.html" xlink:actuate="onRequest" xlink:href="World.html" xlink:show="new" xlink:title="World.html" xlink:type="simple"><g id="elem_medipro.object.base.World"><rect codeLine="5" fill="#F1F1F1" height="443.5938" id="medipro.object.base.World" rx="2.5" ry="2.5" style="stroke:#181818;stroke-width:0.5;" width="636" x="7" y="7"/><ellipse cx="273.75" cy="27.0938" fill="#A9DCDF" rx="11" ry="11" style="stroke:#181818;stroke-width:1.0;"/><path d="M275.9375,28.8594 L271.7969,28.8594 L271.375,29.8906 L271.7969,29.8906 Q272.4063,29.8906 272.6719,30.125 Q272.9375,30.3594 272.9375,30.75 Q272.9375,31.125 272.6719,31.3594 Q272.4063,31.5938 271.7969,31.5938 L269.5,31.5938 Q268.8906,31.5938 268.6406,31.3594 Q268.375,31.125 268.375,30.7344 Q268.375,30.3594 268.6563,30.125 Q268.9219,29.875 269.5469,29.8906 L272.2188,23.2344 L271.1094,23.2344 Q270.5,23.2344 270.2344,23 Q269.9688,22.7656 269.9688,22.375 Q269.9688,22 270.2344,21.7656 Q270.5,21.5313 271.1094,21.5313 L274.7813,21.5313 L278.1719,29.8906 Q278.7656,29.8906 278.9531,30.0313 Q279.3438,30.2969 279.3438,30.75 Q279.3438,31.125 279.0781,31.3594 Q278.8281,31.5938 278.2188,31.5938 L275.9219,31.5938 Q275.3125,31.5938 275.0469,31.3594 Q274.7813,31.125 274.7813,30.7344 Q274.7813,30.3594 275.0469,30.125 Q275.3125,29.8906 275.9219,29.8906 L276.3438,29.8906 L275.9375,28.8594 Z M275.2188,27.1563 L273.8594,23.7813 L272.4844,27.1563 L275.2188,27.1563 Z " fill="#000000"/><text fill="#000000" font-family="sans-serif" font-size="14" font-style="italic" lengthAdjust="spacing" textLength="38" x="322.25" y="26.5332">World</text><text fill="#000000" font-family="sans-serif" font-size="10" font-style="italic" lengthAdjust="spacing" textLength="94" x="294.25" y="39.9902">medipro.object.base</text><line style="stroke:#181818;stroke-width:0.5;" x1="8" x2="642" y1="47.1875" y2="47.1875"/><polygon fill="none" points="18,56.4922,22,60.4922,18,64.4922,14,60.4922" style="stroke:#B38D22;stroke-width:1.0;"/><text fill="#000000" font-family="sans-serif" font-size="14" lengthAdjust="spacing" textLength="93" x="27" y="65.7207">logger: Logger</text><rect fill="none" height="6" style="stroke:#C82930;stroke-width:1.0;" width="6" x="15" y="76.1016"/><text fill="#000000" font-family="sans-serif" font-size="14" lengthAdjust="spacing" textLength="287" x="27" y="83.3301">controllers: ArrayList&lt;GameObjectController&gt;</text><rect fill="none" height="6" style="stroke:#C82930;stroke-width:1.0;" width="6" x="15" y="93.7109"/><text fill="#000000" font-family="sans-serif" font-size="14" lengthAdjust="spacing" textLength="294" x="27" y="100.9395">views: ArrayList&lt;ArrayList&lt;GameObjectView&gt;&gt;</text><rect fill="none" height="6" style="stroke:#C82930;stroke-width:1.0;" width="6" x="15" y="111.3203"/><text fill="#000000" font-family="sans-serif" font-size="14" lengthAdjust="spacing" textLength="117" x="27" y="118.5488">panel: GamePanel</text><rect fill="none" height="6" style="stroke:#C82930;stroke-width:1.0;" width="6" x="15" y="128.9297"/><text fill="#000000" font-family="sans-serif" font-size="14" lengthAdjust="spacing" textLength="212" x="27" y="136.1582">camera: Optional&lt;CameraModel&gt;</text><line style="stroke:#181818;stroke-width:0.5;" x1="8" x2="642" y1="143.2344" y2="143.2344"/><ellipse cx="18" cy="157.5391" fill="#84BE84" rx="3" ry="3" style="stroke:#038048;stroke-width:1.0;"/><text fill="#000000" font-family="sans-serif" font-size="14" lengthAdjust="spacing" textLength="121" x="27" y="161.7676">World(GamePanel)</text><ellipse cx="18" cy="175.1484" fill="#84BE84" rx="3" ry="3" style="stroke:#038048;stroke-width:1.0;"/><text fill="#000000" font-family="sans-serif" font-size="14" lengthAdjust="spacing" textLength="245" x="27" y="179.377">getCamera(): Optional&lt;CameraModel&gt;</text><ellipse cx="18" cy="192.7578" fill="#84BE84" rx="3" ry="3" style="stroke:#038048;stroke-width:1.0;"/><text fill="#000000" font-family="sans-serif" font-size="14" lengthAdjust="spacing" textLength="270" x="27" y="196.9863">setCamera(Optional&lt;CameraModel&gt;): void</text><ellipse cx="18" cy="210.3672" fill="#84BE84" rx="3" ry="3" style="stroke:#038048;stroke-width:1.0;"/><text fill="#000000" font-family="sans-serif" font-size="14" lengthAdjust="spacing" textLength="93" x="27" y="214.5957">dispose(): void</text><ellipse cx="18" cy="227.9766" fill="#84BE84" rx="3" ry="3" style="stroke:#038048;stroke-width:1.0;"/><text fill="#000000" font-family="sans-serif" font-size="14" lengthAdjust="spacing" textLength="290" x="27" y="232.2051">addControllers(GameObjectController...): void</text><ellipse cx="18" cy="245.5859" fill="#84BE84" rx="3" ry="3" style="stroke:#038048;stroke-width:1.0;"/><text fill="#000000" font-family="sans-serif" font-size="14" lengthAdjust="spacing" textLength="224" x="27" y="249.8145">addViews(GameObjectView...): void</text><ellipse cx="18" cy="263.1953" fill="#84BE84" rx="3" ry="3" style="stroke:#038048;stroke-width:1.0;"/><text fill="#000000" font-family="sans-serif" font-size="14" lengthAdjust="spacing" textLength="228" x="27" y="267.4238">addView(GameObjectView, int): void</text><ellipse cx="18" cy="280.8047" fill="#84BE84" rx="3" ry="3" style="stroke:#038048;stroke-width:1.0;"/><text fill="#000000" font-family="sans-serif" font-size="14" lengthAdjust="spacing" textLength="441" x="27" y="285.0332">addViewAndController(GameObjectView, GameObjectController): void</text><ellipse cx="18" cy="298.4141" fill="#84BE84" rx="3" ry="3" style="stroke:#038048;stroke-width:1.0;"/><text fill="#000000" font-family="sans-serif" font-size="14" lengthAdjust="spacing" textLength="464" x="27" y="302.6426">addViewAndController(GameObjectView, GameObjectController, int): void</text><ellipse cx="18" cy="316.0234" fill="#84BE84" rx="3" ry="3" style="stroke:#038048;stroke-width:1.0;"/><text fill="#000000" font-family="sans-serif" font-size="14" font-style="italic" lengthAdjust="spacing" textLength="159" x="27" y="320.252">setupWorld(JPanel): void</text><ellipse cx="18" cy="333.6328" fill="#84BE84" rx="3" ry="3" style="stroke:#038048;stroke-width:1.0;"/><text fill="#000000" font-family="sans-serif" font-size="14" lengthAdjust="spacing" textLength="131" x="27" y="337.8613">update(double): void</text><ellipse cx="18" cy="351.2422" fill="#84BE84" rx="3" ry="3" style="stroke:#038048;stroke-width:1.0;"/><text fill="#000000" font-family="sans-serif" font-size="14" lengthAdjust="spacing" textLength="254" x="27" y="355.4707">getCameraTransform(): AffineTransform</text><ellipse cx="18" cy="368.8516" fill="#84BE84" rx="3" ry="3" style="stroke:#038048;stroke-width:1.0;"/><text fill="#000000" font-family="sans-serif" font-size="14" lengthAdjust="spacing" textLength="149" x="27" y="373.0801">draw(Graphics2D): void</text><ellipse cx="18" cy="386.4609" fill="#84BE84" rx="3" ry="3" style="stroke:#038048;stroke-width:1.0;"/><text fill="#000000" font-family="sans-serif" font-size="14" lengthAdjust="spacing" textLength="610" x="27" y="390.6895">getControllers(Class&lt;T extends GameObjectController&gt;): List&lt;T extends GameObjectController&gt;</text><ellipse cx="18" cy="404.0703" fill="#84BE84" rx="3" ry="3" style="stroke:#038048;stroke-width:1.0;"/><text fill="#000000" font-family="sans-serif" font-size="14" lengthAdjust="spacing" textLength="286" x="27" y="408.2988">getControllers(): List&lt;GameObjectController&gt;</text><ellipse cx="18" cy="421.6797" fill="#84BE84" rx="3" ry="3" style="stroke:#038048;stroke-width:1.0;"/><text fill="#000000" font-family="sans-serif" font-size="14" lengthAdjust="spacing" textLength="298" x="27" y="425.9082">getAnormalyListeners(): List&lt;AnomalyListener&gt;</text><ellipse cx="18" cy="439.2891" fill="#84BE84" rx="3" ry="3" style="stroke:#038048;stroke-width:1.0;"/><text fill="#000000" font-family="sans-serif" font-size="14" lengthAdjust="spacing" textLength="148" x="27" y="443.5176">getPanel(): GamePanel</text></g></a><text fill="#888888" font-family="sans-serif" font-size="10" lengthAdjust="spacing" textLength="184" x="232.5" y="467.9746">UMLDoclet 2.1.1, PlantUML 1.2023.12</text><!--SRC=[hLHHQzim47xVhpWw1Wxhn5BsP48Wf30OAIsisnwwFboiSw8XIqAdPEjA__iaPRMTn5rUvWVB-kxxxavtEWC0C0Kms10xhEWpEVGOh0TZ3RsAPbWhIK2D2mzGAzAI3z66mjf6EEEuvE2n2b1fP8Qp2QlVL8u_JBzPh-LtytV_VjgGLCvROPS_g0fYYKndW0m3kCXQkBlBgrY7Hj_VmsEEbvxNsgvMv4jOvBN5trNM16-r9iybpBp7XuNYCFaOJtkTtSzRmhHJRHNztECFARz6qhGdScX8bv08D-cpbqI4F9PmxOAo1lLade4hAqbt3jxcinMjVjHPLXHsac9qqWktt45YTB2rIdPygTXPfkB8W59snU5Yg6H2Y25PganVaFR_e1umpq6Py19tPdf97Gc7Sln_dWOJUto-xa-vz1ktw-AdNGiFOs-Sn425j9kbfYDhs-PRZuPhwvlKbLbTAqCjrEkSnrWxZswjAhwu77JNQ-0yZUFa5kXN82Dvy8ZfUkHhVeBsOf1d_MdLpCJ3eCvJHQQlZPQ-OL-Mwvge-tFsbDyLcK0UQclJykLgSMah7Nzk5s8inkTmez64YCARROmNPwCO_G40]--></g></svg>