<?xml version="1.0" encoding="us-ascii" standalone="no"?><svg xmlns="http://www.w3.org/2000/svg" xmlns:xlink="http://www.w3.org/1999/xlink" contentStyleType="text/css" height="327px" preserveAspectRatio="none" style="width:365px;height:327px;background:#FFFFFF;" version="1.1" viewBox="0 0 365 327" width="365px" zoomAndPan="magnify"><defs/><g><!--cluster medipro.interfaces--><g id="cluster_medipro.interfaces"><path d="M8.5,130 L142.5,130 A3.75,3.75 0 0 1 145,132.5 L152,153.6094 L355.5,153.6094 A2.5,2.5 0 0 1 358,156.1094 L358,297.94 A2.5,2.5 0 0 1 355.5,300.44 L8.5,300.44 A2.5,2.5 0 0 1 6,297.94 L6,132.5 A2.5,2.5 0 0 1 8.5,130 " fill="none" style="stroke:#000000;stroke-width:1.5;"/><line style="stroke:#000000;stroke-width:1.5;" x1="6" x2="152" y1="153.6094" y2="153.6094"/><text fill="#000000" font-family="sans-serif" font-size="14" font-weight="bold" lengthAdjust="spacing" textLength="133" x="10" y="146.5332">medipro.interfaces</text></g><!--cluster java.util--><g id="cluster_java.util"><path d="M109.5,6 L165.5,6 A3.75,3.75 0 0 1 168,8.5 L175,29.6094 L254.5,29.6094 A2.5,2.5 0 0 1 257,32.1094 L257,103.5 A2.5,2.5 0 0 1 254.5,106 L109.5,106 A2.5,2.5 0 0 1 107,103.5 L107,8.5 A2.5,2.5 0 0 1 109.5,6 " fill="none" style="stroke:#000000;stroke-width:1.5;"/><line style="stroke:#000000;stroke-width:1.5;" x1="107" x2="175" y1="29.6094" y2="29.6094"/><text fill="#000000" font-family="sans-serif" font-size="14" font-weight="bold" lengthAdjust="spacing" textLength="55" x="111" y="22.5332">java.util</text></g><!--class GLDeltaEventListener--><a href="GLDeltaEventListener.html" target="_top" title="GLDeltaEventListener.html" xlink:actuate="onRequest" xlink:href="GLDeltaEventListener.html" xlink:show="new" xlink:title="GLDeltaEventListener.html" xlink:type="simple"><g id="elem_GLDeltaEventListener"><rect codeLine="5" fill="#F1F1F1" height="118.4375" id="GLDeltaEventListener" rx="2.5" ry="2.5" style="stroke:#181818;stroke-width:0.5;" width="320" x="22" y="166"/><ellipse cx="108.75" cy="182" fill="#B4A7E5" rx="11" ry="11" style="stroke:#181818;stroke-width:1.0;"/><path d="M109.7031,178.6406 L109.7031,185.2969 L111.4219,185.2969 Q112.0313,185.2969 112.2969,185.5313 Q112.5625,185.7656 112.5625,186.1563 Q112.5625,186.5313 112.2969,186.7656 Q112.0313,187 111.4219,187 L106.2813,187 Q105.6719,187 105.4063,186.7656 Q105.1406,186.5313 105.1406,186.1406 Q105.1406,185.7656 105.4063,185.5313 Q105.6719,185.2969 106.2813,185.2969 L108,185.2969 L108,178.6406 L106.2813,178.6406 Q105.6719,178.6406 105.4063,178.4063 Q105.1406,178.1719 105.1406,177.7813 Q105.1406,177.4063 105.4063,177.1719 Q105.6719,176.9375 106.2813,176.9375 L111.4219,176.9375 Q112.0313,176.9375 112.2969,177.1719 Q112.5625,177.4063 112.5625,177.7813 Q112.5625,178.1719 112.2969,178.4063 Q112.0313,178.6406 111.4219,178.6406 L109.7031,178.6406 Z " fill="#000000"/><text fill="#000000" font-family="sans-serif" font-size="14" font-style="italic" lengthAdjust="spacing" textLength="138" x="129.25" y="187.7285">GLDeltaEventListener</text><line style="stroke:#181818;stroke-width:0.5;" x1="23" x2="341" y1="198" y2="198"/><line style="stroke:#181818;stroke-width:0.5;" x1="23" x2="341" y1="206" y2="206"/><ellipse cx="33" cy="220.3047" fill="#84BE84" rx="3" ry="3" style="stroke:#038048;stroke-width:1.0;"/><text fill="#000000" font-family="sans-serif" font-size="14" font-style="italic" lengthAdjust="spacing" textLength="168" x="42" y="224.5332">init(GLAutoDrawable): void</text><ellipse cx="33" cy="237.9141" fill="#84BE84" rx="3" ry="3" style="stroke:#038048;stroke-width:1.0;"/><text fill="#000000" font-family="sans-serif" font-size="14" font-style="italic" lengthAdjust="spacing" textLength="199" x="42" y="242.1426">dispose(GLAutoDrawable): void</text><ellipse cx="33" cy="255.5234" fill="#84BE84" rx="3" ry="3" style="stroke:#038048;stroke-width:1.0;"/><text fill="#000000" font-family="sans-serif" font-size="14" font-style="italic" lengthAdjust="spacing" textLength="245" x="42" y="259.752">display(GLAutoDrawable, double): void</text><ellipse cx="33" cy="273.1328" fill="#84BE84" rx="3" ry="3" style="stroke:#038048;stroke-width:1.0;"/><text fill="#000000" font-family="sans-serif" font-size="14" font-style="italic" lengthAdjust="spacing" textLength="294" x="42" y="277.3613">reshape(GLAutoDrawable, int, int, int, int): void</text></g></a><!--class EventListener--><g id="elem_EventListener"><rect codeLine="15" fill="#F1F1F1" height="48" id="EventListener" rx="2.5" ry="2.5" style="stroke:#181818;stroke-width:0.5;" width="118" x="123" y="42"/><ellipse cx="138" cy="58" fill="#B4A7E5" rx="11" ry="11" style="stroke:#181818;stroke-width:1.0;"/><path d="M138.9531,54.6406 L138.9531,61.2969 L140.6719,61.2969 Q141.2813,61.2969 141.5469,61.5313 Q141.8125,61.7656 141.8125,62.1563 Q141.8125,62.5313 141.5469,62.7656 Q141.2813,63 140.6719,63 L135.5313,63 Q134.9219,63 134.6563,62.7656 Q134.3906,62.5313 134.3906,62.1406 Q134.3906,61.7656 134.6563,61.5313 Q134.9219,61.2969 135.5313,61.2969 L137.25,61.2969 L137.25,54.6406 L135.5313,54.6406 Q134.9219,54.6406 134.6563,54.4063 Q134.3906,54.1719 134.3906,53.7813 Q134.3906,53.4063 134.6563,53.1719 Q134.9219,52.9375 135.5313,52.9375 L140.6719,52.9375 Q141.2813,52.9375 141.5469,53.1719 Q141.8125,53.4063 141.8125,53.7813 Q141.8125,54.1719 141.5469,54.4063 Q141.2813,54.6406 140.6719,54.6406 L138.9531,54.6406 Z " fill="#000000"/><text fill="#000000" font-family="sans-serif" font-size="14" font-style="italic" lengthAdjust="spacing" textLength="86" x="152" y="63.7285">EventListener</text><line style="stroke:#181818;stroke-width:0.5;" x1="124" x2="240" y1="74" y2="74"/><line style="stroke:#181818;stroke-width:0.5;" x1="124" x2="240" y1="82" y2="82"/></g><!--reverse link EventListener to GLDeltaEventListener--><g id="link_EventListener_GLDeltaEventListener"><path codeLine="18" d="M182,108.2 C182,128.02 182,139.39 182,165.59 " fill="none" id="EventListener-backto-GLDeltaEventListener" style="stroke:#181818;stroke-width:1.0;"/><polygon fill="none" points="182,90.2,176,108.2,188,108.2,182,90.2" style="stroke:#181818;stroke-width:1.0;"/></g><text fill="#888888" font-family="sans-serif" font-size="10" lengthAdjust="spacing" textLength="184" x="83.5" y="316.8209">UMLDoclet 2.1.1, PlantUML 1.2023.12</text><!--SRC=[dPB1QiCm38RlVGfT1Yrh3TtHx3B8w2M3NNegFQY9kdfpBMChAQFBkyzPeKko3CO4jk57dmwV300GITBn650uWDQJIGh1O_66BmH7AeqFh8mJ2diiACBvqj7MDOLLdf4LVAp9IMwYaAC0cyrOh0vojDjjcWETEkCkIi126hWrpiXqbJzKmbd04-uipJJKRCfVaT94pv7-GLby7r1pABdw0nqe7j3J3pfP6Lp3ISr5OTDt_OergagCxQZvDjnpsCMlcDPz_VSVYyN80hKUsyhNg8BQBjWpjy_wAS-uiEb_tAcbMixXsQAJbC9DJI4QTjFP9m00]--></g></svg>