<?xml version="1.0" encoding="us-ascii" standalone="no"?><svg xmlns="http://www.w3.org/2000/svg" xmlns:xlink="http://www.w3.org/1999/xlink" contentStyleType="text/css" height="217px" preserveAspectRatio="none" style="width:350px;height:217px;background:#FFFFFF;" version="1.1" viewBox="0 0 350 217" width="350px" zoomAndPan="magnify"><defs/><g><!--class medipro.object.camera.FollowingCameraController--><a href="FollowingCameraController.html" target="_top" title="FollowingCameraController.html" xlink:actuate="onRequest" xlink:href="FollowingCameraController.html" xlink:show="new" xlink:title="FollowingCameraController.html" xlink:type="simple"><g id="elem_medipro.object.camera.FollowingCameraController"><rect codeLine="5" fill="#F1F1F1" height="83.4063" id="medipro.object.camera.FollowingCameraController" rx="2.5" ry="2.5" style="stroke:#181818;stroke-width:0.5;" width="336" x="7" y="107.18"/><ellipse cx="85.25" cy="127.2738" fill="#ADD1B2" rx="11" ry="11" style="stroke:#181818;stroke-width:1.0;"/><path d="M88.0156,123.1488 Q88.1719,122.93 88.3594,122.8206 Q88.5469,122.7113 88.7656,122.7113 Q89.1406,122.7113 89.375,122.9769 Q89.6094,123.2269 89.6094,123.8363 L89.6094,125.2894 Q89.6094,125.8988 89.375,126.1644 Q89.1406,126.43 88.7656,126.43 Q88.4219,126.43 88.2188,126.2269 Q88.0156,126.0394 87.9063,125.5238 Q87.8594,125.1644 87.6719,124.9769 Q87.3438,124.6019 86.7344,124.3831 Q86.125,124.1644 85.5,124.1644 Q84.7344,124.1644 84.0938,124.4925 Q83.4688,124.8206 82.9688,125.5706 Q82.4844,126.3206 82.4844,127.3519 L82.4844,128.4456 Q82.4844,129.68 83.375,130.5081 Q84.2656,131.3206 85.8594,131.3206 Q86.7969,131.3206 87.4531,131.0706 Q87.8438,130.9144 88.2656,130.4769 Q88.5313,130.2113 88.6719,130.1331 Q88.8281,130.055 89.0313,130.055 Q89.3594,130.055 89.6094,130.3206 Q89.875,130.5706 89.875,130.9144 Q89.875,131.2581 89.5313,131.6644 Q89.0313,132.2425 88.2344,132.5706 Q87.1563,133.0238 85.8594,133.0238 Q84.3438,133.0238 83.1406,132.3988 Q82.1563,131.8988 81.4688,130.8363 Q80.7813,129.7581 80.7813,128.4769 L80.7813,127.3206 Q80.7813,125.9925 81.3906,124.8519 Q82.0156,123.6956 83.1094,123.0863 Q84.2031,122.4613 85.4375,122.4613 Q86.1719,122.4613 86.8125,122.6331 Q87.4688,122.7894 88.0156,123.1488 Z " fill="#000000"/><text fill="#000000" font-family="sans-serif" font-size="14" lengthAdjust="spacing" textLength="171" x="105.75" y="126.7132">FollowingCameraController</text><text fill="#000000" font-family="sans-serif" font-size="10" lengthAdjust="spacing" textLength="111" x="135.75" y="140.1702">medipro.object.camera</text><line style="stroke:#181818;stroke-width:0.5;" x1="8" x2="342" y1="147.3675" y2="147.3675"/><ellipse cx="18" cy="161.6722" fill="#84BE84" rx="3" ry="3" style="stroke:#038048;stroke-width:1.0;"/><text fill="#000000" font-family="sans-serif" font-size="14" lengthAdjust="spacing" textLength="310" x="27" y="165.9007">FollowingCameraController(GameObjectModel...)</text><ellipse cx="18" cy="179.2816" fill="#84BE84" rx="3" ry="3" style="stroke:#038048;stroke-width:1.0;"/><text fill="#000000" font-family="sans-serif" font-size="14" lengthAdjust="spacing" textLength="256" x="27" y="183.5101">update(GameObjectModel, double): void</text></g></a><!--class medipro.object.base.camera.CameraController--><a href="..\base\camera\CameraController.html" target="_top" title="..\base\camera\CameraController.html" xlink:actuate="onRequest" xlink:href="..\base\camera\CameraController.html" xlink:show="new" xlink:title="..\base\camera\CameraController.html" xlink:type="simple"><g id="elem_medipro.object.base.camera.CameraController"><rect codeLine="10" fill="#F1F1F1" height="40.1875" id="medipro.object.base.camera.CameraController" rx="2.5" ry="2.5" style="stroke:#181818;stroke-width:0.5;" width="168" x="91" y="7"/><ellipse cx="106" cy="27.0938" fill="#ADD1B2" rx="11" ry="11" style="stroke:#181818;stroke-width:1.0;"/><path d="M108.7656,22.9688 Q108.9219,22.75 109.1094,22.6406 Q109.2969,22.5313 109.5156,22.5313 Q109.8906,22.5313 110.125,22.7969 Q110.3594,23.0469 110.3594,23.6563 L110.3594,25.1094 Q110.3594,25.7188 110.125,25.9844 Q109.8906,26.25 109.5156,26.25 Q109.1719,26.25 108.9688,26.0469 Q108.7656,25.8594 108.6563,25.3438 Q108.6094,24.9844 108.4219,24.7969 Q108.0938,24.4219 107.4844,24.2031 Q106.875,23.9844 106.25,23.9844 Q105.4844,23.9844 104.8438,24.3125 Q104.2188,24.6406 103.7188,25.3906 Q103.2344,26.1406 103.2344,27.1719 L103.2344,28.2656 Q103.2344,29.5 104.125,30.3281 Q105.0156,31.1406 106.6094,31.1406 Q107.5469,31.1406 108.2031,30.8906 Q108.5938,30.7344 109.0156,30.2969 Q109.2813,30.0313 109.4219,29.9531 Q109.5781,29.875 109.7813,29.875 Q110.1094,29.875 110.3594,30.1406 Q110.625,30.3906 110.625,30.7344 Q110.625,31.0781 110.2813,31.4844 Q109.7813,32.0625 108.9844,32.3906 Q107.9063,32.8438 106.6094,32.8438 Q105.0938,32.8438 103.8906,32.2188 Q102.9063,31.7188 102.2188,30.6563 Q101.5313,29.5781 101.5313,28.2969 L101.5313,27.1406 Q101.5313,25.8125 102.1406,24.6719 Q102.7656,23.5156 103.8594,22.9063 Q104.9531,22.2813 106.1875,22.2813 Q106.9219,22.2813 107.5625,22.4531 Q108.2188,22.6094 108.7656,22.9688 Z " fill="#000000"/><text fill="#000000" font-family="sans-serif" font-size="14" lengthAdjust="spacing" textLength="112" x="132" y="26.5332">CameraController</text><text fill="#000000" font-family="sans-serif" font-size="10" lengthAdjust="spacing" textLength="136" x="120" y="39.9902">medipro.object.base.camera</text></g></a><!--reverse link medipro.object.base.camera.CameraController to medipro.object.camera.FollowingCameraController--><g id="link_medipro.object.base.camera.CameraController_medipro.object.camera.FollowingCameraController"><path codeLine="12" d="M175,65.6 C175,81.65 175,86.93 175,107.02 " fill="none" id="medipro.object.base.camera.CameraController-backto-medipro.object.camera.FollowingCameraController" style="stroke:#181818;stroke-width:1.0;"/><polygon fill="none" points="175,47.6,169,65.6,181,65.6,175,47.6" style="stroke:#181818;stroke-width:1.0;"/></g><text fill="#888888" font-family="sans-serif" font-size="10" lengthAdjust="spacing" textLength="184" x="76" y="206.9671">UMLDoclet 2.1.1, PlantUML 1.2023.12</text><!--SRC=[bP9BImCn58Nt_efBGUXWUt74LIdTL7HZKH1NdIuoaridakI69Atu-kzcPWIbp8ZD9d3ETn-S100WK0Gh30KdAdeW9xo8xC6ofPDaGwqa0HaNNs6hICjmg1gADIUvrIijGe3HFAWtckMNYslMcb-KVLgc4LuisKQV9FA5_MRE5uQaSfwHosUg8bOjEG8HeDV1mPwmNWzwM4UZDnjuRzTipjaWExv9mbqxSyMID29cFsKx9qMaGsO2adUbfcm6UrQonJ_xC_b_5AK8z4SUlspioGAnQ8YY8ug1HBeTZ-ay_vXEZtsQBWYoCTLlcPlhSNLxnPLEt-y2SymdSA-5ZKc5qptveDYEioy0]--></g></svg>