<?xml version="1.0" encoding="us-ascii" standalone="no"?><svg xmlns="http://www.w3.org/2000/svg" xmlns:xlink="http://www.w3.org/1999/xlink" contentStyleType="text/css" height="260px" preserveAspectRatio="none" style="width:359px;height:260px;background:#FFFFFF;" version="1.1" viewBox="0 0 359 260" width="359px" zoomAndPan="magnify"><defs/><g><!--class medipro.object.camera.FollowingCameraModel--><a href="FollowingCameraModel.html" target="_top" title="FollowingCameraModel.html" xlink:actuate="onRequest" xlink:href="FollowingCameraModel.html" xlink:show="new" xlink:title="FollowingCameraModel.html" xlink:type="simple"><g id="elem_medipro.object.camera.FollowingCameraModel"><rect codeLine="5" fill="#F1F1F1" height="126.625" id="medipro.object.camera.FollowingCameraModel" rx="2.5" ry="2.5" style="stroke:#181818;stroke-width:0.5;" width="345" x="7" y="107.18"/><ellipse cx="101.75" cy="127.2738" fill="#ADD1B2" rx="11" ry="11" style="stroke:#181818;stroke-width:1.0;"/><path d="M104.5156,123.1488 Q104.6719,122.93 104.8594,122.8206 Q105.0469,122.7113 105.2656,122.7113 Q105.6406,122.7113 105.875,122.9769 Q106.1094,123.2269 106.1094,123.8363 L106.1094,125.2894 Q106.1094,125.8988 105.875,126.1644 Q105.6406,126.43 105.2656,126.43 Q104.9219,126.43 104.7188,126.2269 Q104.5156,126.0394 104.4063,125.5238 Q104.3594,125.1644 104.1719,124.9769 Q103.8438,124.6019 103.2344,124.3831 Q102.625,124.1644 102,124.1644 Q101.2344,124.1644 100.5938,124.4925 Q99.9688,124.8206 99.4688,125.5706 Q98.9844,126.3206 98.9844,127.3519 L98.9844,128.4456 Q98.9844,129.68 99.875,130.5081 Q100.7656,131.3206 102.3594,131.3206 Q103.2969,131.3206 103.9531,131.0706 Q104.3438,130.9144 104.7656,130.4769 Q105.0313,130.2113 105.1719,130.1331 Q105.3281,130.055 105.5313,130.055 Q105.8594,130.055 106.1094,130.3206 Q106.375,130.5706 106.375,130.9144 Q106.375,131.2581 106.0313,131.6644 Q105.5313,132.2425 104.7344,132.5706 Q103.6563,133.0238 102.3594,133.0238 Q100.8438,133.0238 99.6406,132.3988 Q98.6563,131.8988 97.9688,130.8363 Q97.2813,129.7581 97.2813,128.4769 L97.2813,127.3206 Q97.2813,125.9925 97.8906,124.8519 Q98.5156,123.6956 99.6094,123.0863 Q100.7031,122.4613 101.9375,122.4613 Q102.6719,122.4613 103.3125,122.6331 Q103.9688,122.7894 104.5156,123.1488 Z " fill="#000000"/><text fill="#000000" font-family="sans-serif" font-size="14" lengthAdjust="spacing" textLength="147" x="122.25" y="126.7132">FollowingCameraModel</text><text fill="#000000" font-family="sans-serif" font-size="10" lengthAdjust="spacing" textLength="111" x="140.25" y="140.1702">medipro.object.camera</text><line style="stroke:#181818;stroke-width:0.5;" x1="8" x2="351" y1="147.3675" y2="147.3675"/><ellipse cx="18" cy="161.6722" fill="none" rx="3" ry="3" style="stroke:#038048;stroke-width:1.0;"/><text fill="#000000" font-family="sans-serif" font-size="14" lengthAdjust="spacing" textLength="231" x="27" y="165.9007">target: Optional&lt;GameObjectModel&gt;</text><ellipse cx="18" cy="179.2816" fill="none" rx="3" ry="3" style="stroke:#038048;stroke-width:1.0;"/><text fill="#000000" font-family="sans-serif" font-size="14" lengthAdjust="spacing" textLength="94" x="27" y="183.5101">originX: double</text><ellipse cx="18" cy="196.8909" fill="none" rx="3" ry="3" style="stroke:#038048;stroke-width:1.0;"/><text fill="#000000" font-family="sans-serif" font-size="14" lengthAdjust="spacing" textLength="95" x="27" y="201.1195">originY: double</text><line style="stroke:#181818;stroke-width:0.5;" x1="8" x2="351" y1="208.1956" y2="208.1956"/><ellipse cx="18" cy="222.5003" fill="#84BE84" rx="3" ry="3" style="stroke:#038048;stroke-width:1.0;"/><text fill="#000000" font-family="sans-serif" font-size="14" lengthAdjust="spacing" textLength="319" x="27" y="226.7288">FollowingCameraModel(World, GameObjectModel)</text></g></a><!--class medipro.object.base.camera.CameraModel--><a href="..\base\camera\CameraModel.html" target="_top" title="..\base\camera\CameraModel.html" xlink:actuate="onRequest" xlink:href="..\base\camera\CameraModel.html" xlink:show="new" xlink:title="..\base\camera\CameraModel.html" xlink:type="simple"><g id="elem_medipro.object.base.camera.CameraModel"><rect codeLine="12" fill="#F1F1F1" height="40.1875" id="medipro.object.base.camera.CameraModel" rx="2.5" ry="2.5" style="stroke:#181818;stroke-width:0.5;" width="168" x="95.5" y="7"/><ellipse cx="110.5" cy="27.0938" fill="#ADD1B2" rx="11" ry="11" style="stroke:#181818;stroke-width:1.0;"/><path d="M113.2656,22.9688 Q113.4219,22.75 113.6094,22.6406 Q113.7969,22.5313 114.0156,22.5313 Q114.3906,22.5313 114.625,22.7969 Q114.8594,23.0469 114.8594,23.6563 L114.8594,25.1094 Q114.8594,25.7188 114.625,25.9844 Q114.3906,26.25 114.0156,26.25 Q113.6719,26.25 113.4688,26.0469 Q113.2656,25.8594 113.1563,25.3438 Q113.1094,24.9844 112.9219,24.7969 Q112.5938,24.4219 111.9844,24.2031 Q111.375,23.9844 110.75,23.9844 Q109.9844,23.9844 109.3438,24.3125 Q108.7188,24.6406 108.2188,25.3906 Q107.7344,26.1406 107.7344,27.1719 L107.7344,28.2656 Q107.7344,29.5 108.625,30.3281 Q109.5156,31.1406 111.1094,31.1406 Q112.0469,31.1406 112.7031,30.8906 Q113.0938,30.7344 113.5156,30.2969 Q113.7813,30.0313 113.9219,29.9531 Q114.0781,29.875 114.2813,29.875 Q114.6094,29.875 114.8594,30.1406 Q115.125,30.3906 115.125,30.7344 Q115.125,31.0781 114.7813,31.4844 Q114.2813,32.0625 113.4844,32.3906 Q112.4063,32.8438 111.1094,32.8438 Q109.5938,32.8438 108.3906,32.2188 Q107.4063,31.7188 106.7188,30.6563 Q106.0313,29.5781 106.0313,28.2969 L106.0313,27.1406 Q106.0313,25.8125 106.6406,24.6719 Q107.2656,23.5156 108.3594,22.9063 Q109.4531,22.2813 110.6875,22.2813 Q111.4219,22.2813 112.0625,22.4531 Q112.7188,22.6094 113.2656,22.9688 Z " fill="#000000"/><text fill="#000000" font-family="sans-serif" font-size="14" lengthAdjust="spacing" textLength="88" x="148.5" y="26.5332">CameraModel</text><text fill="#000000" font-family="sans-serif" font-size="10" lengthAdjust="spacing" textLength="136" x="124.5" y="39.9902">medipro.object.base.camera</text></g></a><!--reverse link medipro.object.base.camera.CameraModel to medipro.object.camera.FollowingCameraModel--><g id="link_medipro.object.base.camera.CameraModel_medipro.object.camera.FollowingCameraModel"><path codeLine="14" d="M179.5,65.46 C179.5,80.89 179.5,85.4 179.5,106.89 " fill="none" id="medipro.object.base.camera.CameraModel-backto-medipro.object.camera.FollowingCameraModel" style="stroke:#181818;stroke-width:1.0;"/><polygon fill="none" points="179.5,47.46,173.5,65.46,185.5,65.46,179.5,47.46" style="stroke:#181818;stroke-width:1.0;"/></g><text fill="#888888" font-family="sans-serif" font-size="10" lengthAdjust="spacing" textLength="184" x="80.5" y="250.1859">UMLDoclet 2.1.1, PlantUML 1.2023.12</text><!--SRC=[bP9TIyCm58Rl_HM7WR3X5gnuLKfl9dhZc22YikuYRSxQI9fJagZuzTzDqu7Q5Tbo4tYVyvNt1030eWFDQxGDB_0M6swu8mEQD1vv39KK25WtxWqs4fMmVRL6Lv6NWrueRYsC4YlVCOxEqqjIYbwbBkU-XU4B4gWolSMdQOr2DeOOvKzOE5Q4e15m2uE43PM3rMf8PfMhrNeD7s6kzfmuRafqCImR9qbpbLpvy6Le45BIdr0oifJw8GP1pxd2FdZS1KCpZE_9A365Nfz9oFeQTcmlet9kyH-tVc7srod6iXPc7Sns_Ug6shDUyZcR7R2fxhse7HhO4BNNtUBwWWhb_-0PYrWqXHl5jVCg7B-WiNvDuyat]--></g></svg>