<?xml version="1.0" encoding="us-ascii" standalone="no"?><svg xmlns="http://www.w3.org/2000/svg" xmlns:xlink="http://www.w3.org/1999/xlink" contentStyleType="text/css" height="505px" preserveAspectRatio="none" style="width:1181px;height:505px;background:#FFFFFF;" version="1.1" viewBox="0 0 1181 505" width="1181px" zoomAndPan="magnify"><defs/><g><!--cluster medipro.object.camera--><g id="cluster_medipro.object.camera"><path d="M8.5,165.21 L170.5,165.21 A3.75,3.75 0 0 1 173,167.71 L180,188.8194 L1171.5,188.8194 A2.5,2.5 0 0 1 1174,191.3194 L1174,476.37 A2.5,2.5 0 0 1 1171.5,478.87 L8.5,478.87 A2.5,2.5 0 0 1 6,476.37 L6,167.71 A2.5,2.5 0 0 1 8.5,165.21 " fill="none" style="stroke:#000000;stroke-width:1.5;"/><line style="stroke:#000000;stroke-width:1.5;" x1="6" x2="180" y1="188.8194" y2="188.8194"/><text fill="#000000" font-family="sans-serif" font-size="14" font-weight="bold" lengthAdjust="spacing" textLength="161" x="10" y="181.7432">medipro.object.camera</text></g><!--cluster medipro.object.base.camera--><g id="cluster_medipro.object.base.camera"><path d="M330.5,6 L530.5,6 A3.75,3.75 0 0 1 533,8.5 L540,29.6094 L656.5,29.6094 A2.5,2.5 0 0 1 659,32.1094 L659,138.71 A2.5,2.5 0 0 1 656.5,141.21 L330.5,141.21 A2.5,2.5 0 0 1 328,138.71 L328,8.5 A2.5,2.5 0 0 1 330.5,6 " fill="none" style="stroke:#000000;stroke-width:1.5;"/><line style="stroke:#000000;stroke-width:1.5;" x1="328" x2="540" y1="29.6094" y2="29.6094"/><text fill="#000000" font-family="sans-serif" font-size="14" font-weight="bold" lengthAdjust="spacing" textLength="199" x="332" y="22.5332">medipro.object.base.camera</text></g><!--class FollowingCameraController--><a href="FollowingCameraController.html" target="_top" title="FollowingCameraController.html" xlink:actuate="onRequest" xlink:href="FollowingCameraController.html" xlink:show="new" xlink:title="FollowingCameraController.html" xlink:type="simple"><g id="elem_FollowingCameraController"><rect codeLine="5" fill="#F1F1F1" height="83.2188" id="FollowingCameraController" rx="2.5" ry="2.5" style="stroke:#181818;stroke-width:0.5;" width="336" x="403" y="218.82"/><ellipse cx="481.25" cy="234.82" fill="#ADD1B2" rx="11" ry="11" style="stroke:#181818;stroke-width:1.0;"/><path d="M484.0156,230.695 Q484.1719,230.4763 484.3594,230.3669 Q484.5469,230.2575 484.7656,230.2575 Q485.1406,230.2575 485.375,230.5231 Q485.6094,230.7731 485.6094,231.3825 L485.6094,232.8356 Q485.6094,233.445 485.375,233.7106 Q485.1406,233.9763 484.7656,233.9763 Q484.4219,233.9763 484.2188,233.7731 Q484.0156,233.5856 483.9063,233.07 Q483.8594,232.7106 483.6719,232.5231 Q483.3438,232.1481 482.7344,231.9294 Q482.125,231.7106 481.5,231.7106 Q480.7344,231.7106 480.0938,232.0388 Q479.4688,232.3669 478.9688,233.1169 Q478.4844,233.8669 478.4844,234.8981 L478.4844,235.9919 Q478.4844,237.2263 479.375,238.0544 Q480.2656,238.8669 481.8594,238.8669 Q482.7969,238.8669 483.4531,238.6169 Q483.8438,238.4606 484.2656,238.0231 Q484.5313,237.7575 484.6719,237.6794 Q484.8281,237.6013 485.0313,237.6013 Q485.3594,237.6013 485.6094,237.8669 Q485.875,238.1169 485.875,238.4606 Q485.875,238.8044 485.5313,239.2106 Q485.0313,239.7888 484.2344,240.1169 Q483.1563,240.57 481.8594,240.57 Q480.3438,240.57 479.1406,239.945 Q478.1563,239.445 477.4688,238.3825 Q476.7813,237.3044 476.7813,236.0231 L476.7813,234.8669 Q476.7813,233.5388 477.3906,232.3981 Q478.0156,231.2419 479.1094,230.6325 Q480.2031,230.0075 481.4375,230.0075 Q482.1719,230.0075 482.8125,230.1794 Q483.4688,230.3356 484.0156,230.695 Z " fill="#000000"/><text fill="#000000" font-family="sans-serif" font-size="14" lengthAdjust="spacing" textLength="171" x="501.75" y="240.5485">FollowingCameraController</text><line style="stroke:#181818;stroke-width:0.5;" x1="404" x2="738" y1="250.82" y2="250.82"/><line style="stroke:#181818;stroke-width:0.5;" x1="404" x2="738" y1="258.82" y2="258.82"/><ellipse cx="414" cy="273.1247" fill="#84BE84" rx="3" ry="3" style="stroke:#038048;stroke-width:1.0;"/><text fill="#000000" font-family="sans-serif" font-size="14" lengthAdjust="spacing" textLength="310" x="423" y="277.3532">FollowingCameraController(GameObjectModel...)</text><ellipse cx="414" cy="290.7341" fill="#84BE84" rx="3" ry="3" style="stroke:#038048;stroke-width:1.0;"/><text fill="#000000" font-family="sans-serif" font-size="14" lengthAdjust="spacing" textLength="256" x="423" y="294.9626">update(GameObjectModel, double): void</text></g></a><!--class FollowingCameraModel--><a href="FollowingCameraModel.html" target="_top" title="FollowingCameraModel.html" xlink:actuate="onRequest" xlink:href="FollowingCameraModel.html" xlink:show="new" xlink:title="FollowingCameraModel.html" xlink:type="simple"><g id="elem_FollowingCameraModel"><rect codeLine="10" fill="#F1F1F1" height="118.4375" id="FollowingCameraModel" rx="2.5" ry="2.5" style="stroke:#181818;stroke-width:0.5;" width="345" x="22.5" y="201.21"/><ellipse cx="117.25" cy="217.21" fill="#ADD1B2" rx="11" ry="11" style="stroke:#181818;stroke-width:1.0;"/><path d="M120.0156,213.085 Q120.1719,212.8662 120.3594,212.7569 Q120.5469,212.6475 120.7656,212.6475 Q121.1406,212.6475 121.375,212.9131 Q121.6094,213.1631 121.6094,213.7725 L121.6094,215.2256 Q121.6094,215.835 121.375,216.1006 Q121.1406,216.3662 120.7656,216.3662 Q120.4219,216.3662 120.2188,216.1631 Q120.0156,215.9756 119.9063,215.46 Q119.8594,215.1006 119.6719,214.9131 Q119.3438,214.5381 118.7344,214.3194 Q118.125,214.1006 117.5,214.1006 Q116.7344,214.1006 116.0938,214.4287 Q115.4688,214.7569 114.9688,215.5069 Q114.4844,216.2569 114.4844,217.2881 L114.4844,218.3819 Q114.4844,219.6162 115.375,220.4444 Q116.2656,221.2569 117.8594,221.2569 Q118.7969,221.2569 119.4531,221.0069 Q119.8438,220.8506 120.2656,220.4131 Q120.5313,220.1475 120.6719,220.0694 Q120.8281,219.9912 121.0313,219.9912 Q121.3594,219.9912 121.6094,220.2569 Q121.875,220.5069 121.875,220.8506 Q121.875,221.1944 121.5313,221.6006 Q121.0313,222.1787 120.2344,222.5069 Q119.1563,222.96 117.8594,222.96 Q116.3438,222.96 115.1406,222.335 Q114.1563,221.835 113.4688,220.7725 Q112.7813,219.6944 112.7813,218.4131 L112.7813,217.2569 Q112.7813,215.9287 113.3906,214.7881 Q114.0156,213.6319 115.1094,213.0225 Q116.2031,212.3975 117.4375,212.3975 Q118.1719,212.3975 118.8125,212.5694 Q119.4688,212.7256 120.0156,213.085 Z " fill="#000000"/><text fill="#000000" font-family="sans-serif" font-size="14" lengthAdjust="spacing" textLength="147" x="137.75" y="222.9385">FollowingCameraModel</text><line style="stroke:#181818;stroke-width:0.5;" x1="23.5" x2="366.5" y1="233.21" y2="233.21"/><ellipse cx="33.5" cy="247.5147" fill="none" rx="3" ry="3" style="stroke:#038048;stroke-width:1.0;"/><text fill="#000000" font-family="sans-serif" font-size="14" lengthAdjust="spacing" textLength="231" x="42.5" y="251.7432">target: Optional&lt;GameObjectModel&gt;</text><ellipse cx="33.5" cy="265.1241" fill="none" rx="3" ry="3" style="stroke:#038048;stroke-width:1.0;"/><text fill="#000000" font-family="sans-serif" font-size="14" lengthAdjust="spacing" textLength="94" x="42.5" y="269.3526">originX: double</text><ellipse cx="33.5" cy="282.7334" fill="none" rx="3" ry="3" style="stroke:#038048;stroke-width:1.0;"/><text fill="#000000" font-family="sans-serif" font-size="14" lengthAdjust="spacing" textLength="95" x="42.5" y="286.962">originY: double</text><line style="stroke:#181818;stroke-width:0.5;" x1="23.5" x2="366.5" y1="294.0381" y2="294.0381"/><ellipse cx="33.5" cy="308.3428" fill="#84BE84" rx="3" ry="3" style="stroke:#038048;stroke-width:1.0;"/><text fill="#000000" font-family="sans-serif" font-size="14" lengthAdjust="spacing" textLength="319" x="42.5" y="312.5713">FollowingCameraModel(World, GameObjectModel)</text></g></a><!--class SmoothFollowingCameraController--><a href="SmoothFollowingCameraController.html" target="_top" title="SmoothFollowingCameraController.html" xlink:actuate="onRequest" xlink:href="SmoothFollowingCameraController.html" xlink:show="new" xlink:title="SmoothFollowingCameraController.html" xlink:type="simple"><g id="elem_SmoothFollowingCameraController"><rect codeLine="17" fill="#F1F1F1" height="83.2188" id="SmoothFollowingCameraController" rx="2.5" ry="2.5" style="stroke:#181818;stroke-width:0.5;" width="384" x="774" y="218.82"/><ellipse cx="852.25" cy="234.82" fill="#ADD1B2" rx="11" ry="11" style="stroke:#181818;stroke-width:1.0;"/><path d="M855.0156,230.695 Q855.1719,230.4763 855.3594,230.3669 Q855.5469,230.2575 855.7656,230.2575 Q856.1406,230.2575 856.375,230.5231 Q856.6094,230.7731 856.6094,231.3825 L856.6094,232.8356 Q856.6094,233.445 856.375,233.7106 Q856.1406,233.9763 855.7656,233.9763 Q855.4219,233.9763 855.2188,233.7731 Q855.0156,233.5856 854.9063,233.07 Q854.8594,232.7106 854.6719,232.5231 Q854.3438,232.1481 853.7344,231.9294 Q853.125,231.7106 852.5,231.7106 Q851.7344,231.7106 851.0938,232.0388 Q850.4688,232.3669 849.9688,233.1169 Q849.4844,233.8669 849.4844,234.8981 L849.4844,235.9919 Q849.4844,237.2263 850.375,238.0544 Q851.2656,238.8669 852.8594,238.8669 Q853.7969,238.8669 854.4531,238.6169 Q854.8438,238.4606 855.2656,238.0231 Q855.5313,237.7575 855.6719,237.6794 Q855.8281,237.6013 856.0313,237.6013 Q856.3594,237.6013 856.6094,237.8669 Q856.875,238.1169 856.875,238.4606 Q856.875,238.8044 856.5313,239.2106 Q856.0313,239.7888 855.2344,240.1169 Q854.1563,240.57 852.8594,240.57 Q851.3438,240.57 850.1406,239.945 Q849.1563,239.445 848.4688,238.3825 Q847.7813,237.3044 847.7813,236.0231 L847.7813,234.8669 Q847.7813,233.5388 848.3906,232.3981 Q849.0156,231.2419 850.1094,230.6325 Q851.2031,230.0075 852.4375,230.0075 Q853.1719,230.0075 853.8125,230.1794 Q854.4688,230.3356 855.0156,230.695 Z " fill="#000000"/><text fill="#000000" font-family="sans-serif" font-size="14" lengthAdjust="spacing" textLength="219" x="872.75" y="240.5485">SmoothFollowingCameraController</text><line style="stroke:#181818;stroke-width:0.5;" x1="775" x2="1157" y1="250.82" y2="250.82"/><line style="stroke:#181818;stroke-width:0.5;" x1="775" x2="1157" y1="258.82" y2="258.82"/><ellipse cx="785" cy="273.1247" fill="#84BE84" rx="3" ry="3" style="stroke:#038048;stroke-width:1.0;"/><text fill="#000000" font-family="sans-serif" font-size="14" lengthAdjust="spacing" textLength="358" x="794" y="277.3532">SmoothFollowingCameraController(GameObjectModel...)</text><ellipse cx="785" cy="290.7341" fill="#84BE84" rx="3" ry="3" style="stroke:#038048;stroke-width:1.0;"/><text fill="#000000" font-family="sans-serif" font-size="14" lengthAdjust="spacing" textLength="256" x="794" y="294.9626">update(GameObjectModel, double): void</text></g></a><!--class SmoothFollowingCameraModel--><a href="SmoothFollowingCameraModel.html" target="_top" title="SmoothFollowingCameraModel.html" xlink:actuate="onRequest" xlink:href="SmoothFollowingCameraModel.html" xlink:show="new" xlink:title="SmoothFollowingCameraModel.html" xlink:type="simple"><g id="elem_SmoothFollowingCameraModel"><rect codeLine="22" fill="#F1F1F1" height="83.2188" id="SmoothFollowingCameraModel" rx="2.5" ry="2.5" style="stroke:#181818;stroke-width:0.5;" width="393" x="21.5" y="379.65"/><ellipse cx="116.25" cy="395.65" fill="#ADD1B2" rx="11" ry="11" style="stroke:#181818;stroke-width:1.0;"/><path d="M119.0156,391.525 Q119.1719,391.3063 119.3594,391.1969 Q119.5469,391.0875 119.7656,391.0875 Q120.1406,391.0875 120.375,391.3531 Q120.6094,391.6031 120.6094,392.2125 L120.6094,393.6656 Q120.6094,394.275 120.375,394.5406 Q120.1406,394.8063 119.7656,394.8063 Q119.4219,394.8063 119.2188,394.6031 Q119.0156,394.4156 118.9063,393.9 Q118.8594,393.5406 118.6719,393.3531 Q118.3438,392.9781 117.7344,392.7594 Q117.125,392.5406 116.5,392.5406 Q115.7344,392.5406 115.0938,392.8688 Q114.4688,393.1969 113.9688,393.9469 Q113.4844,394.6969 113.4844,395.7281 L113.4844,396.8219 Q113.4844,398.0563 114.375,398.8844 Q115.2656,399.6969 116.8594,399.6969 Q117.7969,399.6969 118.4531,399.4469 Q118.8438,399.2906 119.2656,398.8531 Q119.5313,398.5875 119.6719,398.5094 Q119.8281,398.4313 120.0313,398.4313 Q120.3594,398.4313 120.6094,398.6969 Q120.875,398.9469 120.875,399.2906 Q120.875,399.6344 120.5313,400.0406 Q120.0313,400.6188 119.2344,400.9469 Q118.1563,401.4 116.8594,401.4 Q115.3438,401.4 114.1406,400.775 Q113.1563,400.275 112.4688,399.2125 Q111.7813,398.1344 111.7813,396.8531 L111.7813,395.6969 Q111.7813,394.3688 112.3906,393.2281 Q113.0156,392.0719 114.1094,391.4625 Q115.2031,390.8375 116.4375,390.8375 Q117.1719,390.8375 117.8125,391.0094 Q118.4688,391.1656 119.0156,391.525 Z " fill="#000000"/><text fill="#000000" font-family="sans-serif" font-size="14" lengthAdjust="spacing" textLength="195" x="136.75" y="401.3785">SmoothFollowingCameraModel</text><line style="stroke:#181818;stroke-width:0.5;" x1="22.5" x2="413.5" y1="411.65" y2="411.65"/><ellipse cx="32.5" cy="425.9547" fill="none" rx="3" ry="3" style="stroke:#038048;stroke-width:1.0;"/><text fill="#000000" font-family="sans-serif" font-size="14" lengthAdjust="spacing" textLength="148" x="41.5" y="430.1832">followingSpeed: Double</text><line style="stroke:#181818;stroke-width:0.5;" x1="22.5" x2="413.5" y1="437.2594" y2="437.2594"/><ellipse cx="32.5" cy="451.5641" fill="#84BE84" rx="3" ry="3" style="stroke:#038048;stroke-width:1.0;"/><text fill="#000000" font-family="sans-serif" font-size="14" lengthAdjust="spacing" textLength="367" x="41.5" y="455.7926">SmoothFollowingCameraModel(World, GameObjectModel)</text></g></a><!--class CameraController--><a href="..\base\camera\CameraController.html" target="_top" title="..\base\camera\CameraController.html" xlink:actuate="onRequest" xlink:href="..\base\camera\CameraController.html" xlink:show="new" xlink:title="..\base\camera\CameraController.html" xlink:type="simple"><g id="elem_CameraController"><rect codeLine="30" fill="#F1F1F1" height="48" id="CameraController" rx="2.5" ry="2.5" style="stroke:#181818;stroke-width:0.5;" width="144" x="499" y="59.6"/><ellipse cx="514" cy="75.6" fill="#ADD1B2" rx="11" ry="11" style="stroke:#181818;stroke-width:1.0;"/><path d="M516.7656,71.475 Q516.9219,71.2563 517.1094,71.1469 Q517.2969,71.0375 517.5156,71.0375 Q517.8906,71.0375 518.125,71.3031 Q518.3594,71.5531 518.3594,72.1625 L518.3594,73.6156 Q518.3594,74.225 518.125,74.4906 Q517.8906,74.7563 517.5156,74.7563 Q517.1719,74.7563 516.9688,74.5531 Q516.7656,74.3656 516.6563,73.85 Q516.6094,73.4906 516.4219,73.3031 Q516.0938,72.9281 515.4844,72.7094 Q514.875,72.4906 514.25,72.4906 Q513.4844,72.4906 512.8438,72.8188 Q512.2188,73.1469 511.7188,73.8969 Q511.2344,74.6469 511.2344,75.6781 L511.2344,76.7719 Q511.2344,78.0063 512.125,78.8344 Q513.0156,79.6469 514.6094,79.6469 Q515.5469,79.6469 516.2031,79.3969 Q516.5938,79.2406 517.0156,78.8031 Q517.2813,78.5375 517.4219,78.4594 Q517.5781,78.3813 517.7813,78.3813 Q518.1094,78.3813 518.3594,78.6469 Q518.625,78.8969 518.625,79.2406 Q518.625,79.5844 518.2813,79.9906 Q517.7813,80.5688 516.9844,80.8969 Q515.9063,81.35 514.6094,81.35 Q513.0938,81.35 511.8906,80.725 Q510.9063,80.225 510.2188,79.1625 Q509.5313,78.0844 509.5313,76.8031 L509.5313,75.6469 Q509.5313,74.3188 510.1406,73.1781 Q510.7656,72.0219 511.8594,71.4125 Q512.9531,70.7875 514.1875,70.7875 Q514.9219,70.7875 515.5625,70.9594 Q516.2188,71.1156 516.7656,71.475 Z " fill="#000000"/><text fill="#000000" font-family="sans-serif" font-size="14" lengthAdjust="spacing" textLength="112" x="528" y="81.3285">CameraController</text><line style="stroke:#181818;stroke-width:0.5;" x1="500" x2="642" y1="91.6" y2="91.6"/><line style="stroke:#181818;stroke-width:0.5;" x1="500" x2="642" y1="99.6" y2="99.6"/></g></a><!--class CameraModel--><a href="..\base\camera\CameraModel.html" target="_top" title="..\base\camera\CameraModel.html" xlink:actuate="onRequest" xlink:href="..\base\camera\CameraModel.html" xlink:show="new" xlink:title="..\base\camera\CameraModel.html" xlink:type="simple"><g id="elem_CameraModel"><rect codeLine="31" fill="#F1F1F1" height="83.2188" id="CameraModel" rx="2.5" ry="2.5" style="stroke:#181818;stroke-width:0.5;" width="120" x="344" y="42"/><ellipse cx="359" cy="58" fill="#ADD1B2" rx="11" ry="11" style="stroke:#181818;stroke-width:1.0;"/><path d="M361.7656,53.875 Q361.9219,53.6563 362.1094,53.5469 Q362.2969,53.4375 362.5156,53.4375 Q362.8906,53.4375 363.125,53.7031 Q363.3594,53.9531 363.3594,54.5625 L363.3594,56.0156 Q363.3594,56.625 363.125,56.8906 Q362.8906,57.1563 362.5156,57.1563 Q362.1719,57.1563 361.9688,56.9531 Q361.7656,56.7656 361.6563,56.25 Q361.6094,55.8906 361.4219,55.7031 Q361.0938,55.3281 360.4844,55.1094 Q359.875,54.8906 359.25,54.8906 Q358.4844,54.8906 357.8438,55.2188 Q357.2188,55.5469 356.7188,56.2969 Q356.2344,57.0469 356.2344,58.0781 L356.2344,59.1719 Q356.2344,60.4063 357.125,61.2344 Q358.0156,62.0469 359.6094,62.0469 Q360.5469,62.0469 361.2031,61.7969 Q361.5938,61.6406 362.0156,61.2031 Q362.2813,60.9375 362.4219,60.8594 Q362.5781,60.7813 362.7813,60.7813 Q363.1094,60.7813 363.3594,61.0469 Q363.625,61.2969 363.625,61.6406 Q363.625,61.9844 363.2813,62.3906 Q362.7813,62.9688 361.9844,63.2969 Q360.9063,63.75 359.6094,63.75 Q358.0938,63.75 356.8906,63.125 Q355.9063,62.625 355.2188,61.5625 Q354.5313,60.4844 354.5313,59.2031 L354.5313,58.0469 Q354.5313,56.7188 355.1406,55.5781 Q355.7656,54.4219 356.8594,53.8125 Q357.9531,53.1875 359.1875,53.1875 Q359.9219,53.1875 360.5625,53.3594 Q361.2188,53.5156 361.7656,53.875 Z " fill="#000000"/><text fill="#000000" font-family="sans-serif" font-size="14" lengthAdjust="spacing" textLength="88" x="373" y="63.7285">CameraModel</text><line style="stroke:#181818;stroke-width:0.5;" x1="345" x2="463" y1="74" y2="74"/><ellipse cx="355" cy="88.3047" fill="none" rx="3" ry="3" style="stroke:#038048;stroke-width:1.0;"/><text fill="#000000" font-family="sans-serif" font-size="14" lengthAdjust="spacing" textLength="84" x="364" y="92.5332">scale: double</text><rect fill="none" height="6" style="stroke:#C82930;stroke-width:1.0;" width="6" x="352" y="102.9141"/><text fill="#000000" font-family="sans-serif" font-size="14" lengthAdjust="spacing" textLength="47" x="364" y="110.1426">ubo: int</text><line style="stroke:#181818;stroke-width:0.5;" x1="345" x2="463" y1="117.2188" y2="117.2188"/></g></a><!--reverse link CameraController to FollowingCameraController--><g id="link_CameraController_FollowingCameraController"><path codeLine="37" d="M571,125.82 C571,153.96 571,183.9 571,218.34 " fill="none" id="CameraController-backto-FollowingCameraController" style="stroke:#181818;stroke-width:1.0;"/><polygon fill="none" points="571,107.82,565,125.82,577,125.82,571,107.82" style="stroke:#181818;stroke-width:1.0;"/></g><!--reverse link CameraModel to FollowingCameraModel--><g id="link_CameraModel_FollowingCameraModel"><path codeLine="38" d="M341.1936,137.1392 C314.4036,159.5492 294.58,176.14 265.06,200.82 " fill="none" id="CameraModel-backto-FollowingCameraModel" style="stroke:#181818;stroke-width:1.0;"/><polygon fill="none" points="355,125.59,337.3439,132.537,345.0433,141.7413,355,125.59" style="stroke:#181818;stroke-width:1.0;"/></g><!--reverse link CameraController to SmoothFollowingCameraController--><g id="link_CameraController_SmoothFollowingCameraController"><path codeLine="39" d="M651.6511,114.3744 C687.8011,128.0144 716.85,139.59 757,157.21 C800.28,176.2 847.65,199.19 886.34,218.55 " fill="none" id="CameraController-backto-SmoothFollowingCameraController" style="stroke:#181818;stroke-width:1.0;"/><polygon fill="none" points="634.81,108.02,649.5329,119.9881,653.7692,108.7607,634.81,108.02" style="stroke:#181818;stroke-width:1.0;"/></g><!--reverse link FollowingCameraModel to SmoothFollowingCameraModel--><g id="link_FollowingCameraModel_SmoothFollowingCameraModel"><path codeLine="40" d="M206.0786,337.9343 C208.9186,357.5543 209.44,361.17 212.05,379.16 " fill="none" id="FollowingCameraModel-backto-SmoothFollowingCameraModel" style="stroke:#181818;stroke-width:1.0;"/><polygon fill="none" points="203.5,320.12,200.1405,338.7939,212.0167,337.0748,203.5,320.12" style="stroke:#181818;stroke-width:1.0;"/></g><text fill="#888888" font-family="sans-serif" font-size="10" lengthAdjust="spacing" textLength="184" x="491.5" y="495.2509">UMLDoclet 2.1.1, PlantUML 1.2023.12</text><!--SRC=[jLN1Qi904Btx5NCf6AeBzhX8BqfxgLYGqXRri4d6c7QJ2PlL7bh_lMjIgyRTHA4DXC3CUpFpzkrk001orERDX1AQ573UQfaWP29u5n52Wc6SAMBals6WMI0IL08-Iz3s2QJ8SxWZAUaZJgD10HXGgfK9eOBfr9bZIvt8-TnKWuFdsebltvl0k1XaH25AnfXtJ5rbeT1OnNKWf9KlqUEmfZZyfMmQL1JaKm5bR_liMgW8DOTnfcDAXUnNHhazXfEAepXzuJy3sfAlzgHjflOpAHbseDBJSmkU94HwMMTU0yAn30siVpVIsdzdfplfKBFOGISPOiXXQF73NVHSLpQr1yyNEUvFtx5QYssCpRQCMScOEMoprjajaxL4tJBbWP1etQtTbKySubGVQ3wGx9RA-Ocs_bUtQx-LE7Tkk3FRbD8lw50G_bP3mz6nDQiRxl9UUqq1fjfCkp0WytaQFGmfaEPlSSDwhDU1HobIRQ9mjKQLc-kkxNq3]--></g></svg>