<?xml version="1.0" encoding="us-ascii" standalone="no"?><svg xmlns="http://www.w3.org/2000/svg" xmlns:xlink="http://www.w3.org/1999/xlink" contentStyleType="text/css" height="217px" preserveAspectRatio="none" style="width:398px;height:217px;background:#FFFFFF;" version="1.1" viewBox="0 0 398 217" width="398px" zoomAndPan="magnify"><defs/><g><!--class medipro.object.camera.SmoothFollowingCameraController--><a href="SmoothFollowingCameraController.html" target="_top" title="SmoothFollowingCameraController.html" xlink:actuate="onRequest" xlink:href="SmoothFollowingCameraController.html" xlink:show="new" xlink:title="SmoothFollowingCameraController.html" xlink:type="simple"><g id="elem_medipro.object.camera.SmoothFollowingCameraController"><rect codeLine="5" fill="#F1F1F1" height="83.4063" id="medipro.object.camera.SmoothFollowingCameraController" rx="2.5" ry="2.5" style="stroke:#181818;stroke-width:0.5;" width="384" x="7" y="107.18"/><ellipse cx="85.25" cy="127.2738" fill="#ADD1B2" rx="11" ry="11" style="stroke:#181818;stroke-width:1.0;"/><path d="M88.0156,123.1488 Q88.1719,122.93 88.3594,122.8206 Q88.5469,122.7113 88.7656,122.7113 Q89.1406,122.7113 89.375,122.9769 Q89.6094,123.2269 89.6094,123.8363 L89.6094,125.2894 Q89.6094,125.8988 89.375,126.1644 Q89.1406,126.43 88.7656,126.43 Q88.4219,126.43 88.2188,126.2269 Q88.0156,126.0394 87.9063,125.5238 Q87.8594,125.1644 87.6719,124.9769 Q87.3438,124.6019 86.7344,124.3831 Q86.125,124.1644 85.5,124.1644 Q84.7344,124.1644 84.0938,124.4925 Q83.4688,124.8206 82.9688,125.5706 Q82.4844,126.3206 82.4844,127.3519 L82.4844,128.4456 Q82.4844,129.68 83.375,130.5081 Q84.2656,131.3206 85.8594,131.3206 Q86.7969,131.3206 87.4531,131.0706 Q87.8438,130.9144 88.2656,130.4769 Q88.5313,130.2113 88.6719,130.1331 Q88.8281,130.055 89.0313,130.055 Q89.3594,130.055 89.6094,130.3206 Q89.875,130.5706 89.875,130.9144 Q89.875,131.2581 89.5313,131.6644 Q89.0313,132.2425 88.2344,132.5706 Q87.1563,133.0238 85.8594,133.0238 Q84.3438,133.0238 83.1406,132.3988 Q82.1563,131.8988 81.4688,130.8363 Q80.7813,129.7581 80.7813,128.4769 L80.7813,127.3206 Q80.7813,125.9925 81.3906,124.8519 Q82.0156,123.6956 83.1094,123.0863 Q84.2031,122.4613 85.4375,122.4613 Q86.1719,122.4613 86.8125,122.6331 Q87.4688,122.7894 88.0156,123.1488 Z " fill="#000000"/><text fill="#000000" font-family="sans-serif" font-size="14" lengthAdjust="spacing" textLength="219" x="105.75" y="126.7132">SmoothFollowingCameraController</text><text fill="#000000" font-family="sans-serif" font-size="10" lengthAdjust="spacing" textLength="111" x="159.75" y="140.1702">medipro.object.camera</text><line style="stroke:#181818;stroke-width:0.5;" x1="8" x2="390" y1="147.3675" y2="147.3675"/><ellipse cx="18" cy="161.6722" fill="#84BE84" rx="3" ry="3" style="stroke:#038048;stroke-width:1.0;"/><text fill="#000000" font-family="sans-serif" font-size="14" lengthAdjust="spacing" textLength="358" x="27" y="165.9007">SmoothFollowingCameraController(GameObjectModel...)</text><ellipse cx="18" cy="179.2816" fill="#84BE84" rx="3" ry="3" style="stroke:#038048;stroke-width:1.0;"/><text fill="#000000" font-family="sans-serif" font-size="14" lengthAdjust="spacing" textLength="256" x="27" y="183.5101">update(GameObjectModel, double): void</text></g></a><!--class medipro.object.base.camera.CameraController--><a href="..\base\camera\CameraController.html" target="_top" title="..\base\camera\CameraController.html" xlink:actuate="onRequest" xlink:href="..\base\camera\CameraController.html" xlink:show="new" xlink:title="..\base\camera\CameraController.html" xlink:type="simple"><g id="elem_medipro.object.base.camera.CameraController"><rect codeLine="10" fill="#F1F1F1" height="40.1875" id="medipro.object.base.camera.CameraController" rx="2.5" ry="2.5" style="stroke:#181818;stroke-width:0.5;" width="168" x="115" y="7"/><ellipse cx="130" cy="27.0938" fill="#ADD1B2" rx="11" ry="11" style="stroke:#181818;stroke-width:1.0;"/><path d="M132.7656,22.9688 Q132.9219,22.75 133.1094,22.6406 Q133.2969,22.5313 133.5156,22.5313 Q133.8906,22.5313 134.125,22.7969 Q134.3594,23.0469 134.3594,23.6563 L134.3594,25.1094 Q134.3594,25.7188 134.125,25.9844 Q133.8906,26.25 133.5156,26.25 Q133.1719,26.25 132.9688,26.0469 Q132.7656,25.8594 132.6563,25.3438 Q132.6094,24.9844 132.4219,24.7969 Q132.0938,24.4219 131.4844,24.2031 Q130.875,23.9844 130.25,23.9844 Q129.4844,23.9844 128.8438,24.3125 Q128.2188,24.6406 127.7188,25.3906 Q127.2344,26.1406 127.2344,27.1719 L127.2344,28.2656 Q127.2344,29.5 128.125,30.3281 Q129.0156,31.1406 130.6094,31.1406 Q131.5469,31.1406 132.2031,30.8906 Q132.5938,30.7344 133.0156,30.2969 Q133.2813,30.0313 133.4219,29.9531 Q133.5781,29.875 133.7813,29.875 Q134.1094,29.875 134.3594,30.1406 Q134.625,30.3906 134.625,30.7344 Q134.625,31.0781 134.2813,31.4844 Q133.7813,32.0625 132.9844,32.3906 Q131.9063,32.8438 130.6094,32.8438 Q129.0938,32.8438 127.8906,32.2188 Q126.9063,31.7188 126.2188,30.6563 Q125.5313,29.5781 125.5313,28.2969 L125.5313,27.1406 Q125.5313,25.8125 126.1406,24.6719 Q126.7656,23.5156 127.8594,22.9063 Q128.9531,22.2813 130.1875,22.2813 Q130.9219,22.2813 131.5625,22.4531 Q132.2188,22.6094 132.7656,22.9688 Z " fill="#000000"/><text fill="#000000" font-family="sans-serif" font-size="14" lengthAdjust="spacing" textLength="112" x="156" y="26.5332">CameraController</text><text fill="#000000" font-family="sans-serif" font-size="10" lengthAdjust="spacing" textLength="136" x="144" y="39.9902">medipro.object.base.camera</text></g></a><!--reverse link medipro.object.base.camera.CameraController to medipro.object.camera.SmoothFollowingCameraController--><g id="link_medipro.object.base.camera.CameraController_medipro.object.camera.SmoothFollowingCameraController"><path codeLine="12" d="M199,65.6 C199,81.65 199,86.93 199,107.02 " fill="none" id="medipro.object.base.camera.CameraController-backto-medipro.object.camera.SmoothFollowingCameraController" style="stroke:#181818;stroke-width:1.0;"/><polygon fill="none" points="199,47.6,193,65.6,205,65.6,199,47.6" style="stroke:#181818;stroke-width:1.0;"/></g><text fill="#888888" font-family="sans-serif" font-size="10" lengthAdjust="spacing" textLength="184" x="100" y="206.9671">UMLDoclet 2.1.1, PlantUML 1.2023.12</text><!--SRC=[dP9BImCn58Nt_efBGUXWUt74LIdTL7HZKIYkEbraabidakGEILhnzTzDPmIbZ8wQJU2Sxpuu2G10e0XEM0graBIaMdWHsODZHqV9Xaeh0h9rV8AD9gF2eMefLfpaHfT6X023QT3FDCdFPqlB7AjBDeOVjRkVfq5UpDb5doJoXViWJsUMbAuz8vSF92FAXXo02D3fO4zdMArw2AoYDUirl3IBxyz9JyNmAWatpHOBLcGGCViitjPAH3faHg1uMnhA9h1ZhHhyhJkhtuTJYa0_9FJ5nevS48izKRH4yKqkxOv_wJnz7O__zrXj7EHYwh99PBhk5jSNB4twd6UOOpw2MoDSJ2eSxyW7pMwOlGC0]--></g></svg>