<?xml version="1.0" encoding="us-ascii" standalone="no"?><svg xmlns="http://www.w3.org/2000/svg" xmlns:xlink="http://www.w3.org/1999/xlink" contentStyleType="text/css" height="225px" preserveAspectRatio="none" style="width:407px;height:225px;background:#FFFFFF;" version="1.1" viewBox="0 0 407 225" width="407px" zoomAndPan="magnify"><defs/><g><!--class medipro.object.camera.SmoothFollowingCameraModel--><a href="SmoothFollowingCameraModel.html" target="_top" title="SmoothFollowingCameraModel.html" xlink:actuate="onRequest" xlink:href="SmoothFollowingCameraModel.html" xlink:show="new" xlink:title="SmoothFollowingCameraModel.html" xlink:type="simple"><g id="elem_medipro.object.camera.SmoothFollowingCameraModel"><rect codeLine="5" fill="#F1F1F1" height="91.4063" id="medipro.object.camera.SmoothFollowingCameraModel" rx="2.5" ry="2.5" style="stroke:#181818;stroke-width:0.5;" width="393" x="7" y="107.18"/><ellipse cx="101.75" cy="127.2738" fill="#ADD1B2" rx="11" ry="11" style="stroke:#181818;stroke-width:1.0;"/><path d="M104.5156,123.1488 Q104.6719,122.93 104.8594,122.8206 Q105.0469,122.7113 105.2656,122.7113 Q105.6406,122.7113 105.875,122.9769 Q106.1094,123.2269 106.1094,123.8363 L106.1094,125.2894 Q106.1094,125.8988 105.875,126.1644 Q105.6406,126.43 105.2656,126.43 Q104.9219,126.43 104.7188,126.2269 Q104.5156,126.0394 104.4063,125.5238 Q104.3594,125.1644 104.1719,124.9769 Q103.8438,124.6019 103.2344,124.3831 Q102.625,124.1644 102,124.1644 Q101.2344,124.1644 100.5938,124.4925 Q99.9688,124.8206 99.4688,125.5706 Q98.9844,126.3206 98.9844,127.3519 L98.9844,128.4456 Q98.9844,129.68 99.875,130.5081 Q100.7656,131.3206 102.3594,131.3206 Q103.2969,131.3206 103.9531,131.0706 Q104.3438,130.9144 104.7656,130.4769 Q105.0313,130.2113 105.1719,130.1331 Q105.3281,130.055 105.5313,130.055 Q105.8594,130.055 106.1094,130.3206 Q106.375,130.5706 106.375,130.9144 Q106.375,131.2581 106.0313,131.6644 Q105.5313,132.2425 104.7344,132.5706 Q103.6563,133.0238 102.3594,133.0238 Q100.8438,133.0238 99.6406,132.3988 Q98.6563,131.8988 97.9688,130.8363 Q97.2813,129.7581 97.2813,128.4769 L97.2813,127.3206 Q97.2813,125.9925 97.8906,124.8519 Q98.5156,123.6956 99.6094,123.0863 Q100.7031,122.4613 101.9375,122.4613 Q102.6719,122.4613 103.3125,122.6331 Q103.9688,122.7894 104.5156,123.1488 Z " fill="#000000"/><text fill="#000000" font-family="sans-serif" font-size="14" lengthAdjust="spacing" textLength="195" x="122.25" y="126.7132">SmoothFollowingCameraModel</text><text fill="#000000" font-family="sans-serif" font-size="10" lengthAdjust="spacing" textLength="111" x="164.25" y="140.1702">medipro.object.camera</text><line style="stroke:#181818;stroke-width:0.5;" x1="8" x2="399" y1="147.3675" y2="147.3675"/><ellipse cx="18" cy="161.6722" fill="none" rx="3" ry="3" style="stroke:#038048;stroke-width:1.0;"/><text fill="#000000" font-family="sans-serif" font-size="14" lengthAdjust="spacing" textLength="148" x="27" y="165.9007">followingSpeed: Double</text><line style="stroke:#181818;stroke-width:0.5;" x1="8" x2="399" y1="172.9769" y2="172.9769"/><ellipse cx="18" cy="187.2816" fill="#84BE84" rx="3" ry="3" style="stroke:#038048;stroke-width:1.0;"/><text fill="#000000" font-family="sans-serif" font-size="14" lengthAdjust="spacing" textLength="367" x="27" y="191.5101">SmoothFollowingCameraModel(World, GameObjectModel)</text></g></a><!--class medipro.object.camera.FollowingCameraModel--><a href="FollowingCameraModel.html" target="_top" title="FollowingCameraModel.html" xlink:actuate="onRequest" xlink:href="FollowingCameraModel.html" xlink:show="new" xlink:title="FollowingCameraModel.html" xlink:type="simple"><g id="elem_medipro.object.camera.FollowingCameraModel"><rect codeLine="10" fill="#F1F1F1" height="40.1875" id="medipro.object.camera.FollowingCameraModel" rx="2.5" ry="2.5" style="stroke:#181818;stroke-width:0.5;" width="179" x="114" y="7"/><ellipse cx="129" cy="27.0938" fill="#ADD1B2" rx="11" ry="11" style="stroke:#181818;stroke-width:1.0;"/><path d="M131.7656,22.9688 Q131.9219,22.75 132.1094,22.6406 Q132.2969,22.5313 132.5156,22.5313 Q132.8906,22.5313 133.125,22.7969 Q133.3594,23.0469 133.3594,23.6563 L133.3594,25.1094 Q133.3594,25.7188 133.125,25.9844 Q132.8906,26.25 132.5156,26.25 Q132.1719,26.25 131.9688,26.0469 Q131.7656,25.8594 131.6563,25.3438 Q131.6094,24.9844 131.4219,24.7969 Q131.0938,24.4219 130.4844,24.2031 Q129.875,23.9844 129.25,23.9844 Q128.4844,23.9844 127.8438,24.3125 Q127.2188,24.6406 126.7188,25.3906 Q126.2344,26.1406 126.2344,27.1719 L126.2344,28.2656 Q126.2344,29.5 127.125,30.3281 Q128.0156,31.1406 129.6094,31.1406 Q130.5469,31.1406 131.2031,30.8906 Q131.5938,30.7344 132.0156,30.2969 Q132.2813,30.0313 132.4219,29.9531 Q132.5781,29.875 132.7813,29.875 Q133.1094,29.875 133.3594,30.1406 Q133.625,30.3906 133.625,30.7344 Q133.625,31.0781 133.2813,31.4844 Q132.7813,32.0625 131.9844,32.3906 Q130.9063,32.8438 129.6094,32.8438 Q128.0938,32.8438 126.8906,32.2188 Q125.9063,31.7188 125.2188,30.6563 Q124.5313,29.5781 124.5313,28.2969 L124.5313,27.1406 Q124.5313,25.8125 125.1406,24.6719 Q125.7656,23.5156 126.8594,22.9063 Q127.9531,22.2813 129.1875,22.2813 Q129.9219,22.2813 130.5625,22.4531 Q131.2188,22.6094 131.7656,22.9688 Z " fill="#000000"/><text fill="#000000" font-family="sans-serif" font-size="14" lengthAdjust="spacing" textLength="147" x="143" y="26.5332">FollowingCameraModel</text><text fill="#000000" font-family="sans-serif" font-size="10" lengthAdjust="spacing" textLength="111" x="161" y="39.9902">medipro.object.camera</text></g></a><!--reverse link medipro.object.camera.FollowingCameraModel to medipro.object.camera.SmoothFollowingCameraModel--><g id="link_medipro.object.camera.FollowingCameraModel_medipro.object.camera.SmoothFollowingCameraModel"><path codeLine="12" d="M203.5,65.43 C203.5,81.28 203.5,86.33 203.5,106.76 " fill="none" id="medipro.object.camera.FollowingCameraModel-backto-medipro.object.camera.SmoothFollowingCameraModel" style="stroke:#181818;stroke-width:1.0;"/><polygon fill="none" points="203.5,47.43,197.5,65.43,209.5,65.43,203.5,47.43" style="stroke:#181818;stroke-width:1.0;"/></g><text fill="#888888" font-family="sans-serif" font-size="10" lengthAdjust="spacing" textLength="184" x="104.5" y="214.9671">UMLDoclet 2.1.1, PlantUML 1.2023.12</text><!--SRC=[hL9DImCn5BpxAnw5GejjSCLJARrOz69HMCH3xI5DtdOZBtaXYOfV_zsOAWNf2WLp2SnC9lCc0G28cC19Yz5BXJLw6MJY08uT7cKQMgCHqFhq0er1ql4tQZ6rdE62Av8nGcyQpIjEghDPRPbJUy54_6pSvZnV5EI2DTAz-nQTp2ngumCBNZ-WIa8LKGzaXBsCw3Q5vRAR56soj5h1MqdwjOwR7rdj4VK4vlou9jpntMQ3EmwaHt2PeUkIhi33SlPZVnd_N4D70N-ClerrWDlqVJm- -16siwDB6A39ehpTBgxch2X_jLDHYMe4DoHToYZqdp14msum_0G0]--></g></svg>